<svg width="576" height="555" viewBox="0 0 576 555" fill="none" xmlns="http://www.w3.org/2000/svg">
<g clip-path="url(#clip0_957_354)">
<path d="M484.759 131.545H481.733V48.2236C481.733 35.4339 476.672 23.168 467.664 14.1244C458.655 5.08068 446.437 6.29051e-09 433.697 6.29051e-09H257.852C251.543 -0.000102277 245.297 1.24714 239.469 3.6705C233.641 6.09387 228.345 9.64591 223.885 14.1238C219.424 18.6017 215.885 23.9178 213.471 29.7685C211.057 35.6192 209.815 41.89 209.814 48.2228V505.328C209.814 518.117 214.875 530.383 223.884 539.427C232.893 548.471 245.111 553.551 257.851 553.551H433.694C446.434 553.551 458.653 548.471 467.661 539.427C476.67 530.383 481.731 518.117 481.731 505.328V190.854H484.757L484.759 131.545Z" fill="#3F3D56"/>
<path d="M471.88 44.9937V508.556C471.878 518.253 468.041 527.553 461.211 534.41C454.382 541.268 445.119 545.122 435.46 545.126H256.007C246.344 545.127 237.076 541.275 230.242 534.417C223.407 527.559 219.566 518.257 219.563 508.556V44.9937C219.566 35.2933 223.407 25.9912 230.241 19.1334C237.075 12.2757 246.343 8.42381 256.006 8.42505H277.774C276.705 11.0638 276.299 13.9258 276.59 16.7594C276.881 19.593 277.86 22.3115 279.443 24.6759C281.026 27.0403 283.163 28.9783 285.666 30.3194C288.169 31.6606 290.963 32.3638 293.8 32.3674H396.109C398.947 32.3638 401.74 31.6606 404.243 30.3194C406.747 28.9783 408.884 27.0403 410.466 24.6759C412.049 22.3115 413.029 19.593 413.32 16.7594C413.611 13.9258 413.204 11.0638 412.135 8.42505H435.453C445.112 8.4267 454.376 12.279 461.206 19.1351C468.037 25.9912 471.876 35.2898 471.88 44.9867V44.9937Z" fill="white"/>
<path d="M345.689 231.085C387.066 231.085 420.608 197.412 420.608 155.874C420.608 114.336 387.066 80.6626 345.689 80.6626C304.312 80.6626 270.77 114.336 270.77 155.874C270.77 197.412 304.312 231.085 345.689 231.085Z" fill="#D45659"/>
<path d="M427.398 312.011H267.933C267.15 312.01 266.4 311.698 265.846 311.142C265.293 310.586 264.981 309.833 264.98 309.047V269.337C264.981 268.551 265.293 267.798 265.846 267.242C266.4 266.686 267.15 266.374 267.933 266.373H427.398C428.181 266.374 428.931 266.686 429.485 267.242C430.038 267.798 430.35 268.551 430.351 269.337V309.048C430.35 309.834 430.038 310.587 429.485 311.143C428.931 311.698 428.181 312.011 427.398 312.012V312.011ZM267.933 267.558C267.463 267.559 267.013 267.746 266.681 268.08C266.349 268.413 266.162 268.865 266.161 269.337V309.048C266.162 309.519 266.349 309.972 266.681 310.305C267.013 310.639 267.463 310.826 267.933 310.827H427.398C427.868 310.826 428.318 310.639 428.651 310.305C428.983 309.972 429.17 309.519 429.17 309.048V269.337C429.17 268.865 428.983 268.413 428.651 268.08C428.318 267.746 427.868 267.559 427.398 267.558H267.933Z" fill="#E6E6E6"/>
<path d="M317.249 280.674C316.701 280.674 316.175 280.892 315.787 281.281C315.399 281.671 315.182 282.198 315.182 282.749C315.182 283.299 315.399 283.827 315.787 284.216C316.175 284.606 316.701 284.824 317.249 284.824H414.699C415.247 284.845 415.781 284.647 416.183 284.273C416.585 283.899 416.823 283.38 416.844 282.829C416.865 282.279 416.667 281.743 416.295 281.34C415.922 280.936 415.405 280.697 414.857 280.676C414.827 280.675 414.797 280.674 414.766 280.674L317.249 280.674Z" fill="#E6E6E6"/>
<path d="M317.249 293.123C316.701 293.123 316.175 293.341 315.787 293.731C315.399 294.12 315.182 294.648 315.182 295.198C315.182 295.748 315.399 296.276 315.787 296.666C316.175 297.055 316.701 297.273 317.249 297.273H414.699C415.247 297.294 415.781 297.096 416.183 296.722C416.585 296.348 416.823 295.829 416.844 295.279C416.865 294.729 416.667 294.193 416.295 293.789C415.922 293.385 415.405 293.146 414.857 293.125C414.827 293.124 414.797 293.123 414.766 293.124L317.249 293.123Z" fill="#E6E6E6"/>
<path d="M427.398 378.199H267.933C267.15 378.198 266.4 377.886 265.846 377.33C265.293 376.774 264.981 376.021 264.98 375.235V335.525C264.981 334.739 265.293 333.986 265.846 333.43C266.4 332.874 267.15 332.562 267.933 332.561H427.398C428.181 332.562 428.931 332.874 429.485 333.43C430.038 333.986 430.35 334.739 430.351 335.525V375.236C430.35 376.021 430.038 376.775 429.485 377.33C428.931 377.886 428.181 378.198 427.398 378.199ZM267.933 333.746C267.463 333.747 267.013 333.934 266.681 334.268C266.349 334.601 266.162 335.053 266.161 335.525V375.236C266.162 375.707 266.349 376.16 266.681 376.493C267.013 376.827 267.463 377.014 267.933 377.015H427.398C427.868 377.014 428.318 376.827 428.651 376.493C428.983 376.16 429.17 375.707 429.17 375.236V335.525C429.17 335.053 428.983 334.601 428.651 334.268C428.318 333.934 427.868 333.747 427.398 333.746H267.933Z" fill="#E6E6E6"/>
<path d="M317.249 347.077C316.701 347.077 316.175 347.295 315.787 347.685C315.399 348.074 315.182 348.602 315.182 349.152C315.182 349.702 315.399 350.23 315.787 350.619C316.175 351.009 316.701 351.227 317.249 351.227H414.699C415.239 351.224 415.757 351.009 416.141 350.627C416.525 350.246 416.746 349.728 416.754 349.186C416.763 348.643 416.56 348.119 416.188 347.725C415.817 347.331 415.306 347.098 414.766 347.077H317.249V347.077Z" fill="#E6E6E6"/>
<path d="M317.249 359.529C316.701 359.529 316.175 359.748 315.787 360.137C315.399 360.526 315.182 361.054 315.182 361.604C315.182 362.155 315.399 362.683 315.787 363.072C316.175 363.461 316.701 363.68 317.249 363.68H414.699C415.239 363.677 415.757 363.461 416.141 363.08C416.525 362.698 416.746 362.18 416.754 361.638C416.763 361.095 416.56 360.571 416.188 360.177C415.817 359.783 415.306 359.551 414.766 359.53H317.249V359.529Z" fill="#E6E6E6"/>
<path d="M427.398 444.604H267.933C267.15 444.603 266.4 444.291 265.846 443.735C265.293 443.179 264.981 442.426 264.98 441.64V401.93C264.981 401.144 265.293 400.391 265.846 399.835C266.4 399.279 267.15 398.967 267.933 398.966H427.398C428.181 398.967 428.931 399.279 429.485 399.835C430.038 400.391 430.35 401.144 430.351 401.93V441.641C430.35 442.426 430.038 443.18 429.485 443.736C428.931 444.291 428.181 444.604 427.398 444.605V444.604ZM267.933 400.151C267.463 400.151 267.013 400.339 266.681 400.672C266.349 401.006 266.162 401.458 266.161 401.93V441.641C266.162 442.112 266.349 442.564 266.681 442.898C267.013 443.231 267.463 443.419 267.933 443.419H427.398C427.868 443.419 428.318 443.231 428.651 442.898C428.983 442.564 429.17 442.112 429.17 441.641V401.93C429.17 401.458 428.983 401.006 428.651 400.672C428.318 400.339 427.868 400.151 427.398 400.151H267.933Z" fill="#E6E6E6"/>
<path d="M317.249 413.484C316.701 413.484 316.175 413.702 315.787 414.091C315.399 414.481 315.182 415.009 315.182 415.559C315.182 416.109 315.399 416.637 315.787 417.026C316.175 417.416 316.701 417.634 317.249 417.634H414.699C414.97 417.645 415.241 417.601 415.495 417.507C415.75 417.412 415.984 417.268 416.183 417.083C416.382 416.898 416.543 416.675 416.656 416.427C416.77 416.18 416.834 415.912 416.844 415.64C416.854 415.367 416.811 415.095 416.717 414.84C416.623 414.584 416.479 414.35 416.295 414.15C416.11 413.95 415.888 413.788 415.642 413.674C415.395 413.56 415.128 413.496 414.857 413.486C414.827 413.485 414.797 413.484 414.766 413.484L317.249 413.484Z" fill="#E6E6E6"/>
<path d="M317.249 425.935C316.701 425.935 316.175 426.154 315.787 426.543C315.399 426.932 315.182 427.46 315.182 428.011C315.182 428.561 315.399 429.089 315.787 429.478C316.175 429.867 316.701 430.086 317.249 430.086H414.699C414.97 430.096 415.241 430.053 415.495 429.958C415.75 429.864 415.984 429.72 416.183 429.535C416.382 429.349 416.543 429.127 416.656 428.879C416.77 428.631 416.834 428.364 416.844 428.091C416.854 427.819 416.811 427.547 416.717 427.291C416.623 427.036 416.479 426.801 416.295 426.601C416.11 426.401 415.888 426.24 415.642 426.126C415.395 426.012 415.128 425.948 414.857 425.938C414.827 425.936 414.797 425.936 414.766 425.936H317.249L317.249 425.935Z" fill="#E6E6E6"/>
<path d="M574.496 555H1.50358C0.672648 555 0 554.635 0 554.186C0 553.737 0.673424 553.372 1.50358 553.372H574.496C575.327 553.372 576 553.737 576 554.186C576 554.635 575.327 555 574.496 555Z" fill="#E6E6E6"/>
<path d="M287.827 301.399C294.677 301.399 300.23 295.825 300.23 288.948C300.23 282.072 294.677 276.497 287.827 276.497C280.978 276.497 275.425 282.072 275.425 288.948C275.425 295.825 280.978 301.399 287.827 301.399Z" fill="#D45659"/>
<path d="M281.89 286.622C281.747 286.622 281.632 287.552 281.632 288.697C281.632 289.843 281.747 290.773 281.89 290.773H294.086C294.228 290.792 294.346 289.878 294.349 288.732C294.428 288.019 294.341 287.297 294.094 286.623H281.89V286.622Z" fill="#E6E6E6"/>
<path d="M287.827 367.831C294.677 367.831 300.23 362.257 300.23 355.38C300.23 348.504 294.677 342.929 287.827 342.929C280.978 342.929 275.425 348.504 275.425 355.38C275.425 362.257 280.978 367.831 287.827 367.831Z" fill="#D45659"/>
<path d="M281.89 353.054C281.747 353.054 281.632 353.984 281.632 355.129C281.632 356.275 281.747 357.205 281.89 357.205H294.086C294.228 357.224 294.346 356.31 294.349 355.164C294.428 354.451 294.341 353.729 294.094 353.055L281.89 353.054Z" fill="#E6E6E6"/>
<path d="M287.827 434.236C294.677 434.236 300.23 428.661 300.23 421.785C300.23 414.908 294.677 409.334 287.827 409.334C280.978 409.334 275.425 414.908 275.425 421.785C275.425 428.661 280.978 434.236 287.827 434.236Z" fill="#D45659"/>
<path d="M281.89 419.459C281.747 419.459 281.632 420.388 281.632 421.534C281.632 422.68 281.747 423.61 281.89 423.61H294.086C294.228 423.628 294.346 422.715 294.349 421.569C294.428 420.856 294.341 420.134 294.094 419.46L281.89 419.459Z" fill="#E6E6E6"/>
<path d="M329.505 135.221L325.116 139.627L361.873 176.527L366.262 172.121L329.505 135.221Z" fill="white"/>
<path d="M366.262 139.627L361.873 135.221L325.117 172.121L329.505 176.527L366.262 139.627Z" fill="white"/>
</g>
<defs>
<clipPath id="clip0_957_354">
<rect width="576" height="555" fill="white"/>
</clipPath>
</defs>
</svg>
