<svg width="576" height="553" viewBox="0 0 576 553" fill="none" xmlns="http://www.w3.org/2000/svg">
<g clip-path="url(#clip0_957_357)">
<path d="M484.759 131.07H481.733V48.0498C481.733 35.3062 476.672 23.0845 467.664 14.0735C458.655 5.06238 446.437 6.26784e-09 433.697 6.26784e-09H257.852C251.543 -0.000101908 245.297 1.24264 239.469 3.65728C233.641 6.07191 228.345 9.61115 223.885 14.0729C219.424 18.5347 215.885 23.8316 213.471 29.6612C211.057 35.4909 209.815 41.739 209.814 48.049V503.507C209.814 516.25 214.875 528.472 223.884 537.483C232.893 546.494 245.111 551.557 257.851 551.557H433.694C446.434 551.557 458.653 546.494 467.661 537.483C476.67 528.472 481.731 516.25 481.731 503.507V190.166H484.757L484.759 131.07Z" fill="#3F3D56"/>
<path d="M471.88 44.8315V506.724C471.878 516.386 468.041 525.652 461.211 532.484C454.382 539.317 445.119 543.158 435.46 543.161H256.007C246.344 543.163 237.076 539.325 230.242 532.491C223.407 525.658 219.566 516.389 219.563 506.724V44.8315C219.566 35.166 223.407 25.8975 230.241 19.0645C237.075 12.2314 246.343 8.39342 256.006 8.39465H277.774C276.705 11.0239 276.299 13.8756 276.59 16.699C276.881 19.5224 277.86 22.2311 279.443 24.587C281.026 26.9428 283.163 28.8738 285.666 30.2101C288.169 31.5464 290.963 32.2472 293.8 32.2508H396.109C398.947 32.2472 401.74 31.5464 404.243 30.2101C406.747 28.8738 408.884 26.9428 410.466 24.587C412.049 22.2311 413.029 19.5224 413.32 16.699C413.611 13.8756 413.204 11.0239 412.135 8.39465H435.453C445.112 8.3963 454.376 12.2347 461.206 19.0661C468.037 25.8975 471.876 35.1626 471.88 44.8245V44.8315Z" fill="white"/>
<path d="M345.689 230.253C387.066 230.253 420.608 196.701 420.608 155.312C420.608 113.924 387.066 80.3721 345.689 80.3721C304.312 80.3721 270.77 113.924 270.77 155.312C270.77 196.701 304.312 230.253 345.689 230.253Z" fill="#D45659"/>
<path d="M427.398 310.887H267.933C267.15 310.886 266.4 310.575 265.846 310.021C265.293 309.467 264.981 308.716 264.98 307.933V268.367C264.981 267.583 265.293 266.833 265.846 266.279C266.4 265.725 267.15 265.414 267.933 265.413H427.398C428.181 265.414 428.931 265.725 429.485 266.279C430.038 266.833 430.35 267.583 430.351 268.367V307.934C430.35 308.717 430.038 309.468 429.485 310.021C428.931 310.575 428.181 310.887 427.398 310.888V310.887ZM267.933 266.594C267.463 266.594 267.013 266.781 266.681 267.114C266.349 267.446 266.162 267.897 266.161 268.367V307.934C266.162 308.404 266.349 308.855 266.681 309.187C267.013 309.519 267.463 309.706 267.933 309.706H427.398C427.868 309.706 428.318 309.519 428.651 309.187C428.983 308.855 429.17 308.404 429.17 307.934V268.367C429.17 267.897 428.983 267.446 428.651 267.114C428.318 266.781 427.868 266.594 427.398 266.594H267.933Z" fill="#E6E6E6"/>
<path d="M317.249 279.662C316.701 279.662 316.175 279.88 315.787 280.268C315.399 280.656 315.182 281.181 315.182 281.73C315.182 282.278 315.399 282.804 315.787 283.192C316.175 283.58 316.701 283.798 317.249 283.798H414.699C415.247 283.819 415.781 283.621 416.183 283.248C416.585 282.876 416.823 282.358 416.844 281.81C416.865 281.262 416.668 280.728 416.295 280.326C415.922 279.923 415.405 279.685 414.857 279.664C414.827 279.663 414.797 279.663 414.766 279.663L317.249 279.662Z" fill="#E6E6E6"/>
<path d="M317.249 292.067C316.701 292.067 316.175 292.284 315.787 292.672C315.399 293.06 315.182 293.586 315.182 294.134C315.182 294.683 315.399 295.209 315.787 295.597C316.175 295.984 316.701 296.202 317.249 296.202H414.699C415.247 296.223 415.781 296.026 416.183 295.653C416.585 295.28 416.823 294.763 416.844 294.215C416.865 293.667 416.668 293.133 416.295 292.73C415.922 292.328 415.405 292.09 414.857 292.069C414.827 292.068 414.797 292.067 414.766 292.067L317.249 292.067Z" fill="#E6E6E6"/>
<path d="M427.398 376.837H267.933C267.15 376.836 266.4 376.524 265.846 375.971C265.293 375.417 264.981 374.666 264.98 373.883V334.316C264.981 333.533 265.293 332.782 265.846 332.229C266.4 331.675 267.15 331.364 267.933 331.363H427.398C428.181 331.364 428.931 331.675 429.485 332.229C430.038 332.782 430.35 333.533 430.351 334.316V373.884C430.35 374.667 430.038 375.417 429.485 375.971C428.931 376.524 428.181 376.836 427.398 376.837ZM267.933 332.544C267.463 332.544 267.013 332.731 266.681 333.063C266.349 333.396 266.162 333.846 266.161 334.316V373.884C266.162 374.354 266.349 374.804 266.681 375.137C267.013 375.469 267.463 375.656 267.933 375.656H427.398C427.868 375.656 428.318 375.469 428.651 375.137C428.983 374.804 429.17 374.354 429.17 373.884V334.316C429.17 333.846 428.983 333.396 428.651 333.063C428.318 332.731 427.868 332.544 427.398 332.544H267.933Z" fill="#E6E6E6"/>
<path d="M317.249 345.826C316.701 345.826 316.175 346.044 315.787 346.432C315.399 346.819 315.182 347.345 315.182 347.894C315.182 348.442 315.399 348.968 315.787 349.356C316.175 349.744 316.701 349.962 317.249 349.962H414.699C415.239 349.959 415.757 349.744 416.141 349.364C416.525 348.983 416.746 348.468 416.754 347.927C416.763 347.387 416.56 346.864 416.188 346.471C415.817 346.079 415.306 345.847 414.766 345.827H317.249V345.826Z" fill="#E6E6E6"/>
<path d="M317.249 358.234C316.701 358.234 316.175 358.452 315.787 358.839C315.399 359.227 315.182 359.753 315.182 360.301C315.182 360.85 315.399 361.376 315.787 361.764C316.175 362.151 316.701 362.369 317.249 362.369H414.699C415.239 362.366 415.757 362.152 416.141 361.771C416.525 361.391 416.746 360.875 416.754 360.335C416.763 359.794 416.56 359.272 416.188 358.879C415.817 358.487 415.306 358.255 414.766 358.234H317.249V358.234Z" fill="#E6E6E6"/>
<path d="M427.398 443.002H267.933C267.15 443.001 266.4 442.69 265.846 442.136C265.293 441.582 264.981 440.831 264.98 440.048V400.482C264.981 399.698 265.293 398.948 265.846 398.394C266.4 397.84 267.15 397.529 267.933 397.528H427.398C428.181 397.529 428.931 397.84 429.485 398.394C430.038 398.948 430.35 399.698 430.351 400.482V440.049C430.35 440.832 430.038 441.583 429.485 442.136C428.931 442.69 428.181 443.002 427.398 443.003V443.002ZM267.933 398.709C267.463 398.709 267.013 398.896 266.681 399.229C266.349 399.561 266.162 400.012 266.161 400.482V440.049C266.162 440.519 266.349 440.97 266.681 441.302C267.013 441.634 267.463 441.821 267.933 441.822H427.398C427.868 441.821 428.318 441.634 428.651 441.302C428.983 440.97 429.17 440.519 429.17 440.049V400.482C429.17 400.012 428.983 399.561 428.651 399.229C428.318 398.896 427.868 398.709 427.398 398.709H267.933Z" fill="#E6E6E6"/>
<path d="M317.249 411.994C316.701 411.994 316.175 412.211 315.787 412.599C315.399 412.987 315.182 413.513 315.182 414.061C315.182 414.61 315.399 415.136 315.787 415.524C316.175 415.911 316.701 416.129 317.249 416.129H414.699C414.97 416.14 415.241 416.097 415.495 416.002C415.75 415.908 415.984 415.765 416.183 415.58C416.382 415.395 416.543 415.173 416.656 414.927C416.77 414.68 416.834 414.413 416.844 414.142C416.854 413.87 416.811 413.6 416.717 413.345C416.623 413.09 416.479 412.856 416.295 412.657C416.11 412.458 415.888 412.297 415.642 412.183C415.395 412.07 415.128 412.006 414.857 411.996C414.827 411.995 414.797 411.994 414.766 411.994L317.249 411.994Z" fill="#E6E6E6"/>
<path d="M317.249 424.4C316.701 424.4 316.175 424.618 315.787 425.006C315.399 425.394 315.182 425.92 315.182 426.468C315.182 427.017 315.399 427.543 315.787 427.93C316.175 428.318 316.701 428.536 317.249 428.536H414.699C414.97 428.546 415.241 428.503 415.495 428.409C415.75 428.315 415.984 428.171 416.183 427.987C416.382 427.802 416.543 427.58 416.656 427.333C416.77 427.087 416.834 426.82 416.844 426.549C416.854 426.277 416.811 426.006 416.717 425.752C416.623 425.497 416.479 425.263 416.295 425.064C416.11 424.865 415.888 424.704 415.642 424.59C415.395 424.477 415.128 424.413 414.857 424.403C414.827 424.402 414.797 424.401 414.766 424.401H317.249L317.249 424.4Z" fill="#E6E6E6"/>
<path d="M574.496 553H1.50358C0.672648 553 0 552.637 0 552.189C0 551.741 0.673424 551.378 1.50358 551.378H574.496C575.327 551.378 576 551.741 576 552.189C576 552.637 575.327 553 574.496 553Z" fill="#E6E6E6"/>
<path d="M287.827 300.313C294.677 300.313 300.23 294.759 300.23 287.907C300.23 281.055 294.677 275.501 287.827 275.501C280.978 275.501 275.425 281.055 275.425 287.907C275.425 294.759 280.978 300.313 287.827 300.313Z" fill="#D45659"/>
<path d="M281.89 285.59C281.747 285.59 281.632 286.515 281.632 287.657C281.632 288.799 281.747 289.725 281.89 289.725H294.086C294.228 289.744 294.346 288.834 294.349 287.692C294.428 286.981 294.341 286.262 294.094 285.59H281.89V285.59Z" fill="#E6E6E6"/>
<path d="M287.827 366.506C294.677 366.506 300.23 360.951 300.23 354.099C300.23 347.248 294.677 341.693 287.827 341.693C280.978 341.693 275.425 347.248 275.425 354.099C275.425 360.951 280.978 366.506 287.827 366.506Z" fill="#D45659"/>
<path d="M281.89 351.782C281.747 351.782 281.632 352.708 281.632 353.85C281.632 354.991 281.747 355.918 281.89 355.918H294.086C294.228 355.936 294.346 355.026 294.349 353.885C294.428 353.174 294.341 352.454 294.094 351.783L281.89 351.782Z" fill="#E6E6E6"/>
<path d="M287.827 432.671C294.677 432.671 300.23 427.117 300.23 420.265C300.23 413.413 294.677 407.859 287.827 407.859C280.978 407.859 275.425 413.413 275.425 420.265C275.425 427.117 280.978 432.671 287.827 432.671Z" fill="#D45659"/>
<path d="M281.89 417.948C281.747 417.948 281.632 418.874 281.632 420.015C281.632 421.157 281.747 422.083 281.89 422.083H294.086C294.228 422.102 294.346 421.192 294.349 420.05C294.428 419.339 294.341 418.62 294.094 417.949L281.89 417.948Z" fill="#E6E6E6"/>
<path d="M329.505 134.734L325.116 139.124L361.873 175.891L366.262 171.501L329.505 134.734Z" fill="white"/>
<path d="M366.262 139.124L361.873 134.734L325.117 171.501L329.505 175.891L366.262 139.124Z" fill="white"/>
<path d="M92.9728 551.439L92.2689 551.37C68.3861 548.906 46.7963 536.059 33.2349 516.242C29.5204 510.721 26.5157 504.753 24.2919 498.481L24.0781 497.882L24.7109 497.831C32.2661 497.223 40.0276 495.941 43.4755 495.331L21.2424 487.796L21.1049 487.136C19.7868 480.942 22.3691 474.57 27.6268 471.041C32.8987 467.343 39.8897 467.225 45.2837 470.742C47.7044 472.289 50.2363 473.82 52.6846 475.302C61.0983 480.392 69.7985 485.656 76.3214 492.858C86.2126 503.997 90.5481 519.007 88.1204 533.706L92.9728 551.439Z" fill="#F2F2F2"/>
<path d="M173.789 540.38L184.746 540.379L189.96 498.104L173.786 498.105L173.789 540.38Z" fill="#A0616A"/>
<path d="M173.403 551.813L207.1 551.812V551.386C207.099 544.141 201.227 538.268 193.984 538.268L187.828 533.597L176.344 538.268L173.402 538.268L173.403 551.813Z" fill="#2F2E41"/>
<path d="M85.9727 510.024L94.7372 516.6L124.273 485.914L111.336 476.208L85.9727 510.024Z" fill="#A0616A"/>
<path d="M78.8027 518.938L105.758 539.163L106.014 538.822C110.36 533.027 109.187 524.804 103.393 520.456L101.271 513.025L89.2823 509.869L86.9293 508.103L78.8027 518.938Z" fill="#2F2E41"/>
<path d="M122.397 341.995C122.397 341.995 123.002 358.498 123.765 371.734C123.89 373.904 118.806 376.262 118.938 378.624C119.025 380.19 119.981 381.713 120.069 383.347C120.163 385.071 118.844 386.597 118.938 388.38C119.029 390.122 120.535 392.119 120.626 393.902C121.603 413.09 125.145 436.06 121.598 442.481C119.85 445.646 97.5684 489.487 97.5684 489.487C97.5684 489.487 109.983 508.112 113.53 501.904C118.215 493.704 154.32 455.341 154.32 448.015C154.32 440.698 162.673 385.861 162.673 385.861L168.498 418.313L171.168 424.743L170.329 428.518L172.055 433.612L172.148 438.653L173.829 448.015C173.829 448.015 168.774 520.955 171.621 522.986C174.476 525.026 188.3 528.689 189.932 525.026C191.555 521.363 202.117 448.902 202.117 448.902C202.117 448.902 203.82 415.696 205.664 384.832C205.771 383.04 207.03 380.876 207.127 379.111C207.243 377.063 206.445 374.402 206.551 372.415C206.666 370.136 207.677 368.53 207.775 366.349C208.528 349.489 204.297 328.957 202.949 326.935C198.879 320.833 195.217 315.955 195.217 315.955C195.217 315.955 140.396 297.94 125.747 316.246L122.397 341.995Z" fill="#2F2E41"/>
<path d="M177.074 172.285L155.342 167.938L145.2 181.704C126.277 200.314 125.992 216.739 129.37 243.067V280.019L126.925 304.79C126.925 304.79 118.269 322.898 127.197 327.114C136.124 331.33 194.763 330.97 200.361 329.287C205.96 327.604 201.107 325.538 199.637 317.695C196.875 302.962 198.723 310.069 198.913 305.378C201.638 238.088 195.291 210.463 194.646 203.202L183.594 183.153L177.074 172.285Z" fill="#3F3D56"/>
<path d="M291.616 226.539C289.351 230.831 284.036 232.474 279.744 230.209C279.287 229.967 278.851 229.686 278.443 229.368L231.511 259.173L231.646 242.945L277.237 216.483C280.485 212.841 286.069 212.522 289.71 215.77C292.757 218.488 293.545 222.94 291.616 226.539Z" fill="#A0616A"/>
<path d="M159.915 191.078L154.572 190.511C149.635 189.999 144.791 192.114 141.81 196.083C140.668 197.589 139.848 199.313 139.4 201.148L139.397 201.163C138.057 206.688 140.159 212.479 144.731 215.857L163.186 229.466C176.137 246.968 200.477 258.581 229.027 268.014L273.406 240.448L257.709 221.434L227.27 237.75L182.023 202.718L181.997 202.697L164.776 191.6L159.915 191.078Z" fill="#3F3D56"/>
<path d="M169.73 161.611C183.727 161.611 195.073 150.263 195.073 136.264C195.073 122.265 183.727 110.916 169.73 110.916C155.734 110.916 144.388 122.265 144.388 136.264C144.388 150.263 155.734 161.611 169.73 161.611Z" fill="#A0616A"/>
<path d="M170.316 161.617C170.111 161.623 169.907 161.628 169.702 161.634C169.615 161.861 169.52 162.086 169.411 162.307L170.316 161.617Z" fill="#2F2E41"/>
<path d="M177.271 136.967C177.311 137.217 177.372 137.462 177.453 137.702C177.42 137.451 177.359 137.204 177.271 136.967Z" fill="#2F2E41"/>
<path d="M195.397 112.001C194.354 115.24 193.423 111.131 189.991 111.87C185.863 112.759 181.059 112.454 177.679 109.923C172.642 106.227 166.114 105.232 160.205 107.259C154.421 109.306 144.73 110.749 143.223 116.698C142.699 118.766 142.491 121.01 141.221 122.724C140.111 124.222 138.358 125.076 136.893 126.23C131.945 130.123 135.727 141.186 138.069 147.032C140.411 152.877 145.783 157.135 151.689 159.317C157.404 161.427 163.606 161.799 169.702 161.633C170.763 158.883 170.305 155.706 169.43 152.855C168.483 149.768 167.08 146.789 166.684 143.584C166.289 140.38 167.158 136.74 169.844 134.949C172.313 133.303 176.332 134.306 177.271 136.967C176.723 133.64 180.092 130.421 183.566 129.855C187.296 129.247 191.026 130.594 194.745 131.264C198.465 131.935 197.144 116.274 195.397 112.001Z" fill="#2F2E41"/>
<path d="M265.009 130.316C266.538 134.922 264.044 139.896 259.439 141.425C258.948 141.588 258.443 141.707 257.931 141.782L246.943 196.289L235.329 184.957L247.8 133.732C247.421 128.867 251.057 124.616 255.921 124.237C259.991 123.919 263.748 126.433 265.009 130.316Z" fill="#A0616A"/>
<path d="M148.249 200.819L144.141 204.284C140.354 207.492 138.526 212.453 139.326 217.352C139.621 219.218 140.297 221.004 141.312 222.598L141.32 222.61C144.379 227.403 150.012 229.894 155.615 228.933L178.209 225.035C199.803 227.805 225.031 218.277 251.603 204.202L262.438 153.088L237.853 151.253L228.552 184.519L171.953 192.922L171.92 192.926L151.991 197.673L148.249 200.819Z" fill="#3F3D56"/>
</g>
<defs>
<clipPath id="clip0_957_357">
<rect width="576" height="553" fill="white"/>
</clipPath>
</defs>
</svg>
