<svg width="538" height="413" viewBox="0 0 538 413" fill="none" xmlns="http://www.w3.org/2000/svg">
<g clip-path="url(#clip0_204_178)">
<path d="M490.469 360.649C492.807 360.649 494.702 358.755 494.702 356.417C494.702 354.08 492.807 352.185 490.469 352.185C488.131 352.185 486.235 354.08 486.235 356.417C486.235 358.755 488.131 360.649 490.469 360.649Z" fill="#E5E5E5"/>
<path d="M502.141 383.857H500.845V412.352H502.141V383.857Z" fill="#E5E5E5"/>
<path d="M501.493 380.11C505.258 380.11 508.309 377.059 508.309 373.295C508.309 369.532 505.258 366.48 501.493 366.48C497.729 366.48 494.677 369.532 494.677 373.295C494.677 377.059 497.729 380.11 501.493 380.11Z" fill="#E5E5E5"/>
<path d="M501.493 405.586C501.493 405.586 500.519 384.647 480.557 387.081L501.493 405.586Z" fill="#E5E5E5"/>
<path d="M398.319 249.629C397.484 249.128 396.769 248.449 396.225 247.641C395.68 246.833 395.32 245.915 395.168 244.953C395.017 243.991 395.079 243.007 395.349 242.071C395.619 241.135 396.091 240.269 396.732 239.535L388.07 152.638L402.533 153.597L406.54 239.165C407.702 240.323 408.398 241.867 408.497 243.504C408.597 245.141 408.092 246.758 407.079 248.048C406.065 249.338 404.614 250.211 402.999 250.503C401.385 250.794 399.72 250.483 398.319 249.629Z" fill="#FFB8B8"/>
<path d="M408.392 149.419L404.601 178.231L405.127 195.89L389.22 197.346L386.032 182.659L384.275 143.777C384.143 140.844 385.127 137.97 387.03 135.734C388.933 133.498 391.613 132.067 394.529 131.728C397.555 131.376 400.598 132.228 403.002 134.099C405.405 135.971 406.976 138.712 407.375 141.732L408.392 149.419Z" fill="#2F2E41"/>
<path d="M174.882 194.421H2.27712C1.6734 194.421 1.09461 194.181 0.667713 193.754C0.240821 193.327 0.000690921 192.748 0 192.145V2.2766C0.000690921 1.67302 0.240821 1.09435 0.667713 0.667553C1.09461 0.240758 1.6734 0.000689048 2.27712 0H174.882C175.486 0.000690762 176.065 0.240758 176.492 0.667553C176.918 1.09435 177.159 1.67302 177.159 2.2766V192.145C177.159 192.748 176.918 193.327 176.492 193.754C176.065 194.181 175.486 194.421 174.882 194.421Z" fill="#E5E5E5"/>
<path d="M83.8751 73.6479H21.6324C21.0891 73.6473 20.5681 73.4312 20.1839 73.0471C19.7997 72.663 19.5836 72.1422 19.583 71.599V28.7989C19.5836 28.2557 19.7997 27.7349 20.1839 27.3508C20.5681 26.9667 21.0891 26.7506 21.6324 26.75H83.8751C84.4185 26.7506 84.9394 26.9667 85.3236 27.3508C85.7078 27.7349 85.9239 28.2557 85.9245 28.7989V71.599C85.9239 72.1422 85.7078 72.663 85.3236 73.0471C84.9394 73.4312 84.4185 73.6473 83.8751 73.6479Z" fill="white"/>
<path d="M155.527 97.0969H21.6324C21.0889 97.0969 20.5676 96.881 20.1833 96.4968C19.7989 96.1125 19.583 95.5914 19.583 95.048C19.583 94.5045 19.7989 93.9834 20.1833 93.5992C20.5676 93.2149 21.0889 92.999 21.6324 92.999H155.527C156.07 92.999 156.591 93.2149 156.976 93.5992C157.36 93.9834 157.576 94.5045 157.576 95.048C157.576 95.5914 157.36 96.1125 156.976 96.4968C156.591 96.881 156.07 97.0969 155.527 97.0969Z" fill="white"/>
<path d="M123.192 111.212H21.6324C21.0889 111.212 20.5676 110.996 20.1833 110.612C19.7989 110.227 19.583 109.706 19.583 109.163C19.583 108.619 19.7989 108.098 20.1833 107.714C20.5676 107.33 21.0889 107.114 21.6324 107.114H123.192C123.735 107.114 124.256 107.33 124.641 107.714C125.025 108.098 125.241 108.619 125.241 109.163C125.241 109.706 125.025 110.227 124.641 110.612C124.256 110.996 123.735 111.212 123.192 111.212Z" fill="white"/>
<path d="M155.071 45.1907H95.8666C95.3237 45.1897 94.8033 44.9734 94.4198 44.5892C94.0362 44.2051 93.8208 43.6845 93.8208 43.1417C93.8208 42.5989 94.0362 42.0783 94.4198 41.6942C94.8033 41.31 95.3237 41.0937 95.8666 41.0928H155.071C155.615 41.0928 156.136 41.3086 156.521 41.6929C156.905 42.0771 157.121 42.5983 157.121 43.1417C157.121 43.6851 156.905 44.2063 156.521 44.5905C156.136 44.9748 155.615 45.1907 155.071 45.1907Z" fill="white"/>
<path d="M140.296 59.3054H95.8666C95.3237 59.3044 94.8033 59.0881 94.4198 58.704C94.0362 58.3199 93.8208 57.7992 93.8208 57.2565C93.8208 56.7137 94.0362 56.1931 94.4198 55.8089C94.8033 55.4248 95.3237 55.2085 95.8666 55.2075H140.296C140.839 55.2085 141.359 55.4248 141.743 55.8089C142.126 56.1931 142.342 56.7137 142.342 57.2565C142.342 57.7992 142.126 58.3199 141.743 58.704C141.359 59.0881 140.839 59.3044 140.296 59.3054Z" fill="white"/>
<path d="M155.527 125.327H21.6324C21.0889 125.327 20.5676 125.111 20.1833 124.727C19.7989 124.342 19.583 123.821 19.583 123.278C19.583 122.735 19.7989 122.213 20.1833 121.829C20.5676 121.445 21.0889 121.229 21.6324 121.229H155.527C156.07 121.229 156.591 121.445 156.976 121.829C157.36 122.213 157.576 122.735 157.576 123.278C157.576 123.821 157.36 124.342 156.976 124.727C156.591 125.111 156.07 125.327 155.527 125.327Z" fill="white"/>
<path d="M123.192 139.442H21.6327C21.0898 139.441 20.5694 139.224 20.1859 138.84C19.8023 138.456 19.5869 137.935 19.5869 137.393C19.5869 136.85 19.8023 136.329 20.1859 135.945C20.5694 135.561 21.0898 135.345 21.6327 135.344H123.192C123.735 135.344 124.257 135.56 124.641 135.944C125.025 136.328 125.241 136.849 125.241 137.393C125.241 137.936 125.025 138.457 124.641 138.842C124.257 139.226 123.735 139.442 123.192 139.442Z" fill="white"/>
<path d="M155.527 153.556H21.6327C21.0898 153.555 20.5694 153.339 20.1859 152.955C19.8023 152.571 19.5869 152.05 19.5869 151.507C19.5869 150.965 19.8023 150.444 20.1859 150.06C20.5694 149.676 21.0898 149.459 21.6327 149.458H155.527C156.07 149.459 156.59 149.676 156.974 150.06C157.357 150.444 157.573 150.965 157.573 151.507C157.573 152.05 157.357 152.571 156.974 152.955C156.59 153.339 156.07 153.555 155.527 153.556Z" fill="white"/>
<path d="M155.527 167.672H21.6324C21.0889 167.672 20.5676 167.456 20.1833 167.071C19.7989 166.687 19.583 166.166 19.583 165.623C19.583 165.079 19.7989 164.558 20.1833 164.174C20.5676 163.79 21.0889 163.574 21.6324 163.574H155.527C156.07 163.574 156.591 163.79 156.976 164.174C157.36 164.558 157.576 165.079 157.576 165.623C157.576 166.166 157.36 166.687 156.976 167.071C156.591 167.456 156.07 167.672 155.527 167.672Z" fill="white"/>
<path d="M244.193 233.926H71.5882C70.9844 233.926 70.4057 233.686 69.9788 233.259C69.5519 232.832 69.3117 232.253 69.311 231.65V41.7815C69.3117 41.1779 69.5519 40.5992 69.9788 40.1724C70.4057 39.7456 70.9844 39.5056 71.5882 39.5049H244.193C244.797 39.5056 245.376 39.7456 245.803 40.1724C246.229 40.5992 246.47 41.1779 246.47 41.7815V231.65C246.47 232.253 246.229 232.832 245.803 233.259C245.376 233.686 244.797 233.926 244.193 233.926Z" fill="white"/>
<path d="M244.193 233.926H71.5882C70.9844 233.926 70.4057 233.686 69.9788 233.259C69.5519 232.832 69.3117 232.253 69.311 231.65V41.7815C69.3117 41.1779 69.5519 40.5992 69.9788 40.1724C70.4057 39.7456 70.9844 39.5056 71.5882 39.5049H244.193C244.797 39.5056 245.376 39.7456 245.803 40.1724C246.229 40.5992 246.47 41.1779 246.47 41.7815V231.65C246.47 232.253 246.229 232.832 245.803 233.259C245.376 233.686 244.797 233.926 244.193 233.926ZM71.5882 40.4155C71.2259 40.4159 70.8786 40.5599 70.6225 40.816C70.3664 41.0721 70.2223 41.4193 70.2219 41.7815V231.65C70.2223 232.012 70.3664 232.359 70.6225 232.615C70.8786 232.871 71.2259 233.015 71.5882 233.016H244.193C244.555 233.015 244.903 232.871 245.159 232.615C245.415 232.359 245.559 232.012 245.559 231.65V41.7815C245.559 41.4193 245.415 41.0721 245.159 40.816C244.903 40.5599 244.555 40.4159 244.193 40.4155H71.5882Z" fill="#3F3D56"/>
<path d="M153.186 114.633H90.9434C90.4001 114.632 89.8792 114.416 89.495 114.032C89.1108 113.648 88.8947 113.127 88.894 112.584V69.7838C88.8947 69.2406 89.1108 68.7198 89.495 68.3357C89.8792 67.9515 90.4001 67.7355 90.9434 67.7349H153.186C153.729 67.7355 154.25 67.9515 154.635 68.3357C155.019 68.7198 155.235 69.2406 155.236 69.7838V112.584C155.235 113.127 155.019 113.648 154.635 114.032C154.25 114.416 153.729 114.632 153.186 114.633Z" fill="#AFD06E"/>
<path d="M224.838 138.082H90.9439C90.4004 138.082 89.8791 137.866 89.4948 137.482C89.1105 137.097 88.8945 136.576 88.8945 136.033C88.8945 135.489 89.1105 134.968 89.4948 134.584C89.8791 134.2 90.4004 133.984 90.9439 133.984H224.838C225.382 133.984 225.903 134.2 226.287 134.584C226.672 134.968 226.887 135.489 226.887 136.033C226.887 136.576 226.672 137.097 226.287 137.482C225.903 137.866 225.382 138.082 224.838 138.082Z" fill="#CCCCCC"/>
<path d="M192.503 152.197H90.9434C90.3999 152.197 89.8786 151.981 89.4943 151.596C89.11 151.212 88.894 150.691 88.894 150.148C88.894 149.604 89.11 149.083 89.4943 148.699C89.8786 148.315 90.3999 148.099 90.9434 148.099H192.503C193.046 148.099 193.567 148.315 193.952 148.699C194.336 149.083 194.552 149.604 194.552 150.148C194.552 150.691 194.336 151.212 193.952 151.596C193.567 151.981 193.046 152.197 192.503 152.197Z" fill="#CCCCCC"/>
<path d="M224.382 86.175H165.177C164.634 86.175 164.113 85.9591 163.728 85.5749C163.344 85.1906 163.128 84.6695 163.128 84.1261C163.128 83.5827 163.344 83.0615 163.728 82.6773C164.113 82.293 164.634 82.0771 165.177 82.0771H224.382C224.926 82.0771 225.447 82.293 225.831 82.6773C226.216 83.0615 226.432 83.5827 226.432 84.1261C226.432 84.6695 226.216 85.1906 225.831 85.5749C225.447 85.9591 224.926 86.175 224.382 86.175Z" fill="#AFD06E"/>
<path d="M209.607 100.29H165.178C164.635 100.289 164.114 100.073 163.731 99.6889C163.347 99.3047 163.132 98.7841 163.132 98.2413C163.132 97.6985 163.347 97.1779 163.731 96.7938C164.114 96.4096 164.635 96.1933 165.178 96.1924H209.607C210.15 96.1933 210.67 96.4096 211.054 96.7938C211.437 97.1779 211.653 97.6985 211.653 98.2413C211.653 98.7841 211.437 99.3047 211.054 99.6889C210.67 100.073 210.15 100.289 209.607 100.29Z" fill="#AFD06E"/>
<path d="M224.838 166.311H90.9439C90.4004 166.311 89.8791 166.095 89.4948 165.711C89.1105 165.327 88.8945 164.806 88.8945 164.262C88.8945 163.719 89.1105 163.198 89.4948 162.814C89.8791 162.429 90.4004 162.213 90.9439 162.213H224.838C225.382 162.213 225.903 162.429 226.287 162.814C226.672 163.198 226.887 163.719 226.887 164.262C226.887 164.806 226.672 165.327 226.287 165.711C225.903 166.095 225.382 166.311 224.838 166.311Z" fill="#CCCCCC"/>
<path d="M192.503 180.426H90.9437C90.4008 180.426 89.8805 180.209 89.4969 179.825C89.1134 179.441 88.8979 178.92 88.8979 178.378C88.8979 177.835 89.1134 177.314 89.4969 176.93C89.8805 176.546 90.4008 176.33 90.9437 176.329H192.503C193.046 176.329 193.568 176.544 193.952 176.929C194.336 177.313 194.552 177.834 194.552 178.378C194.552 178.921 194.336 179.442 193.952 179.826C193.568 180.211 193.046 180.426 192.503 180.426Z" fill="#CCCCCC"/>
<path d="M224.838 194.541H90.9437C90.4008 194.54 89.8805 194.324 89.4969 193.94C89.1134 193.556 88.8979 193.035 88.8979 192.492C88.8979 191.95 89.1134 191.429 89.4969 191.045C89.8805 190.661 90.4008 190.444 90.9437 190.443H224.838C225.381 190.443 225.903 190.659 226.287 191.043C226.671 191.428 226.887 191.949 226.887 192.492C226.887 193.036 226.671 193.557 226.287 193.941C225.903 194.325 225.381 194.541 224.838 194.541Z" fill="#CCCCCC"/>
<path d="M224.838 208.656H90.9439C90.4004 208.656 89.8791 208.44 89.4948 208.056C89.1105 207.672 88.8945 207.15 88.8945 206.607C88.8945 206.064 89.1105 205.542 89.4948 205.158C89.8791 204.774 90.4004 204.558 90.9439 204.558H224.838C225.382 204.558 225.903 204.774 226.287 205.158C226.672 205.542 226.887 206.064 226.887 206.607C226.887 207.15 226.672 207.672 226.287 208.056C225.903 208.44 225.382 208.656 224.838 208.656Z" fill="#CCCCCC"/>
<path d="M231.339 26.6603L230.698 32.0143C220.435 17.9182 206.219 9.32263 188.407 6.44573L192.899 3.4502L192.178 2.37256L185.707 6.69025L190.484 12.8297L191.509 12.0344L188.146 7.7152C205.655 10.5311 219.621 18.9733 229.688 32.8276L224.308 31.7798L224.061 33.0524L231.699 34.5386L232.627 26.8158L231.339 26.6603Z" fill="#3F3D56"/>
<path d="M347.475 402.935L337.825 402.934L333.235 365.724L347.477 365.725L347.475 402.935Z" fill="#FFB7B7"/>
<path d="M349.936 412.285L318.823 412.284V411.891C318.823 408.68 320.099 405.6 322.37 403.33C324.641 401.06 327.721 399.784 330.933 399.784H330.934L349.936 399.784L349.936 412.285Z" fill="#2F2E41"/>
<path d="M427.15 402.935L417.501 402.934L412.911 365.724L427.152 365.725L427.15 402.935Z" fill="#FFB7B7"/>
<path d="M429.611 412.285L398.498 412.284V411.891C398.498 408.68 399.774 405.6 402.045 403.33C404.316 401.06 407.396 399.784 410.608 399.784H410.609L429.612 399.784L429.611 412.285Z" fill="#2F2E41"/>
<path d="M394.476 117.462C405.716 114.785 412.657 103.506 409.979 92.2689C407.302 81.0319 396.02 74.0927 384.78 76.7696C373.541 79.4466 366.6 90.726 369.277 101.963C371.955 113.2 383.237 120.139 394.476 117.462Z" fill="#FFB8B8"/>
<path d="M386.925 126.523L401.443 128.182C404.973 133.187 407.263 138.961 408.122 145.025C408.98 151.09 408.385 157.271 406.383 163.06L395.428 194.743C395.428 194.743 410.635 225.223 410.635 253.521C410.635 281.82 439.596 382.83 439.596 382.83L398.831 387.082L381.044 279.476L356.532 386.648L328.549 382.094L343.961 241.58L354.146 195.331L354.58 172.777C354.58 172.777 350.249 155.853 361.087 145.017L374.319 126.583L386.925 126.523Z" fill="#2F2E41"/>
<path d="M374.251 253.141C373.367 252.542 372.625 251.757 372.078 250.841C371.53 249.924 371.19 248.899 371.082 247.837C370.974 246.775 371.1 245.702 371.451 244.694C371.802 243.687 372.37 242.768 373.115 242.003L368.806 146.417L384.572 148.326L383.867 242.181C385.07 243.517 385.74 245.247 385.751 247.044C385.762 248.841 385.114 250.58 383.929 251.931C382.743 253.282 381.103 254.151 379.32 254.374C377.536 254.597 375.733 254.158 374.251 253.141Z" fill="#FFB8B8"/>
<path d="M391.231 144.104L385.369 175.401L384.895 194.752L367.405 195.399L364.791 179.142L365.181 136.497C365.21 133.281 366.458 130.195 368.673 127.862C370.888 125.529 373.904 124.122 377.116 123.924C380.447 123.719 383.726 124.832 386.244 127.023C388.762 129.213 390.318 132.306 390.575 135.633L391.231 144.104Z" fill="#2F2E41"/>
<path d="M365.241 89.6464H395.983V76.2492C389.236 73.5691 382.633 71.2899 378.641 76.2492C375.087 76.2492 371.679 77.6607 369.166 80.1731C366.653 82.6856 365.241 86.0932 365.241 89.6464Z" fill="#2F2E41"/>
<path d="M397.685 73.8848C416.063 73.8848 421.207 96.9157 421.207 109.909C421.207 117.155 417.929 119.746 412.779 120.623L410.96 110.924L406.699 121.041C405.252 121.048 403.733 121.02 402.157 120.991L400.712 118.017L397.491 120.937C384.59 120.956 374.163 122.837 374.163 109.909C374.163 96.9157 378.674 73.8848 397.685 73.8848Z" fill="#2F2E41"/>
<path opacity="0.2" d="M370.507 201.095L369.729 167.357L367.668 152.38L362.573 167.216L370.507 201.095Z" fill="black"/>
<path d="M537.352 413H290.553C290.381 413 290.216 412.932 290.095 412.81C289.974 412.689 289.905 412.524 289.905 412.352C289.905 412.18 289.974 412.016 290.095 411.894C290.216 411.773 290.381 411.705 290.553 411.705H537.352C537.524 411.705 537.689 411.773 537.81 411.894C537.932 412.016 538 412.18 538 412.352C538 412.524 537.932 412.689 537.81 412.81C537.689 412.932 537.524 413 537.352 413Z" fill="#CBCBCB"/>
</g>
<defs>
<clipPath id="clip0_204_178">
<rect width="538" height="413" fill="white"/>
</clipPath>
</defs>
</svg>
