<svg xmlns="http://www.w3.org/2000/svg" xmlns:xlink="http://www.w3.org/1999/xlink" width="1080" zoomAndPan="magnify" viewBox="0 0 810 809.999993" height="1080" preserveAspectRatio="xMidYMid meet" version="1.0"><defs><clipPath id="8ff65c1053"><path d="M 544.21875 0 L 787.21875 0 L 787.21875 243 L 544.21875 243 Z M 544.21875 0 " clip-rule="nonzero"/></clipPath><clipPath id="37540f6c24"><path d="M 705.5625 333.46875 L 810 333.46875 L 810 576.46875 L 705.5625 576.46875 Z M 705.5625 333.46875 " clip-rule="nonzero"/></clipPath></defs><path fill="#2f2e41" d="M 236.714844 705.121094 C 236.714844 705.121094 197.511719 825.554688 204.75 841.40625 C 211.984375 857.253906 224.332031 844.90625 211.984375 857.253906 C 199.640625 869.605469 188.863281 856.476562 200.425781 877.449219 C 211.984375 898.417969 229.5 1071.050781 237.203125 1079.40625 C 244.90625 1087.761719 255.5 1087.988281 246.085938 1096.105469 C 236.675781 1104.226562 224.332031 1087.761719 236.675781 1104.226562 C 249.023438 1120.691406 281.78125 1500.515625 281.78125 1500.515625 L 345.777344 1500.515625 C 345.777344 1500.515625 361.71875 1482.140625 352.695312 1470.179688 C 343.671875 1458.21875 353.488281 1453.609375 352.695312 1445.625 C 351.902344 1437.640625 354.90625 1420.421875 355.460938 1412.566406 C 356.019531 1404.710938 366.835938 1217.550781 340.851562 1109.4375 L 388.230469 903.578125 L 445.625 1152.386719 C 445.625 1152.386719 419.226562 1361.085938 445.625 1428.175781 C 445.625 1428.175781 424.339844 1445.902344 433.78125 1456.179688 C 443.222656 1466.453125 451.453125 1458.21875 443.222656 1466.453125 C 434.992188 1474.683594 455.566406 1503.5 455.566406 1503.5 L 525.527344 1499.382812 L 565.121094 1109.4375 C 565.121094 1109.4375 571.796875 1068.769531 565.121094 1061.800781 C 558.449219 1054.832031 558.449219 1079.53125 558.449219 1054.832031 L 558.449219 1021.902344 C 558.449219 1021.902344 554.582031 819.367188 554.066406 807.441406 C 553.550781 795.511719 504.167969 709.074219 504.167969 709.074219 Z M 236.714844 705.121094 " fill-opacity="1" fill-rule="nonzero"/><path fill="#9dde89" d="M 237.300781 289.164062 L 237.300781 526.636719 C 241.132812 538.132812 244.03125 549.863281 245.996094 561.820312 C 247.957031 573.78125 248.964844 585.820312 249.011719 597.9375 C 248.757812 638.308594 239.882812 684.832031 239.910156 705.171875 C 239.792969 707.882812 240.082031 710.550781 240.78125 713.175781 C 280.074219 827.09375 488.003906 723.570312 506.90625 713.878906 C 507.804688 713.429688 508.28125 713.175781 508.28125 713.175781 L 504.179688 585.578125 L 504.882812 548.886719 L 509.742188 297.199219 L 505.386719 293.714844 L 467.246094 263.289062 L 463.511719 260.3125 L 452.050781 277.027344 L 349.898438 270.003906 L 310.914062 259.21875 L 298.753906 264.160156 L 243.929688 286.46875 Z M 237.300781 289.164062 " fill-opacity="1" fill-rule="nonzero"/><path fill="#ffb6b6" d="M 176.8125 766.960938 L 190.242188 692.753906 L 233.695312 694.511719 L 216.707031 772.464844 C 217.085938 773.144531 217.433594 773.839844 217.75 774.550781 C 218.066406 775.261719 218.347656 775.984375 218.597656 776.722656 C 218.847656 777.460938 219.058594 778.207031 219.238281 778.964844 C 219.417969 779.722656 219.5625 780.488281 219.671875 781.257812 C 219.78125 782.027344 219.855469 782.800781 219.890625 783.578125 C 219.929688 784.355469 219.929688 785.132812 219.898438 785.910156 C 219.863281 786.6875 219.792969 787.464844 219.6875 788.234375 C 219.578125 789.003906 219.4375 789.769531 219.261719 790.527344 C 219.085938 791.285156 218.875 792.035156 218.628906 792.773438 C 218.382812 793.511719 218.101562 794.234375 217.789062 794.949219 C 217.476562 795.660156 217.132812 796.359375 216.753906 797.039062 C 216.375 797.71875 215.96875 798.378906 215.53125 799.023438 C 215.089844 799.667969 214.625 800.289062 214.128906 800.886719 C 213.632812 801.488281 213.109375 802.0625 212.558594 802.613281 C 212.011719 803.164062 211.4375 803.691406 210.839844 804.1875 C 210.242188 804.6875 209.621094 805.15625 208.980469 805.597656 C 208.339844 806.039062 207.679688 806.449219 207 806.828125 C 206.320312 807.207031 205.625 807.554688 204.914062 807.871094 C 204.203125 808.1875 203.480469 808.46875 202.742188 808.71875 C 202.003906 808.964844 201.257812 809.179688 200.5 809.359375 C 199.742188 809.539062 198.980469 809.683594 198.207031 809.792969 C 197.4375 809.898438 196.664062 809.972656 195.886719 810.011719 C 195.109375 810.046875 194.332031 810.046875 193.554688 810.015625 C 192.777344 809.980469 192.003906 809.910156 191.234375 809.800781 C 190.460938 809.695312 189.699219 809.554688 188.941406 809.378906 C 188.183594 809.199219 187.433594 808.988281 186.695312 808.742188 C 185.957031 808.496094 185.234375 808.214844 184.519531 807.902344 C 183.808594 807.589844 183.113281 807.246094 182.433594 806.867188 C 181.753906 806.488281 181.089844 806.082031 180.449219 805.640625 C 179.804688 805.203125 179.183594 804.734375 178.585938 804.238281 C 177.984375 803.742188 177.410156 803.21875 176.859375 802.671875 C 176.308594 802.121094 175.785156 801.546875 175.285156 800.949219 C 174.789062 800.351562 174.320312 799.730469 173.878906 799.089844 C 173.4375 798.449219 173.027344 797.789062 172.648438 797.109375 C 172.269531 796.429688 171.921875 795.734375 171.605469 795.023438 C 171.289062 794.308594 171.007812 793.585938 170.761719 792.847656 C 170.511719 792.109375 170.300781 791.363281 170.121094 790.605469 C 169.941406 789.847656 169.796875 789.085938 169.6875 788.3125 C 169.578125 787.542969 169.507812 786.769531 169.46875 785.992188 C 169.433594 785.214844 169.433594 784.4375 169.46875 783.660156 C 169.503906 782.882812 169.574219 782.109375 169.679688 781.335938 C 169.785156 780.566406 169.929688 779.800781 170.105469 779.042969 C 170.28125 778.285156 170.496094 777.539062 170.742188 776.800781 C 170.988281 776.0625 171.265625 775.335938 171.582031 774.625 C 171.894531 773.910156 172.238281 773.214844 172.617188 772.535156 C 172.996094 771.855469 173.402344 771.191406 173.84375 770.550781 C 174.28125 769.90625 174.75 769.285156 175.246094 768.6875 C 175.742188 768.085938 176.265625 767.511719 176.8125 766.960938 Z M 176.8125 766.960938 " fill-opacity="1" fill-rule="nonzero"/><path fill="#9dde89" d="M 243.972656 288.660156 C 266.300781 294.445312 279.050781 323.394531 286.894531 345.09375 C 296.992188 372.96875 280.617188 544.828125 260.691406 569.894531 C 245.242188 589.335938 248.910156 585.601562 254.011719 601.703125 C 259.109375 617.804688 270.894531 602.097656 260.285156 626.050781 C 249.679688 650.003906 240.652344 645.683594 247.714844 655.894531 C 254.78125 666.105469 263.023438 664.929688 253.992188 680.246094 C 244.957031 695.558594 245.742188 701.054688 243.777344 706.945312 C 241.8125 712.835938 239.445312 755.25 239.445312 755.25 C 239.445312 755.25 193.511719 747.777344 169.558594 756.800781 C 169.558594 756.800781 186.058594 715.179688 179.386719 707.714844 C 172.714844 700.253906 164.078125 698.679688 171.148438 689.257812 C 178.214844 679.832031 192.351562 680.621094 177.433594 674.335938 C 162.515625 668.046875 175.101562 579.296875 175.101562 579.296875 C 158.355469 520.882812 170.023438 433.507812 186.976562 340.75 C 187.285156 339.046875 187.664062 337.363281 188.113281 335.691406 C 188.5625 334.023438 189.074219 332.375 189.65625 330.746094 C 190.238281 329.117188 190.886719 327.515625 191.597656 325.941406 C 192.308594 324.367188 193.082031 322.824219 193.921875 321.308594 C 194.757812 319.796875 195.65625 318.320312 196.613281 316.882812 C 197.570312 315.441406 198.582031 314.042969 199.652344 312.6875 C 200.722656 311.328125 201.847656 310.019531 203.023438 308.753906 C 204.203125 307.488281 205.429688 306.269531 206.703125 305.105469 C 207.980469 303.9375 209.300781 302.828125 210.667969 301.769531 C 212.035156 300.707031 213.441406 299.707031 214.890625 298.761719 C 216.335938 297.820312 217.820312 296.933594 219.339844 296.109375 C 220.859375 295.285156 222.410156 294.527344 223.992188 293.828125 C 225.574219 293.128906 227.179688 292.496094 228.8125 291.929688 C 230.445312 291.363281 232.097656 290.863281 233.769531 290.429688 C 235.445312 289.996094 237.132812 289.632812 238.835938 289.335938 C 240.539062 289.042969 242.25 288.816406 243.972656 288.660156 Z M 243.972656 288.660156 " fill-opacity="1" fill-rule="nonzero"/><path fill="#ffb6b6" d="M 533.765625 762.035156 L 537.011719 686.6875 L 580.300781 682.539062 L 574.035156 762.074219 C 574.503906 762.695312 574.941406 763.339844 575.351562 764 C 575.761719 764.664062 576.140625 765.34375 576.484375 766.039062 C 576.832031 766.734375 577.144531 767.449219 577.425781 768.171875 C 577.707031 768.898438 577.953125 769.636719 578.164062 770.386719 C 578.378906 771.132812 578.554688 771.890625 578.699219 772.65625 C 578.839844 773.421875 578.945312 774.191406 579.019531 774.964844 C 579.089844 775.742188 579.125 776.519531 579.125 777.296875 C 579.125 778.074219 579.085938 778.851562 579.015625 779.625 C 578.941406 780.402344 578.835938 781.171875 578.691406 781.933594 C 578.546875 782.699219 578.367188 783.457031 578.15625 784.207031 C 577.941406 784.953125 577.695312 785.691406 577.410156 786.417969 C 577.128906 787.140625 576.816406 787.851562 576.46875 788.550781 C 576.121094 789.246094 575.742188 789.925781 575.332031 790.585938 C 574.921875 791.246094 574.480469 791.886719 574.011719 792.507812 C 573.542969 793.128906 573.046875 793.726562 572.523438 794.300781 C 571.996094 794.875 571.445312 795.425781 570.871094 795.949219 C 570.296875 796.472656 569.699219 796.96875 569.074219 797.4375 C 568.453125 797.90625 567.8125 798.34375 567.152344 798.753906 C 566.488281 799.164062 565.808594 799.542969 565.113281 799.886719 C 564.417969 800.234375 563.703125 800.546875 562.980469 800.828125 C 562.253906 801.109375 561.515625 801.355469 560.765625 801.566406 C 560.019531 801.777344 559.261719 801.957031 558.496094 802.097656 C 557.730469 802.238281 556.960938 802.347656 556.1875 802.417969 C 555.414062 802.488281 554.636719 802.523438 553.859375 802.523438 C 553.078125 802.523438 552.304688 802.484375 551.527344 802.414062 C 550.753906 802.339844 549.984375 802.230469 549.21875 802.089844 C 548.453125 801.945312 547.699219 801.765625 546.949219 801.550781 C 546.203125 801.335938 545.464844 801.089844 544.738281 800.808594 C 544.015625 800.527344 543.304688 800.210938 542.609375 799.863281 C 541.910156 799.515625 541.234375 799.136719 540.574219 798.726562 C 539.910156 798.316406 539.269531 797.875 538.648438 797.40625 C 538.03125 796.9375 537.433594 796.4375 536.859375 795.914062 C 536.285156 795.390625 535.734375 794.839844 535.210938 794.261719 C 534.6875 793.6875 534.191406 793.089844 533.722656 792.464844 C 533.253906 791.84375 532.816406 791.203125 532.40625 790.539062 C 532 789.878906 531.621094 789.199219 531.277344 788.5 C 530.929688 787.804688 530.617188 787.09375 530.335938 786.367188 C 530.058594 785.640625 529.8125 784.902344 529.597656 784.152344 C 529.386719 783.40625 529.210938 782.648438 529.066406 781.882812 C 528.925781 781.117188 528.820312 780.347656 528.75 779.574219 C 528.679688 778.796875 528.644531 778.019531 528.644531 777.242188 C 528.644531 776.464844 528.683594 775.6875 528.753906 774.914062 C 528.828125 774.136719 528.9375 773.367188 529.082031 772.601562 C 529.226562 771.839844 529.402344 771.082031 529.617188 770.332031 C 529.832031 769.585938 530.078125 768.847656 530.363281 768.125 C 530.644531 767.398438 530.960938 766.6875 531.308594 765.992188 C 531.65625 765.296875 532.035156 764.617188 532.445312 763.957031 C 532.855469 763.292969 533.296875 762.652344 533.765625 762.035156 Z M 533.765625 762.035156 " fill-opacity="1" fill-rule="nonzero"/><path fill="#9dde89" d="M 488.511719 289.867188 L 489.726562 290.007812 C 492.539062 290.339844 495.316406 290.839844 498.066406 291.511719 C 500.816406 292.179688 503.515625 293.015625 506.164062 294.011719 C 508.8125 295.007812 511.390625 296.164062 513.902344 297.472656 C 516.410156 298.78125 518.828125 300.242188 521.160156 301.84375 C 523.492188 303.449219 525.71875 305.1875 527.839844 307.0625 C 529.957031 308.9375 531.957031 310.933594 533.835938 313.054688 C 535.714844 315.171875 537.457031 317.394531 539.066406 319.722656 C 540.671875 322.054688 542.132812 324.472656 543.449219 326.976562 C 557.230469 353.226562 600.835938 531.011719 590.160156 555.410156 C 580.203125 578.164062 580.613281 572.570312 587.847656 587.832031 C 595.085938 603.09375 604.628906 585.933594 597.367188 611.105469 C 590.105469 636.273438 580.574219 633.21875 588.957031 642.378906 C 597.339844 651.539062 605.351562 649.253906 598.476562 665.652344 C 591.601562 682.046875 593.125 687.390625 591.976562 693.492188 C 590.828125 699.59375 594.230469 741.933594 594.230469 741.933594 C 594.230469 741.933594 547.707031 740.761719 525.199219 752.953125 C 525.199219 752.953125 535.90625 709.476562 528.285156 702.984375 C 520.660156 696.496094 511.890625 696.109375 517.617188 685.8125 C 523.34375 675.519531 537.457031 674.382812 521.824219 670.179688 C 506.191406 665.972656 506.632812 576.335938 506.632812 576.335938 Z M 488.511719 289.867188 " fill-opacity="1" fill-rule="nonzero"/><path fill="#ffb6b6" d="M 376.976562 193.84375 C 378.800781 194.265625 380.625 194.628906 382.453125 194.910156 C 388.046875 195.832031 393.671875 196.121094 399.332031 195.78125 C 401.769531 195.652344 404.191406 195.410156 406.605469 195.054688 C 409.019531 194.703125 411.410156 194.238281 413.78125 193.664062 C 416.152344 193.09375 418.492188 192.410156 420.800781 191.625 C 423.109375 190.835938 425.375 189.941406 427.601562 188.945312 C 429.828125 187.949219 432.003906 186.855469 434.128906 185.65625 C 436.253906 184.460938 438.320312 183.171875 440.328125 181.785156 C 442.335938 180.398438 444.273438 178.921875 446.144531 177.359375 C 448.015625 175.792969 449.8125 174.148438 451.535156 172.417969 C 453.253906 170.6875 454.890625 168.886719 456.445312 167.003906 C 458 165.125 459.464844 163.179688 460.84375 161.164062 C 462.21875 159.148438 463.5 157.078125 464.683594 154.945312 C 465.871094 152.8125 466.957031 150.632812 467.941406 148.398438 C 468.925781 146.167969 469.808594 143.894531 470.585938 141.582031 C 471.359375 139.269531 472.03125 136.925781 472.589844 134.554688 C 473.152344 132.179688 473.605469 129.785156 473.945312 127.371094 C 474.289062 124.953125 474.515625 122.527344 474.636719 120.089844 C 474.753906 117.65625 474.761719 115.21875 474.65625 112.78125 C 474.550781 110.34375 474.335938 107.914062 474.007812 105.5 C 473.679688 103.082031 473.242188 100.683594 472.695312 98.304688 C 472.148438 95.929688 471.492188 93.582031 470.726562 91.265625 C 469.964844 88.949219 469.097656 86.671875 468.125 84.433594 C 467.152344 82.195312 466.078125 80.007812 464.90625 77.871094 C 463.730469 75.730469 462.464844 73.652344 461.097656 71.628906 C 459.734375 69.605469 458.28125 67.652344 456.738281 65.761719 C 455.191406 63.875 453.566406 62.058594 451.855469 60.320312 C 450.144531 58.582031 448.359375 56.925781 446.496094 55.351562 C 444.632812 53.773438 442.703125 52.289062 440.703125 50.890625 C 438.703125 49.492188 436.644531 48.191406 434.527344 46.984375 C 432.40625 45.773438 430.238281 44.664062 428.015625 43.65625 C 425.796875 42.648438 423.535156 41.742188 421.230469 40.941406 C 418.925781 40.140625 416.589844 39.445312 414.222656 38.859375 C 411.855469 38.269531 409.46875 37.792969 407.054688 37.425781 C 404.644531 37.058594 402.222656 36.804688 399.789062 36.660156 C 397.351562 36.515625 394.917969 36.480469 392.480469 36.558594 C 390.042969 36.640625 387.613281 36.832031 385.191406 37.132812 C 382.773438 37.433594 380.371094 37.847656 377.988281 38.371094 C 375.605469 38.890625 373.253906 39.523438 370.929688 40.261719 C 368.605469 41 366.320312 41.84375 364.070312 42.792969 C 361.824219 43.742188 359.625 44.792969 357.476562 45.945312 C 355.324219 47.09375 353.230469 48.339844 351.195312 49.683594 C 349.160156 51.027344 347.191406 52.460938 345.285156 53.984375 C 343.378906 55.511719 341.550781 57.117188 339.792969 58.808594 C 338.035156 60.503906 336.363281 62.273438 334.765625 64.117188 C 333.171875 65.964844 331.667969 67.878906 330.25 69.863281 C 328.828125 71.847656 327.503906 73.894531 326.273438 76 C 325.042969 78.105469 323.914062 80.265625 322.878906 82.476562 C 321.847656 84.6875 320.917969 86.9375 320.09375 89.234375 C 319.265625 91.53125 318.546875 93.859375 317.9375 96.21875 C 317.769531 96.867188 317.601562 97.484375 317.460938 98.128906 C 317.164062 99.398438 316.898438 100.675781 316.667969 101.960938 C 316.433594 103.242188 316.230469 104.53125 316.0625 105.824219 C 315.890625 107.117188 315.753906 108.414062 315.648438 109.714844 C 315.542969 111.015625 315.46875 112.316406 315.425781 113.621094 C 315.382812 114.925781 315.371094 116.226562 315.394531 117.53125 C 315.414062 118.835938 315.46875 120.140625 315.554688 121.441406 C 315.640625 122.742188 315.757812 124.039062 315.90625 125.335938 C 316.054688 126.632812 316.238281 127.921875 316.449219 129.210938 C 316.664062 130.496094 316.90625 131.777344 317.183594 133.050781 C 317.457031 134.328125 317.765625 135.59375 318.101562 136.855469 C 318.441406 138.113281 318.808594 139.363281 319.207031 140.605469 C 319.605469 141.847656 320.035156 143.078125 320.496094 144.300781 C 320.953125 145.519531 321.445312 146.730469 321.960938 147.925781 C 322.480469 149.121094 323.03125 150.304688 323.605469 151.476562 C 324.183594 152.644531 324.789062 153.800781 325.421875 154.941406 C 326.054688 156.082031 326.714844 157.203125 327.40625 158.3125 C 328.09375 159.417969 328.808594 160.507812 329.550781 161.582031 C 330.292969 162.65625 331.0625 163.707031 331.855469 164.742188 C 332.648438 165.777344 333.46875 166.792969 334.3125 167.785156 C 335.15625 168.78125 336.023438 169.753906 336.914062 170.707031 C 337.804688 171.660156 338.71875 172.585938 339.65625 173.496094 C 340.59375 174.402344 341.554688 175.285156 342.535156 176.144531 C 343.515625 177.003906 344.515625 177.839844 345.535156 178.652344 C 346.558594 179.460938 347.597656 180.246094 348.660156 181.007812 C 349.71875 181.765625 350.796875 182.5 351.890625 183.207031 C 352.988281 183.914062 354.101562 184.59375 355.230469 185.246094 C 356.359375 185.898438 357.503906 186.523438 358.664062 187.117188 C 359.824219 187.714844 360.996094 188.28125 362.183594 188.820312 C 363.371094 189.359375 364.574219 189.867188 365.785156 190.347656 C 367 190.828125 368.222656 191.277344 369.457031 191.695312 C 370.691406 192.113281 371.9375 192.503906 373.191406 192.863281 C 374.445312 193.21875 375.707031 193.546875 376.976562 193.84375 Z M 376.976562 193.84375 " fill-opacity="1" fill-rule="nonzero"/><path fill="#2f2e41" d="M 450.511719 184.4375 C 461.59375 175.765625 462.671875 159.230469 472.125 148.804688 C 487.9375 131.378906 495.367188 112.628906 487.082031 91.980469 C 479.757812 73.71875 481.316406 51.265625 465.539062 39.511719 C 473.285156 36.707031 475.109375 30.878906 468.273438 30.769531 C 463.660156 30.699219 446.472656 39.511719 454.746094 28.53125 C 463.015625 17.550781 447.359375 21.886719 448.394531 17.390625 C 449.429688 12.898438 456.070312 10.40625 459 13.96875 C 449.648438 3.011719 429.230469 5.347656 422.597656 18.136719 C 413.277344 4.164062 403.382812 -5.445312 389.125 3.417969 C 375.117188 12.125 375.300781 22.886719 360.238281 20.300781 C 353.160156 19.085938 352.488281 32.464844 347.652344 37.777344 C 342.816406 43.09375 335.746094 47.203125 328.6875 45.871094 C 321.628906 44.535156 316.230469 35.734375 320.183594 29.738281 L 303.546875 67.703125 L 296.839844 59.476562 C 286.1875 66.421875 289.6875 84.546875 300.410156 91.382812 C 311.136719 98.21875 331.605469 82.417969 337.425781 93.726562 C 346.601562 111.554688 368.121094 102.554688 382.902344 89.953125 C 400.828125 74.671875 422.464844 121.132812 413.828125 143.046875 C 422.789062 134.246094 439.363281 141.550781 444.003906 153.21875 C 448.644531 164.890625 445.242188 178.035156 441.800781 190.113281 Z M 450.511719 184.4375 " fill-opacity="1" fill-rule="nonzero"/><path fill="#3f3d56" d="M 298.753906 264.160156 L 301.535156 267.703125 L 309.003906 277.195312 L 336.65625 358.890625 L 467.246094 263.289062 L 463.511719 260.3125 L 443.625 218.03125 L 341.472656 211.007812 L 310.914062 259.21875 Z M 298.753906 264.160156 " fill-opacity="1" fill-rule="nonzero"/><path fill="#ffffff" d="M 437.769531 472.535156 C 431.191406 543.226562 384.117188 596.648438 332.625 591.855469 C 281.132812 587.058594 244.722656 525.867188 251.300781 455.175781 C 304.71875 490.226562 366.605469 496.914062 437.769531 472.535156 Z M 437.769531 472.535156 " fill-opacity="1" fill-rule="nonzero"/><path fill="#ffffff" d="M 316.125 388.460938 C 315.859375 392.679688 315.085938 396.800781 313.8125 400.832031 C 310.40625 411.347656 303.804688 418.757812 296.410156 419.617188 C 295.660156 419.71875 294.90625 419.742188 294.148438 419.695312 C 285.878906 419.160156 279.328125 410.429688 277.101562 398.457031 C 276.355469 394.296875 276.125 390.109375 276.402344 385.890625 C 276.65625 381.710938 277.414062 377.628906 278.683594 373.640625 C 282.410156 362.003906 290.058594 354.117188 298.351562 354.652344 C 309.339844 355.363281 317.285156 370.507812 316.125 388.460938 Z M 316.125 388.460938 " fill-opacity="1" fill-rule="nonzero"/><path fill="#3f3d56" d="M 303.910156 402.546875 C 303.707031 405.746094 302.964844 408.8125 301.675781 411.746094 C 300.386719 414.683594 298.628906 417.304688 296.410156 419.617188 C 295.660156 419.71875 294.90625 419.742188 294.148438 419.695312 C 285.878906 419.160156 279.328125 410.429688 277.101562 398.457031 C 276.355469 394.296875 276.125 390.109375 276.402344 385.890625 C 276.65625 381.710938 277.414062 377.628906 278.683594 373.640625 C 279.566406 373.703125 280.449219 373.808594 281.324219 373.957031 C 282.199219 374.105469 283.066406 374.296875 283.921875 374.527344 C 284.777344 374.761719 285.621094 375.039062 286.449219 375.351562 C 287.28125 375.667969 288.09375 376.023438 288.886719 376.421875 C 289.683594 376.816406 290.457031 377.25 291.207031 377.722656 C 291.960938 378.191406 292.6875 378.699219 293.390625 379.242188 C 294.09375 379.785156 294.769531 380.359375 295.414062 380.96875 C 296.0625 381.578125 296.675781 382.214844 297.261719 382.886719 C 297.84375 383.554688 298.394531 384.25 298.910156 384.972656 C 299.425781 385.695312 299.90625 386.441406 300.347656 387.210938 C 300.789062 387.980469 301.195312 388.773438 301.558594 389.582031 C 301.925781 390.390625 302.25 391.214844 302.535156 392.058594 C 302.816406 392.898438 303.0625 393.75 303.261719 394.617188 C 303.460938 395.480469 303.621094 396.355469 303.734375 397.234375 C 303.851562 398.113281 303.921875 399 303.953125 399.886719 C 303.980469 400.773438 303.96875 401.660156 303.910156 402.546875 Z M 303.910156 402.546875 " fill-opacity="1" fill-rule="nonzero"/><path fill="#ffffff" d="M 398.40625 393.78125 C 397.289062 411.015625 388.183594 424.585938 377.742188 425.027344 C 377.304688 425.046875 376.867188 425.042969 376.429688 425.015625 C 365.46875 424.304688 357.523438 409.164062 358.683594 391.210938 C 358.9375 387.042969 359.695312 382.964844 360.960938 378.984375 C 364.691406 367.324219 372.339844 359.4375 380.632812 359.976562 C 391.621094 360.683594 399.566406 375.828125 398.40625 393.78125 Z M 398.40625 393.78125 " fill-opacity="1" fill-rule="nonzero"/><path fill="#3f3d56" d="M 385.375 407.816406 C 385.171875 411.046875 384.414062 414.144531 383.101562 417.105469 C 381.789062 420.066406 380.003906 422.707031 377.742188 425.027344 C 377.304688 425.046875 376.867188 425.042969 376.429688 425.015625 C 365.46875 424.304688 357.523438 409.164062 358.683594 391.210938 C 358.9375 387.042969 359.695312 382.964844 360.960938 378.984375 C 361.828125 379.074219 362.6875 379.203125 363.542969 379.371094 C 364.394531 379.539062 365.238281 379.75 366.074219 380 C 366.90625 380.253906 367.726562 380.542969 368.53125 380.871094 C 369.339844 381.203125 370.125 381.570312 370.898438 381.976562 C 371.667969 382.378906 372.417969 382.820312 373.144531 383.296875 C 373.875 383.777344 374.578125 384.285156 375.257812 384.832031 C 375.9375 385.375 376.585938 385.953125 377.210938 386.558594 C 377.835938 387.167969 378.425781 387.804688 378.992188 388.46875 C 379.554688 389.132812 380.082031 389.824219 380.578125 390.539062 C 381.074219 391.253906 381.535156 391.992188 381.960938 392.75 C 382.386719 393.511719 382.777344 394.289062 383.128906 395.085938 C 383.476562 395.882812 383.789062 396.695312 384.0625 397.519531 C 384.335938 398.347656 384.570312 399.1875 384.761719 400.035156 C 384.953125 400.882812 385.105469 401.742188 385.214844 402.605469 C 385.324219 403.46875 385.394531 404.335938 385.421875 405.207031 C 385.449219 406.078125 385.433594 406.945312 385.375 407.816406 Z M 385.375 407.816406 " fill-opacity="1" fill-rule="nonzero"/><path fill="#f2f2f2" d="M 697.269531 137.957031 C 697.273438 139.230469 697.210938 140.5 697.085938 141.765625 C 696.960938 143.03125 696.773438 144.285156 696.523438 145.535156 C 696.277344 146.78125 695.96875 148.015625 695.601562 149.230469 C 695.230469 150.449219 694.800781 151.644531 694.316406 152.820312 C 693.828125 153.996094 693.285156 155.144531 692.6875 156.265625 C 692.085938 157.386719 691.433594 158.476562 690.726562 159.535156 C 690.019531 160.589844 689.265625 161.613281 688.457031 162.59375 C 687.652344 163.578125 686.796875 164.519531 685.898438 165.417969 C 685 166.320312 684.058594 167.171875 683.074219 167.980469 C 682.09375 168.785156 681.074219 169.542969 680.015625 170.25 C 678.957031 170.957031 677.867188 171.609375 676.746094 172.207031 C 675.625 172.808594 674.476562 173.351562 673.304688 173.835938 C 672.128906 174.324219 670.933594 174.753906 669.714844 175.121094 C 668.5 175.492188 667.265625 175.800781 666.019531 176.046875 C 664.773438 176.296875 663.515625 176.480469 662.25 176.605469 C 660.984375 176.730469 659.714844 176.792969 658.445312 176.792969 C 657.171875 176.792969 655.902344 176.730469 654.636719 176.605469 C 653.375 176.480469 652.117188 176.296875 650.871094 176.046875 C 649.621094 175.800781 648.390625 175.492188 647.171875 175.121094 C 645.957031 174.753906 644.761719 174.324219 643.585938 173.835938 C 642.410156 173.351562 641.261719 172.808594 640.140625 172.207031 C 639.019531 171.609375 637.929688 170.957031 636.871094 170.25 C 635.816406 169.542969 634.796875 168.785156 633.8125 167.980469 C 632.828125 167.171875 631.886719 166.320312 630.988281 165.417969 C 630.089844 164.519531 629.238281 163.578125 628.429688 162.59375 C 627.625 161.613281 626.867188 160.589844 626.160156 159.535156 C 625.453125 158.476562 624.800781 157.386719 624.203125 156.265625 C 623.601562 155.144531 623.058594 153.996094 622.574219 152.820312 C 622.085938 151.644531 621.65625 150.449219 621.289062 149.230469 C 620.917969 148.015625 620.609375 146.78125 620.363281 145.535156 C 620.113281 144.285156 619.929688 143.03125 619.804688 141.765625 C 619.679688 140.5 619.617188 139.230469 619.617188 137.957031 C 619.617188 136.6875 619.679688 135.417969 619.804688 134.152344 C 619.929688 132.886719 620.113281 131.628906 620.363281 130.382812 C 620.609375 129.132812 620.917969 127.902344 621.289062 126.683594 C 621.65625 125.46875 622.085938 124.269531 622.574219 123.097656 C 623.058594 121.921875 623.601562 120.773438 624.203125 119.652344 C 624.800781 118.527344 625.453125 117.4375 626.160156 116.382812 C 626.867188 115.324219 627.625 114.304688 628.429688 113.320312 C 629.238281 112.335938 630.089844 111.394531 630.988281 110.496094 C 631.886719 109.597656 632.828125 108.742188 633.8125 107.9375 C 634.796875 107.128906 635.816406 106.375 636.871094 105.667969 C 637.929688 104.960938 639.019531 104.308594 640.140625 103.707031 C 641.261719 103.109375 642.410156 102.566406 643.585938 102.078125 C 644.761719 101.589844 645.957031 101.164062 647.171875 100.792969 C 648.390625 100.425781 649.621094 100.117188 650.871094 99.867188 C 652.117188 99.621094 653.375 99.433594 654.636719 99.308594 C 655.902344 99.183594 657.171875 99.121094 658.445312 99.121094 C 659.714844 99.121094 660.984375 99.183594 662.25 99.308594 C 663.515625 99.433594 664.773438 99.621094 666.019531 99.867188 C 667.265625 100.117188 668.5 100.425781 669.714844 100.792969 C 670.933594 101.164062 672.128906 101.589844 673.300781 102.078125 C 674.476562 102.566406 675.625 103.109375 676.746094 103.707031 C 677.867188 104.308594 678.957031 104.960938 680.015625 105.667969 C 681.074219 106.375 682.09375 107.128906 683.074219 107.9375 C 684.058594 108.742188 685 109.597656 685.898438 110.496094 C 686.796875 111.394531 687.652344 112.335938 688.457031 113.320312 C 689.265625 114.304688 690.019531 115.324219 690.726562 116.382812 C 691.433594 117.4375 692.085938 118.527344 692.6875 119.652344 C 693.285156 120.773438 693.828125 121.921875 694.316406 123.097656 C 694.800781 124.269531 695.230469 125.46875 695.597656 126.683594 C 695.96875 127.902344 696.277344 129.132812 696.523438 130.382812 C 696.773438 131.628906 696.960938 132.886719 697.085938 134.152344 C 697.210938 135.417969 697.273438 136.6875 697.269531 137.957031 Z M 697.269531 137.957031 " fill-opacity="1" fill-rule="nonzero"/><path fill="#ffffff" d="M 663.363281 121.769531 C 663.324219 122.640625 663.390625 123.5 663.558594 124.355469 C 663.601562 124.820312 663.703125 125.269531 663.871094 125.707031 C 664.035156 126.144531 664.257812 126.546875 664.535156 126.921875 C 664.8125 127.296875 665.136719 127.625 665.507812 127.910156 C 665.875 128.195312 666.277344 128.425781 666.707031 128.597656 C 666.859375 128.636719 667.015625 128.660156 667.171875 128.664062 C 668.878906 128.742188 670.417969 127.097656 671.140625 124.691406 C 671.386719 123.855469 671.53125 123.003906 671.566406 122.132812 C 671.609375 121.269531 671.542969 120.414062 671.375 119.566406 C 670.871094 117.097656 669.476562 115.308594 667.765625 115.234375 C 665.496094 115.132812 663.527344 118.058594 663.363281 121.769531 Z M 663.363281 121.769531 " fill-opacity="1" fill-rule="nonzero"/><path fill="#f2f2f2" d="M 665.550781 124.929688 C 665.488281 126.292969 665.875 127.515625 666.707031 128.597656 C 666.859375 128.636719 667.015625 128.660156 667.171875 128.664062 C 668.878906 128.742188 670.417969 127.097656 671.140625 124.691406 C 671.386719 123.855469 671.53125 123.003906 671.566406 122.132812 C 671.609375 121.269531 671.542969 120.414062 671.375 119.566406 C 671.007812 119.554688 670.640625 119.574219 670.28125 119.632812 C 669.917969 119.691406 669.5625 119.78125 669.21875 119.910156 C 668.875 120.035156 668.546875 120.195312 668.230469 120.386719 C 667.917969 120.578125 667.625 120.796875 667.355469 121.046875 C 667.085938 121.296875 666.84375 121.570312 666.625 121.867188 C 666.410156 122.160156 666.226562 122.476562 666.070312 122.808594 C 665.914062 123.144531 665.792969 123.488281 665.707031 123.84375 C 665.621094 124.203125 665.570312 124.5625 665.550781 124.929688 Z M 665.550781 124.929688 " fill-opacity="1" fill-rule="nonzero"/><path fill="#ffffff" d="M 646.371094 121.015625 C 646.210938 124.574219 647.777344 127.5625 649.90625 127.886719 C 649.996094 127.898438 650.085938 127.910156 650.175781 127.914062 C 652.441406 128.011719 654.410156 125.085938 654.574219 121.378906 C 654.613281 120.519531 654.550781 119.664062 654.378906 118.820312 C 653.878906 116.34375 652.484375 114.554688 650.773438 114.480469 C 648.503906 114.378906 646.535156 117.308594 646.371094 121.015625 Z M 646.371094 121.015625 " fill-opacity="1" fill-rule="nonzero"/><path fill="#f2f2f2" d="M 648.726562 124.183594 C 648.664062 125.5625 649.058594 126.796875 649.90625 127.886719 C 649.996094 127.898438 650.085938 127.910156 650.175781 127.914062 C 652.441406 128.011719 654.410156 125.085938 654.574219 121.378906 C 654.613281 120.519531 654.550781 119.664062 654.378906 118.820312 C 654.019531 118.816406 653.664062 118.847656 653.308594 118.914062 C 652.957031 118.980469 652.609375 119.078125 652.277344 119.210938 C 651.941406 119.34375 651.621094 119.503906 651.316406 119.699219 C 651.015625 119.890625 650.730469 120.113281 650.472656 120.359375 C 650.210938 120.609375 649.976562 120.878906 649.765625 121.171875 C 649.554688 121.464844 649.378906 121.777344 649.226562 122.101562 C 649.078125 122.429688 648.960938 122.769531 648.878906 123.121094 C 648.792969 123.46875 648.742188 123.824219 648.726562 124.183594 Z M 648.726562 124.183594 " fill-opacity="1" fill-rule="nonzero"/><path fill="#ffffff" d="M 674.539062 141.167969 C 674.101562 151.027344 667.929688 158.757812 660.75 158.441406 C 653.566406 158.125 648.101562 149.875 648.539062 140.015625 C 650.5 141.148438 652.566406 142.03125 654.742188 142.664062 C 656.917969 143.300781 659.136719 143.667969 661.398438 143.765625 C 663.660156 143.867188 665.902344 143.695312 668.125 143.257812 C 670.347656 142.820312 672.484375 142.121094 674.539062 141.167969 Z M 674.539062 141.167969 " fill-opacity="1" fill-rule="nonzero"/><g clip-path="url(#8ff65c1053)"><path fill="#ffffff" d="M 544.21875 0 L 787.21875 0 L 787.21875 243 L 544.21875 243 Z M 544.21875 0 " fill-opacity="1" fill-rule="nonzero"/></g><g clip-path="url(#37540f6c24)"><path fill="#ffffff" d="M 705.5625 333.46875 L 948.5625 333.46875 L 948.5625 576.46875 L 705.5625 576.46875 Z M 705.5625 333.46875 " fill-opacity="1" fill-rule="nonzero"/></g></svg>