<svg xmlns="http://www.w3.org/2000/svg" xmlns:xlink="http://www.w3.org/1999/xlink" width="1080" zoomAndPan="magnify" viewBox="0 0 810 809.999993" height="1080" preserveAspectRatio="xMidYMid meet" version="1.0"><defs><clipPath id="1ebe8ac272"><path d="M 0 0 L 794.8125 0 L 794.8125 794.8125 L 0 794.8125 Z M 0 0 " clip-rule="nonzero"/></clipPath><clipPath id="7bb758dd3d"><path d="M 397.40625 0 C 177.925781 0 0 177.925781 0 397.40625 C 0 616.886719 177.925781 794.8125 397.40625 794.8125 C 616.886719 794.8125 794.8125 616.886719 794.8125 397.40625 C 794.8125 177.925781 616.886719 0 397.40625 0 Z M 397.40625 0 " clip-rule="nonzero"/></clipPath><clipPath id="5e5da30094"><path d="M 627.75 397.40625 L 698.625 397.40625 L 698.625 483.46875 L 627.75 483.46875 Z M 627.75 397.40625 " clip-rule="nonzero"/></clipPath><clipPath id="25b52d5180"><path d="M 510.484375 118.867188 L 581.359375 118.867188 L 581.359375 204.929688 L 510.484375 204.929688 Z M 510.484375 118.867188 " clip-rule="nonzero"/></clipPath><clipPath id="2c7a0a1d33"><path d="M 81 354.375 L 151.875 354.375 L 151.875 440.4375 L 81 440.4375 Z M 81 354.375 " clip-rule="nonzero"/></clipPath><clipPath id="29ad28b992"><path d="M 9 405 L 117 405 L 117 517 L 9 517 Z M 9 405 " clip-rule="nonzero"/></clipPath><clipPath id="f4ba412e14"><path d="M 9.964844 441.476562 L 73.675781 405 L 116.4375 479.683594 L 52.726562 516.164062 Z M 9.964844 441.476562 " clip-rule="nonzero"/></clipPath><clipPath id="47560240e9"><path d="M 308 118.867188 L 464 118.867188 L 464 285 L 308 285 Z M 308 118.867188 " clip-rule="nonzero"/></clipPath><clipPath id="c130720851"><path d="M 0 607.5 L 45.5625 607.5 L 45.5625 810 L 0 810 Z M 0 607.5 " clip-rule="nonzero"/></clipPath></defs><g clip-path="url(#1ebe8ac272)"><g clip-path="url(#7bb758dd3d)"><path fill="#87aece" d="M 0 0 L 794.8125 0 L 794.8125 794.8125 L 0 794.8125 Z M 0 0 " fill-opacity="1" fill-rule="nonzero"/></g></g><g clip-path="url(#5e5da30094)"><path fill="#87aece" d="M 627.75 397.40625 L 698.625 397.40625 L 698.625 483.507812 L 627.75 483.507812 Z M 627.75 397.40625 " fill-opacity="1" fill-rule="nonzero"/></g><g clip-path="url(#25b52d5180)"><path fill="#87aece" d="M 510.484375 118.867188 L 581.359375 118.867188 L 581.359375 204.96875 L 510.484375 204.96875 Z M 510.484375 118.867188 " fill-opacity="1" fill-rule="nonzero"/></g><g clip-path="url(#2c7a0a1d33)"><path fill="#87aece" d="M 81 354.375 L 151.875 354.375 L 151.875 440.476562 L 81 440.476562 Z M 81 354.375 " fill-opacity="1" fill-rule="nonzero"/></g><g clip-path="url(#29ad28b992)"><g clip-path="url(#f4ba412e14)"><path fill="#87aece" d="M 9.964844 441.476562 L 73.675781 405 L 116.421875 479.65625 L 52.710938 516.132812 Z M 9.964844 441.476562 " fill-opacity="1" fill-rule="nonzero"/></g></g><path fill="#fdb4b4" d="M 410.980469 258.511719 L 427.488281 333.832031 L 392.375 438.667969 L 335.804688 326.03125 L 343.652344 260.683594 Z M 410.980469 258.511719 " fill-opacity="1" fill-rule="nonzero"/><path fill="#9dde89" d="M 332.878906 329.929688 L 430.554688 329.929688 L 430.554688 447.933594 L 332.878906 447.933594 Z M 332.878906 329.929688 " fill-opacity="1" fill-rule="nonzero"/><path fill="#fdb4b4" d="M 457.09375 229.753906 C 457.09375 230.847656 457.066406 231.9375 457.011719 233.027344 C 456.960938 234.117188 456.878906 235.207031 456.773438 236.292969 C 456.664062 237.378906 456.53125 238.460938 456.371094 239.542969 C 456.210938 240.621094 456.023438 241.695312 455.8125 242.765625 C 455.597656 243.835938 455.359375 244.902344 455.09375 245.960938 C 454.828125 247.019531 454.539062 248.070312 454.222656 249.117188 C 453.90625 250.160156 453.5625 251.195312 453.195312 252.222656 C 452.828125 253.25 452.433594 254.269531 452.015625 255.277344 C 451.597656 256.285156 451.15625 257.285156 450.6875 258.269531 C 450.222656 259.257812 449.730469 260.234375 449.21875 261.195312 C 448.703125 262.15625 448.164062 263.105469 447.601562 264.042969 C 447.042969 264.980469 446.457031 265.902344 445.851562 266.808594 C 445.246094 267.714844 444.617188 268.609375 443.964844 269.484375 C 443.316406 270.363281 442.644531 271.222656 441.953125 272.066406 C 441.257812 272.910156 440.546875 273.738281 439.8125 274.546875 C 439.082031 275.355469 438.328125 276.144531 437.554688 276.917969 C 436.785156 277.6875 435.992188 278.441406 435.183594 279.171875 C 434.375 279.90625 433.550781 280.617188 432.707031 281.3125 C 431.863281 282.003906 431 282.675781 430.125 283.324219 C 429.246094 283.976562 428.355469 284.605469 427.449219 285.210938 C 426.539062 285.816406 425.617188 286.402344 424.683594 286.960938 C 423.746094 287.523438 422.796875 288.0625 421.832031 288.574219 C 420.871094 289.089844 419.894531 289.582031 418.910156 290.046875 C 417.921875 290.515625 416.925781 290.957031 415.914062 291.375 C 414.90625 291.792969 413.886719 292.183594 412.859375 292.550781 C 411.832031 292.917969 410.796875 293.261719 409.75 293.578125 C 408.707031 293.894531 407.65625 294.1875 406.597656 294.453125 C 405.539062 294.71875 404.472656 294.957031 403.402344 295.167969 C 402.332031 295.382812 401.257812 295.570312 400.175781 295.730469 C 399.097656 295.890625 398.011719 296.023438 396.925781 296.128906 C 395.839844 296.238281 394.75 296.316406 393.660156 296.371094 C 392.570312 296.425781 391.480469 296.449219 390.386719 296.449219 C 389.296875 296.449219 388.207031 296.425781 387.117188 296.371094 C 386.023438 296.316406 384.9375 296.238281 383.851562 296.128906 C 382.765625 296.023438 381.679688 295.890625 380.601562 295.730469 C 379.519531 295.570312 378.445312 295.382812 377.375 295.167969 C 376.304688 294.957031 375.238281 294.71875 374.179688 294.453125 C 373.121094 294.1875 372.070312 293.894531 371.023438 293.578125 C 369.980469 293.261719 368.945312 292.917969 367.917969 292.550781 C 366.886719 292.183594 365.871094 291.792969 364.863281 291.375 C 363.851562 290.957031 362.855469 290.515625 361.867188 290.046875 C 360.882812 289.582031 359.90625 289.089844 358.945312 288.574219 C 357.980469 288.0625 357.03125 287.523438 356.09375 286.960938 C 355.160156 286.402344 354.238281 285.816406 353.328125 285.210938 C 352.421875 284.605469 351.527344 283.976562 350.652344 283.324219 C 349.777344 282.675781 348.914062 282.003906 348.070312 281.3125 C 347.226562 280.617188 346.402344 279.90625 345.59375 279.171875 C 344.785156 278.441406 343.992188 277.6875 343.222656 276.917969 C 342.449219 276.144531 341.695312 275.355469 340.964844 274.546875 C 340.230469 273.738281 339.515625 272.910156 338.824219 272.066406 C 338.132812 271.222656 337.460938 270.363281 336.808594 269.484375 C 336.160156 268.609375 335.53125 267.714844 334.925781 266.808594 C 334.320312 265.902344 333.734375 264.980469 333.171875 264.042969 C 332.613281 263.105469 332.074219 262.15625 331.558594 261.195312 C 331.046875 260.234375 330.554688 259.257812 330.085938 258.269531 C 329.621094 257.285156 329.179688 256.285156 328.761719 255.277344 C 328.34375 254.269531 327.949219 253.25 327.582031 252.222656 C 327.214844 251.195312 326.871094 250.160156 326.554688 249.117188 C 326.238281 248.070312 325.949219 247.019531 325.683594 245.960938 C 325.417969 244.902344 325.179688 243.835938 324.964844 242.765625 C 324.753906 241.695312 324.566406 240.621094 324.40625 239.542969 C 324.246094 238.460938 324.113281 237.378906 324.003906 236.292969 C 323.898438 235.207031 323.816406 234.117188 323.765625 233.027344 C 323.710938 231.9375 323.683594 230.847656 323.683594 229.753906 C 323.683594 228.664062 323.710938 227.574219 323.765625 226.480469 C 323.816406 225.390625 323.898438 224.304688 324.003906 223.21875 C 324.113281 222.132812 324.246094 221.046875 324.40625 219.96875 C 324.566406 218.890625 324.753906 217.8125 324.964844 216.742188 C 325.179688 215.671875 325.417969 214.609375 325.683594 213.550781 C 325.949219 212.492188 326.238281 211.4375 326.554688 210.394531 C 326.871094 209.351562 327.214844 208.3125 327.582031 207.285156 C 327.949219 206.257812 328.34375 205.238281 328.761719 204.230469 C 329.179688 203.222656 329.621094 202.226562 330.085938 201.238281 C 330.554688 200.253906 331.046875 199.277344 331.558594 198.316406 C 332.074219 197.351562 332.613281 196.402344 333.171875 195.464844 C 333.734375 194.53125 334.320312 193.609375 334.925781 192.699219 C 335.53125 191.792969 336.160156 190.902344 336.808594 190.023438 C 337.460938 189.148438 338.132812 188.289062 338.824219 187.445312 C 339.515625 186.601562 340.230469 185.773438 340.964844 184.964844 C 341.695312 184.15625 342.449219 183.367188 343.222656 182.59375 C 343.992188 181.820312 344.785156 181.070312 345.59375 180.335938 C 346.402344 179.601562 347.226562 178.890625 348.070312 178.199219 C 348.914062 177.503906 349.777344 176.835938 350.652344 176.183594 C 351.527344 175.535156 352.421875 174.90625 353.328125 174.300781 C 354.238281 173.691406 355.160156 173.109375 356.09375 172.546875 C 357.03125 171.988281 357.980469 171.449219 358.945312 170.933594 C 359.90625 170.417969 360.882812 169.929688 361.867188 169.460938 C 362.855469 168.996094 363.851562 168.554688 364.863281 168.136719 C 365.871094 167.71875 366.886719 167.324219 367.917969 166.957031 C 368.945312 166.589844 369.980469 166.246094 371.023438 165.929688 C 372.070312 165.613281 373.121094 165.324219 374.179688 165.058594 C 375.238281 164.792969 376.304688 164.554688 377.375 164.339844 C 378.445312 164.128906 379.519531 163.941406 380.601562 163.78125 C 381.679688 163.621094 382.765625 163.488281 383.851562 163.378906 C 384.9375 163.273438 386.023438 163.191406 387.117188 163.140625 C 388.207031 163.085938 389.296875 163.058594 390.386719 163.058594 C 391.480469 163.058594 392.570312 163.085938 393.660156 163.140625 C 394.75 163.191406 395.839844 163.273438 396.925781 163.378906 C 398.011719 163.488281 399.097656 163.621094 400.175781 163.78125 C 401.257812 163.941406 402.332031 164.128906 403.402344 164.339844 C 404.472656 164.554688 405.539062 164.792969 406.597656 165.058594 C 407.65625 165.324219 408.707031 165.613281 409.75 165.929688 C 410.796875 166.246094 411.832031 166.589844 412.859375 166.957031 C 413.886719 167.324219 414.90625 167.71875 415.914062 168.136719 C 416.925781 168.554688 417.921875 168.996094 418.910156 169.460938 C 419.894531 169.929688 420.871094 170.417969 421.832031 170.933594 C 422.796875 171.449219 423.746094 171.988281 424.679688 172.546875 C 425.617188 173.109375 426.539062 173.691406 427.449219 174.300781 C 428.355469 174.90625 429.246094 175.535156 430.125 176.183594 C 431 176.835938 431.863281 177.503906 432.707031 178.199219 C 433.550781 178.890625 434.375 179.601562 435.183594 180.335938 C 435.992188 181.070312 436.785156 181.820312 437.554688 182.59375 C 438.328125 183.367188 439.082031 184.15625 439.8125 184.964844 C 440.546875 185.773438 441.257812 186.601562 441.953125 187.445312 C 442.644531 188.289062 443.316406 189.148438 443.964844 190.023438 C 444.617188 190.902344 445.246094 191.792969 445.851562 192.699219 C 446.457031 193.609375 447.042969 194.53125 447.601562 195.464844 C 448.164062 196.402344 448.703125 197.351562 449.21875 198.316406 C 449.730469 199.277344 450.222656 200.253906 450.6875 201.238281 C 451.15625 202.226562 451.597656 203.222656 452.015625 204.230469 C 452.433594 205.238281 452.828125 206.257812 453.195312 207.285156 C 453.5625 208.3125 453.902344 209.351562 454.222656 210.394531 C 454.539062 211.4375 454.828125 212.492188 455.09375 213.550781 C 455.359375 214.609375 455.597656 215.671875 455.8125 216.742188 C 456.023438 217.8125 456.210938 218.890625 456.371094 219.96875 C 456.53125 221.046875 456.664062 222.132812 456.773438 223.21875 C 456.878906 224.304688 456.960938 225.390625 457.011719 226.480469 C 457.066406 227.574219 457.09375 228.664062 457.09375 229.753906 Z M 457.09375 229.753906 " fill-opacity="1" fill-rule="nonzero"/><g clip-path="url(#47560240e9)"><path fill="#2e2e41" d="M 332.324219 279.351562 C 332.324219 279.351562 282.601562 187.535156 327.433594 143.351562 C 372.261719 99.164062 408.25 128.28125 408.25 128.28125 L 428.800781 127.449219 C 428.800781 127.449219 433.085938 143.621094 440 134.867188 C 446.910156 126.113281 459.398438 157.992188 459.398438 157.992188 C 482.578125 199.730469 402.222656 209.082031 402.222656 209.082031 C 402.222656 209.082031 408.027344 227.5625 402.128906 231.433594 C 396.230469 235.304688 380.472656 249.863281 380.472656 249.863281 L 366.367188 260.515625 L 357.988281 247.746094 C 357.988281 247.746094 349.230469 240.835938 344.808594 243.738281 C 340.386719 246.640625 346.46875 284.832031 346.46875 284.832031 Z M 332.324219 279.351562 " fill-opacity="1" fill-rule="nonzero"/></g><path fill="#e8e9ea" d="M 236.945312 1041.738281 L 270.320312 627.457031 L 219.136719 411.730469 C 214.722656 379.664062 234.929688 349.320312 266.121094 341.046875 L 316.203125 327.761719 L 338.371094 305.597656 L 388.792969 416.929688 L 420.28125 305.683594 L 444.84375 323.539062 L 517.679688 355.671875 L 517.648438 356.425781 L 505.964844 617.019531 L 532.046875 1038.046875 L 530.886719 1038.0625 Z M 236.945312 1041.738281 " fill-opacity="1" fill-rule="nonzero"/><path fill="#fdb4b4" d="M 200.601562 821.71875 C 199.832031 811.035156 201.632812 800.320312 205.855469 790.476562 L 192.304688 679.347656 L 245.378906 674.445312 L 253.40625 787.703125 C 258.742188 796.988281 261.773438 807.414062 262.25 818.113281 C 263.8125 844.871094 251.277344 867.359375 234.25 868.351562 C 217.226562 869.347656 202.160156 848.46875 200.601562 821.71875 Z M 200.601562 821.71875 " fill-opacity="1" fill-rule="nonzero"/><path fill="#fdb4b4" d="M 536.757812 838.027344 C 536.105469 827.335938 538.023438 816.644531 542.351562 806.847656 L 530.015625 695.578125 L 583.140625 691.257812 L 589.933594 804.589844 C 595.164062 813.933594 598.082031 824.394531 598.441406 835.097656 C 599.710938 861.871094 586.933594 884.222656 569.898438 885.027344 C 552.863281 885.835938 538.023438 864.792969 536.757812 838.03125 L 536.761719 838.03125 L 536.757812 838.03125 Z M 536.757812 838.027344 " fill-opacity="1" fill-rule="nonzero"/><path fill="#e8e9ea" d="M 192.085938 777.152344 L 191.90625 776.191406 L 164.246094 627.800781 L 196.929688 386.160156 C 199.847656 364.585938 219.113281 349.046875 240.839844 350.78125 C 252.183594 351.691406 262.363281 357.070312 269.507812 365.933594 C 276.644531 374.800781 279.734375 385.890625 278.203125 397.167969 L 253.605469 578.394531 L 269.09375 772.234375 C 269.09375 772.234375 192.085938 777.152344 192.085938 777.152344 Z M 192.085938 777.152344 " fill-opacity="1" fill-rule="nonzero"/><path fill="#e8e9ea" d="M 520.367188 773.667969 L 464.753906 402.5 C 461.863281 391.617188 463.558594 380.230469 469.542969 370.550781 C 475.53125 360.871094 484.96875 354.273438 496.113281 351.96875 C 517.441406 347.558594 538.5 360.589844 544.066406 381.636719 L 597.492188 769.007812 Z M 520.367188 773.667969 " fill-opacity="1" fill-rule="nonzero"/><path fill="#d6d7d8" d="M 397.25 444.03125 C 397.25 444.480469 397.207031 444.921875 397.121094 445.363281 C 397.03125 445.804688 396.902344 446.230469 396.730469 446.644531 C 396.558594 447.058594 396.347656 447.449219 396.101562 447.824219 C 395.851562 448.195312 395.566406 448.542969 395.25 448.859375 C 394.933594 449.175781 394.589844 449.457031 394.214844 449.707031 C 393.84375 449.957031 393.449219 450.167969 393.035156 450.335938 C 392.621094 450.507812 392.195312 450.640625 391.753906 450.726562 C 391.316406 450.8125 390.871094 450.859375 390.421875 450.859375 C 389.976562 450.859375 389.53125 450.8125 389.09375 450.726562 C 388.652344 450.640625 388.226562 450.507812 387.8125 450.335938 C 387.398438 450.167969 387.003906 449.957031 386.632812 449.707031 C 386.257812 449.457031 385.914062 449.175781 385.597656 448.859375 C 385.28125 448.542969 384.996094 448.195312 384.746094 447.824219 C 384.5 447.449219 384.289062 447.058594 384.117188 446.644531 C 383.945312 446.230469 383.816406 445.804688 383.726562 445.363281 C 383.640625 444.921875 383.597656 444.480469 383.597656 444.03125 C 383.597656 443.582031 383.640625 443.140625 383.726562 442.699219 C 383.816406 442.261719 383.945312 441.832031 384.117188 441.417969 C 384.289062 441.003906 384.5 440.613281 384.746094 440.238281 C 384.996094 439.867188 385.28125 439.523438 385.597656 439.203125 C 385.914062 438.886719 386.257812 438.605469 386.632812 438.355469 C 387.003906 438.105469 387.398438 437.898438 387.8125 437.726562 C 388.226562 437.554688 388.652344 437.425781 389.09375 437.335938 C 389.53125 437.25 389.976562 437.207031 390.421875 437.207031 C 390.871094 437.207031 391.316406 437.25 391.753906 437.335938 C 392.195312 437.425781 392.621094 437.554688 393.035156 437.726562 C 393.449219 437.898438 393.84375 438.105469 394.214844 438.355469 C 394.589844 438.605469 394.933594 438.886719 395.25 439.203125 C 395.566406 439.523438 395.851562 439.867188 396.101562 440.238281 C 396.347656 440.613281 396.558594 441.003906 396.730469 441.417969 C 396.902344 441.832031 397.03125 442.261719 397.121094 442.699219 C 397.207031 443.140625 397.25 443.582031 397.25 444.03125 Z M 397.25 444.03125 " fill-opacity="1" fill-rule="nonzero"/><path fill="#d6d7d8" d="M 397.25 495.71875 C 397.25 496.164062 397.207031 496.609375 397.121094 497.050781 C 397.03125 497.488281 396.902344 497.914062 396.730469 498.328125 C 396.558594 498.742188 396.347656 499.136719 396.101562 499.511719 C 395.851562 499.882812 395.566406 500.226562 395.25 500.542969 C 394.933594 500.859375 394.589844 501.144531 394.214844 501.394531 C 393.84375 501.640625 393.449219 501.851562 393.035156 502.023438 C 392.621094 502.195312 392.195312 502.324219 391.753906 502.414062 C 391.316406 502.5 390.871094 502.542969 390.421875 502.542969 C 389.976562 502.542969 389.53125 502.5 389.09375 502.414062 C 388.652344 502.324219 388.226562 502.195312 387.8125 502.023438 C 387.398438 501.851562 387.003906 501.640625 386.632812 501.394531 C 386.257812 501.144531 385.914062 500.859375 385.597656 500.542969 C 385.28125 500.226562 384.996094 499.882812 384.746094 499.511719 C 384.5 499.136719 384.289062 498.742188 384.117188 498.328125 C 383.945312 497.914062 383.816406 497.488281 383.726562 497.050781 C 383.640625 496.609375 383.597656 496.164062 383.597656 495.71875 C 383.597656 495.269531 383.640625 494.824219 383.726562 494.386719 C 383.816406 493.945312 383.945312 493.519531 384.117188 493.105469 C 384.289062 492.691406 384.5 492.296875 384.746094 491.925781 C 384.996094 491.550781 385.28125 491.207031 385.597656 490.890625 C 385.914062 490.574219 386.257812 490.292969 386.632812 490.042969 C 387.003906 489.792969 387.398438 489.582031 387.8125 489.410156 C 388.226562 489.238281 388.652344 489.109375 389.09375 489.023438 C 389.53125 488.933594 389.976562 488.890625 390.421875 488.890625 C 390.871094 488.890625 391.316406 488.933594 391.753906 489.023438 C 392.195312 489.109375 392.621094 489.238281 393.035156 489.410156 C 393.449219 489.582031 393.84375 489.792969 394.214844 490.042969 C 394.589844 490.292969 394.933594 490.574219 395.25 490.890625 C 395.566406 491.207031 395.851562 491.550781 396.101562 491.925781 C 396.347656 492.296875 396.558594 492.691406 396.730469 493.105469 C 396.902344 493.519531 397.03125 493.945312 397.121094 494.386719 C 397.207031 494.824219 397.25 495.269531 397.25 495.71875 Z M 397.25 495.71875 " fill-opacity="1" fill-rule="nonzero"/><path fill="#d6d7d8" d="M 397.25 547.402344 C 397.25 547.851562 397.207031 548.296875 397.121094 548.734375 C 397.03125 549.175781 396.902344 549.601562 396.730469 550.015625 C 396.558594 550.429688 396.347656 550.824219 396.101562 551.195312 C 395.851562 551.570312 395.566406 551.914062 395.25 552.230469 C 394.933594 552.546875 394.589844 552.832031 394.214844 553.078125 C 393.84375 553.328125 393.449219 553.539062 393.035156 553.710938 C 392.621094 553.882812 392.195312 554.011719 391.753906 554.097656 C 391.316406 554.1875 390.871094 554.230469 390.421875 554.230469 C 389.976562 554.230469 389.53125 554.1875 389.09375 554.097656 C 388.652344 554.011719 388.226562 553.882812 387.8125 553.710938 C 387.398438 553.539062 387.003906 553.328125 386.632812 553.078125 C 386.257812 552.832031 385.914062 552.546875 385.597656 552.230469 C 385.28125 551.914062 384.996094 551.570312 384.746094 551.195312 C 384.5 550.824219 384.289062 550.429688 384.117188 550.015625 C 383.945312 549.601562 383.816406 549.175781 383.726562 548.734375 C 383.640625 548.296875 383.597656 547.851562 383.597656 547.402344 C 383.597656 546.957031 383.640625 546.511719 383.726562 546.070312 C 383.816406 545.632812 383.945312 545.207031 384.117188 544.792969 C 384.289062 544.378906 384.5 543.984375 384.746094 543.613281 C 384.996094 543.238281 385.28125 542.894531 385.597656 542.578125 C 385.914062 542.261719 386.257812 541.976562 386.632812 541.726562 C 387.003906 541.480469 387.398438 541.269531 387.8125 541.097656 C 388.226562 540.925781 388.652344 540.796875 389.09375 540.707031 C 389.53125 540.621094 389.976562 540.578125 390.421875 540.578125 C 390.871094 540.578125 391.316406 540.621094 391.753906 540.707031 C 392.195312 540.796875 392.621094 540.925781 393.035156 541.097656 C 393.449219 541.269531 393.84375 541.480469 394.214844 541.726562 C 394.589844 541.976562 394.933594 542.261719 395.25 542.578125 C 395.566406 542.894531 395.851562 543.238281 396.101562 543.613281 C 396.347656 543.984375 396.558594 544.378906 396.730469 544.792969 C 396.902344 545.207031 397.03125 545.632812 397.121094 546.070312 C 397.207031 546.511719 397.25 546.957031 397.25 547.402344 Z M 397.25 547.402344 " fill-opacity="1" fill-rule="nonzero"/><path fill="#d6d7d8" d="M 397.25 599.089844 C 397.25 599.539062 397.207031 599.980469 397.121094 600.421875 C 397.03125 600.859375 396.902344 601.289062 396.730469 601.703125 C 396.558594 602.117188 396.347656 602.507812 396.101562 602.882812 C 395.851562 603.253906 395.566406 603.597656 395.25 603.917969 C 394.933594 604.234375 394.589844 604.515625 394.214844 604.765625 C 393.84375 605.015625 393.449219 605.222656 393.035156 605.394531 C 392.621094 605.566406 392.195312 605.695312 391.753906 605.785156 C 391.316406 605.871094 390.871094 605.914062 390.421875 605.914062 C 389.976562 605.914062 389.53125 605.871094 389.09375 605.785156 C 388.652344 605.695312 388.226562 605.566406 387.8125 605.394531 C 387.398438 605.222656 387.003906 605.015625 386.632812 604.765625 C 386.257812 604.515625 385.914062 604.234375 385.597656 603.917969 C 385.28125 603.597656 384.996094 603.253906 384.746094 602.882812 C 384.5 602.507812 384.289062 602.117188 384.117188 601.703125 C 383.945312 601.289062 383.816406 600.859375 383.726562 600.421875 C 383.640625 599.980469 383.597656 599.539062 383.597656 599.089844 C 383.597656 598.640625 383.640625 598.199219 383.726562 597.757812 C 383.816406 597.320312 383.945312 596.890625 384.117188 596.476562 C 384.289062 596.0625 384.5 595.671875 384.746094 595.296875 C 384.996094 594.925781 385.28125 594.578125 385.597656 594.261719 C 385.914062 593.945312 386.257812 593.664062 386.632812 593.414062 C 387.003906 593.164062 387.398438 592.953125 387.8125 592.785156 C 388.226562 592.613281 388.652344 592.480469 389.09375 592.394531 C 389.53125 592.308594 389.976562 592.265625 390.421875 592.265625 C 390.871094 592.265625 391.316406 592.308594 391.753906 592.394531 C 392.195312 592.480469 392.621094 592.613281 393.035156 592.785156 C 393.449219 592.953125 393.84375 593.164062 394.214844 593.414062 C 394.589844 593.664062 394.933594 593.945312 395.25 594.261719 C 395.566406 594.578125 395.851562 594.925781 396.101562 595.296875 C 396.347656 595.671875 396.558594 596.0625 396.730469 596.476562 C 396.902344 596.890625 397.03125 597.320312 397.121094 597.757812 C 397.207031 598.199219 397.25 598.640625 397.25 599.089844 Z M 397.25 599.089844 " fill-opacity="1" fill-rule="nonzero"/><path fill="#d6d7d8" d="M 397.25 650.777344 C 397.25 651.226562 397.207031 651.671875 397.121094 652.109375 C 397.03125 652.550781 396.902344 652.976562 396.730469 653.390625 C 396.558594 653.804688 396.347656 654.199219 396.101562 654.570312 C 395.851562 654.941406 395.566406 655.289062 395.25 655.605469 C 394.933594 655.921875 394.589844 656.203125 394.214844 656.453125 C 393.84375 656.703125 393.449219 656.914062 393.035156 657.085938 C 392.621094 657.253906 392.195312 657.386719 391.753906 657.472656 C 391.316406 657.558594 390.871094 657.605469 390.421875 657.605469 C 389.976562 657.605469 389.53125 657.558594 389.09375 657.472656 C 388.652344 657.386719 388.226562 657.253906 387.8125 657.085938 C 387.398438 656.914062 387.003906 656.703125 386.632812 656.453125 C 386.257812 656.203125 385.914062 655.921875 385.597656 655.605469 C 385.28125 655.289062 384.996094 654.941406 384.746094 654.570312 C 384.5 654.199219 384.289062 653.804688 384.117188 653.390625 C 383.945312 652.976562 383.816406 652.550781 383.726562 652.109375 C 383.640625 651.671875 383.597656 651.226562 383.597656 650.777344 C 383.597656 650.328125 383.640625 649.886719 383.726562 649.445312 C 383.816406 649.007812 383.945312 648.578125 384.117188 648.164062 C 384.289062 647.75 384.5 647.359375 384.746094 646.984375 C 384.996094 646.613281 385.28125 646.269531 385.597656 645.953125 C 385.914062 645.632812 386.257812 645.351562 386.632812 645.101562 C 387.003906 644.851562 387.398438 644.644531 387.8125 644.472656 C 388.226562 644.300781 388.652344 644.171875 389.09375 644.082031 C 389.53125 643.996094 389.976562 643.953125 390.421875 643.953125 C 390.871094 643.953125 391.316406 643.996094 391.753906 644.082031 C 392.195312 644.171875 392.621094 644.300781 393.035156 644.472656 C 393.449219 644.644531 393.84375 644.851562 394.214844 645.101562 C 394.589844 645.351562 394.933594 645.632812 395.25 645.953125 C 395.566406 646.269531 395.851562 646.613281 396.101562 646.984375 C 396.347656 647.359375 396.558594 647.75 396.730469 648.164062 C 396.902344 648.578125 397.03125 649.007812 397.121094 649.445312 C 397.207031 649.886719 397.25 650.328125 397.25 650.777344 Z M 397.25 650.777344 " fill-opacity="1" fill-rule="nonzero"/><path fill="#d6d7d8" d="M 397.25 702.464844 C 397.25 702.914062 397.207031 703.355469 397.121094 703.796875 C 397.03125 704.234375 396.902344 704.660156 396.730469 705.074219 C 396.558594 705.488281 396.347656 705.882812 396.101562 706.257812 C 395.851562 706.628906 395.566406 706.972656 395.25 707.289062 C 394.933594 707.605469 394.589844 707.890625 394.214844 708.140625 C 393.84375 708.386719 393.449219 708.597656 393.035156 708.769531 C 392.621094 708.941406 392.195312 709.070312 391.753906 709.160156 C 391.316406 709.246094 390.871094 709.289062 390.421875 709.289062 C 389.976562 709.289062 389.53125 709.246094 389.09375 709.160156 C 388.652344 709.070312 388.226562 708.941406 387.8125 708.769531 C 387.398438 708.597656 387.003906 708.386719 386.632812 708.140625 C 386.257812 707.890625 385.914062 707.605469 385.597656 707.289062 C 385.28125 706.972656 384.996094 706.628906 384.746094 706.257812 C 384.5 705.882812 384.289062 705.488281 384.117188 705.074219 C 383.945312 704.660156 383.816406 704.234375 383.726562 703.796875 C 383.640625 703.355469 383.597656 702.914062 383.597656 702.464844 C 383.597656 702.015625 383.640625 701.570312 383.726562 701.132812 C 383.816406 700.691406 383.945312 700.265625 384.117188 699.851562 C 384.289062 699.4375 384.5 699.042969 384.746094 698.671875 C 384.996094 698.300781 385.28125 697.953125 385.597656 697.636719 C 385.914062 697.320312 386.257812 697.039062 386.632812 696.789062 C 387.003906 696.539062 387.398438 696.328125 387.8125 696.15625 C 388.226562 695.984375 388.652344 695.855469 389.09375 695.769531 C 389.53125 695.683594 389.976562 695.636719 390.421875 695.636719 C 390.871094 695.636719 391.316406 695.683594 391.753906 695.769531 C 392.195312 695.855469 392.621094 695.984375 393.035156 696.15625 C 393.449219 696.328125 393.84375 696.539062 394.214844 696.789062 C 394.589844 697.039062 394.933594 697.320312 395.25 697.636719 C 395.566406 697.953125 395.851562 698.300781 396.101562 698.671875 C 396.347656 699.042969 396.558594 699.4375 396.730469 699.851562 C 396.902344 700.265625 397.03125 700.691406 397.121094 701.132812 C 397.207031 701.570312 397.25 702.015625 397.25 702.464844 Z M 397.25 702.464844 " fill-opacity="1" fill-rule="nonzero"/><path fill="#d6d7d8" d="M 397.25 754.148438 C 397.25 754.597656 397.207031 755.042969 397.121094 755.480469 C 397.03125 755.921875 396.902344 756.347656 396.730469 756.761719 C 396.558594 757.175781 396.347656 757.570312 396.101562 757.941406 C 395.851562 758.316406 395.566406 758.660156 395.25 758.976562 C 394.933594 759.292969 394.589844 759.578125 394.214844 759.824219 C 393.84375 760.074219 393.449219 760.285156 393.035156 760.457031 C 392.621094 760.628906 392.195312 760.757812 391.753906 760.84375 C 391.316406 760.933594 390.871094 760.976562 390.421875 760.976562 C 389.976562 760.976562 389.53125 760.933594 389.09375 760.84375 C 388.652344 760.757812 388.226562 760.628906 387.8125 760.457031 C 387.398438 760.285156 387.003906 760.074219 386.632812 759.824219 C 386.257812 759.578125 385.914062 759.292969 385.597656 758.976562 C 385.28125 758.660156 384.996094 758.316406 384.746094 757.941406 C 384.5 757.570312 384.289062 757.175781 384.117188 756.761719 C 383.945312 756.347656 383.816406 755.921875 383.726562 755.480469 C 383.640625 755.042969 383.597656 754.597656 383.597656 754.148438 C 383.597656 753.703125 383.640625 753.257812 383.726562 752.816406 C 383.816406 752.378906 383.945312 751.953125 384.117188 751.539062 C 384.289062 751.125 384.5 750.730469 384.746094 750.359375 C 384.996094 749.984375 385.28125 749.640625 385.597656 749.324219 C 385.914062 749.007812 386.257812 748.722656 386.632812 748.472656 C 387.003906 748.226562 387.398438 748.015625 387.8125 747.84375 C 388.226562 747.671875 388.652344 747.542969 389.09375 747.457031 C 389.53125 747.367188 389.976562 747.324219 390.421875 747.324219 C 390.871094 747.324219 391.316406 747.367188 391.753906 747.457031 C 392.195312 747.542969 392.621094 747.671875 393.035156 747.84375 C 393.449219 748.015625 393.84375 748.226562 394.214844 748.472656 C 394.589844 748.722656 394.933594 749.007812 395.25 749.324219 C 395.566406 749.640625 395.851562 749.984375 396.101562 750.359375 C 396.347656 750.730469 396.558594 751.125 396.730469 751.539062 C 396.902344 751.953125 397.03125 752.378906 397.121094 752.816406 C 397.207031 753.257812 397.25 753.703125 397.25 754.148438 Z M 397.25 754.148438 " fill-opacity="1" fill-rule="nonzero"/><path fill="#d6d7d8" d="M 397.25 805.835938 C 397.25 806.285156 397.207031 806.726562 397.121094 807.167969 C 397.03125 807.605469 396.902344 808.035156 396.730469 808.449219 C 396.558594 808.863281 396.347656 809.253906 396.101562 809.628906 C 395.851562 810 395.566406 810.34375 395.25 810.664062 C 394.933594 810.980469 394.589844 811.261719 394.214844 811.511719 C 393.84375 811.761719 393.449219 811.96875 393.035156 812.140625 C 392.621094 812.3125 392.195312 812.441406 391.753906 812.53125 C 391.316406 812.617188 390.871094 812.660156 390.421875 812.660156 C 389.976562 812.660156 389.53125 812.617188 389.09375 812.53125 C 388.652344 812.441406 388.226562 812.3125 387.8125 812.140625 C 387.398438 811.96875 387.003906 811.761719 386.632812 811.511719 C 386.257812 811.261719 385.914062 810.980469 385.597656 810.664062 C 385.28125 810.34375 384.996094 810 384.746094 809.628906 C 384.5 809.253906 384.289062 808.863281 384.117188 808.449219 C 383.945312 808.035156 383.816406 807.605469 383.726562 807.167969 C 383.640625 806.726562 383.597656 806.285156 383.597656 805.835938 C 383.597656 805.386719 383.640625 804.945312 383.726562 804.503906 C 383.816406 804.066406 383.945312 803.636719 384.117188 803.222656 C 384.289062 802.808594 384.5 802.417969 384.746094 802.042969 C 384.996094 801.671875 385.28125 801.328125 385.597656 801.007812 C 385.914062 800.691406 386.257812 800.410156 386.632812 800.160156 C 387.003906 799.910156 387.398438 799.703125 387.8125 799.53125 C 388.226562 799.359375 388.652344 799.230469 389.09375 799.140625 C 389.53125 799.054688 389.976562 799.011719 390.421875 799.011719 C 390.871094 799.011719 391.316406 799.054688 391.753906 799.140625 C 392.195312 799.230469 392.621094 799.359375 393.035156 799.53125 C 393.449219 799.699219 393.84375 799.910156 394.214844 800.160156 C 394.589844 800.410156 394.933594 800.691406 395.25 801.007812 C 395.566406 801.328125 395.851562 801.671875 396.101562 802.042969 C 396.347656 802.417969 396.558594 802.808594 396.730469 803.222656 C 396.902344 803.636719 397.03125 804.066406 397.121094 804.503906 C 397.207031 804.945312 397.25 805.386719 397.25 805.835938 Z M 397.25 805.835938 " fill-opacity="1" fill-rule="nonzero"/><path fill="#9dde89" d="M 390.433594 852.644531 L 261.25 835.433594 L 258.761719 835.101562 L 192.738281 682.890625 L 153.421875 592.265625 L 255.832031 592.265625 Z M 390.433594 852.644531 " fill-opacity="1" fill-rule="nonzero"/><path fill="#3f3c57" d="M 453.015625 409.375 L 448.789062 408.144531 C 457.597656 377.953125 438.820312 320.742188 438.628906 320.175781 L 443.914062 324.160156 C 444.71875 326.523438 462.210938 377.863281 453.015625 409.375 Z M 453.015625 409.375 " fill-opacity="1" fill-rule="nonzero"/><path fill="#3f3c57" d="M 304.4375 414.738281 L 308.664062 413.507812 C 299.859375 383.316406 318.847656 326.980469 319.039062 326.414062 L 314.515625 329.441406 C 313.710938 331.804688 295.246094 383.226562 304.4375 414.738281 Z M 304.4375 414.738281 " fill-opacity="1" fill-rule="nonzero"/><path fill="#3f3c57" d="M 469.292969 425.664062 C 469.292969 426.265625 469.265625 426.867188 469.207031 427.464844 C 469.148438 428.0625 469.058594 428.660156 468.941406 429.25 C 468.824219 429.839844 468.675781 430.425781 468.503906 431 C 468.328125 431.578125 468.125 432.144531 467.894531 432.699219 C 467.664062 433.257812 467.40625 433.800781 467.121094 434.332031 C 466.839844 434.863281 466.527344 435.378906 466.195312 435.878906 C 465.859375 436.378906 465.5 436.863281 465.121094 437.328125 C 464.738281 437.792969 464.332031 438.238281 463.90625 438.664062 C 463.480469 439.089844 463.035156 439.496094 462.570312 439.878906 C 462.105469 440.257812 461.621094 440.617188 461.121094 440.953125 C 460.621094 441.285156 460.105469 441.597656 459.574219 441.878906 C 459.042969 442.164062 458.496094 442.421875 457.941406 442.652344 C 457.382812 442.882812 456.816406 443.085938 456.242188 443.257812 C 455.664062 443.433594 455.082031 443.582031 454.492188 443.699219 C 453.898438 443.816406 453.304688 443.902344 452.707031 443.960938 C 452.105469 444.023438 451.503906 444.050781 450.902344 444.050781 C 450.300781 444.050781 449.699219 444.023438 449.101562 443.960938 C 448.5 443.902344 447.90625 443.816406 447.316406 443.699219 C 446.722656 443.582031 446.140625 443.433594 445.5625 443.257812 C 444.988281 443.085938 444.421875 442.882812 443.863281 442.652344 C 443.308594 442.421875 442.765625 442.164062 442.234375 441.878906 C 441.703125 441.597656 441.1875 441.285156 440.683594 440.953125 C 440.183594 440.617188 439.703125 440.257812 439.234375 439.878906 C 438.769531 439.496094 438.324219 439.089844 437.898438 438.664062 C 437.472656 438.238281 437.070312 437.792969 436.6875 437.328125 C 436.304688 436.863281 435.945312 436.378906 435.609375 435.878906 C 435.277344 435.378906 434.96875 434.863281 434.683594 434.332031 C 434.398438 433.800781 434.140625 433.257812 433.910156 432.699219 C 433.679688 432.144531 433.476562 431.578125 433.304688 431 C 433.128906 430.425781 432.984375 429.839844 432.863281 429.25 C 432.746094 428.660156 432.660156 428.0625 432.601562 427.464844 C 432.542969 426.867188 432.511719 426.265625 432.511719 425.664062 C 432.511719 425.058594 432.542969 424.460938 432.601562 423.859375 C 432.660156 423.261719 432.746094 422.664062 432.863281 422.074219 C 432.984375 421.484375 433.128906 420.902344 433.304688 420.324219 C 433.476562 419.75 433.679688 419.183594 433.910156 418.625 C 434.140625 418.070312 434.398438 417.523438 434.683594 416.996094 C 434.96875 416.464844 435.277344 415.945312 435.609375 415.445312 C 435.945312 414.945312 436.304688 414.460938 436.6875 413.996094 C 437.070312 413.53125 437.472656 413.085938 437.898438 412.660156 C 438.324219 412.234375 438.769531 411.828125 439.234375 411.449219 C 439.703125 411.066406 440.183594 410.707031 440.683594 410.371094 C 441.1875 410.039062 441.703125 409.730469 442.234375 409.445312 C 442.765625 409.160156 443.308594 408.902344 443.863281 408.671875 C 444.421875 408.441406 444.988281 408.242188 445.5625 408.066406 C 446.140625 407.890625 446.722656 407.746094 447.316406 407.628906 C 447.90625 407.511719 448.5 407.421875 449.101562 407.363281 C 449.699219 407.304688 450.300781 407.273438 450.902344 407.273438 C 451.503906 407.273438 452.105469 407.304688 452.707031 407.363281 C 453.304688 407.421875 453.898438 407.511719 454.492188 407.628906 C 455.082031 407.746094 455.664062 407.890625 456.242188 408.066406 C 456.816406 408.242188 457.382812 408.441406 457.941406 408.671875 C 458.496094 408.902344 459.042969 409.160156 459.574219 409.445312 C 460.105469 409.730469 460.621094 410.039062 461.121094 410.371094 C 461.621094 410.707031 462.105469 411.066406 462.570312 411.449219 C 463.035156 411.828125 463.480469 412.234375 463.90625 412.660156 C 464.332031 413.085938 464.738281 413.53125 465.121094 413.996094 C 465.5 414.460938 465.859375 414.945312 466.195312 415.445312 C 466.527344 415.945312 466.839844 416.464844 467.121094 416.996094 C 467.40625 417.523438 467.664062 418.070312 467.894531 418.625 C 468.125 419.183594 468.328125 419.75 468.503906 420.324219 C 468.675781 420.902344 468.824219 421.484375 468.941406 422.074219 C 469.058594 422.664062 469.148438 423.261719 469.207031 423.859375 C 469.265625 424.460938 469.292969 425.058594 469.292969 425.664062 Z M 469.292969 425.664062 " fill-opacity="1" fill-rule="nonzero"/><path fill="#3f3c57" d="M 324.046875 527.824219 L 312.890625 527.824219 C 311.675781 527.824219 310.691406 526.839844 310.691406 525.621094 C 310.691406 524.40625 311.675781 523.421875 312.890625 523.421875 L 324.046875 523.421875 C 327.121094 523.421875 330.007812 522.222656 332.179688 520.046875 C 334.347656 517.875 335.542969 514.984375 335.535156 511.914062 L 335.398438 443.222656 C 335.398438 428.296875 323.261719 416.160156 308.339844 416.160156 C 293.421875 416.160156 281.28125 428.296875 281.28125 443.21875 L 281.414062 507.511719 C 281.429688 513.785156 286.542969 518.925781 292.816406 518.976562 L 300.472656 519.03125 C 301.6875 519.042969 302.664062 520.035156 302.65625 521.25 C 302.648438 522.460938 301.664062 523.433594 300.457031 523.433594 L 300.4375 523.433594 L 292.78125 523.378906 C 284.105469 523.3125 277.03125 516.195312 277.011719 507.519531 L 276.878906 443.222656 C 276.878906 425.871094 290.992188 411.757812 308.339844 411.757812 C 325.6875 411.757812 339.800781 425.871094 339.800781 443.21875 L 339.9375 511.902344 C 339.945312 516.152344 338.296875 520.152344 335.292969 523.15625 C 332.292969 526.167969 328.296875 527.824219 324.046875 527.824219 Z M 324.046875 527.824219 " fill-opacity="1" fill-rule="nonzero"/><path fill="#3f3c57" d="M 308.257812 521.234375 C 308.257812 521.746094 308.207031 522.253906 308.109375 522.753906 C 308.007812 523.257812 307.859375 523.746094 307.664062 524.21875 C 307.46875 524.691406 307.226562 525.140625 306.941406 525.566406 C 306.65625 525.992188 306.335938 526.386719 305.972656 526.75 C 305.609375 527.113281 305.214844 527.433594 304.789062 527.71875 C 304.363281 528.003906 303.914062 528.246094 303.441406 528.441406 C 302.96875 528.636719 302.480469 528.785156 301.976562 528.886719 C 301.476562 528.984375 300.96875 529.035156 300.457031 529.035156 C 299.941406 529.035156 299.4375 528.984375 298.933594 528.886719 C 298.429688 528.785156 297.941406 528.636719 297.46875 528.441406 C 296.996094 528.246094 296.546875 528.003906 296.121094 527.71875 C 295.695312 527.433594 295.300781 527.113281 294.9375 526.75 C 294.578125 526.386719 294.253906 525.992188 293.96875 525.566406 C 293.683594 525.140625 293.445312 524.691406 293.246094 524.21875 C 293.050781 523.746094 292.902344 523.257812 292.804688 522.753906 C 292.703125 522.253906 292.652344 521.746094 292.652344 521.234375 C 292.652344 520.722656 292.703125 520.214844 292.804688 519.710938 C 292.902344 519.210938 293.050781 518.722656 293.246094 518.25 C 293.445312 517.773438 293.683594 517.324219 293.96875 516.898438 C 294.253906 516.472656 294.578125 516.078125 294.9375 515.71875 C 295.300781 515.355469 295.695312 515.03125 296.121094 514.746094 C 296.546875 514.460938 296.996094 514.222656 297.46875 514.027344 C 297.941406 513.832031 298.429688 513.683594 298.933594 513.582031 C 299.4375 513.484375 299.941406 513.433594 300.457031 513.433594 C 300.96875 513.433594 301.476562 513.484375 301.976562 513.582031 C 302.480469 513.683594 302.96875 513.832031 303.441406 514.027344 C 303.914062 514.222656 304.363281 514.460938 304.789062 514.746094 C 305.214844 515.03125 305.609375 515.355469 305.972656 515.71875 C 306.335938 516.078125 306.65625 516.472656 306.941406 516.898438 C 307.226562 517.324219 307.46875 517.773438 307.664062 518.25 C 307.859375 518.722656 308.007812 519.210938 308.109375 519.710938 C 308.207031 520.214844 308.257812 520.722656 308.257812 521.234375 Z M 308.257812 521.234375 " fill-opacity="1" fill-rule="nonzero"/><path fill="#3f3c57" d="M 320.695312 525.621094 C 320.695312 526.136719 320.644531 526.640625 320.542969 527.144531 C 320.445312 527.648438 320.296875 528.136719 320.101562 528.609375 C 319.902344 529.082031 319.664062 529.53125 319.378906 529.957031 C 319.09375 530.382812 318.769531 530.777344 318.410156 531.140625 C 318.046875 531.5 317.652344 531.824219 317.226562 532.109375 C 316.800781 532.394531 316.351562 532.632812 315.878906 532.828125 C 315.402344 533.027344 314.917969 533.175781 314.414062 533.273438 C 313.910156 533.375 313.402344 533.425781 312.890625 533.425781 C 312.378906 533.425781 311.871094 533.375 311.371094 533.273438 C 310.867188 533.175781 310.378906 533.027344 309.90625 532.828125 C 309.433594 532.632812 308.984375 532.394531 308.558594 532.109375 C 308.132812 531.824219 307.738281 531.5 307.375 531.140625 C 307.011719 530.777344 306.6875 530.382812 306.40625 529.957031 C 306.121094 529.53125 305.878906 529.082031 305.683594 528.609375 C 305.488281 528.136719 305.339844 527.648438 305.238281 527.144531 C 305.140625 526.640625 305.089844 526.136719 305.089844 525.621094 C 305.089844 525.109375 305.140625 524.601562 305.238281 524.101562 C 305.339844 523.597656 305.488281 523.109375 305.683594 522.636719 C 305.878906 522.164062 306.121094 521.714844 306.40625 521.289062 C 306.6875 520.863281 307.011719 520.46875 307.375 520.105469 C 307.738281 519.746094 308.132812 519.421875 308.558594 519.136719 C 308.984375 518.851562 309.433594 518.613281 309.90625 518.414062 C 310.378906 518.21875 310.867188 518.070312 311.371094 517.972656 C 311.871094 517.871094 312.378906 517.820312 312.890625 517.820312 C 313.402344 517.820312 313.910156 517.871094 314.414062 517.972656 C 314.917969 518.070312 315.402344 518.21875 315.878906 518.414062 C 316.351562 518.613281 316.800781 518.851562 317.226562 519.136719 C 317.652344 519.421875 318.046875 519.746094 318.410156 520.105469 C 318.769531 520.46875 319.09375 520.863281 319.378906 521.289062 C 319.664062 521.714844 319.902344 522.164062 320.101562 522.636719 C 320.296875 523.109375 320.445312 523.597656 320.542969 524.101562 C 320.644531 524.601562 320.695312 525.109375 320.695312 525.621094 Z M 320.695312 525.621094 " fill-opacity="1" fill-rule="nonzero"/><g clip-path="url(#c130720851)"><path fill="#ffffff" d="M -197.4375 607.5 L 45.5625 607.5 L 45.5625 850.5 L -197.4375 850.5 Z M -197.4375 607.5 " fill-opacity="1" fill-rule="nonzero"/></g></svg>