<svg xmlns="http://www.w3.org/2000/svg" xmlns:xlink="http://www.w3.org/1999/xlink" width="1080" zoomAndPan="magnify" viewBox="0 0 810 809.999993" height="1080" preserveAspectRatio="xMidYMid meet" version="1.0"><defs><clipPath id="48890df7cd"><path d="M 0 0 L 794.8125 0 L 794.8125 794.8125 L 0 794.8125 Z M 0 0 " clip-rule="nonzero"/></clipPath><clipPath id="ff44f1d4cf"><path d="M 397.40625 0 C 177.925781 0 0 177.925781 0 397.40625 C 0 616.886719 177.925781 794.8125 397.40625 794.8125 C 616.886719 794.8125 794.8125 616.886719 794.8125 397.40625 C 794.8125 177.925781 616.886719 0 397.40625 0 Z M 397.40625 0 " clip-rule="nonzero"/></clipPath><clipPath id="8c1d31d6eb"><path d="M 627.75 397.40625 L 698.625 397.40625 L 698.625 483.46875 L 627.75 483.46875 Z M 627.75 397.40625 " clip-rule="nonzero"/></clipPath><clipPath id="9b9f63b01c"><path d="M 510.484375 118.867188 L 581.359375 118.867188 L 581.359375 204.929688 L 510.484375 204.929688 Z M 510.484375 118.867188 " clip-rule="nonzero"/></clipPath><clipPath id="7014413480"><path d="M 81 354.375 L 151.875 354.375 L 151.875 440.4375 L 81 440.4375 Z M 81 354.375 " clip-rule="nonzero"/></clipPath><clipPath id="4b153f251b"><path d="M 9 405 L 117 405 L 117 517 L 9 517 Z M 9 405 " clip-rule="nonzero"/></clipPath><clipPath id="2bebeaa14f"><path d="M 9.964844 441.476562 L 73.675781 405 L 116.4375 479.683594 L 52.726562 516.164062 Z M 9.964844 441.476562 " clip-rule="nonzero"/></clipPath></defs><g clip-path="url(#48890df7cd)"><g clip-path="url(#ff44f1d4cf)"><path fill="#87aece" d="M 0 0 L 794.8125 0 L 794.8125 794.8125 L 0 794.8125 Z M 0 0 " fill-opacity="1" fill-rule="nonzero"/></g></g><path fill="#2f2e41" d="M 272.457031 534.011719 C 272.457031 534.011719 247.261719 611.382812 251.914062 621.566406 C 256.566406 631.75 264.5 623.816406 256.566406 631.75 C 248.628906 639.683594 241.703125 631.25 249.132812 644.722656 C 256.566406 658.195312 267.820312 769.105469 272.773438 774.472656 C 277.722656 779.84375 284.53125 779.984375 278.480469 785.203125 C 272.433594 790.417969 264.5 779.84375 272.433594 790.417969 C 280.367188 800.996094 301.421875 1045.019531 301.421875 1045.019531 L 342.554688 1045.019531 C 342.554688 1045.019531 352.796875 1033.210938 347 1025.527344 C 341.199219 1017.84375 347.507812 1014.882812 347 1009.753906 C 346.488281 1004.625 348.417969 993.5625 348.777344 988.515625 C 349.132812 983.46875 356.085938 863.226562 339.386719 793.765625 L 369.835938 661.511719 L 406.726562 821.359375 C 406.726562 821.359375 389.757812 955.441406 406.726562 998.542969 C 406.726562 998.542969 393.042969 1009.933594 399.113281 1016.535156 C 405.179688 1023.132812 410.46875 1017.84375 405.179688 1023.132812 C 399.890625 1028.421875 413.113281 1046.933594 413.113281 1046.933594 L 458.074219 1044.289062 L 483.523438 793.765625 C 483.523438 793.765625 487.816406 767.640625 483.523438 763.164062 C 479.234375 758.6875 479.234375 774.554688 479.234375 758.6875 L 479.234375 737.53125 C 479.234375 737.53125 476.75 607.410156 476.417969 599.746094 C 476.085938 592.082031 444.347656 536.550781 444.347656 536.550781 Z M 272.457031 534.011719 " fill-opacity="1" fill-rule="nonzero"/><path fill="#9dde89" d="M 272.835938 266.777344 L 272.835938 419.34375 C 277.792969 434.210938 280.300781 449.480469 280.363281 465.148438 C 280.199219 491.085938 274.496094 520.976562 274.511719 534.042969 C 274.4375 535.785156 274.621094 537.5 275.074219 539.1875 C 300.324219 612.375 433.960938 545.863281 446.109375 539.636719 C 446.6875 539.347656 446.992188 539.1875 446.992188 539.1875 L 444.355469 457.207031 L 444.808594 433.636719 L 447.929688 271.9375 L 445.132812 269.699219 L 420.621094 250.152344 L 418.21875 248.238281 L 410.855469 258.980469 L 345.203125 254.46875 L 320.144531 247.535156 L 312.328125 250.710938 L 277.09375 265.042969 Z M 272.835938 266.777344 " fill-opacity="1" fill-rule="nonzero"/><path fill="#ffb6b6" d="M 233.960938 573.742188 L 242.589844 526.066406 L 270.519531 527.195312 L 259.597656 577.277344 C 260.089844 578.152344 260.492188 579.0625 260.8125 580.011719 C 261.132812 580.960938 261.363281 581.933594 261.503906 582.925781 C 261.644531 583.917969 261.695312 584.914062 261.648438 585.914062 C 261.605469 586.917969 261.46875 587.90625 261.242188 588.882812 C 261.011719 589.855469 260.699219 590.804688 260.292969 591.722656 C 259.890625 592.640625 259.40625 593.511719 258.84375 594.339844 C 258.277344 595.167969 257.640625 595.9375 256.933594 596.644531 C 256.226562 597.355469 255.460938 597.996094 254.632812 598.5625 C 253.808594 599.128906 252.9375 599.617188 252.019531 600.023438 C 251.105469 600.429688 250.160156 600.75 249.183594 600.980469 C 248.207031 601.210938 247.21875 601.351562 246.21875 601.398438 C 245.21875 601.445312 244.21875 601.402344 243.226562 601.265625 C 242.234375 601.128906 241.261719 600.898438 240.3125 600.582031 C 239.359375 600.265625 238.449219 599.863281 237.570312 599.378906 C 236.695312 598.890625 235.871094 598.328125 235.097656 597.691406 C 234.328125 597.050781 233.621094 596.347656 232.976562 595.574219 C 232.335938 594.804688 231.773438 593.984375 231.28125 593.109375 C 230.792969 592.234375 230.390625 591.320312 230.070312 590.371094 C 229.75 589.421875 229.519531 588.449219 229.378906 587.457031 C 229.242188 586.464844 229.195312 585.46875 229.238281 584.46875 C 229.285156 583.46875 229.421875 582.480469 229.648438 581.503906 C 229.875 580.527344 230.191406 579.582031 230.597656 578.664062 C 231 577.746094 231.484375 576.875 232.050781 576.046875 C 232.617188 575.21875 233.253906 574.449219 233.960938 573.742188 Z M 233.960938 573.742188 " fill-opacity="1" fill-rule="nonzero"/><path fill="#9dde89" d="M 277.121094 266.453125 C 291.472656 270.167969 299.667969 288.769531 304.707031 302.707031 C 311.199219 320.617188 300.671875 431.027344 287.867188 447.132812 C 277.9375 459.625 280.296875 457.222656 283.574219 467.570312 C 286.851562 477.914062 294.425781 467.824219 287.609375 483.210938 C 280.789062 498.601562 274.988281 495.824219 279.527344 502.386719 C 284.070312 508.945312 289.367188 508.191406 283.5625 518.027344 C 277.753906 527.867188 278.257812 531.398438 276.996094 535.183594 C 275.734375 538.96875 274.214844 566.214844 274.214844 566.214844 C 274.214844 566.214844 244.691406 561.414062 229.296875 567.214844 C 229.296875 567.214844 239.902344 540.472656 235.613281 535.679688 C 231.324219 530.882812 225.773438 529.871094 230.316406 523.820312 C 234.859375 517.765625 243.945312 518.269531 234.359375 514.230469 C 224.769531 510.191406 232.859375 453.175781 232.859375 453.175781 C 222.097656 415.644531 229.59375 359.511719 240.488281 299.917969 C 240.691406 298.824219 240.933594 297.742188 241.222656 296.667969 C 241.507812 295.597656 241.839844 294.535156 242.214844 293.492188 C 242.589844 292.445312 243.003906 291.414062 243.460938 290.402344 C 243.917969 289.390625 244.417969 288.398438 244.953125 287.429688 C 245.492188 286.457031 246.070312 285.507812 246.683594 284.582031 C 247.300781 283.660156 247.949219 282.761719 248.640625 281.886719 C 249.328125 281.015625 250.050781 280.175781 250.804688 279.359375 C 251.5625 278.546875 252.351562 277.765625 253.171875 277.015625 C 253.992188 276.269531 254.839844 275.554688 255.71875 274.875 C 256.597656 274.191406 257.5 273.550781 258.429688 272.941406 C 259.363281 272.335938 260.316406 271.769531 261.292969 271.238281 C 262.269531 270.710938 263.265625 270.21875 264.28125 269.773438 C 265.296875 269.324219 266.328125 268.917969 267.378906 268.554688 C 268.429688 268.1875 269.492188 267.867188 270.566406 267.589844 C 271.640625 267.3125 272.726562 267.078125 273.820312 266.886719 C 274.914062 266.695312 276.015625 266.550781 277.121094 266.453125 Z M 277.121094 266.453125 " fill-opacity="1" fill-rule="nonzero"/><path fill="#ffb6b6" d="M 463.371094 570.574219 L 465.457031 522.167969 L 493.28125 519.503906 L 489.253906 570.601562 C 489.855469 571.402344 490.382812 572.25 490.828125 573.148438 C 491.273438 574.046875 491.632812 574.976562 491.90625 575.941406 C 492.179688 576.90625 492.363281 577.886719 492.457031 578.882812 C 492.546875 579.882812 492.546875 580.878906 492.453125 581.878906 C 492.359375 582.875 492.175781 583.855469 491.902344 584.820312 C 491.625 585.78125 491.265625 586.714844 490.816406 587.609375 C 490.371094 588.507812 489.84375 589.355469 489.238281 590.152344 C 488.632812 590.953125 487.960938 591.691406 487.21875 592.363281 C 486.476562 593.039062 485.679688 593.640625 484.828125 594.167969 C 483.976562 594.691406 483.082031 595.136719 482.148438 595.496094 C 481.210938 595.859375 480.25 596.132812 479.265625 596.3125 C 478.28125 596.496094 477.289062 596.589844 476.285156 596.585938 C 475.28125 596.585938 474.289062 596.492188 473.304688 596.308594 C 472.320312 596.121094 471.359375 595.847656 470.425781 595.484375 C 469.492188 595.121094 468.597656 594.675781 467.746094 594.148438 C 466.894531 593.621094 466.097656 593.015625 465.359375 592.339844 C 464.621094 591.664062 463.949219 590.925781 463.34375 590.125 C 462.742188 589.324219 462.21875 588.476562 461.773438 587.578125 C 461.328125 586.679688 460.96875 585.75 460.695312 584.785156 C 460.421875 583.820312 460.238281 582.839844 460.148438 581.84375 C 460.054688 580.84375 460.058594 579.847656 460.152344 578.847656 C 460.246094 577.851562 460.429688 576.871094 460.707031 575.90625 C 460.980469 574.945312 461.34375 574.015625 461.792969 573.117188 C 462.238281 572.222656 462.765625 571.375 463.371094 570.574219 Z M 463.371094 570.574219 " fill-opacity="1" fill-rule="nonzero"/><path fill="#9dde89" d="M 434.289062 267.226562 L 435.066406 267.320312 C 436.875 267.53125 438.660156 267.855469 440.429688 268.285156 C 442.195312 268.714844 443.929688 269.25 445.632812 269.890625 C 447.335938 270.53125 448.992188 271.273438 450.605469 272.113281 C 452.21875 272.957031 453.773438 273.890625 455.269531 274.921875 C 456.769531 275.953125 458.199219 277.070312 459.5625 278.277344 C 460.925781 279.480469 462.210938 280.761719 463.417969 282.125 C 464.625 283.484375 465.742188 284.914062 466.777344 286.410156 C 467.8125 287.90625 468.75 289.460938 469.59375 291.070312 C 478.453125 307.933594 506.476562 422.152344 499.617188 437.828125 C 493.214844 452.445312 493.480469 448.851562 498.132812 458.65625 C 502.78125 468.460938 508.917969 457.4375 504.25 473.609375 C 499.582031 489.78125 493.457031 487.816406 498.84375 493.699219 C 504.230469 499.585938 509.378906 498.117188 504.960938 508.652344 C 500.542969 519.1875 501.519531 522.617188 500.78125 526.539062 C 500.046875 530.460938 502.234375 557.664062 502.234375 557.664062 C 502.234375 557.664062 472.332031 556.90625 457.867188 564.738281 C 457.867188 564.738281 464.746094 536.808594 459.847656 532.640625 C 454.949219 528.46875 449.3125 528.222656 452.992188 521.605469 C 456.675781 514.992188 465.742188 514.261719 455.695312 511.5625 C 445.648438 508.859375 445.933594 451.269531 445.933594 451.269531 Z M 434.289062 267.226562 " fill-opacity="1" fill-rule="nonzero"/><path fill="#ffb6b6" d="M 362.601562 205.535156 C 363.777344 205.808594 364.949219 206.042969 366.125 206.222656 C 369.71875 206.8125 373.335938 207 376.972656 206.78125 C 378.539062 206.699219 380.09375 206.542969 381.644531 206.316406 C 383.195312 206.089844 384.734375 205.789062 386.257812 205.421875 C 387.78125 205.054688 389.285156 204.617188 390.769531 204.109375 C 392.253906 203.605469 393.710938 203.03125 395.140625 202.390625 C 396.570312 201.75 397.96875 201.046875 399.335938 200.277344 C 400.703125 199.507812 402.03125 198.679688 403.320312 197.789062 C 404.609375 196.898438 405.855469 195.949219 407.058594 194.945312 C 408.261719 193.941406 409.414062 192.882812 410.523438 191.773438 C 411.628906 190.660156 412.679688 189.5 413.679688 188.292969 C 414.679688 187.085938 415.621094 185.835938 416.503906 184.542969 C 417.386719 183.246094 418.210938 181.914062 418.972656 180.546875 C 419.734375 179.175781 420.433594 177.773438 421.066406 176.339844 C 421.699219 174.90625 422.265625 173.445312 422.765625 171.960938 C 423.265625 170.476562 423.695312 168.96875 424.054688 167.445312 C 424.417969 165.917969 424.707031 164.382812 424.925781 162.828125 C 425.144531 161.277344 425.292969 159.71875 425.371094 158.152344 C 425.445312 156.589844 425.449219 155.023438 425.382812 153.457031 C 425.316406 151.890625 425.175781 150.332031 424.964844 148.777344 C 424.753906 147.226562 424.472656 145.683594 424.121094 144.15625 C 423.769531 142.628906 423.347656 141.121094 422.859375 139.632812 C 422.367188 138.144531 421.808594 136.683594 421.183594 135.246094 C 420.558594 133.808594 419.871094 132.402344 419.117188 131.027344 C 418.363281 129.652344 417.546875 128.316406 416.667969 127.019531 C 415.792969 125.71875 414.859375 124.464844 413.867188 123.25 C 412.871094 122.035156 411.828125 120.871094 410.726562 119.753906 C 409.628906 118.636719 408.480469 117.570312 407.285156 116.558594 C 406.085938 115.546875 404.84375 114.59375 403.558594 113.695312 C 402.277344 112.796875 400.953125 111.960938 399.589844 111.183594 C 398.230469 110.40625 396.835938 109.695312 395.40625 109.046875 C 393.980469 108.398438 392.527344 107.816406 391.046875 107.300781 C 389.566406 106.789062 388.0625 106.34375 386.542969 105.964844 C 385.019531 105.585938 383.484375 105.28125 381.9375 105.046875 C 380.386719 104.808594 378.828125 104.644531 377.265625 104.550781 C 375.699219 104.457031 374.132812 104.4375 372.566406 104.488281 C 371 104.539062 369.441406 104.660156 367.882812 104.855469 C 366.328125 105.050781 364.785156 105.316406 363.253906 105.652344 C 361.722656 105.988281 360.210938 106.390625 358.714844 106.867188 C 357.222656 107.339844 355.753906 107.882812 354.308594 108.492188 C 352.867188 109.101562 351.453125 109.777344 350.070312 110.515625 C 348.6875 111.257812 347.34375 112.058594 346.035156 112.921875 C 344.726562 113.785156 343.460938 114.703125 342.234375 115.683594 C 341.011719 116.664062 339.835938 117.695312 338.707031 118.785156 C 337.578125 119.871094 336.5 121.007812 335.476562 122.191406 C 334.453125 123.378906 333.484375 124.609375 332.570312 125.886719 C 331.660156 127.160156 330.808594 128.472656 330.019531 129.828125 C 329.226562 131.179688 328.5 132.566406 327.835938 133.988281 C 327.171875 135.40625 326.574219 136.855469 326.046875 138.328125 C 325.515625 139.804688 325.050781 141.300781 324.660156 142.816406 C 324.550781 143.230469 324.441406 143.628906 324.351562 144.042969 C 323.972656 145.675781 323.671875 147.324219 323.453125 148.988281 C 323.234375 150.652344 323.097656 152.320312 323.046875 153.996094 C 322.992188 155.671875 323.019531 157.347656 323.128906 159.019531 C 323.238281 160.695312 323.429688 162.359375 323.703125 164.011719 C 323.976562 165.667969 324.332031 167.304688 324.765625 168.921875 C 325.199219 170.542969 325.710938 172.136719 326.304688 173.707031 C 326.894531 175.277344 327.5625 176.8125 328.304688 178.316406 C 329.046875 179.820312 329.859375 181.285156 330.746094 182.707031 C 331.628906 184.132812 332.582031 185.511719 333.605469 186.839844 C 334.625 188.171875 335.710938 189.449219 336.855469 190.671875 C 338.003906 191.894531 339.207031 193.058594 340.46875 194.167969 C 341.730469 195.273438 343.039062 196.3125 344.402344 197.289062 C 345.765625 198.265625 347.175781 199.175781 348.628906 200.011719 C 350.078125 200.851562 351.570312 201.617188 353.097656 202.308594 C 354.625 203 356.183594 203.617188 357.769531 204.15625 C 359.359375 204.695312 360.96875 205.15625 362.601562 205.535156 Z M 362.601562 205.535156 " fill-opacity="1" fill-rule="nonzero"/><path fill="#2f2e41" d="M 409.863281 199.496094 C 416.988281 193.921875 417.679688 183.296875 423.757812 176.601562 C 433.917969 165.40625 438.691406 153.359375 433.371094 140.09375 C 428.660156 128.359375 429.660156 113.9375 419.523438 106.382812 C 424.503906 104.582031 425.675781 100.839844 421.28125 100.769531 C 418.316406 100.722656 407.269531 106.386719 412.585938 99.332031 C 417.902344 92.277344 407.839844 95.0625 408.503906 92.171875 C 409.167969 89.285156 413.4375 87.6875 415.320312 89.976562 C 409.308594 82.933594 396.1875 84.4375 391.921875 92.652344 C 385.933594 83.675781 379.574219 77.5 370.410156 83.195312 C 361.410156 88.789062 361.527344 95.703125 351.847656 94.042969 C 347.296875 93.261719 346.867188 101.859375 343.757812 105.273438 C 340.648438 108.683594 336.105469 111.328125 331.566406 110.46875 C 327.03125 109.613281 323.5625 103.957031 326.105469 100.105469 L 315.410156 124.496094 L 311.101562 119.210938 C 304.253906 123.671875 306.503906 135.316406 313.394531 139.707031 C 320.289062 144.101562 333.445312 133.949219 337.183594 141.214844 C 343.082031 152.667969 356.914062 146.886719 366.414062 138.792969 C 377.933594 128.972656 391.839844 158.824219 386.289062 172.902344 C 392.046875 167.25 402.699219 171.941406 405.679688 179.4375 C 408.664062 186.933594 406.476562 195.382812 404.265625 203.140625 Z M 409.863281 199.496094 " fill-opacity="1" fill-rule="nonzero"/><path fill="#3f3d56" d="M 312.332031 250.710938 L 314.117188 252.988281 L 318.917969 259.085938 L 336.691406 311.574219 L 420.621094 250.152344 L 418.21875 248.238281 L 405.4375 221.078125 L 339.785156 216.5625 L 320.144531 247.535156 Z M 312.332031 250.710938 " fill-opacity="1" fill-rule="nonzero"/><path fill="#ffffff" d="M 401.675781 384.582031 C 397.449219 430 367.191406 464.320312 334.097656 461.242188 C 301.003906 458.160156 277.605469 418.847656 281.832031 373.429688 C 316.164062 395.949219 355.9375 400.246094 401.675781 384.582031 Z M 401.675781 384.582031 " fill-opacity="1" fill-rule="nonzero"/><path fill="#ffffff" d="M 323.492188 330.570312 C 323.324219 333.277344 322.828125 335.929688 322.007812 338.515625 C 319.820312 345.273438 315.574219 350.035156 310.824219 350.585938 C 310.339844 350.652344 309.855469 350.667969 309.371094 350.636719 C 304.054688 350.292969 299.84375 344.683594 298.414062 336.992188 C 297.9375 334.320312 297.785156 331.628906 297.964844 328.917969 C 298.128906 326.234375 298.617188 323.609375 299.429688 321.046875 C 301.824219 313.574219 306.742188 308.503906 312.074219 308.851562 C 319.132812 309.308594 324.238281 319.035156 323.492188 330.570312 Z M 323.492188 330.570312 " fill-opacity="1" fill-rule="nonzero"/><path fill="#3f3d56" d="M 315.644531 339.621094 C 315.515625 341.675781 315.035156 343.644531 314.207031 345.53125 C 313.378906 347.417969 312.25 349.101562 310.824219 350.585938 C 310.339844 350.652344 309.855469 350.667969 309.371094 350.636719 C 304.054688 350.292969 299.847656 344.683594 298.414062 336.992188 C 297.9375 334.320312 297.785156 331.628906 297.964844 328.917969 C 298.128906 326.234375 298.617188 323.609375 299.429688 321.046875 C 300 321.089844 300.566406 321.15625 301.128906 321.25 C 301.691406 321.347656 302.246094 321.46875 302.796875 321.621094 C 303.347656 321.769531 303.890625 321.945312 304.421875 322.148438 C 304.957031 322.351562 305.480469 322.582031 305.988281 322.835938 C 306.5 323.089844 306.996094 323.367188 307.480469 323.671875 C 307.964844 323.972656 308.433594 324.296875 308.882812 324.648438 C 309.335938 324.996094 309.769531 325.367188 310.183594 325.757812 C 310.601562 326.148438 310.996094 326.558594 311.371094 326.988281 C 311.746094 327.417969 312.097656 327.863281 312.429688 328.328125 C 312.761719 328.792969 313.070312 329.273438 313.355469 329.769531 C 313.640625 330.261719 313.898438 330.769531 314.132812 331.289062 C 314.367188 331.808594 314.578125 332.339844 314.757812 332.878906 C 314.941406 333.421875 315.097656 333.96875 315.226562 334.523438 C 315.355469 335.078125 315.457031 335.640625 315.53125 336.207031 C 315.605469 336.773438 315.652344 337.339844 315.671875 337.910156 C 315.691406 338.480469 315.679688 339.050781 315.644531 339.621094 Z M 315.644531 339.621094 " fill-opacity="1" fill-rule="nonzero"/><path fill="#ffffff" d="M 376.375 333.988281 C 375.660156 345.058594 369.804688 353.777344 363.097656 354.0625 C 362.816406 354.074219 362.535156 354.074219 362.253906 354.054688 C 355.207031 353.597656 350.101562 343.871094 350.847656 332.335938 C 351.007812 329.65625 351.496094 327.039062 352.3125 324.484375 C 354.707031 316.992188 359.625 311.925781 364.953125 312.269531 C 372.015625 312.726562 377.121094 322.453125 376.375 333.988281 Z M 376.375 333.988281 " fill-opacity="1" fill-rule="nonzero"/><path fill="#3f3d56" d="M 368 343.003906 C 367.871094 345.082031 367.382812 347.070312 366.539062 348.972656 C 365.695312 350.875 364.550781 352.570312 363.097656 354.0625 C 362.816406 354.074219 362.535156 354.074219 362.253906 354.054688 C 355.207031 353.597656 350.101562 343.871094 350.847656 332.335938 C 351.007812 329.660156 351.496094 327.039062 352.3125 324.484375 C 353.425781 324.59375 354.523438 324.8125 355.597656 325.136719 C 356.671875 325.457031 357.703125 325.878906 358.695312 326.402344 C 359.691406 326.925781 360.625 327.535156 361.5 328.238281 C 362.375 328.941406 363.171875 329.71875 363.898438 330.574219 C 364.625 331.429688 365.261719 332.347656 365.808594 333.324219 C 366.355469 334.304688 366.808594 335.324219 367.160156 336.390625 C 367.511719 337.457031 367.757812 338.542969 367.898438 339.65625 C 368.039062 340.769531 368.074219 341.886719 368 343.003906 Z M 368 343.003906 " fill-opacity="1" fill-rule="nonzero"/><path fill="#f2f2f2" d="M 88.292969 462.023438 C 88.292969 462.839844 88.253906 463.65625 88.171875 464.46875 C 88.09375 465.28125 87.972656 466.089844 87.8125 466.890625 C 87.652344 467.691406 87.453125 468.484375 87.21875 469.265625 C 86.980469 470.046875 86.707031 470.816406 86.390625 471.570312 C 86.078125 472.324219 85.730469 473.0625 85.34375 473.785156 C 84.960938 474.503906 84.539062 475.203125 84.085938 475.882812 C 83.632812 476.5625 83.144531 477.21875 82.628906 477.851562 C 82.109375 478.484375 81.5625 479.085938 80.984375 479.664062 C 80.40625 480.242188 79.800781 480.789062 79.167969 481.308594 C 78.535156 481.828125 77.882812 482.3125 77.203125 482.769531 C 76.523438 483.222656 75.820312 483.640625 75.101562 484.027344 C 74.378906 484.410156 73.640625 484.761719 72.886719 485.074219 C 72.132812 485.386719 71.363281 485.660156 70.582031 485.898438 C 69.800781 486.136719 69.007812 486.335938 68.207031 486.492188 C 67.40625 486.652344 66.597656 486.773438 65.785156 486.851562 C 64.96875 486.933594 64.15625 486.972656 63.339844 486.972656 C 62.519531 486.972656 61.707031 486.933594 60.890625 486.851562 C 60.078125 486.773438 59.269531 486.652344 58.46875 486.492188 C 57.667969 486.335938 56.875 486.136719 56.09375 485.898438 C 55.3125 485.660156 54.542969 485.386719 53.789062 485.074219 C 53.035156 484.761719 52.296875 484.410156 51.574219 484.027344 C 50.855469 483.640625 50.152344 483.222656 49.472656 482.769531 C 48.792969 482.3125 48.140625 481.828125 47.507812 481.308594 C 46.875 480.792969 46.269531 480.242188 45.691406 479.664062 C 45.113281 479.085938 44.566406 478.484375 44.046875 477.851562 C 43.53125 477.21875 43.042969 476.5625 42.589844 475.882812 C 42.136719 475.203125 41.714844 474.503906 41.332031 473.785156 C 40.945312 473.0625 40.597656 472.324219 40.285156 471.570312 C 39.96875 470.816406 39.695312 470.046875 39.457031 469.265625 C 39.222656 468.484375 39.023438 467.691406 38.863281 466.890625 C 38.703125 466.089844 38.585938 465.28125 38.503906 464.46875 C 38.425781 463.65625 38.382812 462.839844 38.382812 462.023438 C 38.382812 461.207031 38.425781 460.390625 38.503906 459.578125 C 38.585938 458.761719 38.703125 457.957031 38.863281 457.15625 C 39.023438 456.351562 39.222656 455.5625 39.457031 454.78125 C 39.695312 453.996094 39.96875 453.230469 40.285156 452.472656 C 40.597656 451.71875 40.945312 450.980469 41.332031 450.261719 C 41.714844 449.539062 42.136719 448.839844 42.589844 448.160156 C 43.042969 447.480469 43.53125 446.824219 44.046875 446.195312 C 44.566406 445.5625 45.113281 444.957031 45.691406 444.378906 C 46.269531 443.800781 46.875 443.253906 47.507812 442.734375 C 48.140625 442.21875 48.792969 441.730469 49.472656 441.277344 C 50.152344 440.824219 50.855469 440.402344 51.574219 440.019531 C 52.296875 439.632812 53.035156 439.285156 53.789062 438.972656 C 54.542969 438.660156 55.3125 438.382812 56.09375 438.144531 C 56.875 437.910156 57.667969 437.710938 58.46875 437.550781 C 59.269531 437.390625 60.078125 437.273438 60.890625 437.191406 C 61.707031 437.113281 62.519531 437.070312 63.339844 437.070312 C 64.15625 437.070312 64.96875 437.113281 65.785156 437.191406 C 66.597656 437.273438 67.40625 437.390625 68.207031 437.550781 C 69.007812 437.710938 69.800781 437.910156 70.582031 438.144531 C 71.363281 438.382812 72.132812 438.660156 72.886719 438.972656 C 73.640625 439.285156 74.378906 439.632812 75.101562 440.019531 C 75.820312 440.402344 76.523438 440.824219 77.203125 441.277344 C 77.882812 441.730469 78.535156 442.21875 79.167969 442.734375 C 79.800781 443.253906 80.40625 443.800781 80.984375 444.378906 C 81.5625 444.957031 82.109375 445.5625 82.628906 446.195312 C 83.144531 446.824219 83.632812 447.480469 84.085938 448.160156 C 84.539062 448.839844 84.960938 449.539062 85.34375 450.261719 C 85.730469 450.980469 86.078125 451.71875 86.390625 452.472656 C 86.707031 453.230469 86.980469 453.996094 87.21875 454.78125 C 87.453125 455.5625 87.652344 456.351562 87.8125 457.15625 C 87.972656 457.957031 88.09375 458.761719 88.171875 459.578125 C 88.253906 460.390625 88.292969 461.207031 88.292969 462.023438 Z M 88.292969 462.023438 " fill-opacity="1" fill-rule="nonzero"/><path fill="#ffffff" d="M 66.5 451.621094 C 66.472656 452.179688 66.515625 452.734375 66.625 453.285156 C 66.679688 453.890625 66.890625 454.441406 67.253906 454.933594 C 67.617188 455.421875 68.082031 455.78125 68.648438 456.011719 C 68.746094 456.035156 68.847656 456.046875 68.945312 456.050781 C 70.042969 456.101562 71.03125 455.046875 71.5 453.5 C 71.65625 452.960938 71.746094 452.414062 71.773438 451.855469 C 71.796875 451.300781 71.757812 450.75 71.648438 450.207031 C 71.324219 448.621094 70.429688 447.472656 69.328125 447.421875 C 67.871094 447.359375 66.605469 449.238281 66.5 451.621094 Z M 66.5 451.621094 " fill-opacity="1" fill-rule="nonzero"/><path fill="#f2f2f2" d="M 67.90625 453.652344 C 67.867188 454.527344 68.113281 455.316406 68.648438 456.011719 C 68.746094 456.035156 68.847656 456.046875 68.945312 456.050781 C 70.042969 456.101562 71.03125 455.046875 71.5 453.5 C 71.65625 452.960938 71.746094 452.414062 71.773438 451.855469 C 71.796875 451.300781 71.757812 450.75 71.648438 450.207031 C 71.171875 450.1875 70.710938 450.261719 70.261719 450.425781 C 69.816406 450.589844 69.417969 450.835938 69.066406 451.15625 C 68.714844 451.480469 68.441406 451.859375 68.238281 452.289062 C 68.039062 452.722656 67.925781 453.175781 67.90625 453.652344 Z M 67.90625 453.652344 " fill-opacity="1" fill-rule="nonzero"/><path fill="#ffffff" d="M 55.578125 451.136719 C 55.476562 453.425781 56.480469 455.34375 57.851562 455.550781 C 57.910156 455.5625 57.964844 455.566406 58.023438 455.570312 C 59.480469 455.632812 60.746094 453.753906 60.851562 451.371094 C 60.878906 450.816406 60.835938 450.269531 60.726562 449.726562 C 60.402344 448.136719 59.507812 446.988281 58.40625 446.9375 C 56.949219 446.875 55.683594 448.753906 55.578125 451.136719 Z M 55.578125 451.136719 " fill-opacity="1" fill-rule="nonzero"/><path fill="#f2f2f2" d="M 57.09375 453.175781 C 57.050781 454.058594 57.304688 454.851562 57.851562 455.550781 C 57.910156 455.5625 57.964844 455.566406 58.023438 455.570312 C 59.480469 455.632812 60.746094 453.753906 60.851562 451.371094 C 60.878906 450.816406 60.835938 450.269531 60.726562 449.726562 C 60.257812 449.722656 59.808594 449.804688 59.375 449.976562 C 58.9375 450.148438 58.550781 450.394531 58.214844 450.714844 C 57.875 451.039062 57.609375 451.410156 57.414062 451.835938 C 57.21875 452.261719 57.113281 452.707031 57.09375 453.175781 Z M 57.09375 453.175781 " fill-opacity="1" fill-rule="nonzero"/><path fill="#ffffff" d="M 73.683594 464.085938 C 73.402344 470.417969 69.433594 475.386719 64.820312 475.183594 C 60.203125 474.976562 56.691406 469.679688 56.972656 463.34375 C 58.230469 464.070312 59.5625 464.640625 60.957031 465.046875 C 62.355469 465.453125 63.78125 465.691406 65.238281 465.753906 C 66.691406 465.820312 68.132812 465.710938 69.558594 465.425781 C 70.988281 465.144531 72.363281 464.699219 73.683594 464.085938 Z M 73.683594 464.085938 " fill-opacity="1" fill-rule="nonzero"/><path fill="#f2f2f2" d="M 568.457031 169.632812 C 568.457031 170.449219 568.417969 171.265625 568.335938 172.078125 C 568.257812 172.890625 568.136719 173.699219 567.976562 174.5 C 567.816406 175.300781 567.621094 176.09375 567.382812 176.875 C 567.144531 177.65625 566.871094 178.425781 566.558594 179.179688 C 566.246094 179.933594 565.894531 180.671875 565.511719 181.394531 C 565.125 182.113281 564.707031 182.816406 564.25 183.492188 C 563.796875 184.171875 563.308594 184.828125 562.792969 185.460938 C 562.273438 186.09375 561.726562 186.695312 561.148438 187.273438 C 560.570312 187.851562 559.964844 188.402344 559.332031 188.917969 C 558.703125 189.4375 558.046875 189.925781 557.367188 190.378906 C 556.6875 190.832031 555.988281 191.25 555.265625 191.636719 C 554.546875 192.023438 553.808594 192.371094 553.050781 192.683594 C 552.296875 192.996094 551.527344 193.269531 550.746094 193.507812 C 549.964844 193.746094 549.171875 193.945312 548.371094 194.101562 C 547.570312 194.261719 546.761719 194.382812 545.949219 194.460938 C 545.136719 194.542969 544.320312 194.582031 543.503906 194.582031 C 542.683594 194.582031 541.871094 194.542969 541.054688 194.460938 C 540.242188 194.382812 539.4375 194.261719 538.632812 194.101562 C 537.832031 193.945312 537.039062 193.746094 536.257812 193.507812 C 535.476562 193.269531 534.707031 192.996094 533.953125 192.683594 C 533.199219 192.371094 532.460938 192.023438 531.738281 191.636719 C 531.019531 191.25 530.316406 190.832031 529.636719 190.378906 C 528.960938 189.925781 528.304688 189.4375 527.671875 188.917969 C 527.039062 188.402344 526.433594 187.851562 525.855469 187.273438 C 525.277344 186.695312 524.730469 186.09375 524.210938 185.460938 C 523.695312 184.828125 523.207031 184.171875 522.753906 183.492188 C 522.300781 182.816406 521.878906 182.113281 521.496094 181.394531 C 521.109375 180.671875 520.761719 179.933594 520.449219 179.179688 C 520.136719 178.425781 519.859375 177.65625 519.621094 176.875 C 519.386719 176.09375 519.1875 175.300781 519.027344 174.5 C 518.867188 173.699219 518.75 172.890625 518.667969 172.078125 C 518.589844 171.265625 518.546875 170.449219 518.546875 169.632812 C 518.546875 168.816406 518.589844 168 518.667969 167.1875 C 518.75 166.375 518.867188 165.566406 519.027344 164.765625 C 519.1875 163.964844 519.386719 163.171875 519.621094 162.390625 C 519.859375 161.605469 520.136719 160.839844 520.449219 160.082031 C 520.761719 159.328125 521.109375 158.589844 521.496094 157.871094 C 521.878906 157.148438 522.300781 156.449219 522.753906 155.769531 C 523.207031 155.089844 523.695312 154.433594 524.210938 153.804688 C 524.730469 153.171875 525.277344 152.566406 525.855469 151.988281 C 526.433594 151.410156 527.039062 150.863281 527.671875 150.34375 C 528.304688 149.828125 528.960938 149.339844 529.636719 148.886719 C 530.316406 148.433594 531.019531 148.011719 531.738281 147.628906 C 532.460938 147.242188 533.199219 146.894531 533.953125 146.582031 C 534.707031 146.269531 535.476562 145.992188 536.257812 145.757812 C 537.039062 145.519531 537.832031 145.320312 538.632812 145.160156 C 539.4375 145 540.242188 144.882812 541.054688 144.800781 C 541.871094 144.722656 542.683594 144.679688 543.503906 144.679688 C 544.320312 144.679688 545.136719 144.722656 545.949219 144.800781 C 546.761719 144.882812 547.570312 145 548.371094 145.160156 C 549.171875 145.320312 549.964844 145.519531 550.746094 145.757812 C 551.527344 145.992188 552.296875 146.269531 553.050781 146.582031 C 553.808594 146.894531 554.542969 147.242188 555.265625 147.628906 C 555.988281 148.011719 556.6875 148.433594 557.367188 148.886719 C 558.046875 149.339844 558.703125 149.828125 559.332031 150.34375 C 559.964844 150.863281 560.570312 151.410156 561.148438 151.988281 C 561.726562 152.566406 562.273438 153.171875 562.792969 153.804688 C 563.308594 154.433594 563.796875 155.089844 564.25 155.769531 C 564.703125 156.449219 565.125 157.148438 565.511719 157.871094 C 565.894531 158.589844 566.246094 159.328125 566.558594 160.082031 C 566.871094 160.839844 567.144531 161.605469 567.382812 162.390625 C 567.621094 163.171875 567.816406 163.964844 567.976562 164.765625 C 568.136719 165.566406 568.257812 166.375 568.335938 167.1875 C 568.417969 168 568.457031 168.816406 568.457031 169.632812 Z M 568.457031 169.632812 " fill-opacity="1" fill-rule="nonzero"/><path fill="#ffffff" d="M 546.664062 159.230469 C 546.636719 159.789062 546.679688 160.34375 546.789062 160.894531 C 546.84375 161.503906 547.054688 162.050781 547.417969 162.542969 C 547.78125 163.03125 548.246094 163.390625 548.8125 163.621094 C 548.910156 163.644531 549.011719 163.65625 549.109375 163.664062 C 550.207031 163.710938 551.195312 162.65625 551.664062 161.109375 C 551.820312 160.574219 551.914062 160.023438 551.9375 159.464844 C 551.964844 158.910156 551.921875 158.359375 551.8125 157.816406 C 551.488281 156.230469 550.59375 155.082031 549.492188 155.03125 C 548.035156 154.96875 546.769531 156.847656 546.664062 159.230469 Z M 546.664062 159.230469 " fill-opacity="1" fill-rule="nonzero"/><path fill="#f2f2f2" d="M 548.070312 161.261719 C 548.03125 162.140625 548.277344 162.925781 548.8125 163.621094 C 548.910156 163.644531 549.011719 163.65625 549.109375 163.664062 C 550.207031 163.710938 551.195312 162.65625 551.664062 161.109375 C 551.820312 160.574219 551.914062 160.023438 551.9375 159.464844 C 551.964844 158.910156 551.921875 158.359375 551.8125 157.816406 C 551.335938 157.796875 550.875 157.871094 550.425781 158.035156 C 549.980469 158.203125 549.582031 158.445312 549.230469 158.769531 C 548.878906 159.089844 548.605469 159.46875 548.402344 159.898438 C 548.203125 160.332031 548.089844 160.785156 548.070312 161.261719 Z M 548.070312 161.261719 " fill-opacity="1" fill-rule="nonzero"/><path fill="#ffffff" d="M 535.742188 158.746094 C 535.640625 161.035156 536.644531 162.953125 538.015625 163.160156 C 538.074219 163.171875 538.132812 163.175781 538.1875 163.179688 C 539.644531 163.242188 540.910156 161.363281 541.015625 158.980469 C 541.042969 158.425781 541 157.878906 540.890625 157.335938 C 540.566406 155.746094 539.671875 154.597656 538.570312 154.550781 C 537.113281 154.484375 535.847656 156.363281 535.742188 158.746094 Z M 535.742188 158.746094 " fill-opacity="1" fill-rule="nonzero"/><path fill="#f2f2f2" d="M 537.257812 160.785156 C 537.214844 161.667969 537.46875 162.460938 538.015625 163.160156 C 538.074219 163.171875 538.132812 163.175781 538.1875 163.179688 C 539.644531 163.242188 540.910156 161.363281 541.015625 158.980469 C 541.042969 158.425781 541 157.878906 540.890625 157.335938 C 540.421875 157.332031 539.972656 157.417969 539.539062 157.585938 C 539.101562 157.757812 538.714844 158.003906 538.378906 158.328125 C 538.039062 158.648438 537.773438 159.019531 537.578125 159.445312 C 537.386719 159.871094 537.277344 160.316406 537.257812 160.785156 Z M 537.257812 160.785156 " fill-opacity="1" fill-rule="nonzero"/><path fill="#ffffff" d="M 553.847656 171.695312 C 553.566406 178.027344 549.597656 182.996094 544.984375 182.792969 C 540.367188 182.585938 536.855469 177.289062 537.136719 170.953125 C 538.394531 171.683594 539.726562 172.25 541.125 172.65625 C 542.519531 173.0625 543.945312 173.300781 545.402344 173.363281 C 546.855469 173.429688 548.296875 173.320312 549.722656 173.039062 C 551.152344 172.753906 552.527344 172.308594 553.847656 171.695312 Z M 553.847656 171.695312 " fill-opacity="1" fill-rule="nonzero"/><g clip-path="url(#8c1d31d6eb)"><path fill="#87aece" d="M 627.75 397.40625 L 698.625 397.40625 L 698.625 483.507812 L 627.75 483.507812 Z M 627.75 397.40625 " fill-opacity="1" fill-rule="nonzero"/></g><g clip-path="url(#9b9f63b01c)"><path fill="#87aece" d="M 510.484375 118.867188 L 581.359375 118.867188 L 581.359375 204.96875 L 510.484375 204.96875 Z M 510.484375 118.867188 " fill-opacity="1" fill-rule="nonzero"/></g><g clip-path="url(#7014413480)"><path fill="#87aece" d="M 81 354.375 L 151.875 354.375 L 151.875 440.476562 L 81 440.476562 Z M 81 354.375 " fill-opacity="1" fill-rule="nonzero"/></g><g clip-path="url(#4b153f251b)"><g clip-path="url(#2bebeaa14f)"><path fill="#87aece" d="M 9.964844 441.476562 L 73.675781 405 L 116.421875 479.65625 L 52.710938 516.132812 Z M 9.964844 441.476562 " fill-opacity="1" fill-rule="nonzero"/></g></g></svg>