<svg xmlns="http://www.w3.org/2000/svg" xmlns:xlink="http://www.w3.org/1999/xlink" width="1080" zoomAndPan="magnify" viewBox="0 0 810 809.999993" height="1080" preserveAspectRatio="xMidYMid meet" version="1.0"><defs><clipPath id="fde595a47a"><path d="M 0 0 L 794.8125 0 L 794.8125 794.8125 L 0 794.8125 Z M 0 0 " clip-rule="nonzero"/></clipPath><clipPath id="afa06b7039"><path d="M 397.40625 0 C 177.925781 0 0 177.925781 0 397.40625 C 0 616.886719 177.925781 794.8125 397.40625 794.8125 C 616.886719 794.8125 794.8125 616.886719 794.8125 397.40625 C 794.8125 177.925781 616.886719 0 397.40625 0 Z M 397.40625 0 " clip-rule="nonzero"/></clipPath><clipPath id="c717b532ee"><path d="M 627.75 397.40625 L 698.625 397.40625 L 698.625 483.46875 L 627.75 483.46875 Z M 627.75 397.40625 " clip-rule="nonzero"/></clipPath><clipPath id="41f19435f2"><path d="M 510.484375 118.867188 L 581.359375 118.867188 L 581.359375 204.929688 L 510.484375 204.929688 Z M 510.484375 118.867188 " clip-rule="nonzero"/></clipPath><clipPath id="6f46ea531e"><path d="M 81 354.375 L 151.875 354.375 L 151.875 440.4375 L 81 440.4375 Z M 81 354.375 " clip-rule="nonzero"/></clipPath><clipPath id="b73bd1a4c4"><path d="M 9 405 L 117 405 L 117 517 L 9 517 Z M 9 405 " clip-rule="nonzero"/></clipPath><clipPath id="ec3bdcef1f"><path d="M 9.964844 441.476562 L 73.675781 405 L 116.4375 479.683594 L 52.726562 516.164062 Z M 9.964844 441.476562 " clip-rule="nonzero"/></clipPath><clipPath id="0ee24c7b04"><path d="M 0 607.5 L 45.5625 607.5 L 45.5625 810 L 0 810 Z M 0 607.5 " clip-rule="nonzero"/></clipPath></defs><g clip-path="url(#fde595a47a)"><g clip-path="url(#afa06b7039)"><path fill="#87aece" d="M 0 0 L 794.8125 0 L 794.8125 794.8125 L 0 794.8125 Z M 0 0 " fill-opacity="1" fill-rule="nonzero"/></g></g><g clip-path="url(#c717b532ee)"><path fill="#87aece" d="M 627.75 397.40625 L 698.625 397.40625 L 698.625 483.507812 L 627.75 483.507812 Z M 627.75 397.40625 " fill-opacity="1" fill-rule="nonzero"/></g><g clip-path="url(#41f19435f2)"><path fill="#87aece" d="M 510.484375 118.867188 L 581.359375 118.867188 L 581.359375 204.96875 L 510.484375 204.96875 Z M 510.484375 118.867188 " fill-opacity="1" fill-rule="nonzero"/></g><g clip-path="url(#6f46ea531e)"><path fill="#87aece" d="M 81 354.375 L 151.875 354.375 L 151.875 440.476562 L 81 440.476562 Z M 81 354.375 " fill-opacity="1" fill-rule="nonzero"/></g><g clip-path="url(#b73bd1a4c4)"><g clip-path="url(#ec3bdcef1f)"><path fill="#87aece" d="M 9.964844 441.476562 L 73.675781 405 L 116.421875 479.65625 L 52.710938 516.132812 Z M 9.964844 441.476562 " fill-opacity="1" fill-rule="nonzero"/></g></g><path fill="#fdb4b4" d="M -60.105469 757.359375 C -60.757812 746.667969 -58.839844 735.976562 -54.511719 726.179688 L -66.847656 614.90625 L -13.722656 610.585938 L -6.933594 723.921875 C -1.699219 733.265625 1.21875 743.726562 1.578125 754.429688 C 2.847656 781.203125 -9.933594 803.550781 -26.96875 804.359375 C -44.003906 805.167969 -58.839844 784.125 -60.105469 757.359375 Z M -60.105469 757.359375 " fill-opacity="1" fill-rule="nonzero"/><path fill="#e8e9ea" d="M -76.496094 693 L -132.109375 321.832031 C -135 310.949219 -133.308594 299.558594 -127.320312 289.882812 C -121.332031 280.203125 -111.898438 273.605469 -100.75 271.296875 C -79.425781 266.886719 -58.367188 279.921875 -52.800781 300.96875 L 0.625 688.339844 Z M -76.496094 693 " fill-opacity="1" fill-rule="nonzero"/><path fill="#2e2e41" d="M 311.523438 194.402344 L 393.65625 149.417969 L 393.65625 277.953125 L 298.667969 277.953125 Z M 311.523438 194.402344 " fill-opacity="1" fill-rule="nonzero"/><path fill="#fdb4b4" d="M 411.265625 223.0625 L 418.84375 286.164062 L 364.214844 394.9375 L 330.308594 293.699219 L 346.25 220.964844 Z M 411.265625 223.0625 " fill-opacity="1" fill-rule="nonzero"/><path fill="#9dde89" d="M 327.34375 289.929688 L 421.667969 289.929688 L 421.667969 403.882812 L 327.34375 403.882812 Z M 327.34375 289.929688 " fill-opacity="1" fill-rule="nonzero"/><path fill="#e8e9ea" d="M 563.449219 971.296875 L 562.003906 971.292969 L 176.308594 970.035156 L 176.65625 968.667969 L 275.816406 575.84375 L 250.976562 377.597656 C 246.269531 340.03125 266.382812 304.523438 301.023438 289.242188 L 313.53125 283.726562 L 337.289062 266.453125 L 367.679688 373.835938 L 416.351562 266.367188 L 437.792969 287.804688 L 486.144531 300.632812 C 516.285156 308.625 535.8125 337.945312 531.566406 368.832031 L 531.511719 369.046875 L 457.671875 579.71875 Z M 563.449219 971.296875 " fill-opacity="1" fill-rule="nonzero"/><path fill="#fdb4b4" d="M 523.035156 761.078125 C 521.53125 786.90625 506.980469 807.070312 490.539062 806.113281 C 474.097656 805.152344 461.992188 783.4375 463.5 757.59375 C 463.960938 747.265625 466.890625 737.195312 472.039062 728.226562 L 479.792969 618.859375 L 531.046875 623.589844 L 517.960938 730.90625 C 522.039062 740.414062 523.777344 750.757812 523.035156 761.078125 Z M 523.035156 761.078125 " fill-opacity="1" fill-rule="nonzero"/><path fill="#fdb4b4" d="M 259.652344 751.253906 C 257.597656 777.046875 242.625 796.894531 226.207031 795.585938 C 209.789062 794.277344 198.148438 772.308594 200.207031 746.507812 C 200.886719 736.1875 204.027344 726.183594 209.367188 717.328125 L 219.445312 608.148438 L 270.585938 613.96875 L 255.222656 720.984375 C 259.09375 730.574219 260.613281 740.953125 259.652344 751.253906 Z M 259.652344 751.253906 " fill-opacity="1" fill-rule="nonzero"/><path fill="#e8e9ea" d="M 531.289062 718.078125 L 456.851562 713.328125 L 456.941406 712.210938 L 471.8125 526.105469 L 448.058594 351.101562 C 446.578125 340.199219 449.5625 329.476562 456.464844 320.910156 C 463.367188 312.34375 473.207031 307.140625 484.175781 306.261719 C 505.175781 304.609375 523.796875 319.605469 526.617188 340.460938 L 558.179688 573.8125 L 558.144531 573.988281 Z M 531.289062 718.078125 " fill-opacity="1" fill-rule="nonzero"/><path fill="#e8e9ea" d="M 272.042969 710.949219 L 197.488281 706.441406 L 197.652344 705.265625 L 249.0625 332.449219 C 254.46875 311.976562 274.832031 299.378906 295.4375 303.640625 C 306.214844 305.867188 315.332031 312.246094 321.121094 321.605469 C 326.910156 330.960938 328.542969 341.96875 325.726562 352.601562 Z M 272.042969 710.949219 " fill-opacity="1" fill-rule="nonzero"/><path fill="#d6d7d8" d="M 372.691406 400.117188 C 372.691406 400.546875 372.648438 400.976562 372.5625 401.402344 C 372.480469 401.828125 372.355469 402.238281 372.1875 402.640625 C 372.023438 403.039062 371.820312 403.417969 371.578125 403.777344 C 371.339844 404.136719 371.066406 404.472656 370.757812 404.777344 C 370.453125 405.082031 370.121094 405.355469 369.761719 405.597656 C 369.398438 405.835938 369.019531 406.039062 368.621094 406.207031 C 368.21875 406.371094 367.808594 406.496094 367.382812 406.582031 C 366.957031 406.667969 366.53125 406.707031 366.097656 406.707031 C 365.664062 406.707031 365.234375 406.667969 364.8125 406.582031 C 364.386719 406.496094 363.972656 406.371094 363.574219 406.207031 C 363.175781 406.039062 362.792969 405.835938 362.433594 405.597656 C 362.074219 405.355469 361.742188 405.082031 361.433594 404.777344 C 361.128906 404.472656 360.855469 404.136719 360.613281 403.777344 C 360.375 403.417969 360.171875 403.039062 360.003906 402.640625 C 359.839844 402.238281 359.714844 401.828125 359.628906 401.402344 C 359.546875 400.976562 359.503906 400.546875 359.503906 400.117188 C 359.503906 399.683594 359.546875 399.253906 359.628906 398.828125 C 359.714844 398.40625 359.839844 397.992188 360.003906 397.59375 C 360.171875 397.191406 360.375 396.8125 360.613281 396.453125 C 360.855469 396.09375 361.128906 395.761719 361.433594 395.453125 C 361.742188 395.148438 362.074219 394.875 362.433594 394.632812 C 362.792969 394.394531 363.175781 394.191406 363.574219 394.023438 C 363.972656 393.859375 364.386719 393.734375 364.8125 393.648438 C 365.234375 393.566406 365.664062 393.523438 366.097656 393.523438 C 366.53125 393.523438 366.957031 393.566406 367.382812 393.648438 C 367.808594 393.734375 368.21875 393.859375 368.621094 394.023438 C 369.019531 394.191406 369.398438 394.394531 369.761719 394.632812 C 370.121094 394.875 370.453125 395.148438 370.757812 395.453125 C 371.066406 395.761719 371.339844 396.09375 371.578125 396.453125 C 371.820312 396.8125 372.023438 397.191406 372.1875 397.59375 C 372.355469 397.992188 372.480469 398.40625 372.5625 398.828125 C 372.648438 399.253906 372.691406 399.683594 372.691406 400.117188 Z M 372.691406 400.117188 " fill-opacity="1" fill-rule="nonzero"/><path fill="#d6d7d8" d="M 372.691406 450.03125 C 372.691406 450.460938 372.648438 450.890625 372.5625 451.316406 C 372.480469 451.742188 372.355469 452.152344 372.1875 452.554688 C 372.023438 452.953125 371.820312 453.332031 371.578125 453.691406 C 371.339844 454.050781 371.066406 454.386719 370.757812 454.691406 C 370.453125 454.996094 370.121094 455.269531 369.761719 455.511719 C 369.398438 455.75 369.019531 455.953125 368.621094 456.121094 C 368.21875 456.285156 367.808594 456.410156 367.382812 456.496094 C 366.957031 456.582031 366.53125 456.621094 366.097656 456.621094 C 365.664062 456.621094 365.234375 456.582031 364.8125 456.496094 C 364.386719 456.410156 363.972656 456.285156 363.574219 456.121094 C 363.175781 455.953125 362.792969 455.75 362.433594 455.511719 C 362.074219 455.269531 361.742188 454.996094 361.433594 454.691406 C 361.128906 454.386719 360.855469 454.050781 360.613281 453.691406 C 360.375 453.332031 360.171875 452.953125 360.003906 452.554688 C 359.839844 452.152344 359.714844 451.742188 359.628906 451.316406 C 359.546875 450.890625 359.503906 450.460938 359.503906 450.03125 C 359.503906 449.597656 359.546875 449.167969 359.628906 448.742188 C 359.714844 448.320312 359.839844 447.90625 360.003906 447.507812 C 360.171875 447.105469 360.375 446.726562 360.613281 446.367188 C 360.855469 446.007812 361.128906 445.675781 361.433594 445.367188 C 361.742188 445.0625 362.074219 444.789062 362.433594 444.546875 C 362.792969 444.308594 363.175781 444.105469 363.574219 443.9375 C 363.972656 443.773438 364.386719 443.648438 364.8125 443.5625 C 365.234375 443.480469 365.664062 443.4375 366.097656 443.4375 C 366.53125 443.4375 366.957031 443.480469 367.382812 443.5625 C 367.808594 443.648438 368.21875 443.773438 368.621094 443.9375 C 369.019531 444.105469 369.398438 444.308594 369.761719 444.546875 C 370.121094 444.789062 370.453125 445.0625 370.757812 445.367188 C 371.066406 445.675781 371.339844 446.007812 371.578125 446.367188 C 371.820312 446.726562 372.023438 447.105469 372.1875 447.507812 C 372.355469 447.90625 372.480469 448.320312 372.5625 448.742188 C 372.648438 449.167969 372.691406 449.597656 372.691406 450.03125 Z M 372.691406 450.03125 " fill-opacity="1" fill-rule="nonzero"/><path fill="#d6d7d8" d="M 372.691406 499.941406 C 372.691406 500.375 372.648438 500.804688 372.5625 501.226562 C 372.480469 501.652344 372.355469 502.066406 372.1875 502.464844 C 372.023438 502.863281 371.820312 503.246094 371.578125 503.605469 C 371.339844 503.964844 371.066406 504.296875 370.757812 504.601562 C 370.453125 504.910156 370.121094 505.183594 369.761719 505.421875 C 369.398438 505.664062 369.019531 505.867188 368.621094 506.03125 C 368.21875 506.199219 367.808594 506.324219 367.382812 506.40625 C 366.957031 506.492188 366.53125 506.535156 366.097656 506.535156 C 365.664062 506.535156 365.234375 506.492188 364.8125 506.40625 C 364.386719 506.324219 363.972656 506.199219 363.574219 506.03125 C 363.175781 505.867188 362.792969 505.664062 362.433594 505.421875 C 362.074219 505.183594 361.742188 504.910156 361.433594 504.601562 C 361.128906 504.296875 360.855469 503.964844 360.613281 503.605469 C 360.375 503.246094 360.171875 502.863281 360.003906 502.464844 C 359.839844 502.066406 359.714844 501.652344 359.628906 501.226562 C 359.546875 500.804688 359.503906 500.375 359.503906 499.941406 C 359.503906 499.507812 359.546875 499.082031 359.628906 498.65625 C 359.714844 498.230469 359.839844 497.820312 360.003906 497.417969 C 360.171875 497.019531 360.375 496.640625 360.613281 496.277344 C 360.855469 495.917969 361.128906 495.585938 361.433594 495.28125 C 361.742188 494.972656 362.074219 494.699219 362.433594 494.460938 C 362.792969 494.21875 363.175781 494.015625 363.574219 493.851562 C 363.972656 493.683594 364.386719 493.558594 364.8125 493.476562 C 365.234375 493.390625 365.664062 493.347656 366.097656 493.347656 C 366.53125 493.347656 366.957031 493.390625 367.382812 493.476562 C 367.808594 493.558594 368.21875 493.683594 368.621094 493.851562 C 369.019531 494.015625 369.398438 494.21875 369.761719 494.460938 C 370.121094 494.699219 370.453125 494.972656 370.757812 495.28125 C 371.066406 495.585938 371.339844 495.917969 371.578125 496.277344 C 371.820312 496.640625 372.023438 497.019531 372.1875 497.417969 C 372.355469 497.820312 372.480469 498.230469 372.5625 498.65625 C 372.648438 499.082031 372.691406 499.507812 372.691406 499.941406 Z M 372.691406 499.941406 " fill-opacity="1" fill-rule="nonzero"/><path fill="#d6d7d8" d="M 372.691406 549.855469 C 372.691406 550.289062 372.648438 550.71875 372.5625 551.140625 C 372.480469 551.566406 372.355469 551.980469 372.1875 552.378906 C 372.023438 552.777344 371.820312 553.160156 371.578125 553.519531 C 371.339844 553.878906 371.066406 554.210938 370.757812 554.519531 C 370.453125 554.824219 370.121094 555.097656 369.761719 555.335938 C 369.398438 555.578125 369.019531 555.78125 368.621094 555.945312 C 368.21875 556.113281 367.808594 556.238281 367.382812 556.320312 C 366.957031 556.40625 366.53125 556.449219 366.097656 556.449219 C 365.664062 556.449219 365.234375 556.40625 364.8125 556.320312 C 364.386719 556.238281 363.972656 556.113281 363.574219 555.945312 C 363.175781 555.78125 362.792969 555.578125 362.433594 555.335938 C 362.074219 555.097656 361.742188 554.824219 361.433594 554.519531 C 361.128906 554.210938 360.855469 553.878906 360.613281 553.519531 C 360.375 553.160156 360.171875 552.777344 360.003906 552.378906 C 359.839844 551.980469 359.714844 551.566406 359.628906 551.140625 C 359.546875 550.71875 359.503906 550.289062 359.503906 549.855469 C 359.503906 549.421875 359.546875 548.996094 359.628906 548.570312 C 359.714844 548.144531 359.839844 547.734375 360.003906 547.332031 C 360.171875 546.933594 360.375 546.554688 360.613281 546.191406 C 360.855469 545.832031 361.128906 545.5 361.433594 545.195312 C 361.742188 544.886719 362.074219 544.613281 362.433594 544.375 C 362.792969 544.132812 363.175781 543.929688 363.574219 543.765625 C 363.972656 543.597656 364.386719 543.472656 364.8125 543.390625 C 365.234375 543.304688 365.664062 543.261719 366.097656 543.261719 C 366.53125 543.261719 366.957031 543.304688 367.382812 543.390625 C 367.808594 543.472656 368.21875 543.597656 368.621094 543.765625 C 369.019531 543.929688 369.398438 544.132812 369.761719 544.375 C 370.121094 544.613281 370.453125 544.886719 370.757812 545.195312 C 371.066406 545.5 371.339844 545.832031 371.578125 546.191406 C 371.820312 546.554688 372.023438 546.933594 372.1875 547.332031 C 372.355469 547.734375 372.480469 548.144531 372.5625 548.570312 C 372.648438 548.996094 372.691406 549.421875 372.691406 549.855469 Z M 372.691406 549.855469 " fill-opacity="1" fill-rule="nonzero"/><path fill="#d6d7d8" d="M 372.691406 599.769531 C 372.691406 600.199219 372.648438 600.628906 372.5625 601.054688 C 372.480469 601.476562 372.355469 601.890625 372.1875 602.289062 C 372.023438 602.691406 371.820312 603.070312 371.578125 603.429688 C 371.339844 603.789062 371.066406 604.125 370.757812 604.429688 C 370.453125 604.734375 370.121094 605.007812 369.761719 605.25 C 369.398438 605.488281 369.019531 605.691406 368.621094 605.859375 C 368.21875 606.023438 367.808594 606.148438 367.382812 606.234375 C 366.957031 606.316406 366.53125 606.359375 366.097656 606.359375 C 365.664062 606.359375 365.234375 606.316406 364.8125 606.234375 C 364.386719 606.148438 363.972656 606.023438 363.574219 605.859375 C 363.175781 605.691406 362.792969 605.488281 362.433594 605.25 C 362.074219 605.007812 361.742188 604.734375 361.433594 604.429688 C 361.128906 604.125 360.855469 603.789062 360.613281 603.429688 C 360.375 603.070312 360.171875 602.691406 360.003906 602.289062 C 359.839844 601.890625 359.714844 601.476562 359.628906 601.054688 C 359.546875 600.628906 359.503906 600.199219 359.503906 599.769531 C 359.503906 599.335938 359.546875 598.90625 359.628906 598.480469 C 359.714844 598.058594 359.839844 597.644531 360.003906 597.246094 C 360.171875 596.84375 360.375 596.464844 360.613281 596.105469 C 360.855469 595.746094 361.128906 595.414062 361.433594 595.105469 C 361.742188 594.800781 362.074219 594.527344 362.433594 594.285156 C 362.792969 594.046875 363.175781 593.84375 363.574219 593.675781 C 363.972656 593.511719 364.386719 593.386719 364.8125 593.300781 C 365.234375 593.21875 365.664062 593.175781 366.097656 593.175781 C 366.53125 593.175781 366.957031 593.21875 367.382812 593.300781 C 367.808594 593.386719 368.21875 593.511719 368.621094 593.675781 C 369.019531 593.84375 369.398438 594.046875 369.761719 594.285156 C 370.121094 594.527344 370.453125 594.800781 370.757812 595.105469 C 371.066406 595.414062 371.339844 595.746094 371.578125 596.105469 C 371.820312 596.464844 372.023438 596.84375 372.1875 597.246094 C 372.355469 597.644531 372.480469 598.058594 372.5625 598.480469 C 372.648438 598.90625 372.691406 599.335938 372.691406 599.769531 Z M 372.691406 599.769531 " fill-opacity="1" fill-rule="nonzero"/><path fill="#d6d7d8" d="M 372.691406 649.683594 C 372.691406 650.113281 372.648438 650.542969 372.5625 650.96875 C 372.480469 651.390625 372.355469 651.804688 372.1875 652.203125 C 372.023438 652.605469 371.820312 652.984375 371.578125 653.34375 C 371.339844 653.703125 371.066406 654.039062 370.757812 654.34375 C 370.453125 654.648438 370.121094 654.921875 369.761719 655.164062 C 369.398438 655.402344 369.019531 655.605469 368.621094 655.773438 C 368.21875 655.9375 367.808594 656.0625 367.382812 656.148438 C 366.957031 656.230469 366.53125 656.273438 366.097656 656.273438 C 365.664062 656.273438 365.234375 656.230469 364.8125 656.148438 C 364.386719 656.0625 363.972656 655.9375 363.574219 655.773438 C 363.175781 655.605469 362.792969 655.402344 362.433594 655.164062 C 362.074219 654.921875 361.742188 654.648438 361.433594 654.34375 C 361.128906 654.039062 360.855469 653.703125 360.613281 653.34375 C 360.375 652.984375 360.171875 652.605469 360.003906 652.203125 C 359.839844 651.804688 359.714844 651.390625 359.628906 650.96875 C 359.546875 650.542969 359.503906 650.113281 359.503906 649.683594 C 359.503906 649.25 359.546875 648.820312 359.628906 648.394531 C 359.714844 647.972656 359.839844 647.558594 360.003906 647.160156 C 360.171875 646.757812 360.375 646.378906 360.613281 646.019531 C 360.855469 645.660156 361.128906 645.328125 361.433594 645.019531 C 361.742188 644.714844 362.074219 644.441406 362.433594 644.199219 C 362.792969 643.960938 363.175781 643.757812 363.574219 643.589844 C 363.972656 643.425781 364.386719 643.300781 364.8125 643.214844 C 365.234375 643.132812 365.664062 643.089844 366.097656 643.089844 C 366.53125 643.089844 366.957031 643.132812 367.382812 643.214844 C 367.808594 643.300781 368.21875 643.425781 368.621094 643.589844 C 369.019531 643.757812 369.398438 643.960938 369.761719 644.199219 C 370.121094 644.441406 370.453125 644.714844 370.757812 645.019531 C 371.066406 645.328125 371.339844 645.660156 371.578125 646.019531 C 371.820312 646.378906 372.023438 646.757812 372.1875 647.160156 C 372.355469 647.558594 372.480469 647.972656 372.5625 648.394531 C 372.648438 648.820312 372.691406 649.25 372.691406 649.683594 Z M 372.691406 649.683594 " fill-opacity="1" fill-rule="nonzero"/><path fill="#d6d7d8" d="M 372.691406 699.59375 C 372.691406 700.027344 372.648438 700.457031 372.5625 700.878906 C 372.480469 701.304688 372.355469 701.714844 372.1875 702.117188 C 372.023438 702.515625 371.820312 702.894531 371.578125 703.257812 C 371.339844 703.617188 371.066406 703.949219 370.757812 704.253906 C 370.453125 704.5625 370.121094 704.835938 369.761719 705.074219 C 369.398438 705.316406 369.019531 705.519531 368.621094 705.683594 C 368.21875 705.851562 367.808594 705.976562 367.382812 706.058594 C 366.957031 706.144531 366.53125 706.1875 366.097656 706.1875 C 365.664062 706.1875 365.234375 706.144531 364.8125 706.058594 C 364.386719 705.976562 363.972656 705.851562 363.574219 705.683594 C 363.175781 705.519531 362.792969 705.316406 362.433594 705.074219 C 362.074219 704.835938 361.742188 704.5625 361.433594 704.253906 C 361.128906 703.949219 360.855469 703.617188 360.613281 703.257812 C 360.375 702.894531 360.171875 702.515625 360.003906 702.117188 C 359.839844 701.714844 359.714844 701.304688 359.628906 700.878906 C 359.546875 700.457031 359.503906 700.027344 359.503906 699.59375 C 359.503906 699.160156 359.546875 698.730469 359.628906 698.308594 C 359.714844 697.882812 359.839844 697.472656 360.003906 697.070312 C 360.171875 696.671875 360.375 696.289062 360.613281 695.929688 C 360.855469 695.570312 361.128906 695.238281 361.433594 694.933594 C 361.742188 694.625 362.074219 694.351562 362.433594 694.113281 C 362.792969 693.871094 363.175781 693.667969 363.574219 693.503906 C 363.972656 693.335938 364.386719 693.210938 364.8125 693.128906 C 365.234375 693.042969 365.664062 693 366.097656 693 C 366.53125 693 366.957031 693.042969 367.382812 693.128906 C 367.808594 693.210938 368.21875 693.335938 368.621094 693.503906 C 369.019531 693.667969 369.398438 693.871094 369.761719 694.113281 C 370.121094 694.351562 370.453125 694.625 370.757812 694.933594 C 371.066406 695.238281 371.339844 695.570312 371.578125 695.929688 C 371.820312 696.289062 372.023438 696.671875 372.1875 697.070312 C 372.355469 697.472656 372.480469 697.882812 372.5625 698.308594 C 372.648438 698.730469 372.691406 699.160156 372.691406 699.59375 Z M 372.691406 699.59375 " fill-opacity="1" fill-rule="nonzero"/><path fill="#d6d7d8" d="M 372.691406 749.507812 C 372.691406 749.941406 372.648438 750.371094 372.5625 750.792969 C 372.480469 751.21875 372.355469 751.628906 372.1875 752.03125 C 372.023438 752.429688 371.820312 752.808594 371.578125 753.171875 C 371.339844 753.53125 371.066406 753.863281 370.757812 754.167969 C 370.453125 754.476562 370.121094 754.75 369.761719 754.988281 C 369.398438 755.230469 369.019531 755.433594 368.621094 755.597656 C 368.21875 755.765625 367.808594 755.890625 367.382812 755.972656 C 366.957031 756.058594 366.53125 756.101562 366.097656 756.101562 C 365.664062 756.101562 365.234375 756.058594 364.8125 755.972656 C 364.386719 755.890625 363.972656 755.765625 363.574219 755.597656 C 363.175781 755.433594 362.792969 755.230469 362.433594 754.988281 C 362.074219 754.75 361.742188 754.476562 361.433594 754.167969 C 361.128906 753.863281 360.855469 753.53125 360.613281 753.171875 C 360.375 752.808594 360.171875 752.429688 360.003906 752.03125 C 359.839844 751.628906 359.714844 751.21875 359.628906 750.792969 C 359.546875 750.371094 359.503906 749.941406 359.503906 749.507812 C 359.503906 749.074219 359.546875 748.644531 359.628906 748.222656 C 359.714844 747.796875 359.839844 747.386719 360.003906 746.984375 C 360.171875 746.585938 360.375 746.207031 360.613281 745.84375 C 360.855469 745.484375 361.128906 745.152344 361.433594 744.847656 C 361.742188 744.539062 362.074219 744.265625 362.433594 744.027344 C 362.792969 743.785156 363.175781 743.582031 363.574219 743.417969 C 363.972656 743.25 364.386719 743.125 364.8125 743.042969 C 365.234375 742.957031 365.664062 742.914062 366.097656 742.914062 C 366.53125 742.914062 366.957031 742.957031 367.382812 743.042969 C 367.808594 743.125 368.21875 743.25 368.621094 743.417969 C 369.019531 743.582031 369.398438 743.785156 369.761719 744.027344 C 370.121094 744.265625 370.453125 744.539062 370.757812 744.847656 C 371.066406 745.152344 371.339844 745.484375 371.578125 745.84375 C 371.820312 746.207031 372.023438 746.585938 372.1875 746.984375 C 372.355469 747.386719 372.480469 747.796875 372.5625 748.222656 C 372.648438 748.644531 372.691406 749.074219 372.691406 749.507812 Z M 372.691406 749.507812 " fill-opacity="1" fill-rule="nonzero"/><path fill="#fdb4b4" d="M 437.777344 193.605469 C 437.777344 195.625 437.679688 197.640625 437.480469 199.648438 C 437.28125 201.660156 436.988281 203.652344 436.59375 205.632812 C 436.199219 207.617188 435.707031 209.570312 435.121094 211.503906 C 434.535156 213.4375 433.855469 215.335938 433.082031 217.203125 C 432.308594 219.066406 431.449219 220.890625 430.496094 222.671875 C 429.542969 224.453125 428.507812 226.183594 427.382812 227.863281 C 426.261719 229.542969 425.058594 231.160156 423.777344 232.722656 C 422.496094 234.285156 421.144531 235.777344 419.714844 237.207031 C 418.285156 238.632812 416.792969 239.988281 415.230469 241.269531 C 413.667969 242.550781 412.050781 243.753906 410.371094 244.875 C 408.691406 245.996094 406.960938 247.035156 405.179688 247.984375 C 403.398438 248.9375 401.574219 249.800781 399.707031 250.574219 C 397.839844 251.347656 395.941406 252.027344 394.007812 252.613281 C 392.078125 253.199219 390.121094 253.6875 388.136719 254.082031 C 386.15625 254.476562 384.164062 254.773438 382.152344 254.96875 C 380.140625 255.167969 378.128906 255.265625 376.105469 255.265625 C 374.085938 255.265625 372.074219 255.167969 370.0625 254.96875 C 368.050781 254.773438 366.058594 254.476562 364.074219 254.082031 C 362.09375 253.6875 360.136719 253.199219 358.207031 252.613281 C 356.273438 252.027344 354.375 251.347656 352.507812 250.574219 C 350.640625 249.800781 348.816406 248.9375 347.035156 247.984375 C 345.253906 247.035156 343.523438 245.996094 341.84375 244.875 C 340.164062 243.753906 338.546875 242.550781 336.984375 241.269531 C 335.421875 239.988281 333.929688 238.632812 332.5 237.207031 C 331.070312 235.777344 329.71875 234.285156 328.4375 232.722656 C 327.15625 231.160156 325.953125 229.542969 324.832031 227.863281 C 323.707031 226.183594 322.671875 224.453125 321.71875 222.671875 C 320.765625 220.890625 319.90625 219.066406 319.132812 217.203125 C 318.359375 215.335938 317.679688 213.4375 317.09375 211.503906 C 316.507812 209.570312 316.015625 207.617188 315.621094 205.632812 C 315.226562 203.652344 314.933594 201.660156 314.734375 199.648438 C 314.535156 197.640625 314.4375 195.625 314.4375 193.605469 C 314.4375 191.585938 314.535156 189.570312 314.734375 187.5625 C 314.933594 185.550781 315.226562 183.554688 315.621094 181.574219 C 316.015625 179.59375 316.507812 177.636719 317.09375 175.707031 C 317.679688 173.773438 318.359375 171.875 319.132812 170.007812 C 319.90625 168.140625 320.765625 166.320312 321.71875 164.539062 C 322.671875 162.757812 323.707031 161.027344 324.832031 159.347656 C 325.953125 157.667969 327.15625 156.046875 328.4375 154.488281 C 329.71875 152.925781 331.070312 151.429688 332.5 150.003906 C 333.929688 148.574219 335.421875 147.222656 336.984375 145.941406 C 338.546875 144.660156 340.164062 143.457031 341.84375 142.335938 C 343.523438 141.214844 345.253906 140.175781 347.035156 139.222656 C 348.816406 138.273438 350.640625 137.410156 352.507812 136.636719 C 354.375 135.863281 356.273438 135.183594 358.207031 134.597656 C 360.136719 134.011719 362.09375 133.523438 364.074219 133.128906 C 366.058594 132.734375 368.050781 132.4375 370.0625 132.238281 C 372.074219 132.042969 374.085938 131.941406 376.105469 131.941406 C 378.128906 131.941406 380.140625 132.042969 382.152344 132.238281 C 384.164062 132.4375 386.15625 132.734375 388.136719 133.128906 C 390.121094 133.523438 392.078125 134.011719 394.007812 134.597656 C 395.941406 135.183594 397.839844 135.863281 399.707031 136.636719 C 401.574219 137.410156 403.398438 138.273438 405.179688 139.222656 C 406.960938 140.175781 408.691406 141.214844 410.371094 142.335938 C 412.050781 143.457031 413.667969 144.660156 415.230469 145.941406 C 416.792969 147.222656 418.285156 148.574219 419.714844 150.003906 C 421.144531 151.429688 422.496094 152.925781 423.777344 154.488281 C 425.058594 156.046875 426.261719 157.667969 427.382812 159.347656 C 428.507812 161.027344 429.542969 162.757812 430.496094 164.539062 C 431.449219 166.320312 432.308594 168.140625 433.082031 170.007812 C 433.855469 171.875 434.535156 173.773438 435.121094 175.707031 C 435.707031 177.636719 436.199219 179.59375 436.59375 181.574219 C 436.988281 183.554688 437.28125 185.550781 437.480469 187.5625 C 437.679688 189.570312 437.777344 191.585938 437.777344 193.605469 Z M 437.777344 193.605469 " fill-opacity="1" fill-rule="nonzero"/><path fill="#2e2e41" d="M 408.425781 121.625 C 411.378906 127.632812 406.695312 135.140625 400.492188 137.667969 C 394.289062 140.191406 387.28125 139.167969 380.667969 138.117188 C 374.054688 137.066406 367.039062 136.070312 360.855469 138.640625 C 352.851562 141.964844 348.34375 150.3125 344.457031 158.054688 C 337.199219 172.511719 329.945312 186.972656 322.6875 201.429688 C 319.144531 208.492188 315.519531 215.871094 315.449219 223.777344 C 315.324219 238.28125 326.832031 249.875 333.027344 262.992188 C 340.566406 278.964844 339.945312 298.539062 331.40625 314.003906 C 322.867188 329.464844 306.632812 340.421875 289.097656 342.550781 C 284.484375 343.113281 279.597656 343.050781 275.449219 340.957031 C 271.304688 338.859375 268.136719 334.285156 268.90625 329.699219 C 270.40625 320.734375 284.105469 318.640625 286.621094 309.90625 C 287.9375 305.347656 285.609375 300.480469 282.472656 296.917969 C 279.339844 293.355469 275.375 290.578125 272.382812 286.894531 C 265.484375 278.402344 265.027344 265.289062 271.3125 256.332031 C 275.003906 251.070312 280.71875 247.160156 283.105469 241.1875 C 285.140625 236.101562 284.402344 230.378906 283.632812 224.953125 C 282.640625 217.980469 281.648438 211.007812 280.660156 204.035156 C 279.503906 195.902344 278.367188 187.476562 280.648438 179.582031 C 285.882812 161.496094 306.308594 153 318.289062 138.472656 C 323.855469 131.71875 327.597656 123.601562 333.308594 116.972656 C 342.890625 105.84375 357.980469 99.707031 372.609375 100.984375 C 387.238281 102.257812 401.035156 110.914062 408.546875 123.53125 " fill-opacity="1" fill-rule="nonzero"/><path fill="#2e2e41" d="M 398.691406 122.765625 C 395.675781 123.84375 394.558594 127.765625 395.425781 130.84375 C 396.292969 133.925781 398.5625 136.371094 400.644531 138.804688 C 424.152344 166.3125 429.617188 207.925781 414.007812 240.570312 C 409.855469 249.253906 404.324219 257.425781 402.085938 266.785156 C 400.453125 273.597656 400.542969 281.066406 396.761719 286.964844 C 392.914062 292.96875 385.292969 296.988281 384.539062 304.078125 C 384.054688 308.628906 386.828125 313.046875 390.546875 315.714844 C 394.261719 318.382812 398.804688 319.605469 403.273438 320.597656 C 414.882812 323.1875 426.753906 324.597656 438.644531 324.808594 C 442.519531 324.875 446.523438 324.792969 450.078125 323.246094 C 453.636719 321.703125 456.671875 318.351562 456.710938 314.476562 C 456.742188 311.429688 454.984375 308.617188 454.761719 305.578125 C 454.089844 296.472656 466.34375 291.628906 468.730469 282.816406 C 470.300781 277.019531 467.210938 271.058594 463.914062 266.039062 C 460.621094 261.023438 456.859375 255.753906 456.941406 249.75 C 457.019531 244.003906 460.625 238.945312 462.027344 233.371094 C 463.964844 225.660156 461.585938 217.597656 459.222656 210.007812 C 457.214844 203.554688 455.207031 197.101562 453.195312 190.648438 C 451.0625 183.789062 448.925781 176.929688 446.792969 170.070312 C 443.0625 158.097656 439.152344 145.773438 431.085938 136.167969 C 423.019531 126.566406 409.652344 120.269531 397.738281 124.191406 " fill-opacity="1" fill-rule="nonzero"/><path fill="#3f3c57" d="M 440.710938 361.703125 L 436.484375 360.46875 C 445.292969 330.28125 426.304688 273.941406 426.113281 273.375 L 430.277344 271.953125 C 431.085938 274.316406 449.90625 330.191406 440.710938 361.703125 Z M 440.710938 361.703125 " fill-opacity="1" fill-rule="nonzero"/><path fill="#3f3c57" d="M 456.988281 377.988281 C 456.988281 378.59375 456.960938 379.191406 456.902344 379.792969 C 456.84375 380.390625 456.753906 380.984375 456.636719 381.578125 C 456.519531 382.167969 456.371094 382.75 456.199219 383.328125 C 456.023438 383.902344 455.820312 384.46875 455.589844 385.027344 C 455.359375 385.582031 455.101562 386.125 454.816406 386.65625 C 454.535156 387.1875 454.226562 387.703125 453.890625 388.207031 C 453.554688 388.707031 453.199219 389.191406 452.816406 389.65625 C 452.433594 390.121094 452.027344 390.566406 451.601562 390.992188 C 451.175781 391.417969 450.730469 391.820312 450.265625 392.203125 C 449.800781 392.585938 449.316406 392.945312 448.816406 393.277344 C 448.316406 393.613281 447.800781 393.921875 447.269531 394.207031 C 446.738281 394.492188 446.191406 394.746094 445.636719 394.976562 C 445.082031 395.207031 444.515625 395.410156 443.9375 395.585938 C 443.359375 395.761719 442.777344 395.90625 442.1875 396.023438 C 441.597656 396.140625 441 396.230469 440.402344 396.289062 C 439.800781 396.347656 439.199219 396.378906 438.597656 396.378906 C 437.996094 396.378906 437.394531 396.347656 436.796875 396.289062 C 436.195312 396.230469 435.601562 396.140625 435.011719 396.023438 C 434.421875 395.90625 433.835938 395.761719 433.261719 395.585938 C 432.683594 395.410156 432.117188 395.207031 431.5625 394.976562 C 431.003906 394.746094 430.460938 394.492188 429.929688 394.207031 C 429.398438 393.921875 428.882812 393.613281 428.382812 393.277344 C 427.878906 392.945312 427.398438 392.585938 426.929688 392.203125 C 426.464844 391.820312 426.019531 391.417969 425.59375 390.992188 C 425.167969 390.566406 424.765625 390.121094 424.382812 389.65625 C 424 389.191406 423.640625 388.707031 423.308594 388.207031 C 422.972656 387.703125 422.664062 387.1875 422.378906 386.65625 C 422.09375 386.125 421.839844 385.582031 421.605469 385.027344 C 421.375 384.46875 421.175781 383.902344 421 383.328125 C 420.824219 382.75 420.679688 382.167969 420.5625 381.578125 C 420.445312 380.984375 420.355469 380.390625 420.296875 379.792969 C 420.238281 379.191406 420.207031 378.59375 420.207031 377.988281 C 420.207031 377.386719 420.238281 376.785156 420.296875 376.1875 C 420.355469 375.585938 420.445312 374.992188 420.5625 374.402344 C 420.679688 373.8125 420.824219 373.226562 421 372.652344 C 421.175781 372.074219 421.375 371.507812 421.605469 370.953125 C 421.839844 370.394531 422.09375 369.851562 422.378906 369.320312 C 422.664062 368.789062 422.972656 368.273438 423.308594 367.773438 C 423.640625 367.273438 424 366.789062 424.382812 366.324219 C 424.765625 365.859375 425.167969 365.414062 425.59375 364.988281 C 426.019531 364.5625 426.464844 364.15625 426.929688 363.773438 C 427.398438 363.394531 427.878906 363.035156 428.382812 362.699219 C 428.882812 362.367188 429.398438 362.054688 429.929688 361.773438 C 430.460938 361.488281 431.003906 361.230469 431.5625 361 C 432.117188 360.769531 432.683594 360.566406 433.261719 360.394531 C 433.835938 360.21875 434.421875 360.070312 435.011719 359.953125 C 435.601562 359.835938 436.195312 359.75 436.796875 359.6875 C 437.394531 359.628906 437.996094 359.601562 438.597656 359.601562 C 439.199219 359.601562 439.800781 359.628906 440.402344 359.6875 C 441 359.75 441.597656 359.835938 442.1875 359.953125 C 442.777344 360.070312 443.359375 360.21875 443.9375 360.394531 C 444.515625 360.566406 445.082031 360.769531 445.636719 361 C 446.191406 361.230469 446.738281 361.488281 447.269531 361.773438 C 447.800781 362.054688 448.316406 362.367188 448.816406 362.699219 C 449.316406 363.035156 449.800781 363.394531 450.265625 363.773438 C 450.730469 364.15625 451.175781 364.5625 451.601562 364.988281 C 452.027344 365.414062 452.433594 365.859375 452.816406 366.324219 C 453.199219 366.789062 453.554688 367.273438 453.890625 367.773438 C 454.226562 368.273438 454.535156 368.789062 454.816406 369.320312 C 455.101562 369.851562 455.359375 370.394531 455.589844 370.953125 C 455.820312 371.507812 456.023438 372.074219 456.199219 372.652344 C 456.371094 373.226562 456.519531 373.8125 456.636719 374.402344 C 456.753906 374.992188 456.84375 375.585938 456.902344 376.1875 C 456.960938 376.785156 456.988281 377.386719 456.988281 377.988281 Z M 456.988281 377.988281 " fill-opacity="1" fill-rule="nonzero"/><path fill="#3f3c57" d="M 317.757812 443.089844 L 306.601562 443.089844 C 305.386719 443.089844 304.402344 442.105469 304.402344 440.890625 C 304.402344 439.675781 305.386719 438.6875 306.601562 438.6875 L 317.757812 438.6875 C 320.832031 438.6875 323.71875 437.492188 325.890625 435.316406 C 328.058594 433.140625 329.25 430.253906 329.246094 427.179688 L 329.109375 358.488281 C 329.109375 343.566406 316.972656 331.429688 302.050781 331.429688 C 287.132812 331.429688 274.992188 343.566406 274.992188 358.484375 L 275.125 422.78125 C 275.140625 429.050781 280.253906 434.195312 286.527344 434.242188 L 294.183594 434.300781 C 295.398438 434.308594 296.375 435.300781 296.367188 436.519531 C 296.359375 437.726562 295.375 438.703125 294.164062 438.703125 L 294.148438 438.703125 L 286.492188 438.644531 C 277.816406 438.578125 270.742188 431.464844 270.722656 422.789062 L 270.585938 358.488281 C 270.585938 341.140625 284.703125 327.027344 302.050781 327.027344 C 319.398438 327.027344 333.511719 341.140625 333.511719 358.484375 L 333.648438 427.171875 C 333.65625 431.421875 332.007812 435.417969 329.003906 438.425781 C 326.003906 441.433594 322.007812 443.089844 317.757812 443.089844 Z M 317.757812 443.089844 " fill-opacity="1" fill-rule="nonzero"/><path fill="#3f3c57" d="M 301.96875 436.5 C 301.96875 437.015625 301.917969 437.519531 301.816406 438.023438 C 301.71875 438.527344 301.570312 439.011719 301.375 439.488281 C 301.179688 439.960938 300.9375 440.410156 300.652344 440.835938 C 300.367188 441.261719 300.046875 441.65625 299.683594 442.015625 C 299.320312 442.378906 298.925781 442.703125 298.5 442.988281 C 298.074219 443.273438 297.625 443.511719 297.152344 443.707031 C 296.679688 443.90625 296.191406 444.050781 295.6875 444.152344 C 295.183594 444.253906 294.679688 444.300781 294.164062 444.300781 C 293.652344 444.300781 293.144531 444.253906 292.644531 444.152344 C 292.140625 444.050781 291.652344 443.90625 291.179688 443.707031 C 290.707031 443.511719 290.257812 443.273438 289.832031 442.988281 C 289.40625 442.703125 289.011719 442.378906 288.648438 442.015625 C 288.285156 441.65625 287.964844 441.261719 287.679688 440.835938 C 287.394531 440.410156 287.152344 439.960938 286.957031 439.488281 C 286.761719 439.011719 286.613281 438.527344 286.511719 438.023438 C 286.414062 437.519531 286.363281 437.015625 286.363281 436.5 C 286.363281 435.988281 286.414062 435.480469 286.515625 434.980469 C 286.613281 434.476562 286.761719 433.988281 286.957031 433.515625 C 287.152344 433.042969 287.394531 432.59375 287.679688 432.167969 C 287.964844 431.742188 288.285156 431.347656 288.648438 430.984375 C 289.011719 430.625 289.40625 430.300781 289.832031 430.015625 C 290.257812 429.730469 290.707031 429.492188 291.179688 429.292969 C 291.652344 429.097656 292.140625 428.949219 292.644531 428.851562 C 293.144531 428.75 293.652344 428.699219 294.164062 428.699219 C 294.679688 428.699219 295.183594 428.75 295.6875 428.851562 C 296.191406 428.949219 296.679688 429.097656 297.152344 429.292969 C 297.625 429.492188 298.074219 429.730469 298.5 430.015625 C 298.925781 430.300781 299.320312 430.625 299.683594 430.984375 C 300.046875 431.347656 300.367188 431.742188 300.652344 432.167969 C 300.9375 432.59375 301.179688 433.042969 301.375 433.515625 C 301.570312 433.988281 301.71875 434.476562 301.816406 434.980469 C 301.917969 435.480469 301.96875 435.988281 301.96875 436.5 Z M 301.96875 436.5 " fill-opacity="1" fill-rule="nonzero"/><path fill="#3f3c57" d="M 314.402344 440.890625 C 314.402344 441.402344 314.355469 441.910156 314.253906 442.414062 C 314.152344 442.914062 314.007812 443.402344 313.808594 443.875 C 313.613281 444.347656 313.375 444.796875 313.089844 445.222656 C 312.804688 445.652344 312.480469 446.042969 312.117188 446.40625 C 311.757812 446.769531 311.363281 447.09375 310.9375 447.375 C 310.511719 447.660156 310.0625 447.902344 309.585938 448.097656 C 309.113281 448.292969 308.625 448.441406 308.125 448.542969 C 307.621094 448.640625 307.113281 448.691406 306.601562 448.691406 C 306.089844 448.691406 305.582031 448.640625 305.078125 448.542969 C 304.578125 448.441406 304.089844 448.292969 303.617188 448.097656 C 303.144531 447.902344 302.695312 447.660156 302.265625 447.375 C 301.839844 447.09375 301.449219 446.769531 301.085938 446.40625 C 300.722656 446.042969 300.398438 445.652344 300.113281 445.222656 C 299.832031 444.796875 299.589844 444.347656 299.394531 443.875 C 299.199219 443.402344 299.050781 442.914062 298.949219 442.414062 C 298.851562 441.910156 298.800781 441.402344 298.800781 440.890625 C 298.800781 440.378906 298.851562 439.871094 298.949219 439.367188 C 299.050781 438.867188 299.199219 438.378906 299.394531 437.90625 C 299.589844 437.433594 299.832031 436.984375 300.113281 436.554688 C 300.398438 436.128906 300.722656 435.738281 301.085938 435.375 C 301.449219 435.011719 301.839844 434.6875 302.265625 434.402344 C 302.695312 434.121094 303.144531 433.878906 303.617188 433.683594 C 304.089844 433.488281 304.578125 433.339844 305.078125 433.238281 C 305.582031 433.140625 306.089844 433.089844 306.601562 433.089844 C 307.113281 433.089844 307.621094 433.140625 308.125 433.238281 C 308.625 433.339844 309.113281 433.488281 309.585938 433.683594 C 310.0625 433.878906 310.511719 434.121094 310.9375 434.402344 C 311.363281 434.6875 311.757812 435.011719 312.117188 435.375 C 312.480469 435.738281 312.804688 436.128906 313.089844 436.554688 C 313.375 436.984375 313.613281 437.433594 313.808594 437.90625 C 314.007812 438.378906 314.152344 438.867188 314.253906 439.367188 C 314.355469 439.871094 314.402344 440.378906 314.402344 440.890625 Z M 314.402344 440.890625 " fill-opacity="1" fill-rule="nonzero"/><g clip-path="url(#0ee24c7b04)"><path fill="#ffffff" d="M -197.4375 607.5 L 45.5625 607.5 L 45.5625 850.5 L -197.4375 850.5 Z M -197.4375 607.5 " fill-opacity="1" fill-rule="nonzero"/></g></svg>