<svg xmlns="http://www.w3.org/2000/svg" xmlns:xlink="http://www.w3.org/1999/xlink" width="1080" zoomAndPan="magnify" viewBox="0 0 810 809.999993" height="1080" preserveAspectRatio="xMidYMid meet" version="1.0"><defs><clipPath id="8501eea1ff"><path d="M 320 2.605469 L 492 2.605469 L 492 187 L 320 187 Z M 320 2.605469 " clip-rule="nonzero"/></clipPath></defs><path fill="#fdb4b4" d="M 433.777344 156.996094 L 452.027344 240.269531 L 413.203125 356.175781 L 350.65625 231.640625 L 359.332031 159.398438 Z M 433.777344 156.996094 " fill-opacity="1" fill-rule="nonzero"/><path fill="#9dde89" d="M 347.421875 235.957031 L 455.421875 235.957031 L 455.421875 366.417969 L 347.421875 366.417969 Z M 347.421875 235.957031 " fill-opacity="1" fill-rule="nonzero"/><path fill="#fdb4b4" d="M 484.765625 125.203125 C 484.765625 126.410156 484.734375 127.613281 484.675781 128.820312 C 484.617188 130.023438 484.527344 131.226562 484.410156 132.429688 C 484.289062 133.628906 484.144531 134.828125 483.964844 136.023438 C 483.789062 137.214844 483.582031 138.402344 483.347656 139.585938 C 483.113281 140.769531 482.847656 141.949219 482.554688 143.117188 C 482.261719 144.289062 481.9375 145.453125 481.589844 146.605469 C 481.238281 147.761719 480.859375 148.90625 480.453125 150.042969 C 480.046875 151.179688 479.613281 152.304688 479.148438 153.421875 C 478.6875 154.535156 478.199219 155.636719 477.683594 156.730469 C 477.167969 157.820312 476.625 158.898438 476.054688 159.960938 C 475.484375 161.027344 474.890625 162.074219 474.269531 163.109375 C 473.648438 164.144531 473.003906 165.164062 472.335938 166.167969 C 471.664062 167.171875 470.96875 168.160156 470.25 169.128906 C 469.53125 170.097656 468.789062 171.046875 468.023438 171.980469 C 467.257812 172.914062 466.46875 173.828125 465.65625 174.722656 C 464.847656 175.617188 464.015625 176.488281 463.160156 177.34375 C 462.308594 178.195312 461.433594 179.027344 460.539062 179.839844 C 459.644531 180.648438 458.730469 181.4375 457.796875 182.203125 C 456.867188 182.96875 455.914062 183.710938 454.945312 184.429688 C 453.976562 185.148438 452.988281 185.84375 451.984375 186.511719 C 450.980469 187.183594 449.960938 187.828125 448.925781 188.449219 C 447.890625 189.070312 446.839844 189.664062 445.777344 190.234375 C 444.710938 190.800781 443.632812 191.34375 442.542969 191.859375 C 441.453125 192.375 440.347656 192.867188 439.234375 193.328125 C 438.117188 193.789062 436.992188 194.222656 435.855469 194.628906 C 434.71875 195.035156 433.574219 195.414062 432.417969 195.765625 C 431.261719 196.117188 430.101562 196.4375 428.929688 196.730469 C 427.757812 197.023438 426.582031 197.289062 425.398438 197.523438 C 424.214844 197.757812 423.023438 197.964844 421.832031 198.140625 C 420.636719 198.320312 419.4375 198.46875 418.238281 198.585938 C 417.035156 198.703125 415.832031 198.792969 414.628906 198.851562 C 413.421875 198.910156 412.214844 198.941406 411.007812 198.941406 C 409.800781 198.941406 408.59375 198.910156 407.390625 198.851562 C 406.183594 198.792969 404.980469 198.703125 403.777344 198.585938 C 402.578125 198.46875 401.378906 198.320312 400.1875 198.140625 C 398.992188 197.964844 397.804688 197.757812 396.621094 197.523438 C 395.4375 197.289062 394.257812 197.023438 393.085938 196.730469 C 391.917969 196.4375 390.753906 196.117188 389.597656 195.765625 C 388.441406 195.414062 387.296875 195.035156 386.160156 194.628906 C 385.023438 194.222656 383.898438 193.789062 382.785156 193.328125 C 381.667969 192.867188 380.566406 192.375 379.472656 191.859375 C 378.382812 191.34375 377.304688 190.800781 376.242188 190.234375 C 375.175781 189.664062 374.125 189.070312 373.089844 188.449219 C 372.054688 187.828125 371.035156 187.183594 370.03125 186.511719 C 369.027344 185.84375 368.042969 185.148438 367.070312 184.429688 C 366.101562 183.710938 365.152344 182.96875 364.21875 182.203125 C 363.285156 181.4375 362.371094 180.648438 361.476562 179.839844 C 360.582031 179.027344 359.707031 178.195312 358.855469 177.34375 C 358 176.488281 357.167969 175.617188 356.359375 174.722656 C 355.546875 173.828125 354.761719 172.914062 353.996094 171.980469 C 353.230469 171.046875 352.488281 170.097656 351.765625 169.128906 C 351.046875 168.160156 350.351562 167.171875 349.683594 166.167969 C 349.011719 165.164062 348.367188 164.144531 347.746094 163.109375 C 347.125 162.074219 346.53125 161.027344 345.960938 159.960938 C 345.394531 158.898438 344.851562 157.820312 344.335938 156.730469 C 343.816406 155.636719 343.328125 154.535156 342.867188 153.421875 C 342.40625 152.304688 341.972656 151.179688 341.5625 150.042969 C 341.15625 148.90625 340.777344 147.761719 340.429688 146.605469 C 340.078125 145.453125 339.757812 144.289062 339.464844 143.117188 C 339.167969 141.949219 338.90625 140.769531 338.671875 139.585938 C 338.433594 138.402344 338.226562 137.214844 338.050781 136.023438 C 337.875 134.828125 337.726562 133.628906 337.609375 132.429688 C 337.488281 131.226562 337.402344 130.023438 337.339844 128.820312 C 337.28125 127.613281 337.253906 126.410156 337.253906 125.203125 C 337.253906 123.996094 337.28125 122.789062 337.339844 121.582031 C 337.402344 120.378906 337.488281 119.175781 337.609375 117.972656 C 337.726562 116.773438 337.875 115.574219 338.050781 114.382812 C 338.226562 113.1875 338.433594 112 338.671875 110.816406 C 338.90625 109.632812 339.167969 108.457031 339.464844 107.285156 C 339.757812 106.113281 340.078125 104.953125 340.429688 103.796875 C 340.777344 102.640625 341.15625 101.496094 341.5625 100.359375 C 341.972656 99.222656 342.40625 98.097656 342.867188 96.984375 C 343.328125 95.867188 343.816406 94.765625 344.335938 93.675781 C 344.851562 92.582031 345.394531 91.507812 345.960938 90.441406 C 346.53125 89.378906 347.125 88.328125 347.746094 87.292969 C 348.367188 86.257812 349.011719 85.238281 349.683594 84.234375 C 350.351562 83.230469 351.046875 82.246094 351.765625 81.277344 C 352.488281 80.304688 353.230469 79.355469 353.996094 78.421875 C 354.761719 77.488281 355.546875 76.578125 356.359375 75.683594 C 357.167969 74.789062 358 73.914062 358.855469 73.0625 C 359.707031 72.207031 360.582031 71.375 361.476562 70.566406 C 362.371094 69.753906 363.285156 68.964844 364.21875 68.199219 C 365.152344 67.4375 366.101562 66.691406 367.070312 65.972656 C 368.042969 65.253906 369.027344 64.5625 370.03125 63.890625 C 371.035156 63.21875 372.054688 62.574219 373.089844 61.953125 C 374.125 61.332031 375.175781 60.738281 376.242188 60.171875 C 377.304688 59.601562 378.382812 59.058594 379.472656 58.542969 C 380.566406 58.027344 381.667969 57.539062 382.785156 57.078125 C 383.898438 56.613281 385.023438 56.179688 386.160156 55.773438 C 387.296875 55.367188 388.441406 54.988281 389.597656 54.636719 C 390.753906 54.289062 391.917969 53.964844 393.085938 53.671875 C 394.257812 53.378906 395.4375 53.117188 396.621094 52.878906 C 397.804688 52.644531 398.992188 52.4375 400.1875 52.261719 C 401.378906 52.085938 402.578125 51.9375 403.777344 51.816406 C 404.980469 51.699219 406.183594 51.609375 407.390625 51.550781 C 408.59375 51.492188 409.800781 51.464844 411.007812 51.464844 C 412.214844 51.464844 413.421875 51.492188 414.628906 51.550781 C 415.832031 51.609375 417.035156 51.699219 418.238281 51.816406 C 419.4375 51.9375 420.636719 52.085938 421.832031 52.261719 C 423.023438 52.4375 424.214844 52.644531 425.398438 52.878906 C 426.582031 53.117188 427.757812 53.378906 428.929688 53.671875 C 430.101562 53.964844 431.261719 54.289062 432.417969 54.636719 C 433.574219 54.988281 434.71875 55.367188 435.855469 55.773438 C 436.992188 56.179688 438.117188 56.613281 439.234375 57.078125 C 440.347656 57.539062 441.453125 58.027344 442.542969 58.542969 C 443.632812 59.058594 444.710938 59.601562 445.777344 60.171875 C 446.839844 60.738281 447.890625 61.332031 448.925781 61.953125 C 449.960938 62.574219 450.980469 63.21875 451.984375 63.890625 C 452.988281 64.5625 453.976562 65.253906 454.945312 65.972656 C 455.914062 66.691406 456.867188 67.4375 457.796875 68.199219 C 458.730469 68.964844 459.644531 69.753906 460.539062 70.566406 C 461.433594 71.375 462.308594 72.207031 463.160156 73.0625 C 464.015625 73.914062 464.847656 74.789062 465.65625 75.683594 C 466.46875 76.578125 467.257812 77.488281 468.023438 78.421875 C 468.789062 79.355469 469.53125 80.304688 470.25 81.277344 C 470.96875 82.246094 471.664062 83.230469 472.335938 84.234375 C 473.003906 85.238281 473.648438 86.257812 474.269531 87.292969 C 474.890625 88.328125 475.484375 89.378906 476.054688 90.441406 C 476.625 91.507812 477.167969 92.582031 477.683594 93.675781 C 478.199219 94.765625 478.6875 95.867188 479.148438 96.984375 C 479.613281 98.097656 480.046875 99.222656 480.453125 100.359375 C 480.859375 101.496094 481.238281 102.640625 481.589844 103.796875 C 481.9375 104.953125 482.261719 106.113281 482.554688 107.285156 C 482.847656 108.457031 483.113281 109.632812 483.347656 110.816406 C 483.582031 112 483.789062 113.1875 483.964844 114.382812 C 484.144531 115.574219 484.289062 116.773438 484.410156 117.972656 C 484.527344 119.175781 484.617188 120.378906 484.675781 121.582031 C 484.734375 122.789062 484.765625 123.996094 484.765625 125.203125 Z M 484.765625 125.203125 " fill-opacity="1" fill-rule="nonzero"/><g clip-path="url(#8501eea1ff)"><path fill="#2e2e41" d="M 346.804688 180.035156 C 346.804688 180.035156 291.828125 78.523438 341.398438 29.671875 C 390.96875 -19.175781 430.757812 13.011719 430.757812 13.011719 L 453.480469 12.09375 C 453.480469 12.09375 458.21875 29.972656 465.863281 20.292969 C 473.503906 10.617188 487.3125 45.863281 487.3125 45.863281 C 512.941406 92.007812 424.09375 102.347656 424.09375 102.347656 C 424.09375 102.347656 430.511719 122.777344 423.988281 127.058594 C 417.46875 131.335938 400.042969 147.433594 400.042969 147.433594 L 384.449219 159.207031 L 375.183594 145.089844 C 375.183594 145.089844 365.5 137.453125 360.609375 140.660156 C 355.71875 143.871094 362.449219 186.097656 362.449219 186.097656 Z M 346.804688 180.035156 " fill-opacity="1" fill-rule="nonzero"/></g><path fill="#e8e9ea" d="M 241.34375 1022.921875 L 278.25 564.898438 L 221.65625 326.394531 C 216.777344 290.941406 239.121094 257.394531 273.605469 248.246094 L 328.980469 233.558594 L 353.492188 209.050781 L 409.242188 332.140625 L 444.0625 209.144531 L 471.21875 228.890625 L 551.757812 264.414062 L 551.71875 265.246094 L 538.800781 553.359375 L 567.636719 1018.84375 L 566.359375 1018.863281 Z M 241.34375 1022.921875 " fill-opacity="1" fill-rule="nonzero"/><path fill="#fdb4b4" d="M 201.160156 779.671875 C 200.3125 767.859375 202.300781 756.015625 206.96875 745.132812 L 191.988281 622.265625 L 250.671875 616.851562 L 259.546875 742.066406 C 265.445312 752.332031 268.796875 763.859375 269.324219 775.6875 C 271.050781 805.269531 257.191406 830.132812 238.367188 831.230469 C 219.542969 832.328125 202.882812 809.246094 201.160156 779.671875 Z M 201.160156 779.671875 " fill-opacity="1" fill-rule="nonzero"/><path fill="#fdb4b4" d="M 572.851562 797.707031 C 572.128906 785.886719 574.25 774.0625 579.035156 763.230469 L 565.394531 640.210938 L 624.132812 635.433594 L 631.644531 760.738281 C 637.429688 771.066406 640.65625 782.632812 641.054688 794.464844 C 642.457031 824.066406 628.328125 848.773438 609.492188 849.667969 C 590.65625 850.5625 574.25 827.296875 572.851562 797.707031 Z M 572.851562 797.707031 " fill-opacity="1" fill-rule="nonzero"/><path fill="#e8e9ea" d="M 191.746094 730.398438 L 191.546875 729.339844 L 160.964844 565.277344 L 197.101562 298.121094 C 200.328125 274.269531 221.628906 257.089844 245.652344 259.007812 C 258.199219 260.011719 269.453125 265.960938 277.347656 275.761719 C 285.242188 285.5625 288.660156 297.824219 286.964844 310.292969 L 259.765625 510.65625 L 276.890625 724.964844 C 276.890625 724.964844 191.746094 730.398438 191.746094 730.398438 Z M 191.746094 730.398438 " fill-opacity="1" fill-rule="nonzero"/><path fill="#e8e9ea" d="M 554.726562 726.546875 L 493.234375 316.191406 C 490.039062 304.15625 491.910156 291.566406 498.53125 280.863281 C 505.152344 270.164062 515.585938 262.867188 527.910156 260.320312 C 551.492188 255.441406 574.773438 269.855469 580.929688 293.121094 L 640 721.394531 L 554.726562 726.550781 Z M 554.726562 726.546875 " fill-opacity="1" fill-rule="nonzero"/><path fill="#d6d7d8" d="M 418.597656 362.105469 C 418.597656 362.601562 418.546875 363.089844 418.449219 363.578125 C 418.355469 364.0625 418.210938 364.535156 418.019531 364.992188 C 417.832031 365.449219 417.597656 365.886719 417.324219 366.296875 C 417.046875 366.710938 416.734375 367.089844 416.386719 367.441406 C 416.035156 367.792969 415.652344 368.105469 415.242188 368.378906 C 414.828125 368.65625 414.394531 368.886719 413.9375 369.078125 C 413.476562 369.265625 413.007812 369.410156 412.519531 369.507812 C 412.035156 369.601562 411.542969 369.652344 411.046875 369.652344 C 410.550781 369.652344 410.0625 369.601562 409.574219 369.507812 C 409.089844 369.410156 408.617188 369.265625 408.160156 369.078125 C 407.699219 368.886719 407.265625 368.65625 406.855469 368.378906 C 406.441406 368.105469 406.058594 367.792969 405.710938 367.441406 C 405.359375 367.089844 405.046875 366.710938 404.769531 366.296875 C 404.496094 365.886719 404.261719 365.449219 404.074219 364.992188 C 403.882812 364.535156 403.742188 364.0625 403.644531 363.578125 C 403.546875 363.089844 403.5 362.601562 403.5 362.105469 C 403.5 361.609375 403.546875 361.117188 403.644531 360.632812 C 403.742188 360.144531 403.882812 359.675781 404.074219 359.214844 C 404.261719 358.757812 404.496094 358.324219 404.769531 357.910156 C 405.046875 357.5 405.359375 357.117188 405.710938 356.769531 C 406.058594 356.417969 406.441406 356.105469 406.855469 355.828125 C 407.265625 355.554688 407.699219 355.320312 408.160156 355.132812 C 408.617188 354.941406 409.089844 354.800781 409.574219 354.703125 C 410.0625 354.605469 410.550781 354.558594 411.046875 354.558594 C 411.542969 354.558594 412.035156 354.605469 412.519531 354.703125 C 413.007812 354.800781 413.476562 354.941406 413.9375 355.132812 C 414.394531 355.320312 414.828125 355.554688 415.242188 355.828125 C 415.652344 356.105469 416.035156 356.417969 416.386719 356.769531 C 416.734375 357.117188 417.046875 357.5 417.324219 357.910156 C 417.597656 358.324219 417.832031 358.757812 418.019531 359.214844 C 418.210938 359.675781 418.355469 360.144531 418.449219 360.632812 C 418.546875 361.117188 418.597656 361.609375 418.597656 362.105469 Z M 418.597656 362.105469 " fill-opacity="1" fill-rule="nonzero"/><path fill="#d6d7d8" d="M 418.597656 419.25 C 418.597656 419.742188 418.546875 420.234375 418.449219 420.71875 C 418.355469 421.207031 418.210938 421.679688 418.019531 422.136719 C 417.832031 422.59375 417.597656 423.027344 417.324219 423.441406 C 417.046875 423.851562 416.734375 424.234375 416.386719 424.585938 C 416.035156 424.933594 415.652344 425.246094 415.242188 425.523438 C 414.828125 425.796875 414.394531 426.03125 413.9375 426.21875 C 413.476562 426.410156 413.007812 426.554688 412.519531 426.648438 C 412.035156 426.746094 411.542969 426.796875 411.046875 426.796875 C 410.550781 426.796875 410.0625 426.746094 409.574219 426.648438 C 409.089844 426.554688 408.617188 426.410156 408.160156 426.21875 C 407.699219 426.03125 407.265625 425.796875 406.855469 425.523438 C 406.441406 425.246094 406.058594 424.933594 405.710938 424.585938 C 405.359375 424.234375 405.046875 423.851562 404.769531 423.441406 C 404.496094 423.027344 404.261719 422.59375 404.074219 422.136719 C 403.882812 421.679688 403.742188 421.207031 403.644531 420.71875 C 403.546875 420.234375 403.5 419.742188 403.5 419.25 C 403.5 418.753906 403.546875 418.261719 403.644531 417.777344 C 403.742188 417.289062 403.882812 416.816406 404.074219 416.359375 C 404.261719 415.902344 404.496094 415.46875 404.769531 415.054688 C 405.046875 414.644531 405.359375 414.261719 405.710938 413.914062 C 406.058594 413.5625 406.441406 413.25 406.855469 412.972656 C 407.265625 412.699219 407.699219 412.464844 408.160156 412.277344 C 408.617188 412.085938 409.089844 411.945312 409.574219 411.847656 C 410.0625 411.75 410.550781 411.703125 411.046875 411.703125 C 411.542969 411.703125 412.035156 411.75 412.519531 411.847656 C 413.007812 411.945312 413.476562 412.085938 413.9375 412.277344 C 414.394531 412.464844 414.828125 412.699219 415.242188 412.972656 C 415.652344 413.25 416.035156 413.5625 416.386719 413.914062 C 416.734375 414.261719 417.046875 414.644531 417.324219 415.054688 C 417.597656 415.46875 417.832031 415.902344 418.019531 416.359375 C 418.210938 416.816406 418.355469 417.289062 418.449219 417.777344 C 418.546875 418.261719 418.597656 418.753906 418.597656 419.25 Z M 418.597656 419.25 " fill-opacity="1" fill-rule="nonzero"/><path fill="#d6d7d8" d="M 418.597656 476.390625 C 418.597656 476.886719 418.546875 477.378906 418.449219 477.863281 C 418.355469 478.351562 418.210938 478.824219 418.019531 479.28125 C 417.832031 479.738281 417.597656 480.171875 417.324219 480.585938 C 417.046875 480.996094 416.734375 481.378906 416.386719 481.726562 C 416.035156 482.078125 415.652344 482.390625 415.242188 482.667969 C 414.828125 482.941406 414.394531 483.175781 413.9375 483.363281 C 413.476562 483.554688 413.007812 483.695312 412.519531 483.792969 C 412.035156 483.890625 411.542969 483.9375 411.046875 483.9375 C 410.550781 483.9375 410.0625 483.890625 409.574219 483.792969 C 409.089844 483.695312 408.617188 483.554688 408.160156 483.363281 C 407.699219 483.175781 407.265625 482.941406 406.855469 482.667969 C 406.441406 482.390625 406.058594 482.078125 405.710938 481.726562 C 405.359375 481.378906 405.046875 480.996094 404.769531 480.585938 C 404.496094 480.171875 404.261719 479.738281 404.074219 479.28125 C 403.882812 478.824219 403.742188 478.351562 403.644531 477.863281 C 403.546875 477.378906 403.5 476.886719 403.5 476.390625 C 403.5 475.898438 403.546875 475.40625 403.644531 474.921875 C 403.742188 474.433594 403.882812 473.960938 404.074219 473.503906 C 404.261719 473.046875 404.496094 472.613281 404.769531 472.199219 C 405.046875 471.789062 405.359375 471.40625 405.710938 471.054688 C 406.058594 470.707031 406.441406 470.394531 406.855469 470.117188 C 407.265625 469.84375 407.699219 469.609375 408.160156 469.421875 C 408.617188 469.230469 409.089844 469.085938 409.574219 468.992188 C 410.0625 468.894531 410.550781 468.84375 411.046875 468.84375 C 411.542969 468.84375 412.035156 468.894531 412.519531 468.992188 C 413.007812 469.085938 413.476562 469.230469 413.9375 469.421875 C 414.394531 469.609375 414.828125 469.84375 415.242188 470.117188 C 415.652344 470.394531 416.035156 470.707031 416.386719 471.054688 C 416.734375 471.40625 417.046875 471.789062 417.324219 472.199219 C 417.597656 472.613281 417.832031 473.046875 418.019531 473.503906 C 418.210938 473.960938 418.355469 474.433594 418.449219 474.917969 C 418.546875 475.40625 418.597656 475.898438 418.597656 476.390625 Z M 418.597656 476.390625 " fill-opacity="1" fill-rule="nonzero"/><path fill="#d6d7d8" d="M 418.597656 533.535156 C 418.597656 534.03125 418.546875 534.523438 418.449219 535.007812 C 418.355469 535.496094 418.210938 535.964844 418.019531 536.425781 C 417.832031 536.882812 417.597656 537.316406 417.324219 537.730469 C 417.046875 538.140625 416.734375 538.523438 416.386719 538.871094 C 416.035156 539.222656 415.652344 539.535156 415.242188 539.8125 C 414.828125 540.085938 414.394531 540.320312 413.9375 540.507812 C 413.476562 540.699219 413.007812 540.839844 412.519531 540.9375 C 412.035156 541.035156 411.542969 541.082031 411.046875 541.082031 C 410.550781 541.082031 410.0625 541.035156 409.574219 540.9375 C 409.089844 540.839844 408.617188 540.699219 408.160156 540.507812 C 407.699219 540.320312 407.265625 540.085938 406.855469 539.8125 C 406.441406 539.535156 406.058594 539.222656 405.710938 538.871094 C 405.359375 538.523438 405.046875 538.140625 404.769531 537.730469 C 404.496094 537.316406 404.261719 536.882812 404.074219 536.421875 C 403.882812 535.964844 403.742188 535.496094 403.644531 535.007812 C 403.546875 534.523438 403.5 534.03125 403.5 533.535156 C 403.5 533.039062 403.546875 532.550781 403.644531 532.0625 C 403.742188 531.578125 403.882812 531.105469 404.074219 530.648438 C 404.261719 530.191406 404.496094 529.753906 404.769531 529.34375 C 405.046875 528.929688 405.359375 528.550781 405.710938 528.199219 C 406.058594 527.847656 406.441406 527.535156 406.855469 527.261719 C 407.265625 526.984375 407.699219 526.753906 408.160156 526.5625 C 408.617188 526.375 409.089844 526.230469 409.574219 526.132812 C 410.0625 526.039062 410.550781 525.988281 411.046875 525.988281 C 411.542969 525.988281 412.035156 526.039062 412.519531 526.132812 C 413.007812 526.230469 413.476562 526.375 413.9375 526.5625 C 414.394531 526.753906 414.828125 526.984375 415.242188 527.261719 C 415.652344 527.535156 416.035156 527.847656 416.386719 528.199219 C 416.734375 528.550781 417.046875 528.929688 417.324219 529.34375 C 417.597656 529.753906 417.832031 530.191406 418.019531 530.648438 C 418.210938 531.105469 418.355469 531.578125 418.449219 532.0625 C 418.546875 532.550781 418.597656 533.039062 418.597656 533.535156 Z M 418.597656 533.535156 " fill-opacity="1" fill-rule="nonzero"/><path fill="#d6d7d8" d="M 418.597656 590.683594 C 418.597656 591.175781 418.546875 591.667969 418.449219 592.15625 C 418.355469 592.640625 418.210938 593.113281 418.019531 593.570312 C 417.832031 594.027344 417.597656 594.460938 417.324219 594.875 C 417.046875 595.285156 416.734375 595.667969 416.386719 596.019531 C 416.035156 596.367188 415.652344 596.683594 415.242188 596.957031 C 414.828125 597.230469 414.394531 597.464844 413.9375 597.652344 C 413.476562 597.84375 413.007812 597.988281 412.519531 598.082031 C 412.035156 598.179688 411.542969 598.230469 411.046875 598.230469 C 410.550781 598.230469 410.0625 598.179688 409.574219 598.082031 C 409.089844 597.988281 408.617188 597.84375 408.160156 597.652344 C 407.699219 597.464844 407.265625 597.230469 406.855469 596.957031 C 406.441406 596.683594 406.058594 596.367188 405.710938 596.019531 C 405.359375 595.667969 405.046875 595.285156 404.769531 594.875 C 404.496094 594.460938 404.261719 594.027344 404.074219 593.570312 C 403.882812 593.113281 403.742188 592.640625 403.644531 592.15625 C 403.546875 591.667969 403.5 591.175781 403.5 590.683594 C 403.5 590.1875 403.546875 589.695312 403.644531 589.210938 C 403.742188 588.722656 403.882812 588.25 404.074219 587.792969 C 404.261719 587.335938 404.496094 586.902344 404.769531 586.488281 C 405.046875 586.078125 405.359375 585.695312 405.710938 585.347656 C 406.058594 584.996094 406.441406 584.683594 406.855469 584.40625 C 407.265625 584.132812 407.699219 583.898438 408.160156 583.710938 C 408.617188 583.519531 409.089844 583.378906 409.574219 583.28125 C 410.0625 583.183594 410.550781 583.136719 411.046875 583.136719 C 411.542969 583.136719 412.035156 583.183594 412.519531 583.28125 C 413.007812 583.378906 413.476562 583.519531 413.9375 583.710938 C 414.394531 583.898438 414.828125 584.132812 415.242188 584.40625 C 415.652344 584.683594 416.035156 584.996094 416.386719 585.347656 C 416.734375 585.695312 417.046875 586.078125 417.324219 586.488281 C 417.597656 586.902344 417.832031 587.335938 418.019531 587.792969 C 418.210938 588.25 418.355469 588.722656 418.449219 589.210938 C 418.546875 589.695312 418.597656 590.1875 418.597656 590.683594 Z M 418.597656 590.683594 " fill-opacity="1" fill-rule="nonzero"/><path fill="#d6d7d8" d="M 418.597656 647.824219 C 418.597656 648.320312 418.546875 648.8125 418.449219 649.296875 C 418.355469 649.785156 418.210938 650.257812 418.019531 650.714844 C 417.832031 651.171875 417.597656 651.605469 417.324219 652.019531 C 417.046875 652.429688 416.734375 652.8125 416.386719 653.164062 C 416.035156 653.511719 415.652344 653.824219 415.242188 654.101562 C 414.828125 654.375 414.394531 654.609375 413.9375 654.796875 C 413.476562 654.988281 413.007812 655.128906 412.519531 655.226562 C 412.035156 655.324219 411.542969 655.371094 411.046875 655.371094 C 410.550781 655.371094 410.0625 655.324219 409.574219 655.226562 C 409.089844 655.128906 408.617188 654.988281 408.160156 654.796875 C 407.699219 654.609375 407.265625 654.375 406.855469 654.101562 C 406.441406 653.824219 406.058594 653.511719 405.710938 653.164062 C 405.359375 652.8125 405.046875 652.429688 404.769531 652.019531 C 404.496094 651.605469 404.261719 651.171875 404.074219 650.714844 C 403.882812 650.257812 403.742188 649.785156 403.644531 649.296875 C 403.546875 648.8125 403.5 648.320312 403.5 647.824219 C 403.5 647.332031 403.546875 646.839844 403.644531 646.351562 C 403.742188 645.867188 403.882812 645.394531 404.074219 644.9375 C 404.261719 644.480469 404.496094 644.046875 404.769531 643.632812 C 405.046875 643.222656 405.359375 642.839844 405.710938 642.488281 C 406.058594 642.140625 406.441406 641.828125 406.855469 641.550781 C 407.265625 641.277344 407.699219 641.042969 408.160156 640.855469 C 408.617188 640.664062 409.089844 640.519531 409.574219 640.425781 C 410.0625 640.328125 410.550781 640.277344 411.046875 640.277344 C 411.542969 640.277344 412.035156 640.328125 412.519531 640.425781 C 413.007812 640.519531 413.476562 640.664062 413.9375 640.855469 C 414.394531 641.042969 414.828125 641.277344 415.242188 641.550781 C 415.652344 641.828125 416.035156 642.140625 416.386719 642.488281 C 416.734375 642.839844 417.046875 643.222656 417.324219 643.632812 C 417.597656 644.046875 417.832031 644.480469 418.019531 644.9375 C 418.210938 645.394531 418.355469 645.867188 418.449219 646.351562 C 418.546875 646.839844 418.597656 647.332031 418.597656 647.824219 Z M 418.597656 647.824219 " fill-opacity="1" fill-rule="nonzero"/><path fill="#d6d7d8" d="M 418.597656 704.96875 C 418.597656 705.464844 418.546875 705.957031 418.449219 706.441406 C 418.355469 706.929688 418.210938 707.398438 418.019531 707.859375 C 417.832031 708.316406 417.597656 708.75 417.324219 709.164062 C 417.046875 709.574219 416.734375 709.957031 416.386719 710.304688 C 416.035156 710.65625 415.652344 710.96875 415.242188 711.246094 C 414.828125 711.519531 414.394531 711.753906 413.9375 711.941406 C 413.476562 712.132812 413.007812 712.273438 412.519531 712.371094 C 412.035156 712.46875 411.542969 712.515625 411.046875 712.515625 C 410.550781 712.515625 410.0625 712.46875 409.574219 712.371094 C 409.089844 712.273438 408.617188 712.132812 408.160156 711.941406 C 407.699219 711.753906 407.265625 711.519531 406.855469 711.246094 C 406.441406 710.96875 406.058594 710.65625 405.710938 710.304688 C 405.359375 709.957031 405.046875 709.574219 404.769531 709.164062 C 404.496094 708.75 404.261719 708.316406 404.074219 707.859375 C 403.882812 707.398438 403.742188 706.929688 403.644531 706.441406 C 403.546875 705.957031 403.5 705.464844 403.5 704.96875 C 403.5 704.472656 403.546875 703.984375 403.644531 703.496094 C 403.742188 703.011719 403.882812 702.539062 404.074219 702.082031 C 404.261719 701.625 404.496094 701.1875 404.769531 700.777344 C 405.046875 700.363281 405.359375 699.984375 405.710938 699.632812 C 406.058594 699.28125 406.441406 698.96875 406.855469 698.695312 C 407.265625 698.417969 407.699219 698.1875 408.160156 697.996094 C 408.617188 697.808594 409.089844 697.664062 409.574219 697.566406 C 410.0625 697.472656 410.550781 697.421875 411.046875 697.421875 C 411.542969 697.421875 412.035156 697.472656 412.519531 697.566406 C 413.007812 697.664062 413.476562 697.808594 413.9375 697.996094 C 414.394531 698.1875 414.828125 698.417969 415.242188 698.695312 C 415.652344 698.96875 416.035156 699.28125 416.386719 699.632812 C 416.734375 699.984375 417.046875 700.363281 417.324219 700.777344 C 417.597656 701.1875 417.832031 701.625 418.019531 702.082031 C 418.210938 702.539062 418.355469 703.011719 418.449219 703.496094 C 418.546875 703.984375 418.597656 704.472656 418.597656 704.96875 Z M 418.597656 704.96875 " fill-opacity="1" fill-rule="nonzero"/><path fill="#d6d7d8" d="M 418.597656 762.113281 C 418.597656 762.609375 418.546875 763.097656 418.449219 763.585938 C 418.355469 764.070312 418.210938 764.542969 418.019531 765 C 417.832031 765.460938 417.597656 765.894531 417.324219 766.304688 C 417.046875 766.71875 416.734375 767.097656 416.386719 767.449219 C 416.035156 767.800781 415.652344 768.113281 415.242188 768.386719 C 414.828125 768.664062 414.394531 768.894531 413.9375 769.085938 C 413.476562 769.273438 413.007812 769.417969 412.519531 769.515625 C 412.035156 769.613281 411.542969 769.660156 411.046875 769.660156 C 410.550781 769.660156 410.0625 769.613281 409.574219 769.515625 C 409.089844 769.417969 408.617188 769.273438 408.160156 769.085938 C 407.699219 768.894531 407.265625 768.664062 406.855469 768.386719 C 406.441406 768.113281 406.058594 767.800781 405.710938 767.449219 C 405.359375 767.097656 405.046875 766.71875 404.769531 766.304688 C 404.496094 765.894531 404.261719 765.460938 404.074219 765 C 403.882812 764.542969 403.742188 764.070312 403.644531 763.585938 C 403.546875 763.097656 403.5 762.609375 403.5 762.113281 C 403.5 761.617188 403.546875 761.128906 403.644531 760.640625 C 403.742188 760.15625 403.882812 759.683594 404.074219 759.226562 C 404.261719 758.765625 404.496094 758.332031 404.769531 757.921875 C 405.046875 757.507812 405.359375 757.128906 405.710938 756.777344 C 406.058594 756.425781 406.441406 756.113281 406.855469 755.839844 C 407.265625 755.5625 407.699219 755.332031 408.160156 755.140625 C 408.617188 754.953125 409.089844 754.808594 409.574219 754.710938 C 410.0625 754.613281 410.550781 754.566406 411.046875 754.566406 C 411.542969 754.566406 412.035156 754.613281 412.519531 754.710938 C 413.007812 754.808594 413.476562 754.953125 413.9375 755.140625 C 414.394531 755.332031 414.828125 755.5625 415.242188 755.839844 C 415.652344 756.113281 416.035156 756.425781 416.386719 756.777344 C 416.734375 757.128906 417.046875 757.507812 417.324219 757.921875 C 417.597656 758.332031 417.832031 758.765625 418.019531 759.226562 C 418.210938 759.683594 418.355469 760.15625 418.449219 760.640625 C 418.546875 761.128906 418.597656 761.617188 418.597656 762.113281 Z M 418.597656 762.113281 " fill-opacity="1" fill-rule="nonzero"/><path fill="#9dde89" d="M 411.058594 813.867188 L 268.21875 794.835938 L 265.46875 794.46875 L 192.46875 626.183594 L 148.992188 525.992188 L 262.230469 525.992188 Z M 411.058594 813.867188 " fill-opacity="1" fill-rule="nonzero"/><path fill="#3f3c57" d="M 480.257812 323.789062 L 475.582031 322.425781 C 485.320312 289.050781 464.5625 225.796875 464.351562 225.171875 L 470.191406 229.574219 C 471.082031 232.1875 490.421875 288.949219 480.257812 323.789062 Z M 480.257812 323.789062 " fill-opacity="1" fill-rule="nonzero"/><path fill="#3f3c57" d="M 315.972656 329.71875 L 320.648438 328.359375 C 310.910156 294.980469 331.90625 232.691406 332.117188 232.066406 L 327.117188 235.414062 C 326.226562 238.027344 305.808594 294.878906 315.972656 329.71875 Z M 315.972656 329.71875 " fill-opacity="1" fill-rule="nonzero"/><path fill="#3f3c57" d="M 498.253906 341.796875 C 498.253906 342.460938 498.222656 343.125 498.15625 343.789062 C 498.089844 344.453125 497.992188 345.109375 497.863281 345.761719 C 497.734375 346.414062 497.570312 347.058594 497.378906 347.699219 C 497.183594 348.335938 496.960938 348.960938 496.707031 349.578125 C 496.453125 350.191406 496.167969 350.792969 495.851562 351.378906 C 495.539062 351.96875 495.199219 352.539062 494.828125 353.089844 C 494.457031 353.644531 494.0625 354.179688 493.636719 354.695312 C 493.214844 355.207031 492.769531 355.699219 492.296875 356.171875 C 491.828125 356.644531 491.335938 357.089844 490.820312 357.511719 C 490.304688 357.933594 489.769531 358.332031 489.21875 358.699219 C 488.664062 359.070312 488.09375 359.410156 487.503906 359.726562 C 486.917969 360.039062 486.316406 360.324219 485.703125 360.578125 C 485.085938 360.832031 484.460938 361.058594 483.820312 361.25 C 483.183594 361.445312 482.539062 361.605469 481.886719 361.734375 C 481.234375 361.867188 480.574219 361.964844 479.914062 362.027344 C 479.25 362.09375 478.585938 362.125 477.917969 362.125 C 477.253906 362.125 476.589844 362.09375 475.925781 362.027344 C 475.261719 361.964844 474.605469 361.867188 473.953125 361.734375 C 473.300781 361.605469 472.652344 361.445312 472.015625 361.25 C 471.378906 361.058594 470.753906 360.832031 470.136719 360.578125 C 469.523438 360.324219 468.921875 360.039062 468.332031 359.726562 C 467.746094 359.410156 467.175781 359.070312 466.621094 358.699219 C 466.066406 358.332031 465.535156 357.933594 465.019531 357.511719 C 464.503906 357.089844 464.011719 356.644531 463.539062 356.171875 C 463.070312 355.699219 462.621094 355.207031 462.199219 354.695312 C 461.777344 354.179688 461.382812 353.644531 461.011719 353.089844 C 460.640625 352.539062 460.300781 351.96875 459.984375 351.378906 C 459.671875 350.792969 459.386719 350.191406 459.132812 349.578125 C 458.878906 348.960938 458.652344 348.335938 458.460938 347.699219 C 458.265625 347.058594 458.105469 346.414062 457.976562 345.761719 C 457.84375 345.109375 457.746094 344.453125 457.683594 343.789062 C 457.617188 343.125 457.585938 342.460938 457.585938 341.796875 C 457.585938 341.128906 457.617188 340.464844 457.683594 339.804688 C 457.746094 339.140625 457.84375 338.484375 457.976562 337.828125 C 458.105469 337.175781 458.265625 336.53125 458.460938 335.894531 C 458.652344 335.257812 458.878906 334.632812 459.132812 334.015625 C 459.386719 333.402344 459.671875 332.800781 459.984375 332.210938 C 460.300781 331.625 460.640625 331.054688 461.011719 330.5 C 461.382812 329.949219 461.777344 329.414062 462.199219 328.898438 C 462.621094 328.382812 463.070312 327.890625 463.539062 327.421875 C 464.011719 326.949219 464.503906 326.503906 465.019531 326.082031 C 465.535156 325.65625 466.066406 325.261719 466.621094 324.890625 C 467.175781 324.523438 467.746094 324.179688 468.332031 323.867188 C 468.921875 323.550781 469.523438 323.269531 470.136719 323.011719 C 470.753906 322.757812 471.378906 322.535156 472.015625 322.339844 C 472.652344 322.148438 473.300781 321.984375 473.953125 321.855469 C 474.605469 321.726562 475.261719 321.628906 475.925781 321.5625 C 476.589844 321.5 477.253906 321.464844 477.917969 321.464844 C 478.585938 321.464844 479.25 321.5 479.914062 321.5625 C 480.574219 321.628906 481.234375 321.726562 481.886719 321.855469 C 482.539062 321.984375 483.183594 322.148438 483.820312 322.339844 C 484.460938 322.535156 485.085938 322.757812 485.699219 323.011719 C 486.316406 323.269531 486.917969 323.550781 487.503906 323.867188 C 488.09375 324.179688 488.664062 324.523438 489.21875 324.890625 C 489.769531 325.261719 490.304688 325.65625 490.820312 326.082031 C 491.335938 326.503906 491.828125 326.949219 492.296875 327.421875 C 492.769531 327.890625 493.214844 328.382812 493.636719 328.898438 C 494.0625 329.414062 494.457031 329.949219 494.828125 330.5 C 495.199219 331.054688 495.539062 331.625 495.851562 332.210938 C 496.167969 332.800781 496.453125 333.402344 496.707031 334.015625 C 496.960938 334.632812 497.183594 335.257812 497.378906 335.894531 C 497.570312 336.53125 497.734375 337.175781 497.863281 337.828125 C 497.992188 338.484375 498.089844 339.140625 498.15625 339.804688 C 498.222656 340.464844 498.253906 341.128906 498.253906 341.796875 Z M 498.253906 341.796875 " fill-opacity="1" fill-rule="nonzero"/><path fill="#3f3c57" d="M 337.652344 454.746094 L 325.320312 454.746094 C 323.976562 454.746094 322.886719 453.65625 322.886719 452.3125 C 322.886719 450.96875 323.976562 449.878906 325.320312 449.878906 L 337.652344 449.878906 C 341.054688 449.878906 344.246094 448.554688 346.644531 446.148438 C 349.042969 443.746094 350.363281 440.550781 350.355469 437.152344 L 350.207031 361.207031 C 350.207031 344.710938 336.785156 331.292969 320.289062 331.292969 C 303.792969 331.292969 290.367188 344.710938 290.367188 361.203125 L 290.515625 432.289062 C 290.53125 439.222656 296.1875 444.910156 303.125 444.960938 L 311.589844 445.027344 C 312.929688 445.035156 314.011719 446.132812 314.003906 447.480469 C 313.992188 448.816406 312.90625 449.894531 311.570312 449.894531 L 311.550781 449.894531 L 303.085938 449.828125 C 293.492188 449.753906 285.667969 441.890625 285.648438 432.296875 L 285.5 361.207031 C 285.5 342.027344 301.105469 326.425781 320.289062 326.425781 C 339.46875 326.425781 355.074219 342.027344 355.074219 361.203125 L 355.226562 437.144531 C 355.234375 441.84375 353.410156 446.261719 350.089844 449.585938 C 346.773438 452.914062 342.351562 454.746094 337.652344 454.746094 Z M 337.652344 454.746094 " fill-opacity="1" fill-rule="nonzero"/><path fill="#3f3c57" d="M 320.195312 447.457031 C 320.195312 448.023438 320.140625 448.585938 320.03125 449.140625 C 319.921875 449.695312 319.757812 450.234375 319.539062 450.757812 C 319.324219 451.28125 319.058594 451.78125 318.742188 452.25 C 318.429688 452.722656 318.070312 453.15625 317.667969 453.558594 C 317.269531 453.957031 316.832031 454.316406 316.363281 454.628906 C 315.890625 454.945312 315.394531 455.210938 314.871094 455.425781 C 314.347656 455.644531 313.808594 455.808594 313.253906 455.917969 C 312.695312 456.027344 312.136719 456.082031 311.570312 456.082031 C 311.003906 456.082031 310.441406 456.027344 309.886719 455.917969 C 309.332031 455.808594 308.792969 455.644531 308.269531 455.425781 C 307.746094 455.210938 307.246094 454.945312 306.777344 454.628906 C 306.304688 454.316406 305.871094 453.957031 305.46875 453.558594 C 305.070312 453.15625 304.710938 452.722656 304.398438 452.25 C 304.082031 451.78125 303.816406 451.28125 303.601562 450.757812 C 303.382812 450.234375 303.21875 449.695312 303.109375 449.140625 C 303 448.585938 302.941406 448.023438 302.941406 447.457031 C 302.941406 446.890625 303 446.332031 303.109375 445.777344 C 303.21875 445.222656 303.382812 444.679688 303.601562 444.160156 C 303.816406 443.636719 304.082031 443.136719 304.398438 442.667969 C 304.710938 442.195312 305.070312 441.761719 305.46875 441.359375 C 305.871094 440.960938 306.304688 440.601562 306.777344 440.289062 C 307.246094 439.972656 307.746094 439.707031 308.269531 439.492188 C 308.792969 439.273438 309.332031 439.109375 309.886719 439 C 310.441406 438.890625 311.003906 438.835938 311.570312 438.835938 C 312.136719 438.835938 312.695312 438.890625 313.253906 439 C 313.808594 439.109375 314.347656 439.273438 314.871094 439.492188 C 315.394531 439.707031 315.890625 439.972656 316.363281 440.289062 C 316.832031 440.601562 317.269531 440.960938 317.667969 441.359375 C 318.070312 441.761719 318.429688 442.195312 318.742188 442.667969 C 319.058594 443.136719 319.324219 443.636719 319.539062 444.160156 C 319.757812 444.679688 319.921875 445.222656 320.03125 445.777344 C 320.140625 446.332031 320.195312 446.890625 320.195312 447.457031 Z M 320.195312 447.457031 " fill-opacity="1" fill-rule="nonzero"/><path fill="#3f3c57" d="M 333.945312 452.3125 C 333.945312 452.878906 333.890625 453.4375 333.78125 453.992188 C 333.671875 454.550781 333.507812 455.089844 333.289062 455.613281 C 333.074219 456.136719 332.808594 456.632812 332.492188 457.101562 C 332.179688 457.574219 331.820312 458.007812 331.421875 458.410156 C 331.019531 458.8125 330.585938 459.167969 330.113281 459.484375 C 329.640625 459.796875 329.144531 460.0625 328.621094 460.28125 C 328.097656 460.496094 327.558594 460.660156 327.003906 460.769531 C 326.449219 460.882812 325.886719 460.9375 325.320312 460.9375 C 324.753906 460.9375 324.191406 460.882812 323.636719 460.769531 C 323.082031 460.660156 322.542969 460.496094 322.019531 460.28125 C 321.496094 460.0625 321 459.796875 320.527344 459.484375 C 320.054688 459.167969 319.621094 458.8125 319.21875 458.410156 C 318.820312 458.007812 318.460938 457.574219 318.148438 457.101562 C 317.832031 456.632812 317.566406 456.136719 317.351562 455.613281 C 317.132812 455.089844 316.96875 454.550781 316.859375 453.992188 C 316.75 453.4375 316.695312 452.878906 316.695312 452.3125 C 316.695312 451.746094 316.75 451.183594 316.859375 450.628906 C 316.96875 450.074219 317.132812 449.535156 317.351562 449.011719 C 317.566406 448.488281 317.832031 447.992188 318.148438 447.519531 C 318.460938 447.050781 318.820312 446.613281 319.21875 446.214844 C 319.621094 445.8125 320.054688 445.453125 320.527344 445.140625 C 321 444.824219 321.496094 444.558594 322.019531 444.34375 C 322.542969 444.125 323.082031 443.964844 323.636719 443.851562 C 324.191406 443.742188 324.753906 443.6875 325.320312 443.6875 C 325.886719 443.6875 326.449219 443.742188 327.003906 443.851562 C 327.558594 443.964844 328.097656 444.125 328.621094 444.34375 C 329.144531 444.558594 329.640625 444.824219 330.113281 445.140625 C 330.585938 445.453125 331.019531 445.8125 331.421875 446.214844 C 331.820312 446.613281 332.179688 447.050781 332.492188 447.519531 C 332.808594 447.992188 333.074219 448.488281 333.289062 449.011719 C 333.507812 449.535156 333.671875 450.074219 333.78125 450.628906 C 333.890625 451.183594 333.945312 451.746094 333.945312 452.3125 Z M 333.945312 452.3125 " fill-opacity="1" fill-rule="nonzero"/></svg>