<svg xmlns="http://www.w3.org/2000/svg" xmlns:xlink="http://www.w3.org/1999/xlink" width="1080" zoomAndPan="magnify" viewBox="0 0 810 809.999993" height="1080" preserveAspectRatio="xMidYMid meet" version="1.0"><defs><clipPath id="d70d2d8c74"><path d="M 0 0 L 794.8125 0 L 794.8125 794.8125 L 0 794.8125 Z M 0 0 " clip-rule="nonzero"/></clipPath><clipPath id="fd1980cf56"><path d="M 397.40625 0 C 177.925781 0 0 177.925781 0 397.40625 C 0 616.886719 177.925781 794.8125 397.40625 794.8125 C 616.886719 794.8125 794.8125 616.886719 794.8125 397.40625 C 794.8125 177.925781 616.886719 0 397.40625 0 Z M 397.40625 0 " clip-rule="nonzero"/></clipPath><clipPath id="36508ee0e0"><path d="M 627.75 397.40625 L 698.625 397.40625 L 698.625 483.46875 L 627.75 483.46875 Z M 627.75 397.40625 " clip-rule="nonzero"/></clipPath><clipPath id="1a997332b6"><path d="M 505.59375 146.15625 L 576.46875 146.15625 L 576.46875 232.21875 L 505.59375 232.21875 Z M 505.59375 146.15625 " clip-rule="nonzero"/></clipPath><clipPath id="4554609272"><path d="M 81 354.375 L 151.875 354.375 L 151.875 440.4375 L 81 440.4375 Z M 81 354.375 " clip-rule="nonzero"/></clipPath><clipPath id="637aa498d4"><path d="M 434 506 L 542 506 L 542 619 L 434 619 Z M 434 506 " clip-rule="nonzero"/></clipPath><clipPath id="dddba0ba2d"><path d="M 434.558594 543.351562 L 498.269531 506.875 L 541.03125 581.5625 L 477.320312 618.039062 Z M 434.558594 543.351562 " clip-rule="nonzero"/></clipPath></defs><g clip-path="url(#d70d2d8c74)"><g clip-path="url(#fd1980cf56)"><path fill="#87aece" d="M 0 0 L 794.8125 0 L 794.8125 794.8125 L 0 794.8125 Z M 0 0 " fill-opacity="1" fill-rule="nonzero"/></g></g><path fill="#2f2e41" d="M 414.226562 497.699219 L 447.917969 542.351562 C 447.917969 542.351562 429.3125 541.058594 447.917969 549.148438 C 466.523438 557.234375 467.050781 554.378906 466.789062 564.179688 C 466.523438 573.980469 447.558594 572.515625 457.039062 582.550781 C 466.523438 592.585938 530.046875 726.003906 530.046875 726.003906 C 530.046875 726.003906 477.996094 919.167969 471.328125 927.046875 C 464.664062 934.929688 457.222656 927.484375 464.664062 934.929688 C 472.105469 942.371094 481.410156 933.066406 472.105469 942.371094 C 462.800781 951.671875 450.042969 968.089844 450.042969 968.089844 L 412.566406 962.835938 C 412.566406 962.835938 371.632812 923.765625 436.753906 858.644531 C 436.753906 858.644531 453.148438 793.496094 445.882812 793.511719 C 438.613281 793.527344 438.613281 804.03125 438.613281 782.960938 L 438.613281 761.894531 L 352.378906 600.339844 C 352.378906 600.339844 297.34375 557.410156 298.207031 537.785156 C 299.070312 518.164062 414.226562 497.699219 414.226562 497.699219 Z M 414.226562 497.699219 " fill-opacity="1" fill-rule="nonzero"/><path fill="#2f2e41" d="M 353.027344 542.351562 C 353.027344 542.351562 392.101562 739.570312 386.519531 745.152344 C 380.9375 750.734375 380.9375 764.738281 380.9375 764.738281 L 291.628906 962.835938 L 256.277344 964.695312 C 255.441406 908.019531 255.210938 865.027344 286.046875 825.15625 L 300.933594 533.046875 Z M 353.027344 542.351562 " fill-opacity="1" fill-rule="nonzero"/><path fill="#e6e6e6" d="M 403.753906 308.242188 L 361.171875 274.625 L 338.816406 273.328125 L 305.648438 294.574219 L 297.527344 336.007812 L 278.320312 382.664062 L 306.492188 508.578125 C 306.492188 508.578125 309.136719 517.613281 302.210938 518.699219 C 295.285156 519.785156 296.117188 533.101562 296.117188 533.101562 C 296.117188 533.101562 297.527344 544.644531 290.804688 545.660156 C 284.082031 546.675781 266.152344 546.675781 281.839844 566.847656 C 297.527344 587.019531 421.613281 510.730469 421.613281 510.730469 L 439.636719 416.164062 C 439.636719 416.164062 474.589844 369.222656 436.949219 342.335938 Z M 403.753906 308.242188 " fill-opacity="1" fill-rule="nonzero"/><path fill="#a0616a" d="M 217.859375 594.125 C 217.390625 593.539062 216.957031 592.933594 216.554688 592.300781 C 216.15625 591.671875 215.789062 591.019531 215.460938 590.347656 C 215.128906 589.675781 214.835938 588.988281 214.582031 588.289062 C 214.328125 587.585938 214.109375 586.871094 213.933594 586.144531 C 213.757812 585.414062 213.621094 584.683594 213.523438 583.941406 C 213.425781 583.199219 213.371094 582.453125 213.355469 581.707031 C 213.339844 580.957031 213.367188 580.210938 213.433594 579.46875 C 213.5 578.722656 213.605469 577.984375 213.753906 577.25 C 213.898438 576.515625 214.085938 575.792969 214.3125 575.082031 C 214.539062 574.367188 214.804688 573.671875 215.105469 572.984375 C 215.410156 572.300781 215.746094 571.636719 216.125 570.988281 C 216.5 570.34375 216.90625 569.71875 217.351562 569.117188 C 217.796875 568.515625 218.269531 567.9375 218.777344 567.386719 C 219.285156 566.835938 219.816406 566.316406 220.382812 565.824219 C 220.945312 565.332031 221.535156 564.875 222.148438 564.445312 C 222.761719 564.019531 223.398438 563.625 224.054688 563.269531 L 277.617188 383.515625 L 311.109375 400.378906 L 252.777344 572.667969 C 253.304688 573.804688 253.722656 574.980469 254.03125 576.195312 C 254.34375 577.40625 254.542969 578.636719 254.628906 579.886719 C 254.71875 581.136719 254.691406 582.382812 254.550781 583.628906 C 254.410156 584.871094 254.160156 586.09375 253.796875 587.292969 C 253.4375 588.492188 252.96875 589.648438 252.394531 590.761719 C 251.824219 591.875 251.152344 592.929688 250.390625 593.921875 C 249.625 594.914062 248.777344 595.828125 247.84375 596.664062 C 246.914062 597.503906 245.914062 598.25 244.847656 598.90625 C 243.78125 599.5625 242.664062 600.113281 241.496094 600.566406 C 240.328125 601.019531 239.128906 601.363281 237.898438 601.59375 C 236.667969 601.828125 235.425781 601.949219 234.175781 601.957031 C 232.921875 601.964844 231.679688 601.859375 230.445312 601.640625 C 229.210938 601.421875 228.007812 601.09375 226.835938 600.65625 C 225.660156 600.21875 224.539062 599.679688 223.460938 599.039062 C 222.386719 598.394531 221.378906 597.660156 220.4375 596.835938 C 219.496094 596.011719 218.636719 595.105469 217.859375 594.125 Z M 217.859375 594.125 " fill-opacity="1" fill-rule="nonzero"/><path fill="#e6e6e6" d="M 313.34375 292.910156 C 313.34375 292.910156 303.769531 287.824219 297.21875 309.839844 C 291.976562 327.46875 249.433594 432.460938 248.890625 457.988281 C 248.023438 458.171875 247.175781 458.425781 246.347656 458.75 C 245.519531 459.074219 244.726562 459.464844 243.964844 459.921875 C 243.199219 460.378906 242.480469 460.894531 241.804688 461.46875 C 241.125 462.042969 240.5 462.667969 239.925781 463.347656 C 239.351562 464.027344 238.835938 464.746094 238.382812 465.511719 C 237.929688 466.273438 237.539062 467.070312 237.214844 467.898438 C 236.894531 468.726562 236.640625 469.574219 236.457031 470.445312 C 236.273438 471.3125 236.164062 472.191406 236.125 473.078125 L 288.726562 480.128906 C 297.914062 472.375 300.328125 461.90625 296.769531 458.796875 L 308.191406 427.609375 L 355.835938 328.371094 L 320.328125 296.464844 Z M 313.34375 292.910156 " fill-opacity="1" fill-rule="nonzero"/><path fill="#a0616a" d="M 594.390625 535.039062 C 594.5625 534.3125 594.691406 533.574219 594.777344 532.832031 C 594.867188 532.089844 594.914062 531.34375 594.921875 530.597656 C 594.929688 529.847656 594.898438 529.101562 594.824219 528.359375 C 594.75 527.613281 594.632812 526.875 594.480469 526.144531 C 594.324219 525.414062 594.132812 524.691406 593.898438 523.980469 C 593.664062 523.273438 593.390625 522.574219 593.082031 521.894531 C 592.773438 521.214844 592.425781 520.550781 592.046875 519.910156 C 591.664062 519.265625 591.246094 518.648438 590.796875 518.050781 C 590.347656 517.453125 589.867188 516.878906 589.355469 516.335938 C 588.84375 515.789062 588.300781 515.273438 587.734375 514.789062 C 587.164062 514.304688 586.570312 513.851562 585.953125 513.429688 C 585.335938 513.007812 584.695312 512.621094 584.035156 512.269531 C 583.375 511.921875 582.699219 511.605469 582.003906 511.328125 C 581.308594 511.050781 580.601562 510.8125 579.878906 510.613281 C 579.160156 510.414062 578.429688 510.253906 577.691406 510.132812 C 576.953125 510.015625 576.210938 509.933594 575.464844 509.898438 L 452.59375 369.570312 L 426.527344 400.671875 L 553.628906 530.792969 C 553.648438 532.046875 553.777344 533.285156 554.023438 534.515625 C 554.265625 535.742188 554.617188 536.941406 555.082031 538.105469 C 555.542969 539.269531 556.105469 540.382812 556.769531 541.441406 C 557.433594 542.503906 558.1875 543.496094 559.035156 544.421875 C 559.878906 545.347656 560.800781 546.1875 561.796875 546.941406 C 562.796875 547.699219 563.855469 548.359375 564.972656 548.921875 C 566.089844 549.488281 567.25 549.945312 568.453125 550.296875 C 569.65625 550.648438 570.878906 550.890625 572.125 551.019531 C 573.371094 551.152344 574.617188 551.167969 575.867188 551.070312 C 577.113281 550.972656 578.34375 550.761719 579.554688 550.441406 C 580.765625 550.121094 581.9375 549.691406 583.070312 549.160156 C 584.203125 548.625 585.277344 547.992188 586.292969 547.261719 C 587.3125 546.53125 588.253906 545.714844 589.125 544.8125 C 589.992188 543.910156 590.773438 542.9375 591.464844 541.894531 C 592.15625 540.847656 592.75 539.75 593.238281 538.597656 C 593.730469 537.449219 594.117188 536.261719 594.390625 535.039062 Z M 594.390625 535.039062 " fill-opacity="1" fill-rule="nonzero"/><path fill="#e6e6e6" d="M 378.039062 304.738281 C 378.039062 304.738281 384.472656 296.007812 399.898438 313.03125 C 412.25 326.65625 496.011719 402.929688 507.539062 425.710938 C 508.402344 425.5 509.277344 425.363281 510.164062 425.296875 C 511.050781 425.234375 511.933594 425.242188 512.820312 425.324219 C 513.703125 425.402344 514.578125 425.558594 515.4375 425.78125 C 516.296875 426.007812 517.128906 426.300781 517.941406 426.664062 C 518.753906 427.027344 519.527344 427.457031 520.269531 427.949219 C 521.007812 428.441406 521.703125 428.988281 522.351562 429.597656 C 523 430.203125 523.597656 430.859375 524.136719 431.5625 C 524.679688 432.269531 525.15625 433.011719 525.574219 433.796875 L 481.199219 462.898438 C 469.558594 459.882812 462.855469 451.484375 464.71875 447.144531 L 440.933594 423.960938 L 355.058594 355.085938 L 373.277344 310.964844 Z M 378.039062 304.738281 " fill-opacity="1" fill-rule="nonzero"/><path fill="#a0616a" d="M 367.726562 163.421875 C 369.199219 163.996094 370.644531 164.640625 372.054688 165.355469 C 373.464844 166.070312 374.839844 166.855469 376.171875 167.703125 C 377.507812 168.554688 378.796875 169.46875 380.039062 170.445312 C 381.285156 171.421875 382.480469 172.457031 383.621094 173.550781 C 384.765625 174.644531 385.851562 175.792969 386.882812 176.992188 C 387.910156 178.195312 388.882812 179.441406 389.789062 180.738281 C 390.695312 182.035156 391.539062 183.371094 392.3125 184.75 C 393.089844 186.128906 393.796875 187.542969 394.433594 188.992188 C 395.070312 190.4375 395.636719 191.914062 396.128906 193.417969 C 396.621094 194.921875 397.039062 196.445312 397.378906 197.992188 C 397.722656 199.535156 397.988281 201.09375 398.175781 202.664062 C 398.367188 204.234375 398.480469 205.8125 398.511719 207.394531 C 398.546875 208.976562 398.503906 210.554688 398.382812 212.132812 C 398.261719 213.710938 398.066406 215.277344 397.789062 216.835938 C 397.515625 218.394531 397.164062 219.933594 396.738281 221.457031 C 396.3125 222.980469 395.8125 224.480469 395.238281 225.957031 C 394.667969 227.429688 394.023438 228.871094 393.308594 230.285156 C 392.59375 231.695312 391.808594 233.070312 390.960938 234.402344 C 390.109375 235.738281 389.195312 237.027344 388.21875 238.269531 C 387.242188 239.515625 386.207031 240.710938 385.113281 241.851562 C 384.019531 242.996094 382.871094 244.082031 381.667969 245.113281 C 380.46875 246.140625 379.21875 247.109375 377.925781 248.019531 C 376.628906 248.925781 375.289062 249.769531 373.914062 250.542969 C 372.535156 251.320312 371.121094 252.027344 369.671875 252.664062 C 368.222656 253.300781 366.746094 253.867188 365.242188 254.359375 C 363.738281 254.851562 362.214844 255.265625 360.671875 255.609375 C 359.125 255.953125 357.570312 256.21875 356 256.40625 C 354.425781 256.597656 352.851562 256.707031 351.269531 256.742188 C 349.6875 256.777344 348.109375 256.734375 346.53125 256.613281 C 344.953125 256.492188 343.382812 256.296875 341.828125 256.019531 C 340.269531 255.746094 338.726562 255.394531 337.203125 254.96875 C 335.679688 254.542969 334.179688 254.042969 332.707031 253.46875 C 331.230469 252.898438 329.789062 252.253906 328.378906 251.539062 C 326.964844 250.820312 325.59375 250.039062 324.257812 249.1875 C 322.925781 248.339844 321.636719 247.425781 320.390625 246.449219 C 319.144531 245.472656 317.953125 244.4375 316.808594 243.34375 C 315.667969 242.25 314.578125 241.101562 313.550781 239.898438 C 312.519531 238.699219 311.550781 237.449219 310.644531 236.15625 C 309.734375 234.859375 308.894531 233.519531 308.117188 232.140625 C 307.339844 230.765625 306.636719 229.351562 305.996094 227.902344 C 305.359375 226.453125 304.796875 224.976562 304.304688 223.472656 C 303.8125 221.972656 303.394531 220.445312 303.050781 218.902344 C 302.710938 217.355469 302.441406 215.800781 302.253906 214.230469 C 302.066406 212.65625 301.953125 211.082031 301.917969 209.5 C 301.882812 207.917969 301.925781 206.339844 302.046875 204.761719 C 302.167969 203.183594 302.367188 201.617188 302.640625 200.058594 C 302.914062 198.5 303.265625 196.957031 303.691406 195.433594 C 304.117188 193.910156 304.617188 192.410156 305.191406 190.9375 C 305.765625 189.460938 306.410156 188.019531 307.125 186.609375 C 307.839844 185.195312 308.621094 183.824219 309.472656 182.488281 C 310.324219 181.15625 311.234375 179.867188 312.210938 178.621094 C 313.191406 177.378906 314.226562 176.183594 315.320312 175.039062 C 316.414062 173.898438 317.5625 172.8125 318.761719 171.78125 C 319.960938 170.75 321.210938 169.78125 322.507812 168.875 C 323.804688 167.96875 325.140625 167.125 326.519531 166.347656 C 327.898438 165.574219 329.3125 164.867188 330.757812 164.230469 C 332.207031 163.59375 333.683594 163.027344 335.1875 162.535156 C 336.691406 162.042969 338.214844 161.625 339.761719 161.28125 C 341.304688 160.941406 342.863281 160.675781 344.433594 160.484375 C 346.003906 160.296875 347.582031 160.183594 349.164062 160.148438 C 350.742188 160.113281 352.324219 160.15625 353.902344 160.277344 C 355.480469 160.398438 357.046875 160.597656 358.605469 160.871094 C 360.164062 161.148438 361.703125 161.496094 363.226562 161.921875 C 364.75 162.347656 366.25 162.847656 367.726562 163.421875 Z M 367.726562 163.421875 " fill-opacity="1" fill-rule="nonzero"/><path fill="#2f2e41" d="M 407.933594 164.164062 C 407.210938 163.386719 406.429688 162.671875 405.59375 162.019531 C 404.753906 161.367188 403.871094 160.785156 402.9375 160.277344 C 402.003906 159.769531 401.039062 159.339844 400.035156 158.988281 C 399.035156 158.636719 398.007812 158.367188 396.964844 158.183594 C 395.917969 157.996094 394.863281 157.898438 393.804688 157.882812 C 392.742188 157.867188 391.683594 157.941406 390.632812 158.097656 C 389.585938 158.253906 388.554688 158.496094 387.542969 158.820312 C 386.53125 159.144531 385.550781 159.546875 384.605469 160.027344 C 385.578125 154.601562 386.550781 149.171875 387.523438 143.742188 C 379.445312 142.503906 371.367188 141.269531 363.289062 140.03125 C 351.101562 138.167969 338.542969 136.3125 326.554688 139.207031 C 324.421875 139.75 322.332031 140.441406 320.289062 141.269531 C 318.25 142.101562 316.273438 143.066406 314.363281 144.164062 C 312.449219 145.261719 310.625 146.484375 308.878906 147.832031 C 307.132812 149.179688 305.488281 150.636719 303.941406 152.207031 C 302.394531 153.777344 300.964844 155.445312 299.644531 157.210938 C 298.324219 158.976562 297.128906 160.824219 296.0625 162.75 C 294.992188 164.679688 294.058594 166.667969 293.261719 168.722656 C 292.460938 170.777344 291.808594 172.875 291.292969 175.019531 C 289.996094 174.140625 288.640625 173.355469 287.234375 172.660156 C 285.824219 171.96875 284.375 171.378906 282.882812 170.890625 C 281.394531 170.402344 279.875 170.019531 278.332031 169.742188 C 276.789062 169.464844 275.230469 169.292969 273.664062 169.234375 C 272.097656 169.171875 270.53125 169.222656 268.972656 169.378906 C 267.410156 169.539062 265.867188 169.804688 264.34375 170.175781 C 262.820312 170.550781 261.328125 171.027344 259.871094 171.609375 C 258.414062 172.1875 257.003906 172.867188 255.640625 173.648438 C 254.277344 174.425781 252.976562 175.292969 251.734375 176.253906 C 250.496094 177.210938 249.324219 178.253906 248.230469 179.375 C 247.132812 180.5 246.121094 181.691406 245.191406 182.957031 C 244.261719 184.21875 243.425781 185.542969 242.679688 186.925781 C 241.933594 188.304688 241.289062 189.730469 240.742188 191.203125 C 240.199219 192.671875 239.757812 194.175781 239.421875 195.707031 C 239.085938 197.238281 238.855469 198.789062 238.734375 200.351562 C 238.617188 201.917969 238.605469 203.480469 238.703125 205.046875 C 239.285156 214.3125 243.617188 222.859375 246.296875 231.746094 C 256.484375 265.515625 239.613281 305.378906 208.277344 321.578125 C 218.367188 329.234375 228.792969 337.054688 241.011719 340.386719 C 253.234375 343.71875 267.84375 341.527344 275.894531 331.746094 C 280.011719 326.742188 281.996094 320.371094 283.894531 314.171875 C 291.554688 289.117188 299.21875 264.058594 306.882812 239 L 319.273438 261.367188 C 323.226562 266.902344 321.8125 274.640625 318.960938 280.816406 C 316.113281 286.992188 311.972656 292.707031 310.695312 299.386719 C 309.417969 306.070312 312.382812 314.347656 319.023438 315.824219 C 327.992188 294.722656 337.15625 272.238281 333.675781 249.574219 C 332.320312 240.757812 329.078125 231.710938 331.625 223.160156 C 333.59375 216.550781 338.808594 211.351562 344.601562 207.609375 C 350.730469 203.65625 357.394531 201.105469 364.597656 199.953125 C 380.34375 197.449219 399.941406 200.8125 409.183594 187.820312 C 409.78125 186.941406 410.300781 186.019531 410.746094 185.054688 C 411.191406 184.089844 411.554688 183.097656 411.839844 182.074219 C 412.125 181.050781 412.324219 180.011719 412.441406 178.957031 C 412.554688 177.902344 412.585938 176.84375 412.527344 175.78125 C 412.472656 174.722656 412.332031 173.671875 412.105469 172.636719 C 411.878906 171.597656 411.570312 170.585938 411.179688 169.597656 C 410.789062 168.609375 410.320312 167.660156 409.777344 166.75 C 409.230469 165.839844 408.617188 164.976562 407.933594 164.164062 Z M 407.933594 164.164062 " fill-opacity="1" fill-rule="nonzero"/><path fill="#9dde89" d="M 418.132812 422.460938 C 418.132812 423.800781 418.066406 425.136719 417.933594 426.46875 C 417.804688 427.804688 417.609375 429.128906 417.347656 430.441406 C 417.085938 431.757812 416.757812 433.054688 416.371094 434.335938 C 415.980469 435.617188 415.53125 436.878906 415.019531 438.117188 C 414.503906 439.355469 413.933594 440.5625 413.300781 441.746094 C 412.667969 442.925781 411.980469 444.074219 411.238281 445.191406 C 410.492188 446.304688 409.695312 447.378906 408.84375 448.414062 C 407.996094 449.449219 407.097656 450.441406 406.148438 451.390625 C 405.203125 452.335938 404.210938 453.234375 403.175781 454.085938 C 402.140625 454.933594 401.0625 455.734375 399.949219 456.476562 C 398.835938 457.222656 397.6875 457.910156 396.507812 458.542969 C 395.324219 459.171875 394.113281 459.746094 392.875 460.257812 C 391.636719 460.769531 390.378906 461.222656 389.097656 461.609375 C 387.8125 462 386.515625 462.324219 385.203125 462.585938 C 383.886719 462.847656 382.5625 463.042969 381.230469 463.175781 C 379.898438 463.304688 378.558594 463.371094 377.21875 463.371094 C 375.878906 463.371094 374.542969 463.304688 373.210938 463.175781 C 371.875 463.042969 370.554688 462.847656 369.238281 462.585938 C 367.925781 462.324219 366.625 462 365.34375 461.609375 C 364.0625 461.222656 362.800781 460.769531 361.5625 460.257812 C 360.324219 459.746094 359.117188 459.171875 357.933594 458.542969 C 356.753906 457.910156 355.605469 457.222656 354.492188 456.476562 C 353.375 455.734375 352.300781 454.933594 351.265625 454.085938 C 350.230469 453.234375 349.238281 452.335938 348.289062 451.390625 C 347.34375 450.441406 346.445312 449.449219 345.59375 448.414062 C 344.746094 447.378906 343.949219 446.304688 343.203125 445.191406 C 342.457031 444.074219 341.769531 442.925781 341.140625 441.746094 C 340.507812 440.5625 339.933594 439.355469 339.421875 438.117188 C 338.910156 436.878906 338.457031 435.617188 338.070312 434.335938 C 337.679688 433.054688 337.355469 431.757812 337.09375 430.441406 C 336.832031 429.128906 336.636719 427.804688 336.503906 426.46875 C 336.375 425.136719 336.308594 423.800781 336.308594 422.460938 C 336.308594 421.121094 336.375 419.785156 336.503906 418.449219 C 336.636719 417.117188 336.832031 415.792969 337.09375 414.480469 C 337.355469 413.164062 337.679688 411.867188 338.070312 410.585938 C 338.457031 409.300781 338.910156 408.042969 339.421875 406.804688 C 339.933594 405.566406 340.507812 404.355469 341.140625 403.175781 C 341.769531 401.992188 342.457031 400.84375 343.203125 399.730469 C 343.949219 398.617188 344.746094 397.542969 345.59375 396.507812 C 346.445312 395.46875 347.34375 394.480469 348.289062 393.53125 C 349.238281 392.585938 350.230469 391.683594 351.265625 390.835938 C 352.300781 389.984375 353.375 389.1875 354.492188 388.445312 C 355.605469 387.699219 356.753906 387.011719 357.933594 386.378906 C 359.117188 385.75 360.324219 385.175781 361.5625 384.664062 C 362.800781 384.148438 364.0625 383.699219 365.34375 383.3125 C 366.625 382.921875 367.925781 382.597656 369.238281 382.335938 C 370.554688 382.074219 371.875 381.878906 373.210938 381.746094 C 374.542969 381.613281 375.878906 381.550781 377.21875 381.550781 C 378.558594 381.550781 379.898438 381.613281 381.230469 381.746094 C 382.5625 381.878906 383.886719 382.074219 385.203125 382.335938 C 386.515625 382.597656 387.8125 382.921875 389.097656 383.3125 C 390.378906 383.699219 391.636719 384.148438 392.875 384.664062 C 394.113281 385.175781 395.324219 385.75 396.507812 386.378906 C 397.6875 387.011719 398.835938 387.699219 399.949219 388.445312 C 401.0625 389.1875 402.140625 389.984375 403.175781 390.835938 C 404.210938 391.683594 405.203125 392.585938 406.148438 393.53125 C 407.097656 394.480469 407.996094 395.46875 408.84375 396.507812 C 409.695312 397.542969 410.492188 398.617188 411.238281 399.730469 C 411.980469 400.84375 412.667969 401.992188 413.300781 403.175781 C 413.933594 404.355469 414.503906 405.566406 415.019531 406.804688 C 415.53125 408.042969 415.980469 409.300781 416.371094 410.585938 C 416.757812 411.867188 417.085938 413.164062 417.347656 414.480469 C 417.609375 415.792969 417.804688 417.117188 417.933594 418.449219 C 418.066406 419.785156 418.132812 421.121094 418.132812 422.460938 Z M 418.132812 422.460938 " fill-opacity="1" fill-rule="nonzero"/><path fill="#ffffff" d="M 386.769531 401.871094 C 386.988281 402.765625 387.3125 403.617188 387.738281 404.429688 C 387.917969 404.886719 388.15625 405.3125 388.453125 405.703125 C 388.75 406.09375 389.097656 406.4375 389.488281 406.734375 C 389.878906 407.027344 390.304688 407.265625 390.761719 407.445312 C 391.222656 407.621094 391.695312 407.734375 392.183594 407.78125 C 392.347656 407.773438 392.511719 407.75 392.667969 407.710938 C 394.417969 407.28125 395.484375 405.164062 395.503906 402.515625 C 395.503906 401.597656 395.394531 400.691406 395.171875 399.800781 C 394.957031 398.917969 394.636719 398.074219 394.214844 397.269531 C 392.972656 394.921875 391.03125 393.527344 389.277344 393.960938 C 386.953125 394.53125 385.835938 398.078125 386.769531 401.871094 Z M 386.769531 401.871094 " fill-opacity="1" fill-rule="nonzero"/><path fill="#3f3d56" d="M 389.925781 404.417969 C 390.265625 405.816406 391.019531 406.9375 392.183594 407.78125 C 392.347656 407.773438 392.511719 407.75 392.667969 407.710938 C 394.417969 407.28125 395.484375 405.164062 395.503906 402.515625 C 395.503906 401.597656 395.394531 400.691406 395.171875 399.800781 C 394.957031 398.917969 394.636719 398.074219 394.214844 397.269531 C 393.839844 397.363281 393.476562 397.492188 393.128906 397.660156 C 392.777344 397.824219 392.449219 398.023438 392.136719 398.253906 C 391.828125 398.484375 391.542969 398.742188 391.28125 399.03125 C 391.023438 399.316406 390.792969 399.625 390.59375 399.957031 C 390.394531 400.289062 390.230469 400.636719 390.097656 401 C 389.96875 401.367188 389.875 401.738281 389.816406 402.121094 C 389.757812 402.503906 389.738281 402.886719 389.757812 403.273438 C 389.777344 403.660156 389.832031 404.042969 389.925781 404.417969 Z M 389.925781 404.417969 " fill-opacity="1" fill-rule="nonzero"/><path fill="#ffffff" d="M 369.371094 406.164062 C 370.269531 409.808594 372.738281 412.363281 374.988281 412.054688 C 375.082031 412.042969 375.175781 412.027344 375.269531 412.003906 C 377.585938 411.433594 378.707031 407.886719 377.769531 404.09375 C 377.554688 403.210938 377.238281 402.367188 376.8125 401.566406 C 375.570312 399.214844 373.628906 397.820312 371.875 398.25 C 369.554688 398.824219 368.433594 402.367188 369.371094 406.164062 Z M 369.371094 406.164062 " fill-opacity="1" fill-rule="nonzero"/><path fill="#3f3d56" d="M 372.695312 408.667969 C 373.039062 410.082031 373.804688 411.210938 374.988281 412.054688 C 375.082031 412.042969 375.175781 412.027344 375.269531 412.003906 C 377.585938 411.433594 378.707031 407.886719 377.769531 404.09375 C 377.554688 403.210938 377.238281 402.367188 376.8125 401.566406 C 376.449219 401.667969 376.097656 401.804688 375.757812 401.976562 C 375.421875 402.148438 375.101562 402.351562 374.800781 402.585938 C 374.503906 402.816406 374.230469 403.078125 373.980469 403.363281 C 373.730469 403.648438 373.511719 403.957031 373.320312 404.285156 C 373.128906 404.613281 372.972656 404.957031 372.847656 405.3125 C 372.722656 405.671875 372.636719 406.039062 372.582031 406.414062 C 372.527344 406.789062 372.511719 407.167969 372.53125 407.546875 C 372.550781 407.925781 372.605469 408.300781 372.695312 408.667969 Z M 372.695312 408.667969 " fill-opacity="1" fill-rule="nonzero"/><path fill="#ffffff" d="M 403.835938 418.15625 C 406.324219 428.25 402.382812 437.898438 395.03125 439.714844 C 387.675781 441.527344 379.699219 434.816406 377.207031 424.722656 C 386.28125 427 395.164062 424.949219 403.835938 418.15625 Z M 403.835938 418.15625 " fill-opacity="1" fill-rule="nonzero"/><path fill="#000000" d="M 337.5 432.335938 C 337 430.308594 336.660156 428.253906 336.472656 426.175781 C 336.289062 424.09375 336.261719 422.015625 336.394531 419.929688 C 336.527344 417.847656 336.816406 415.785156 337.265625 413.746094 C 337.714844 411.707031 338.316406 409.714844 339.070312 407.765625 C 339.820312 405.820312 340.71875 403.941406 341.761719 402.132812 C 342.800781 400.320312 343.972656 398.601562 345.277344 396.972656 C 346.582031 395.339844 348.003906 393.820312 349.539062 392.40625 C 351.078125 390.992188 352.710938 389.707031 354.445312 388.542969 C 353.640625 389.46875 352.878906 390.425781 352.160156 391.421875 C 351.441406 392.414062 350.765625 393.441406 350.140625 394.496094 C 349.511719 395.550781 348.933594 396.628906 348.402344 397.734375 C 347.875 398.84375 347.394531 399.972656 346.964844 401.121094 C 346.539062 402.269531 346.160156 403.4375 345.839844 404.621094 C 345.515625 405.804688 345.246094 407 345.03125 408.207031 C 344.8125 409.414062 344.652344 410.628906 344.546875 411.851562 C 344.4375 413.074219 344.386719 414.300781 344.390625 415.527344 C 344.394531 416.753906 344.453125 417.976562 344.566406 419.199219 C 344.679688 420.421875 344.847656 421.636719 345.070312 422.839844 C 345.292969 424.046875 345.570312 425.242188 345.902344 426.421875 C 346.230469 427.605469 346.613281 428.769531 347.050781 429.917969 C 347.484375 431.0625 347.96875 432.1875 348.507812 433.292969 C 349.042969 434.394531 349.628906 435.472656 350.261719 436.523438 C 350.894531 437.574219 351.574219 438.59375 352.296875 439.585938 C 353.023438 440.574219 353.792969 441.53125 354.601562 442.449219 C 355.414062 443.371094 356.265625 444.253906 357.15625 445.097656 C 358.042969 445.941406 358.972656 446.746094 359.933594 447.507812 C 360.894531 448.265625 361.890625 448.984375 362.917969 449.652344 C 363.945312 450.324219 365 450.949219 366.082031 451.527344 C 367.167969 452.101562 368.273438 452.628906 369.402344 453.105469 C 370.535156 453.582031 371.683594 454.007812 372.851562 454.382812 C 374.019531 454.753906 375.203125 455.074219 376.402344 455.34375 C 377.597656 455.609375 378.804688 455.820312 380.023438 455.980469 C 381.238281 456.140625 382.460938 456.242188 383.6875 456.292969 C 384.914062 456.339844 386.136719 456.332031 387.363281 456.269531 C 388.589844 456.210938 389.808594 456.09375 391.023438 455.921875 C 392.238281 455.75 393.445312 455.523438 394.640625 455.246094 C 395.832031 454.964844 397.011719 454.632812 398.175781 454.246094 C 399.34375 453.859375 400.488281 453.421875 401.613281 452.933594 C 402.738281 452.445312 403.839844 451.90625 404.914062 451.316406 C 405.992188 450.730469 407.042969 450.09375 408.0625 449.414062 C 406.835938 450.816406 405.523438 452.132812 404.121094 453.359375 C 402.714844 454.585938 401.234375 455.710938 399.679688 456.734375 C 398.121094 457.757812 396.5 458.667969 394.820312 459.472656 C 393.136719 460.273438 391.40625 460.957031 389.632812 461.523438 C 387.855469 462.089844 386.050781 462.53125 384.214844 462.847656 C 382.378906 463.167969 380.527344 463.359375 378.667969 463.425781 C 376.804688 463.492188 374.945312 463.433594 373.09375 463.242188 C 371.238281 463.054688 369.40625 462.742188 367.59375 462.304688 C 365.78125 461.867188 364.011719 461.304688 362.273438 460.625 C 360.539062 459.945312 358.859375 459.148438 357.234375 458.238281 C 355.609375 457.328125 354.050781 456.3125 352.5625 455.1875 C 351.078125 454.066406 349.671875 452.847656 348.351562 451.53125 C 347.03125 450.214844 345.808594 448.816406 344.679688 447.335938 C 343.550781 445.851562 342.527344 444.300781 341.609375 442.679688 C 340.691406 441.054688 339.890625 439.378906 339.203125 437.648438 C 338.515625 435.914062 337.949219 434.144531 337.5 432.335938 Z M 337.5 432.335938 " fill-opacity="0.2" fill-rule="nonzero"/><path fill="#f2f2f2" d="M 562.261719 180.984375 C 562.261719 181.773438 562.222656 182.558594 562.144531 183.34375 C 562.070312 184.128906 561.953125 184.910156 561.800781 185.683594 C 561.644531 186.457031 561.453125 187.21875 561.226562 187.976562 C 560.996094 188.730469 560.730469 189.472656 560.429688 190.199219 C 560.125 190.929688 559.789062 191.640625 559.417969 192.335938 C 559.046875 193.03125 558.640625 193.707031 558.203125 194.363281 C 557.765625 195.019531 557.296875 195.652344 556.796875 196.261719 C 556.292969 196.871094 555.765625 197.457031 555.207031 198.011719 C 554.648438 198.570312 554.066406 199.101562 553.457031 199.601562 C 552.847656 200.101562 552.214844 200.570312 551.558594 201.007812 C 550.902344 201.445312 550.226562 201.851562 549.53125 202.222656 C 548.835938 202.59375 548.125 202.933594 547.394531 203.234375 C 546.667969 203.535156 545.925781 203.800781 545.167969 204.03125 C 544.414062 204.257812 543.652344 204.449219 542.878906 204.605469 C 542.105469 204.757812 541.324219 204.875 540.539062 204.953125 C 539.753906 205.027344 538.96875 205.066406 538.179688 205.066406 C 537.390625 205.066406 536.601562 205.027344 535.816406 204.953125 C 535.035156 204.875 534.253906 204.757812 533.480469 204.605469 C 532.707031 204.449219 531.941406 204.257812 531.1875 204.03125 C 530.433594 203.800781 529.691406 203.535156 528.960938 203.234375 C 528.234375 202.933594 527.523438 202.59375 526.824219 202.222656 C 526.128906 201.851562 525.453125 201.445312 524.800781 201.007812 C 524.144531 200.570312 523.511719 200.101562 522.902344 199.601562 C 522.289062 199.101562 521.707031 198.570312 521.148438 198.011719 C 520.589844 197.457031 520.0625 196.871094 519.5625 196.261719 C 519.0625 195.652344 518.59375 195.019531 518.152344 194.363281 C 517.714844 193.707031 517.3125 193.03125 516.9375 192.335938 C 516.566406 191.640625 516.230469 190.929688 515.929688 190.199219 C 515.625 189.472656 515.363281 188.730469 515.132812 187.976562 C 514.902344 187.21875 514.710938 186.457031 514.558594 185.683594 C 514.40625 184.910156 514.289062 184.128906 514.210938 183.34375 C 514.132812 182.558594 514.09375 181.773438 514.09375 180.984375 C 514.09375 180.195312 514.132812 179.410156 514.210938 178.625 C 514.289062 177.839844 514.40625 177.058594 514.558594 176.285156 C 514.710938 175.511719 514.902344 174.75 515.132812 173.992188 C 515.363281 173.238281 515.625 172.496094 515.929688 171.769531 C 516.230469 171.039062 516.566406 170.328125 516.9375 169.632812 C 517.3125 168.9375 517.714844 168.261719 518.152344 167.605469 C 518.59375 166.949219 519.0625 166.316406 519.5625 165.707031 C 520.0625 165.097656 520.589844 164.511719 521.148438 163.957031 C 521.707031 163.398438 522.289062 162.867188 522.902344 162.367188 C 523.511719 161.867188 524.144531 161.398438 524.796875 160.960938 C 525.453125 160.523438 526.128906 160.117188 526.824219 159.746094 C 527.523438 159.375 528.234375 159.035156 528.960938 158.734375 C 529.691406 158.433594 530.433594 158.167969 531.1875 157.9375 C 531.941406 157.710938 532.707031 157.519531 533.480469 157.363281 C 534.253906 157.210938 535.035156 157.09375 535.816406 157.019531 C 536.601562 156.941406 537.390625 156.902344 538.179688 156.902344 C 538.96875 156.902344 539.753906 156.941406 540.539062 157.019531 C 541.324219 157.09375 542.105469 157.210938 542.878906 157.363281 C 543.652344 157.519531 544.414062 157.710938 545.167969 157.9375 C 545.925781 158.167969 546.667969 158.433594 547.394531 158.734375 C 548.125 159.035156 548.835938 159.375 549.53125 159.746094 C 550.226562 160.117188 550.902344 160.523438 551.558594 160.960938 C 552.214844 161.398438 552.847656 161.867188 553.457031 162.367188 C 554.066406 162.867188 554.648438 163.398438 555.207031 163.957031 C 555.765625 164.511719 556.292969 165.097656 556.796875 165.707031 C 557.296875 166.316406 557.765625 166.949219 558.203125 167.605469 C 558.640625 168.261719 559.046875 168.9375 559.417969 169.632812 C 559.789062 170.328125 560.125 171.039062 560.429688 171.769531 C 560.730469 172.496094 560.996094 173.238281 561.226562 173.992188 C 561.453125 174.75 561.644531 175.511719 561.800781 176.285156 C 561.953125 177.058594 562.070312 177.839844 562.144531 178.625 C 562.222656 179.410156 562.261719 180.195312 562.261719 180.984375 Z M 562.261719 180.984375 " fill-opacity="1" fill-rule="nonzero"/><path fill="#ffffff" d="M 541.230469 170.945312 C 541.203125 171.484375 541.246094 172.019531 541.351562 172.550781 C 541.402344 173.136719 541.605469 173.667969 541.957031 174.140625 C 542.308594 174.613281 542.757812 174.960938 543.304688 175.179688 C 543.398438 175.203125 543.496094 175.21875 543.589844 175.222656 C 544.652344 175.269531 545.605469 174.25 546.054688 172.757812 C 546.207031 172.238281 546.296875 171.710938 546.316406 171.171875 C 546.34375 170.636719 546.304688 170.105469 546.199219 169.582031 C 545.886719 168.050781 545.023438 166.941406 543.960938 166.894531 C 542.550781 166.832031 541.332031 168.644531 541.230469 170.945312 Z M 541.230469 170.945312 " fill-opacity="1" fill-rule="nonzero"/><path fill="#f2f2f2" d="M 542.585938 172.90625 C 542.546875 173.753906 542.789062 174.511719 543.304688 175.179688 C 543.398438 175.203125 543.496094 175.21875 543.589844 175.222656 C 544.652344 175.269531 545.605469 174.25 546.054688 172.757812 C 546.207031 172.238281 546.296875 171.710938 546.316406 171.171875 C 546.34375 170.636719 546.304688 170.105469 546.199219 169.582031 C 545.738281 169.5625 545.292969 169.632812 544.863281 169.792969 C 544.429688 169.953125 544.046875 170.1875 543.707031 170.5 C 543.367188 170.808594 543.101562 171.175781 542.910156 171.589844 C 542.714844 172.007812 542.609375 172.445312 542.585938 172.90625 Z M 542.585938 172.90625 " fill-opacity="1" fill-rule="nonzero"/><path fill="#ffffff" d="M 530.691406 170.476562 C 530.589844 172.683594 531.5625 174.539062 532.882812 174.738281 C 532.9375 174.746094 532.996094 174.753906 533.050781 174.753906 C 534.457031 174.816406 535.675781 173.003906 535.777344 170.703125 C 535.804688 170.167969 535.765625 169.640625 535.65625 169.117188 C 535.347656 167.582031 534.480469 166.472656 533.417969 166.425781 C 532.011719 166.363281 530.792969 168.179688 530.691406 170.476562 Z M 530.691406 170.476562 " fill-opacity="1" fill-rule="nonzero"/><path fill="#f2f2f2" d="M 532.152344 172.445312 C 532.113281 173.300781 532.355469 174.0625 532.882812 174.738281 C 532.9375 174.746094 532.996094 174.753906 533.050781 174.753906 C 534.457031 174.816406 535.675781 173.003906 535.777344 170.703125 C 535.804688 170.167969 535.765625 169.640625 535.65625 169.117188 C 535.207031 169.113281 534.773438 169.195312 534.351562 169.359375 C 533.933594 169.523438 533.558594 169.761719 533.234375 170.070312 C 532.90625 170.382812 532.648438 170.742188 532.460938 171.152344 C 532.273438 171.5625 532.171875 171.992188 532.152344 172.445312 Z M 532.152344 172.445312 " fill-opacity="1" fill-rule="nonzero"/><path fill="#ffffff" d="M 548.164062 182.976562 C 547.890625 189.089844 544.0625 193.882812 539.609375 193.6875 C 535.152344 193.488281 531.761719 188.375 532.035156 182.261719 C 533.25 182.960938 534.535156 183.511719 535.882812 183.902344 C 537.230469 184.296875 538.609375 184.523438 540.011719 184.585938 C 541.414062 184.648438 542.804688 184.542969 544.183594 184.269531 C 545.5625 184 546.886719 183.566406 548.164062 182.976562 Z M 548.164062 182.976562 " fill-opacity="1" fill-rule="nonzero"/><path fill="#f2f2f2" d="M 689.4375 430.105469 C 689.4375 430.894531 689.398438 431.679688 689.320312 432.464844 C 689.242188 433.25 689.128906 434.03125 688.972656 434.804688 C 688.820312 435.578125 688.628906 436.339844 688.398438 437.09375 C 688.171875 437.851562 687.90625 438.59375 687.605469 439.320312 C 687.300781 440.050781 686.964844 440.761719 686.59375 441.457031 C 686.222656 442.152344 685.816406 442.828125 685.378906 443.484375 C 684.941406 444.140625 684.472656 444.773438 683.96875 445.382812 C 683.46875 445.992188 682.941406 446.574219 682.382812 447.132812 C 681.824219 447.691406 681.242188 448.21875 680.632812 448.722656 C 680.023438 449.222656 679.390625 449.691406 678.734375 450.128906 C 678.078125 450.566406 677.402344 450.972656 676.707031 451.34375 C 676.011719 451.714844 675.300781 452.050781 674.570312 452.355469 C 673.839844 452.65625 673.101562 452.921875 672.34375 453.152344 C 671.589844 453.378906 670.824219 453.570312 670.050781 453.726562 C 669.277344 453.878906 668.5 453.996094 667.714844 454.070312 C 666.929688 454.148438 666.144531 454.1875 665.355469 454.1875 C 664.566406 454.1875 663.777344 454.148438 662.992188 454.070312 C 662.207031 453.996094 661.429688 453.878906 660.65625 453.726562 C 659.882812 453.570312 659.117188 453.378906 658.363281 453.152344 C 657.609375 452.921875 656.867188 452.65625 656.136719 452.355469 C 655.410156 452.050781 654.695312 451.714844 654 451.34375 C 653.304688 450.972656 652.628906 450.566406 651.972656 450.128906 C 651.316406 449.691406 650.683594 449.222656 650.074219 448.722656 C 649.464844 448.21875 648.882812 447.691406 648.324219 447.132812 C 647.765625 446.574219 647.238281 445.992188 646.738281 445.382812 C 646.238281 444.773438 645.769531 444.140625 645.328125 443.484375 C 644.890625 442.828125 644.484375 442.152344 644.113281 441.457031 C 643.742188 440.761719 643.40625 440.050781 643.105469 439.320312 C 642.800781 438.59375 642.535156 437.851562 642.308594 437.09375 C 642.078125 436.339844 641.886719 435.578125 641.734375 434.804688 C 641.578125 434.03125 641.464844 433.25 641.386719 432.464844 C 641.308594 431.679688 641.269531 430.894531 641.269531 430.105469 C 641.269531 429.316406 641.308594 428.527344 641.386719 427.746094 C 641.464844 426.960938 641.578125 426.179688 641.734375 425.40625 C 641.886719 424.632812 642.078125 423.867188 642.308594 423.113281 C 642.535156 422.359375 642.800781 421.617188 643.105469 420.886719 C 643.40625 420.160156 643.742188 419.449219 644.113281 418.753906 C 644.484375 418.054688 644.890625 417.378906 645.328125 416.726562 C 645.769531 416.070312 646.238281 415.4375 646.738281 414.828125 C 647.238281 414.21875 647.765625 413.632812 648.324219 413.074219 C 648.882812 412.519531 649.464844 411.988281 650.074219 411.488281 C 650.683594 410.988281 651.316406 410.519531 651.972656 410.082031 C 652.628906 409.640625 653.304688 409.238281 654 408.867188 C 654.695312 408.492188 655.410156 408.15625 656.136719 407.855469 C 656.867188 407.554688 657.609375 407.289062 658.363281 407.058594 C 659.117188 406.828125 659.882812 406.636719 660.65625 406.484375 C 661.429688 406.332031 662.207031 406.214844 662.992188 406.136719 C 663.777344 406.0625 664.566406 406.023438 665.355469 406.023438 C 666.144531 406.023438 666.929688 406.0625 667.714844 406.136719 C 668.5 406.214844 669.277344 406.332031 670.050781 406.484375 C 670.824219 406.636719 671.589844 406.828125 672.34375 407.058594 C 673.101562 407.289062 673.839844 407.554688 674.570312 407.855469 C 675.300781 408.15625 676.011719 408.492188 676.707031 408.867188 C 677.402344 409.238281 678.078125 409.640625 678.734375 410.082031 C 679.390625 410.519531 680.023438 410.988281 680.632812 411.488281 C 681.242188 411.988281 681.824219 412.519531 682.382812 413.074219 C 682.941406 413.632812 683.46875 414.21875 683.96875 414.828125 C 684.472656 415.4375 684.941406 416.070312 685.378906 416.726562 C 685.816406 417.378906 686.222656 418.054688 686.59375 418.753906 C 686.964844 419.449219 687.300781 420.160156 687.605469 420.886719 C 687.90625 421.617188 688.171875 422.359375 688.398438 423.113281 C 688.628906 423.867188 688.820312 424.632812 688.972656 425.40625 C 689.128906 426.179688 689.242188 426.960938 689.320312 427.746094 C 689.398438 428.527344 689.4375 429.316406 689.4375 430.105469 Z M 689.4375 430.105469 " fill-opacity="1" fill-rule="nonzero"/><path fill="#ffffff" d="M 668.40625 420.066406 C 668.378906 420.605469 668.421875 421.140625 668.527344 421.671875 C 668.578125 422.257812 668.78125 422.789062 669.132812 423.261719 C 669.484375 423.734375 669.933594 424.082031 670.480469 424.300781 C 670.574219 424.324219 670.667969 424.339844 670.765625 424.34375 C 671.824219 424.390625 672.78125 423.371094 673.230469 421.878906 C 673.382812 421.359375 673.46875 420.832031 673.492188 420.289062 C 673.519531 419.753906 673.480469 419.226562 673.375 418.699219 C 673.0625 417.167969 672.199219 416.058594 671.136719 416.011719 C 669.726562 415.949219 668.507812 417.765625 668.40625 420.066406 Z M 668.40625 420.066406 " fill-opacity="1" fill-rule="nonzero"/><path fill="#f2f2f2" d="M 669.761719 422.027344 C 669.722656 422.871094 669.960938 423.628906 670.480469 424.300781 C 670.574219 424.324219 670.667969 424.339844 670.765625 424.34375 C 671.824219 424.390625 672.78125 423.371094 673.230469 421.878906 C 673.382812 421.359375 673.46875 420.832031 673.492188 420.289062 C 673.519531 419.753906 673.480469 419.226562 673.375 418.699219 C 672.914062 418.683594 672.46875 418.753906 672.035156 418.914062 C 671.605469 419.070312 671.21875 419.308594 670.882812 419.617188 C 670.542969 419.929688 670.277344 420.292969 670.082031 420.710938 C 669.890625 421.128906 669.78125 421.566406 669.761719 422.027344 Z M 669.761719 422.027344 " fill-opacity="1" fill-rule="nonzero"/><path fill="#ffffff" d="M 657.863281 419.597656 C 657.765625 421.804688 658.738281 423.65625 660.058594 423.859375 C 660.113281 423.867188 660.171875 423.875 660.226562 423.875 C 661.628906 423.9375 662.851562 422.121094 662.953125 419.824219 C 662.980469 419.289062 662.9375 418.761719 662.832031 418.238281 C 662.519531 416.703125 661.65625 415.59375 660.59375 415.546875 C 659.1875 415.484375 657.964844 417.300781 657.863281 419.597656 Z M 657.863281 419.597656 " fill-opacity="1" fill-rule="nonzero"/><path fill="#f2f2f2" d="M 659.328125 421.5625 C 659.289062 422.417969 659.53125 423.183594 660.058594 423.859375 C 660.113281 423.867188 660.171875 423.875 660.226562 423.875 C 661.628906 423.9375 662.851562 422.121094 662.953125 419.824219 C 662.980469 419.289062 662.9375 418.761719 662.832031 418.238281 C 662.382812 418.234375 661.949219 418.3125 661.527344 418.480469 C 661.109375 418.644531 660.734375 418.882812 660.40625 419.191406 C 660.082031 419.503906 659.824219 419.863281 659.636719 420.273438 C 659.449219 420.683594 659.347656 421.113281 659.328125 421.5625 Z M 659.328125 421.5625 " fill-opacity="1" fill-rule="nonzero"/><path fill="#ffffff" d="M 675.335938 432.09375 C 675.066406 438.207031 671.238281 443.003906 666.78125 442.808594 C 662.328125 442.609375 658.9375 437.496094 659.210938 431.382812 C 660.425781 432.082031 661.710938 432.628906 663.058594 433.023438 C 664.40625 433.417969 665.78125 433.644531 667.1875 433.707031 C 668.589844 433.769531 669.980469 433.664062 671.359375 433.390625 C 672.738281 433.117188 674.0625 432.6875 675.335938 432.09375 Z M 675.335938 432.09375 " fill-opacity="1" fill-rule="nonzero"/><path fill="#f2f2f2" d="M 138.925781 787.234375 C 138.925781 788.023438 138.886719 788.8125 138.808594 789.597656 C 138.730469 790.378906 138.617188 791.160156 138.460938 791.933594 C 138.308594 792.707031 138.117188 793.472656 137.886719 794.226562 C 137.660156 794.980469 137.394531 795.722656 137.09375 796.453125 C 136.789062 797.179688 136.453125 797.890625 136.082031 798.585938 C 135.710938 799.28125 135.304688 799.957031 134.867188 800.613281 C 134.429688 801.269531 133.957031 801.902344 133.457031 802.511719 C 132.957031 803.121094 132.429688 803.707031 131.871094 804.265625 C 131.3125 804.820312 130.730469 805.351562 130.121094 805.851562 C 129.511719 806.351562 128.878906 806.820312 128.222656 807.257812 C 127.566406 807.699219 126.890625 808.101562 126.195312 808.472656 C 125.5 808.847656 124.785156 809.183594 124.058594 809.484375 C 123.328125 809.785156 122.585938 810.050781 121.832031 810.28125 C 121.078125 810.511719 120.3125 810.703125 119.539062 810.855469 C 118.765625 811.007812 117.988281 811.125 117.203125 811.203125 C 116.417969 811.277344 115.628906 811.316406 114.84375 811.316406 C 114.054688 811.316406 113.265625 811.277344 112.480469 811.203125 C 111.695312 811.125 110.917969 811.007812 110.144531 810.855469 C 109.371094 810.703125 108.605469 810.511719 107.851562 810.28125 C 107.097656 810.050781 106.355469 809.785156 105.625 809.484375 C 104.898438 809.183594 104.183594 808.847656 103.488281 808.472656 C 102.792969 808.101562 102.117188 807.699219 101.460938 807.257812 C 100.804688 806.820312 100.171875 806.351562 99.5625 805.851562 C 98.953125 805.351562 98.371094 804.820312 97.8125 804.265625 C 97.253906 803.707031 96.726562 803.121094 96.226562 802.511719 C 95.726562 801.902344 95.253906 801.269531 94.816406 800.613281 C 94.378906 799.957031 93.972656 799.28125 93.601562 798.585938 C 93.230469 797.890625 92.894531 797.179688 92.59375 796.449219 C 92.289062 795.722656 92.023438 794.980469 91.796875 794.226562 C 91.566406 793.472656 91.375 792.707031 91.222656 791.933594 C 91.066406 791.160156 90.953125 790.378906 90.875 789.59375 C 90.796875 788.8125 90.757812 788.023438 90.757812 787.234375 C 90.757812 786.445312 90.796875 785.660156 90.875 784.875 C 90.953125 784.089844 91.066406 783.308594 91.222656 782.535156 C 91.375 781.761719 91.566406 781 91.796875 780.246094 C 92.023438 779.488281 92.289062 778.746094 92.59375 778.019531 C 92.894531 777.289062 93.230469 776.578125 93.601562 775.882812 C 93.972656 775.1875 94.378906 774.511719 94.816406 773.855469 C 95.253906 773.199219 95.726562 772.566406 96.226562 771.957031 C 96.726562 771.347656 97.253906 770.765625 97.8125 770.207031 C 98.371094 769.648438 98.953125 769.121094 99.5625 768.617188 C 100.171875 768.117188 100.804688 767.648438 101.460938 767.210938 C 102.117188 766.773438 102.792969 766.367188 103.488281 765.996094 C 104.183594 765.625 104.898438 765.289062 105.625 764.984375 C 106.355469 764.683594 107.097656 764.417969 107.851562 764.1875 C 108.605469 763.960938 109.371094 763.769531 110.144531 763.613281 C 110.917969 763.460938 111.695312 763.34375 112.480469 763.269531 C 113.265625 763.191406 114.054688 763.152344 114.84375 763.152344 C 115.628906 763.152344 116.417969 763.191406 117.203125 763.269531 C 117.988281 763.34375 118.765625 763.460938 119.539062 763.613281 C 120.3125 763.769531 121.078125 763.960938 121.832031 764.1875 C 122.585938 764.417969 123.328125 764.683594 124.058594 764.984375 C 124.785156 765.289062 125.5 765.625 126.195312 765.996094 C 126.890625 766.367188 127.566406 766.773438 128.222656 767.210938 C 128.878906 767.648438 129.511719 768.117188 130.121094 768.617188 C 130.730469 769.121094 131.3125 769.648438 131.871094 770.207031 C 132.429688 770.765625 132.957031 771.347656 133.457031 771.957031 C 133.957031 772.566406 134.429688 773.199219 134.867188 773.855469 C 135.304688 774.511719 135.710938 775.1875 136.082031 775.882812 C 136.453125 776.578125 136.789062 777.289062 137.09375 778.019531 C 137.394531 778.746094 137.660156 779.488281 137.886719 780.246094 C 138.117188 781 138.308594 781.761719 138.460938 782.535156 C 138.617188 783.308594 138.730469 784.089844 138.808594 784.875 C 138.886719 785.660156 138.925781 786.445312 138.925781 787.234375 Z M 138.925781 787.234375 " fill-opacity="1" fill-rule="nonzero"/><path fill="#ffffff" d="M 117.894531 777.195312 C 117.867188 777.734375 117.910156 778.269531 118.015625 778.800781 C 118.066406 779.386719 118.269531 779.917969 118.621094 780.390625 C 118.972656 780.863281 119.421875 781.210938 119.96875 781.429688 C 120.0625 781.453125 120.15625 781.46875 120.253906 781.472656 C 121.3125 781.519531 122.269531 780.5 122.71875 779.007812 C 122.871094 778.492188 122.957031 777.960938 122.980469 777.421875 C 123.007812 776.886719 122.96875 776.355469 122.863281 775.832031 C 122.550781 774.300781 121.6875 773.191406 120.625 773.144531 C 119.214844 773.082031 117.996094 774.894531 117.894531 777.195312 Z M 117.894531 777.195312 " fill-opacity="1" fill-rule="nonzero"/><path fill="#f2f2f2" d="M 119.25 779.15625 C 119.210938 780.003906 119.449219 780.761719 119.96875 781.429688 C 120.0625 781.453125 120.15625 781.46875 120.253906 781.472656 C 121.3125 781.519531 122.269531 780.5 122.71875 779.007812 C 122.871094 778.492188 122.957031 777.960938 122.980469 777.421875 C 123.007812 776.886719 122.96875 776.355469 122.863281 775.832031 C 122.402344 775.8125 121.957031 775.882812 121.523438 776.042969 C 121.09375 776.203125 120.707031 776.4375 120.371094 776.75 C 120.03125 777.058594 119.765625 777.425781 119.570312 777.839844 C 119.378906 778.257812 119.269531 778.695312 119.25 779.15625 Z M 119.25 779.15625 " fill-opacity="1" fill-rule="nonzero"/><path fill="#ffffff" d="M 107.351562 776.730469 C 107.253906 778.9375 108.226562 780.789062 109.546875 780.988281 C 109.601562 781 109.65625 781.003906 109.714844 781.007812 C 111.117188 781.070312 112.339844 779.253906 112.441406 776.953125 C 112.46875 776.421875 112.425781 775.890625 112.320312 775.367188 C 112.007812 773.832031 111.144531 772.722656 110.082031 772.675781 C 108.675781 772.613281 107.453125 774.429688 107.351562 776.730469 Z M 107.351562 776.730469 " fill-opacity="1" fill-rule="nonzero"/><path fill="#f2f2f2" d="M 108.816406 778.695312 C 108.777344 779.550781 109.019531 780.316406 109.546875 780.988281 C 109.601562 781 109.65625 781.003906 109.714844 781.007812 C 111.117188 781.070312 112.339844 779.253906 112.441406 776.953125 C 112.46875 776.421875 112.425781 775.890625 112.320312 775.367188 C 111.871094 775.363281 111.433594 775.445312 111.015625 775.609375 C 110.597656 775.773438 110.222656 776.011719 109.894531 776.324219 C 109.570312 776.632812 109.3125 776.992188 109.125 777.402344 C 108.9375 777.8125 108.835938 778.242188 108.816406 778.695312 Z M 108.816406 778.695312 " fill-opacity="1" fill-rule="nonzero"/><path fill="#ffffff" d="M 124.824219 789.226562 C 124.554688 795.339844 120.726562 800.132812 116.269531 799.9375 C 111.816406 799.738281 108.425781 794.625 108.699219 788.511719 C 109.914062 789.214844 111.195312 789.761719 112.546875 790.152344 C 113.894531 790.546875 115.269531 790.773438 116.675781 790.835938 C 118.078125 790.898438 119.46875 790.792969 120.847656 790.523438 C 122.226562 790.25 123.550781 789.816406 124.824219 789.226562 Z M 124.824219 789.226562 " fill-opacity="1" fill-rule="nonzero"/><path fill="#f2f2f2" d="M 144.152344 405.714844 C 144.152344 406.503906 144.113281 407.289062 144.035156 408.074219 C 143.957031 408.859375 143.84375 409.640625 143.6875 410.414062 C 143.535156 411.1875 143.34375 411.953125 143.113281 412.707031 C 142.886719 413.460938 142.621094 414.203125 142.316406 414.929688 C 142.015625 415.660156 141.679688 416.371094 141.308594 417.066406 C 140.9375 417.761719 140.53125 418.4375 140.09375 419.09375 C 139.65625 419.75 139.183594 420.382812 138.683594 420.992188 C 138.183594 421.601562 137.65625 422.1875 137.097656 422.746094 C 136.539062 423.300781 135.957031 423.832031 135.347656 424.332031 C 134.738281 424.832031 134.105469 425.300781 133.449219 425.738281 C 132.792969 426.175781 132.117188 426.582031 131.421875 426.953125 C 130.726562 427.328125 130.011719 427.664062 129.285156 427.964844 C 128.554688 428.265625 127.8125 428.53125 127.058594 428.761719 C 126.304688 428.988281 125.539062 429.179688 124.765625 429.335938 C 123.992188 429.488281 123.214844 429.605469 122.429688 429.683594 C 121.644531 429.757812 120.855469 429.796875 120.070312 429.796875 C 119.28125 429.796875 118.492188 429.757812 117.707031 429.683594 C 116.921875 429.605469 116.144531 429.488281 115.371094 429.335938 C 114.597656 429.179688 113.832031 428.988281 113.078125 428.761719 C 112.324219 428.53125 111.582031 428.265625 110.851562 427.964844 C 110.125 427.664062 109.410156 427.328125 108.714844 426.953125 C 108.019531 426.582031 107.34375 426.175781 106.6875 425.738281 C 106.03125 425.300781 105.398438 424.832031 104.789062 424.332031 C 104.179688 423.832031 103.597656 423.300781 103.039062 422.746094 C 102.480469 422.1875 101.953125 421.601562 101.453125 420.992188 C 100.953125 420.382812 100.480469 419.75 100.042969 419.09375 C 99.605469 418.4375 99.199219 417.761719 98.828125 417.066406 C 98.457031 416.371094 98.121094 415.660156 97.820312 414.929688 C 97.515625 414.203125 97.25 413.460938 97.023438 412.707031 C 96.792969 411.953125 96.601562 411.1875 96.449219 410.414062 C 96.292969 409.640625 96.179688 408.859375 96.101562 408.074219 C 96.023438 407.289062 95.984375 406.503906 95.984375 405.714844 C 95.984375 404.925781 96.023438 404.140625 96.101562 403.355469 C 96.179688 402.570312 96.292969 401.789062 96.449219 401.015625 C 96.601562 400.242188 96.792969 399.480469 97.023438 398.722656 C 97.25 397.96875 97.515625 397.226562 97.820312 396.5 C 98.121094 395.769531 98.457031 395.058594 98.828125 394.363281 C 99.199219 393.667969 99.605469 392.992188 100.042969 392.335938 C 100.480469 391.679688 100.953125 391.046875 101.453125 390.4375 C 101.953125 389.828125 102.480469 389.242188 103.039062 388.6875 C 103.597656 388.128906 104.179688 387.597656 104.789062 387.097656 C 105.398438 386.597656 106.03125 386.128906 106.6875 385.691406 C 107.34375 385.253906 108.019531 384.847656 108.714844 384.476562 C 109.410156 384.105469 110.125 383.765625 110.851562 383.464844 C 111.582031 383.164062 112.324219 382.898438 113.078125 382.667969 C 113.832031 382.441406 114.597656 382.25 115.371094 382.09375 C 116.144531 381.941406 116.921875 381.824219 117.707031 381.75 C 118.492188 381.671875 119.28125 381.632812 120.070312 381.632812 C 120.855469 381.632812 121.644531 381.671875 122.429688 381.75 C 123.214844 381.824219 123.992188 381.941406 124.765625 382.09375 C 125.539062 382.25 126.304688 382.441406 127.058594 382.667969 C 127.8125 382.898438 128.554688 383.164062 129.285156 383.464844 C 130.011719 383.765625 130.726562 384.105469 131.421875 384.476562 C 132.117188 384.847656 132.792969 385.253906 133.449219 385.691406 C 134.105469 386.128906 134.738281 386.597656 135.347656 387.097656 C 135.957031 387.597656 136.539062 388.128906 137.097656 388.6875 C 137.65625 389.242188 138.183594 389.828125 138.683594 390.4375 C 139.183594 391.046875 139.65625 391.679688 140.09375 392.335938 C 140.53125 392.992188 140.9375 393.667969 141.308594 394.363281 C 141.679688 395.058594 142.015625 395.769531 142.316406 396.5 C 142.621094 397.226562 142.886719 397.96875 143.113281 398.722656 C 143.34375 399.480469 143.535156 400.242188 143.6875 401.015625 C 143.84375 401.789062 143.957031 402.570312 144.035156 403.355469 C 144.113281 404.140625 144.152344 404.925781 144.152344 405.714844 Z M 144.152344 405.714844 " fill-opacity="1" fill-rule="nonzero"/><path fill="#ffffff" d="M 123.121094 395.675781 C 123.09375 396.214844 123.136719 396.75 123.242188 397.28125 C 123.292969 397.867188 123.496094 398.398438 123.847656 398.871094 C 124.199219 399.34375 124.648438 399.691406 125.195312 399.910156 C 125.289062 399.933594 125.382812 399.949219 125.480469 399.953125 C 126.539062 400 127.496094 398.980469 127.945312 397.488281 C 128.097656 396.96875 128.183594 396.441406 128.207031 395.902344 C 128.234375 395.367188 128.195312 394.835938 128.089844 394.3125 C 127.777344 392.78125 126.914062 391.671875 125.851562 391.625 C 124.441406 391.5625 123.222656 393.375 123.121094 395.675781 Z M 123.121094 395.675781 " fill-opacity="1" fill-rule="nonzero"/><path fill="#f2f2f2" d="M 124.476562 397.636719 C 124.4375 398.484375 124.675781 399.242188 125.195312 399.910156 C 125.289062 399.933594 125.382812 399.949219 125.480469 399.953125 C 126.539062 400 127.496094 398.980469 127.945312 397.488281 C 128.097656 396.96875 128.183594 396.441406 128.207031 395.902344 C 128.234375 395.367188 128.195312 394.835938 128.089844 394.3125 C 127.628906 394.292969 127.183594 394.363281 126.75 394.523438 C 126.320312 394.683594 125.933594 394.917969 125.597656 395.230469 C 125.257812 395.539062 124.992188 395.90625 124.796875 396.320312 C 124.605469 396.738281 124.496094 397.175781 124.476562 397.636719 Z M 124.476562 397.636719 " fill-opacity="1" fill-rule="nonzero"/><path fill="#ffffff" d="M 112.578125 395.207031 C 112.480469 397.417969 113.453125 399.269531 114.773438 399.46875 C 114.828125 399.476562 114.882812 399.484375 114.941406 399.488281 C 116.34375 399.546875 117.566406 397.734375 117.667969 395.433594 C 117.691406 394.898438 117.652344 394.371094 117.546875 393.847656 C 117.234375 392.3125 116.371094 391.203125 115.308594 391.15625 C 113.902344 391.09375 112.679688 392.910156 112.578125 395.207031 Z M 112.578125 395.207031 " fill-opacity="1" fill-rule="nonzero"/><path fill="#f2f2f2" d="M 114.042969 397.175781 C 114.003906 398.03125 114.246094 398.796875 114.773438 399.46875 C 114.828125 399.476562 114.882812 399.484375 114.941406 399.484375 C 116.34375 399.546875 117.566406 397.734375 117.667969 395.433594 C 117.691406 394.898438 117.652344 394.371094 117.546875 393.847656 C 117.097656 393.84375 116.660156 393.925781 116.242188 394.089844 C 115.824219 394.253906 115.449219 394.492188 115.121094 394.804688 C 114.796875 395.113281 114.539062 395.472656 114.351562 395.882812 C 114.164062 396.292969 114.0625 396.722656 114.042969 397.175781 Z M 114.042969 397.175781 " fill-opacity="1" fill-rule="nonzero"/><path fill="#ffffff" d="M 130.050781 407.707031 C 129.78125 413.820312 125.953125 418.613281 121.496094 418.417969 C 117.042969 418.21875 113.652344 413.105469 113.921875 406.992188 C 115.140625 407.695312 116.421875 408.242188 117.773438 408.632812 C 119.121094 409.027344 120.496094 409.253906 121.902344 409.316406 C 123.304688 409.378906 124.695312 409.273438 126.074219 409 C 127.453125 408.730469 128.777344 408.296875 130.050781 407.707031 Z M 130.050781 407.707031 " fill-opacity="1" fill-rule="nonzero"/><g clip-path="url(#36508ee0e0)"><path fill="#87aece" d="M 627.75 397.40625 L 698.625 397.40625 L 698.625 483.507812 L 627.75 483.507812 Z M 627.75 397.40625 " fill-opacity="1" fill-rule="nonzero"/></g><g clip-path="url(#1a997332b6)"><path fill="#87aece" d="M 505.59375 146.15625 L 576.46875 146.15625 L 576.46875 232.257812 L 505.59375 232.257812 Z M 505.59375 146.15625 " fill-opacity="1" fill-rule="nonzero"/></g><g clip-path="url(#4554609272)"><path fill="#87aece" d="M 81 354.375 L 151.875 354.375 L 151.875 440.476562 L 81 440.476562 Z M 81 354.375 " fill-opacity="1" fill-rule="nonzero"/></g><g clip-path="url(#637aa498d4)"><g clip-path="url(#dddba0ba2d)"><path fill="#87aece" d="M 434.558594 543.351562 L 498.269531 506.875 L 541.015625 581.535156 L 477.304688 618.011719 Z M 434.558594 543.351562 " fill-opacity="1" fill-rule="nonzero"/></g></g></svg>