<svg xmlns="http://www.w3.org/2000/svg" xmlns:xlink="http://www.w3.org/1999/xlink" width="1080" zoomAndPan="magnify" viewBox="0 0 810 809.999993" height="1080" preserveAspectRatio="xMidYMid meet" version="1.0"><path fill="#2e2e41" d="M 325.929688 113.648438 L 420.902344 61.625 L 420.902344 210.265625 L 311.066406 210.265625 Z M 325.929688 113.648438 " fill-opacity="1" fill-rule="nonzero"/><path fill="#fdb4b4" d="M 441.265625 146.789062 L 450.03125 219.761719 L 386.859375 345.542969 L 347.652344 228.472656 L 366.085938 144.363281 Z M 441.265625 146.789062 " fill-opacity="1" fill-rule="nonzero"/><path fill="#9dde89" d="M 344.226562 224.117188 L 453.296875 224.117188 L 453.296875 355.890625 L 344.226562 355.890625 Z M 344.226562 224.117188 " fill-opacity="1" fill-rule="nonzero"/><path fill="#e8e9ea" d="M 617.242188 1012.042969 L 615.574219 1012.039062 L 169.578125 1010.582031 L 169.976562 1009.003906 L 284.640625 554.742188 L 255.917969 325.492188 C 250.476562 282.050781 273.734375 240.992188 313.789062 223.320312 L 328.25 216.945312 L 355.722656 196.964844 L 390.867188 321.140625 L 447.148438 196.871094 L 471.941406 221.65625 L 527.855469 236.492188 C 562.707031 245.734375 585.28125 279.640625 580.375 315.355469 L 580.3125 315.605469 L 494.925781 559.226562 Z M 617.242188 1012.042969 " fill-opacity="1" fill-rule="nonzero"/><path fill="#fdb4b4" d="M 570.507812 768.945312 C 568.769531 798.816406 551.945312 822.132812 532.933594 821.023438 C 513.921875 819.914062 499.925781 794.800781 501.667969 764.921875 C 502.203125 752.972656 505.585938 741.328125 511.542969 730.960938 L 520.507812 604.488281 L 579.773438 609.957031 L 564.644531 734.058594 C 569.359375 745.050781 571.367188 757.015625 570.507812 768.945312 Z M 570.507812 768.945312 " fill-opacity="1" fill-rule="nonzero"/><path fill="#fdb4b4" d="M 265.949219 757.585938 C 263.574219 787.414062 246.257812 810.367188 227.273438 808.855469 C 208.292969 807.339844 194.832031 781.933594 197.210938 752.097656 C 197.996094 740.164062 201.628906 728.59375 207.804688 718.355469 L 219.460938 592.101562 L 278.59375 598.832031 L 260.828125 722.582031 C 265.304688 733.675781 267.0625 745.675781 265.949219 757.585938 Z M 265.949219 757.585938 " fill-opacity="1" fill-rule="nonzero"/><path fill="#e8e9ea" d="M 580.050781 719.222656 L 493.980469 713.730469 L 494.085938 712.441406 L 511.277344 497.226562 L 483.8125 294.851562 C 482.097656 282.246094 485.550781 269.847656 493.53125 259.941406 C 501.511719 250.03125 512.890625 244.019531 525.574219 243.003906 C 549.859375 241.089844 571.390625 258.433594 574.652344 282.546875 L 611.148438 552.394531 L 611.109375 552.597656 Z M 580.050781 719.222656 " fill-opacity="1" fill-rule="nonzero"/><path fill="#e8e9ea" d="M 280.277344 710.980469 L 194.070312 705.769531 L 194.257812 704.40625 L 253.707031 273.285156 C 259.957031 249.609375 283.503906 235.042969 307.332031 239.96875 C 319.789062 242.546875 330.335938 249.921875 337.027344 260.742188 C 343.722656 271.5625 345.613281 284.292969 342.355469 296.589844 Z M 280.277344 710.980469 " fill-opacity="1" fill-rule="nonzero"/><path fill="#d6d7d8" d="M 396.660156 351.535156 C 396.660156 352.035156 396.613281 352.53125 396.515625 353.019531 C 396.417969 353.511719 396.273438 353.988281 396.082031 354.449219 C 395.890625 354.914062 395.652344 355.351562 395.375 355.769531 C 395.097656 356.183594 394.78125 356.570312 394.429688 356.925781 C 394.074219 357.277344 393.6875 357.59375 393.273438 357.871094 C 392.855469 358.148438 392.417969 358.386719 391.953125 358.578125 C 391.492188 358.769531 391.015625 358.914062 390.523438 359.011719 C 390.03125 359.109375 389.539062 359.15625 389.035156 359.15625 C 388.535156 359.15625 388.039062 359.109375 387.550781 359.011719 C 387.058594 358.914062 386.582031 358.769531 386.117188 358.578125 C 385.65625 358.386719 385.21875 358.148438 384.800781 357.871094 C 384.382812 357.59375 384 357.277344 383.644531 356.925781 C 383.292969 356.570312 382.976562 356.183594 382.699219 355.769531 C 382.417969 355.351562 382.183594 354.914062 381.992188 354.449219 C 381.800781 353.988281 381.65625 353.511719 381.558594 353.019531 C 381.460938 352.53125 381.414062 352.035156 381.414062 351.535156 C 381.414062 351.03125 381.460938 350.535156 381.558594 350.046875 C 381.65625 349.554688 381.800781 349.078125 381.992188 348.617188 C 382.183594 348.152344 382.417969 347.714844 382.699219 347.296875 C 382.976562 346.882812 383.292969 346.496094 383.644531 346.144531 C 384 345.789062 384.382812 345.472656 384.800781 345.195312 C 385.21875 344.917969 385.65625 344.679688 386.117188 344.488281 C 386.582031 344.296875 387.058594 344.152344 387.550781 344.054688 C 388.039062 343.957031 388.535156 343.910156 389.035156 343.910156 C 389.539062 343.910156 390.03125 343.957031 390.523438 344.054688 C 391.015625 344.152344 391.492188 344.296875 391.953125 344.488281 C 392.417969 344.679688 392.855469 344.917969 393.273438 345.195312 C 393.6875 345.472656 394.074219 345.789062 394.429688 346.144531 C 394.78125 346.496094 395.097656 346.882812 395.375 347.296875 C 395.652344 347.714844 395.890625 348.152344 396.082031 348.617188 C 396.273438 349.078125 396.417969 349.554688 396.515625 350.046875 C 396.613281 350.535156 396.660156 351.03125 396.660156 351.535156 Z M 396.660156 351.535156 " fill-opacity="1" fill-rule="nonzero"/><path fill="#d6d7d8" d="M 396.660156 409.253906 C 396.660156 409.753906 396.613281 410.25 396.515625 410.742188 C 396.417969 411.230469 396.273438 411.707031 396.082031 412.171875 C 395.890625 412.632812 395.652344 413.074219 395.375 413.488281 C 395.097656 413.90625 394.78125 414.289062 394.429688 414.644531 C 394.074219 415 393.6875 415.3125 393.273438 415.59375 C 392.855469 415.871094 392.417969 416.105469 391.953125 416.296875 C 391.492188 416.488281 391.015625 416.632812 390.523438 416.730469 C 390.03125 416.828125 389.539062 416.878906 389.035156 416.878906 C 388.535156 416.878906 388.039062 416.828125 387.550781 416.730469 C 387.058594 416.632812 386.582031 416.488281 386.117188 416.296875 C 385.65625 416.105469 385.21875 415.871094 384.800781 415.59375 C 384.382812 415.3125 384 415 383.644531 414.644531 C 383.292969 414.289062 382.976562 413.90625 382.699219 413.488281 C 382.417969 413.074219 382.183594 412.632812 381.992188 412.171875 C 381.800781 411.707031 381.65625 411.230469 381.558594 410.742188 C 381.460938 410.25 381.414062 409.753906 381.414062 409.253906 C 381.414062 408.753906 381.460938 408.257812 381.558594 407.765625 C 381.65625 407.273438 381.800781 406.796875 381.992188 406.335938 C 382.183594 405.875 382.417969 405.433594 382.699219 405.019531 C 382.976562 404.601562 383.292969 404.21875 383.644531 403.863281 C 384 403.507812 384.382812 403.191406 384.800781 402.914062 C 385.21875 402.636719 385.65625 402.402344 386.117188 402.210938 C 386.582031 402.019531 387.058594 401.875 387.550781 401.777344 C 388.039062 401.679688 388.535156 401.628906 389.035156 401.628906 C 389.539062 401.628906 390.03125 401.679688 390.523438 401.777344 C 391.015625 401.875 391.492188 402.019531 391.953125 402.210938 C 392.417969 402.402344 392.855469 402.636719 393.273438 402.914062 C 393.6875 403.191406 394.074219 403.507812 394.429688 403.863281 C 394.78125 404.21875 395.097656 404.601562 395.375 405.019531 C 395.652344 405.433594 395.890625 405.875 396.082031 406.335938 C 396.273438 406.796875 396.417969 407.273438 396.515625 407.765625 C 396.613281 408.257812 396.660156 408.753906 396.660156 409.253906 Z M 396.660156 409.253906 " fill-opacity="1" fill-rule="nonzero"/><path fill="#d6d7d8" d="M 396.660156 466.972656 C 396.660156 467.472656 396.613281 467.96875 396.515625 468.457031 C 396.417969 468.949219 396.273438 469.425781 396.082031 469.890625 C 395.890625 470.351562 395.652344 470.789062 395.375 471.207031 C 395.097656 471.621094 394.78125 472.007812 394.429688 472.363281 C 394.074219 472.714844 393.6875 473.03125 393.273438 473.308594 C 392.855469 473.589844 392.417969 473.824219 391.953125 474.015625 C 391.492188 474.207031 391.015625 474.351562 390.523438 474.449219 C 390.03125 474.546875 389.539062 474.59375 389.035156 474.59375 C 388.535156 474.59375 388.039062 474.546875 387.550781 474.449219 C 387.058594 474.351562 386.582031 474.207031 386.117188 474.015625 C 385.65625 473.824219 385.21875 473.589844 384.800781 473.308594 C 384.382812 473.03125 384 472.714844 383.644531 472.363281 C 383.292969 472.007812 382.976562 471.621094 382.699219 471.207031 C 382.417969 470.789062 382.183594 470.351562 381.992188 469.890625 C 381.800781 469.425781 381.65625 468.949219 381.558594 468.457031 C 381.460938 467.96875 381.414062 467.472656 381.414062 466.972656 C 381.414062 466.472656 381.460938 465.976562 381.558594 465.484375 C 381.65625 464.992188 381.800781 464.515625 381.992188 464.054688 C 382.183594 463.589844 382.417969 463.152344 382.699219 462.734375 C 382.976562 462.320312 383.292969 461.933594 383.644531 461.582031 C 384 461.226562 384.382812 460.910156 384.800781 460.632812 C 385.21875 460.355469 385.65625 460.121094 386.117188 459.929688 C 386.582031 459.738281 387.058594 459.59375 387.550781 459.496094 C 388.039062 459.398438 388.535156 459.347656 389.035156 459.347656 C 389.539062 459.347656 390.03125 459.398438 390.523438 459.496094 C 391.015625 459.59375 391.492188 459.738281 391.953125 459.929688 C 392.417969 460.121094 392.855469 460.355469 393.273438 460.632812 C 393.6875 460.910156 394.074219 461.226562 394.429688 461.582031 C 394.78125 461.933594 395.097656 462.320312 395.375 462.734375 C 395.652344 463.152344 395.890625 463.589844 396.082031 464.054688 C 396.273438 464.515625 396.417969 464.992188 396.515625 465.484375 C 396.613281 465.976562 396.660156 466.472656 396.660156 466.972656 Z M 396.660156 466.972656 " fill-opacity="1" fill-rule="nonzero"/><path fill="#d6d7d8" d="M 396.660156 524.691406 C 396.660156 525.191406 396.613281 525.6875 396.515625 526.179688 C 396.417969 526.667969 396.273438 527.148438 396.082031 527.609375 C 395.890625 528.070312 395.652344 528.511719 395.375 528.925781 C 395.097656 529.34375 394.78125 529.726562 394.429688 530.082031 C 394.074219 530.4375 393.6875 530.753906 393.273438 531.03125 C 392.855469 531.308594 392.417969 531.542969 391.953125 531.734375 C 391.492188 531.925781 391.015625 532.070312 390.523438 532.167969 C 390.03125 532.265625 389.539062 532.316406 389.035156 532.316406 C 388.535156 532.316406 388.039062 532.265625 387.550781 532.167969 C 387.058594 532.070312 386.582031 531.925781 386.117188 531.734375 C 385.65625 531.542969 385.21875 531.308594 384.800781 531.03125 C 384.382812 530.753906 384 530.4375 383.644531 530.082031 C 383.292969 529.726562 382.976562 529.34375 382.699219 528.925781 C 382.417969 528.511719 382.183594 528.070312 381.992188 527.609375 C 381.800781 527.148438 381.65625 526.667969 381.558594 526.179688 C 381.460938 525.6875 381.414062 525.191406 381.414062 524.691406 C 381.414062 524.191406 381.460938 523.695312 381.558594 523.203125 C 381.65625 522.714844 381.800781 522.238281 381.992188 521.773438 C 382.183594 521.3125 382.417969 520.871094 382.699219 520.457031 C 382.976562 520.039062 383.292969 519.65625 383.644531 519.300781 C 384 518.945312 384.382812 518.632812 384.800781 518.351562 C 385.21875 518.074219 385.65625 517.839844 386.117188 517.648438 C 386.582031 517.457031 387.058594 517.3125 387.550781 517.214844 C 388.039062 517.117188 388.535156 517.066406 389.035156 517.066406 C 389.539062 517.066406 390.03125 517.117188 390.523438 517.214844 C 391.015625 517.3125 391.492188 517.457031 391.953125 517.648438 C 392.417969 517.839844 392.855469 518.074219 393.273438 518.351562 C 393.6875 518.632812 394.074219 518.945312 394.429688 519.300781 C 394.78125 519.65625 395.097656 520.039062 395.375 520.457031 C 395.652344 520.871094 395.890625 521.3125 396.082031 521.773438 C 396.273438 522.238281 396.417969 522.714844 396.515625 523.203125 C 396.613281 523.695312 396.660156 524.191406 396.660156 524.691406 Z M 396.660156 524.691406 " fill-opacity="1" fill-rule="nonzero"/><path fill="#d6d7d8" d="M 396.660156 582.410156 C 396.660156 582.910156 396.613281 583.40625 396.515625 583.898438 C 396.417969 584.386719 396.273438 584.863281 396.082031 585.328125 C 395.890625 585.789062 395.652344 586.230469 395.375 586.644531 C 395.097656 587.0625 394.78125 587.445312 394.429688 587.800781 C 394.074219 588.152344 393.6875 588.46875 393.273438 588.746094 C 392.855469 589.027344 392.417969 589.261719 391.953125 589.453125 C 391.492188 589.644531 391.015625 589.789062 390.523438 589.886719 C 390.03125 589.984375 389.539062 590.03125 389.035156 590.03125 C 388.535156 590.03125 388.039062 589.984375 387.550781 589.886719 C 387.058594 589.789062 386.582031 589.644531 386.117188 589.453125 C 385.65625 589.261719 385.21875 589.027344 384.800781 588.746094 C 384.382812 588.46875 384 588.152344 383.644531 587.800781 C 383.292969 587.445312 382.976562 587.0625 382.699219 586.644531 C 382.417969 586.230469 382.183594 585.789062 381.992188 585.328125 C 381.800781 584.863281 381.65625 584.386719 381.558594 583.898438 C 381.460938 583.40625 381.414062 582.910156 381.414062 582.410156 C 381.414062 581.910156 381.460938 581.414062 381.558594 580.921875 C 381.65625 580.429688 381.800781 579.953125 381.992188 579.492188 C 382.183594 579.03125 382.417969 578.589844 382.699219 578.175781 C 382.976562 577.757812 383.292969 577.371094 383.644531 577.019531 C 384 576.664062 384.382812 576.347656 384.800781 576.070312 C 385.21875 575.792969 385.65625 575.558594 386.117188 575.367188 C 386.582031 575.175781 387.058594 575.03125 387.550781 574.933594 C 388.039062 574.835938 388.535156 574.785156 389.035156 574.785156 C 389.539062 574.785156 390.03125 574.835938 390.523438 574.933594 C 391.015625 575.03125 391.492188 575.175781 391.953125 575.367188 C 392.417969 575.558594 392.855469 575.792969 393.273438 576.070312 C 393.6875 576.347656 394.074219 576.664062 394.429688 577.019531 C 394.78125 577.371094 395.097656 577.757812 395.375 578.175781 C 395.652344 578.589844 395.890625 579.03125 396.082031 579.492188 C 396.273438 579.953125 396.417969 580.429688 396.515625 580.921875 C 396.613281 581.414062 396.660156 581.910156 396.660156 582.410156 Z M 396.660156 582.410156 " fill-opacity="1" fill-rule="nonzero"/><path fill="#d6d7d8" d="M 396.660156 640.128906 C 396.660156 640.628906 396.613281 641.125 396.515625 641.617188 C 396.417969 642.109375 396.273438 642.585938 396.082031 643.046875 C 395.890625 643.507812 395.652344 643.949219 395.375 644.363281 C 395.097656 644.78125 394.78125 645.167969 394.429688 645.519531 C 394.074219 645.875 393.6875 646.191406 393.273438 646.46875 C 392.855469 646.746094 392.417969 646.980469 391.953125 647.171875 C 391.492188 647.363281 391.015625 647.507812 390.523438 647.605469 C 390.03125 647.703125 389.539062 647.753906 389.035156 647.753906 C 388.535156 647.753906 388.039062 647.703125 387.550781 647.605469 C 387.058594 647.507812 386.582031 647.363281 386.117188 647.171875 C 385.65625 646.980469 385.21875 646.746094 384.800781 646.46875 C 384.382812 646.191406 384 645.875 383.644531 645.519531 C 383.292969 645.167969 382.976562 644.78125 382.699219 644.363281 C 382.417969 643.949219 382.183594 643.507812 381.992188 643.046875 C 381.800781 642.585938 381.65625 642.109375 381.558594 641.617188 C 381.460938 641.125 381.414062 640.628906 381.414062 640.128906 C 381.414062 639.628906 381.460938 639.132812 381.558594 638.640625 C 381.65625 638.152344 381.800781 637.675781 381.992188 637.210938 C 382.183594 636.75 382.417969 636.308594 382.699219 635.894531 C 382.976562 635.476562 383.292969 635.09375 383.644531 634.738281 C 384 634.386719 384.382812 634.070312 384.800781 633.789062 C 385.21875 633.511719 385.65625 633.277344 386.117188 633.085938 C 386.582031 632.894531 387.058594 632.75 387.550781 632.652344 C 388.039062 632.554688 388.535156 632.507812 389.035156 632.507812 C 389.539062 632.507812 390.03125 632.554688 390.523438 632.652344 C 391.015625 632.75 391.492188 632.894531 391.953125 633.085938 C 392.417969 633.277344 392.855469 633.511719 393.273438 633.789062 C 393.6875 634.070312 394.074219 634.386719 394.429688 634.738281 C 394.78125 635.09375 395.097656 635.476562 395.375 635.894531 C 395.652344 636.308594 395.890625 636.75 396.082031 637.210938 C 396.273438 637.675781 396.417969 638.152344 396.515625 638.640625 C 396.613281 639.132812 396.660156 639.628906 396.660156 640.128906 Z M 396.660156 640.128906 " fill-opacity="1" fill-rule="nonzero"/><path fill="#d6d7d8" d="M 396.660156 697.847656 C 396.660156 698.347656 396.613281 698.84375 396.515625 699.335938 C 396.417969 699.824219 396.273438 700.300781 396.082031 700.765625 C 395.890625 701.226562 395.652344 701.667969 395.375 702.082031 C 395.097656 702.5 394.78125 702.882812 394.429688 703.238281 C 394.074219 703.59375 393.6875 703.90625 393.273438 704.1875 C 392.855469 704.464844 392.417969 704.699219 391.953125 704.890625 C 391.492188 705.082031 391.015625 705.226562 390.523438 705.324219 C 390.03125 705.421875 389.539062 705.472656 389.035156 705.472656 C 388.535156 705.472656 388.039062 705.421875 387.550781 705.324219 C 387.058594 705.226562 386.582031 705.082031 386.117188 704.890625 C 385.65625 704.699219 385.21875 704.464844 384.800781 704.1875 C 384.382812 703.90625 384 703.59375 383.644531 703.238281 C 383.292969 702.882812 382.976562 702.5 382.699219 702.082031 C 382.417969 701.667969 382.183594 701.226562 381.992188 700.765625 C 381.800781 700.300781 381.65625 699.824219 381.558594 699.335938 C 381.460938 698.84375 381.414062 698.347656 381.414062 697.847656 C 381.414062 697.347656 381.460938 696.851562 381.558594 696.359375 C 381.65625 695.867188 381.800781 695.390625 381.992188 694.929688 C 382.183594 694.46875 382.417969 694.027344 382.699219 693.613281 C 382.976562 693.195312 383.292969 692.8125 383.644531 692.457031 C 384 692.101562 384.382812 691.785156 384.800781 691.507812 C 385.21875 691.230469 385.65625 690.996094 386.117188 690.804688 C 386.582031 690.613281 387.058594 690.46875 387.550781 690.371094 C 388.039062 690.273438 388.535156 690.222656 389.035156 690.222656 C 389.539062 690.222656 390.03125 690.273438 390.523438 690.371094 C 391.015625 690.46875 391.492188 690.613281 391.953125 690.804688 C 392.417969 690.996094 392.855469 691.230469 393.273438 691.507812 C 393.6875 691.785156 394.074219 692.101562 394.429688 692.457031 C 394.78125 692.8125 395.097656 693.195312 395.375 693.613281 C 395.652344 694.027344 395.890625 694.46875 396.082031 694.929688 C 396.273438 695.390625 396.417969 695.867188 396.515625 696.359375 C 396.613281 696.851562 396.660156 697.347656 396.660156 697.847656 Z M 396.660156 697.847656 " fill-opacity="1" fill-rule="nonzero"/><path fill="#d6d7d8" d="M 396.660156 755.566406 C 396.660156 756.066406 396.613281 756.5625 396.515625 757.054688 C 396.417969 757.546875 396.273438 758.023438 396.082031 758.484375 C 395.890625 758.949219 395.652344 759.386719 395.375 759.804688 C 395.097656 760.21875 394.78125 760.605469 394.429688 760.957031 C 394.074219 761.3125 393.6875 761.628906 393.273438 761.90625 C 392.855469 762.183594 392.417969 762.417969 391.953125 762.609375 C 391.492188 762.800781 391.015625 762.945312 390.523438 763.042969 C 390.03125 763.140625 389.539062 763.191406 389.035156 763.191406 C 388.535156 763.191406 388.039062 763.140625 387.550781 763.042969 C 387.058594 762.945312 386.582031 762.800781 386.117188 762.609375 C 385.65625 762.417969 385.21875 762.183594 384.800781 761.90625 C 384.382812 761.628906 384 761.3125 383.644531 760.957031 C 383.292969 760.605469 382.976562 760.21875 382.699219 759.804688 C 382.417969 759.386719 382.183594 758.949219 381.992188 758.484375 C 381.800781 758.023438 381.65625 757.546875 381.558594 757.054688 C 381.460938 756.5625 381.414062 756.066406 381.414062 755.566406 C 381.414062 755.066406 381.460938 754.570312 381.558594 754.082031 C 381.65625 753.589844 381.800781 753.113281 381.992188 752.648438 C 382.183594 752.1875 382.417969 751.75 382.699219 751.332031 C 382.976562 750.917969 383.292969 750.53125 383.644531 750.175781 C 384 749.824219 384.382812 749.507812 384.800781 749.230469 C 385.21875 748.949219 385.65625 748.714844 386.117188 748.523438 C 386.582031 748.332031 387.058594 748.1875 387.550781 748.089844 C 388.039062 747.992188 388.535156 747.945312 389.035156 747.945312 C 389.539062 747.945312 390.03125 747.992188 390.523438 748.089844 C 391.015625 748.1875 391.492188 748.332031 391.953125 748.523438 C 392.417969 748.714844 392.855469 748.949219 393.273438 749.230469 C 393.6875 749.507812 394.074219 749.824219 394.429688 750.175781 C 394.78125 750.53125 395.097656 750.917969 395.375 751.332031 C 395.652344 751.75 395.890625 752.1875 396.082031 752.648438 C 396.273438 753.113281 396.417969 753.589844 396.515625 754.082031 C 396.613281 754.570312 396.660156 755.066406 396.660156 755.566406 Z M 396.660156 755.566406 " fill-opacity="1" fill-rule="nonzero"/><path fill="#fdb4b4" d="M 471.921875 112.726562 C 471.921875 113.894531 471.894531 115.058594 471.835938 116.222656 C 471.78125 117.390625 471.695312 118.554688 471.582031 119.714844 C 471.464844 120.875 471.324219 122.035156 471.152344 123.1875 C 470.980469 124.34375 470.78125 125.492188 470.554688 126.636719 C 470.324219 127.78125 470.070312 128.917969 469.785156 130.050781 C 469.503906 131.183594 469.191406 132.308594 468.851562 133.425781 C 468.515625 134.542969 468.148438 135.648438 467.753906 136.746094 C 467.363281 137.847656 466.941406 138.933594 466.496094 140.011719 C 466.046875 141.089844 465.574219 142.15625 465.078125 143.210938 C 464.578125 144.269531 464.054688 145.308594 463.503906 146.339844 C 462.953125 147.367188 462.378906 148.382812 461.777344 149.382812 C 461.179688 150.386719 460.554688 151.371094 459.90625 152.339844 C 459.257812 153.3125 458.585938 154.265625 457.890625 155.203125 C 457.195312 156.140625 456.476562 157.058594 455.738281 157.960938 C 454.996094 158.863281 454.234375 159.746094 453.449219 160.613281 C 452.667969 161.476562 451.863281 162.320312 451.035156 163.144531 C 450.210938 163.972656 449.367188 164.777344 448.5 165.558594 C 447.636719 166.34375 446.753906 167.105469 445.851562 167.84375 C 444.949219 168.585938 444.03125 169.304688 443.09375 170 C 442.15625 170.695312 441.199219 171.367188 440.230469 172.015625 C 439.261719 172.664062 438.273438 173.285156 437.273438 173.886719 C 436.273438 174.484375 435.257812 175.0625 434.226562 175.613281 C 433.199219 176.160156 432.15625 176.6875 431.101562 177.183594 C 430.046875 177.683594 428.980469 178.15625 427.902344 178.601562 C 426.824219 179.050781 425.734375 179.46875 424.636719 179.863281 C 423.539062 180.257812 422.429688 180.621094 421.3125 180.960938 C 420.195312 181.300781 419.070312 181.609375 417.9375 181.894531 C 416.808594 182.175781 415.667969 182.433594 414.523438 182.660156 C 413.378906 182.886719 412.230469 183.089844 411.074219 183.257812 C 409.921875 183.429688 408.761719 183.574219 407.601562 183.6875 C 406.441406 183.800781 405.277344 183.886719 404.109375 183.945312 C 402.945312 184.003906 401.777344 184.03125 400.613281 184.03125 C 399.445312 184.03125 398.277344 184.003906 397.113281 183.945312 C 395.945312 183.886719 394.785156 183.800781 393.621094 183.6875 C 392.460938 183.574219 391.300781 183.429688 390.148438 183.257812 C 388.992188 183.089844 387.84375 182.886719 386.699219 182.660156 C 385.554688 182.433594 384.417969 182.175781 383.285156 181.894531 C 382.152344 181.609375 381.027344 181.300781 379.910156 180.960938 C 378.792969 180.621094 377.6875 180.257812 376.585938 179.863281 C 375.488281 179.46875 374.398438 179.050781 373.320312 178.601562 C 372.242188 178.15625 371.175781 177.683594 370.121094 177.183594 C 369.066406 176.6875 368.023438 176.160156 366.996094 175.613281 C 365.964844 175.0625 364.953125 174.484375 363.949219 173.886719 C 362.949219 173.285156 361.964844 172.664062 360.992188 172.015625 C 360.023438 171.367188 359.070312 170.695312 358.132812 170 C 357.195312 169.304688 356.273438 168.585938 355.371094 167.84375 C 354.46875 167.105469 353.585938 166.34375 352.722656 165.558594 C 351.855469 164.777344 351.011719 163.972656 350.1875 163.144531 C 349.363281 162.320312 348.558594 161.476562 347.773438 160.613281 C 346.988281 159.746094 346.226562 158.863281 345.488281 157.960938 C 344.746094 157.058594 344.027344 156.140625 343.332031 155.203125 C 342.636719 154.265625 341.964844 153.3125 341.316406 152.339844 C 340.667969 151.371094 340.046875 150.386719 339.445312 149.382812 C 338.847656 148.382812 338.269531 147.367188 337.71875 146.339844 C 337.171875 145.308594 336.644531 144.269531 336.148438 143.210938 C 335.648438 142.15625 335.175781 141.089844 334.726562 140.011719 C 334.28125 138.933594 333.863281 137.847656 333.46875 136.746094 C 333.074219 135.648438 332.710938 134.542969 332.371094 133.425781 C 332.03125 132.308594 331.722656 131.183594 331.4375 130.050781 C 331.152344 128.917969 330.898438 127.78125 330.671875 126.636719 C 330.441406 125.492188 330.242188 124.34375 330.070312 123.1875 C 329.902344 122.035156 329.757812 120.875 329.644531 119.714844 C 329.527344 118.554688 329.445312 117.390625 329.386719 116.222656 C 329.328125 115.058594 329.300781 113.894531 329.300781 112.726562 C 329.300781 111.558594 329.328125 110.390625 329.386719 109.226562 C 329.445312 108.0625 329.527344 106.898438 329.644531 105.738281 C 329.757812 104.574219 329.902344 103.417969 330.070312 102.261719 C 330.242188 101.109375 330.441406 99.960938 330.671875 98.816406 C 330.898438 97.671875 331.152344 96.53125 331.4375 95.398438 C 331.722656 94.269531 332.03125 93.144531 332.371094 92.027344 C 332.710938 90.910156 333.074219 89.800781 333.46875 88.703125 C 333.863281 87.605469 334.28125 86.515625 334.726562 85.4375 C 335.175781 84.359375 335.648438 83.292969 336.148438 82.238281 C 336.644531 81.183594 337.171875 80.140625 337.71875 79.113281 C 338.269531 78.082031 338.847656 77.070312 339.445312 76.066406 C 340.046875 75.066406 340.667969 74.082031 341.316406 73.109375 C 341.964844 72.140625 342.636719 71.1875 343.332031 70.25 C 344.027344 69.3125 344.746094 68.390625 345.488281 67.488281 C 346.226562 66.589844 346.988281 65.703125 347.773438 64.839844 C 348.558594 63.976562 349.363281 63.128906 350.1875 62.304688 C 351.011719 61.480469 351.855469 60.675781 352.722656 59.890625 C 353.585938 59.109375 354.46875 58.347656 355.371094 57.605469 C 356.273438 56.867188 357.195312 56.148438 358.132812 55.453125 C 359.070312 54.757812 360.023438 54.085938 360.992188 53.4375 C 361.964844 52.789062 362.949219 52.164062 363.949219 51.566406 C 364.953125 50.964844 365.964844 50.390625 366.996094 49.839844 C 368.023438 49.289062 369.066406 48.765625 370.121094 48.265625 C 371.175781 47.769531 372.242188 47.292969 373.320312 46.847656 C 374.398438 46.402344 375.488281 45.980469 376.585938 45.589844 C 377.6875 45.195312 378.792969 44.828125 379.910156 44.492188 C 381.027344 44.152344 382.152344 43.839844 383.285156 43.558594 C 384.417969 43.273438 385.554688 43.019531 386.699219 42.789062 C 387.84375 42.5625 388.992188 42.363281 390.148438 42.191406 C 391.300781 42.019531 392.460938 41.878906 393.621094 41.765625 C 394.785156 41.648438 395.945312 41.5625 397.113281 41.507812 C 398.277344 41.449219 399.445312 41.421875 400.613281 41.421875 C 401.777344 41.421875 402.945312 41.449219 404.109375 41.507812 C 405.277344 41.5625 406.441406 41.648438 407.601562 41.765625 C 408.761719 41.878906 409.921875 42.019531 411.074219 42.191406 C 412.230469 42.363281 413.378906 42.5625 414.523438 42.789062 C 415.667969 43.019531 416.808594 43.273438 417.9375 43.558594 C 419.070312 43.839844 420.195312 44.152344 421.3125 44.492188 C 422.429688 44.828125 423.539062 45.195312 424.636719 45.589844 C 425.734375 45.980469 426.824219 46.402344 427.902344 46.847656 C 428.980469 47.292969 430.046875 47.769531 431.101562 48.265625 C 432.15625 48.765625 433.199219 49.289062 434.226562 49.839844 C 435.257812 50.390625 436.273438 50.964844 437.273438 51.566406 C 438.273438 52.164062 439.261719 52.789062 440.230469 53.4375 C 441.199219 54.085938 442.15625 54.757812 443.09375 55.453125 C 444.03125 56.148438 444.949219 56.867188 445.851562 57.605469 C 446.753906 58.347656 447.636719 59.109375 448.5 59.890625 C 449.367188 60.675781 450.210938 61.480469 451.035156 62.304688 C 451.863281 63.128906 452.667969 63.976562 453.449219 64.839844 C 454.234375 65.703125 454.996094 66.589844 455.738281 67.488281 C 456.476562 68.390625 457.195312 69.3125 457.890625 70.25 C 458.585938 71.1875 459.257812 72.140625 459.90625 73.109375 C 460.554688 74.082031 461.179688 75.066406 461.777344 76.066406 C 462.378906 77.070312 462.953125 78.082031 463.503906 79.113281 C 464.054688 80.140625 464.578125 81.183594 465.078125 82.238281 C 465.574219 83.292969 466.046875 84.359375 466.496094 85.4375 C 466.941406 86.515625 467.363281 87.605469 467.753906 88.703125 C 468.148438 89.800781 468.515625 90.910156 468.851562 92.027344 C 469.191406 93.144531 469.503906 94.269531 469.785156 95.398438 C 470.070312 96.53125 470.324219 97.671875 470.554688 98.816406 C 470.78125 99.960938 470.980469 101.109375 471.152344 102.261719 C 471.324219 103.417969 471.464844 104.574219 471.582031 105.738281 C 471.695312 106.898438 471.78125 108.0625 471.835938 109.226562 C 471.894531 110.390625 471.921875 111.558594 471.921875 112.726562 Z M 471.921875 112.726562 " fill-opacity="1" fill-rule="nonzero"/><path fill="#2e2e41" d="M 437.984375 29.488281 C 441.398438 36.4375 435.980469 45.117188 428.808594 48.039062 C 421.636719 50.960938 413.535156 49.777344 405.886719 48.558594 C 398.238281 47.34375 390.125 46.191406 382.972656 49.164062 C 373.722656 53.011719 368.503906 62.660156 364.011719 71.617188 C 355.621094 88.335938 347.230469 105.054688 338.839844 121.773438 C 334.742188 129.941406 330.550781 138.476562 330.472656 147.613281 C 330.328125 164.390625 343.636719 177.792969 350.796875 192.964844 C 359.511719 211.4375 358.792969 234.074219 348.921875 251.953125 C 339.050781 269.832031 320.273438 282.503906 299.996094 284.96875 C 294.664062 285.617188 289.015625 285.546875 284.21875 283.121094 C 279.421875 280.699219 275.761719 275.40625 276.648438 270.105469 C 278.386719 259.738281 294.226562 257.316406 297.136719 247.21875 C 298.65625 241.945312 295.964844 236.3125 292.339844 232.195312 C 288.714844 228.078125 284.128906 224.863281 280.671875 220.605469 C 272.695312 210.78125 272.164062 195.621094 279.433594 185.265625 C 283.703125 179.175781 290.308594 174.65625 293.070312 167.75 C 295.421875 161.867188 294.570312 155.25 293.675781 148.976562 C 292.53125 140.914062 291.386719 132.851562 290.242188 124.789062 C 288.90625 115.382812 287.589844 105.636719 290.230469 96.511719 C 296.28125 75.59375 319.902344 65.769531 333.753906 48.96875 C 340.1875 41.164062 344.519531 31.773438 351.121094 24.105469 C 362.203125 11.242188 379.648438 4.144531 396.566406 5.617188 C 413.480469 7.09375 429.433594 17.105469 438.121094 31.695312 " fill-opacity="1" fill-rule="nonzero"/><path fill="#2e2e41" d="M 426.726562 30.804688 C 423.242188 32.050781 421.949219 36.589844 422.949219 40.152344 C 423.953125 43.710938 426.578125 46.542969 428.984375 49.355469 C 456.167969 81.164062 462.488281 129.285156 444.4375 167.035156 C 439.636719 177.078125 433.238281 186.527344 430.648438 197.351562 C 428.765625 205.226562 428.867188 213.867188 424.496094 220.6875 C 420.046875 227.628906 411.230469 232.277344 410.359375 240.476562 C 409.800781 245.738281 413.007812 250.851562 417.308594 253.933594 C 421.605469 257.019531 426.859375 258.429688 432.023438 259.582031 C 445.449219 262.574219 459.175781 264.207031 472.925781 264.445312 C 477.410156 264.527344 482.035156 264.429688 486.148438 262.644531 C 490.261719 260.855469 493.769531 256.984375 493.816406 252.5 C 493.855469 248.976562 491.820312 245.726562 491.5625 242.210938 C 490.785156 231.679688 504.957031 226.078125 507.71875 215.886719 C 509.53125 209.1875 505.957031 202.292969 502.148438 196.488281 C 498.335938 190.6875 493.988281 184.59375 494.082031 177.652344 C 494.171875 171.007812 498.34375 165.15625 499.964844 158.710938 C 502.207031 149.796875 499.453125 140.472656 496.722656 131.695312 C 494.398438 124.230469 492.074219 116.769531 489.753906 109.308594 C 487.285156 101.375 484.816406 93.445312 482.347656 85.511719 C 478.035156 71.664062 473.511719 57.414062 464.183594 46.308594 C 454.855469 35.203125 439.402344 27.921875 425.625 32.457031 " fill-opacity="1" fill-rule="nonzero"/><path fill="#3f3c57" d="M 475.316406 307.109375 L 470.429688 305.6875 C 480.613281 270.777344 458.65625 205.625 458.433594 204.972656 L 463.253906 203.328125 C 464.183594 206.0625 485.949219 270.671875 475.316406 307.109375 Z M 475.316406 307.109375 " fill-opacity="1" fill-rule="nonzero"/><path fill="#3f3c57" d="M 494.140625 325.945312 C 494.140625 326.644531 494.105469 327.335938 494.039062 328.03125 C 493.96875 328.722656 493.867188 329.410156 493.730469 330.09375 C 493.59375 330.777344 493.425781 331.453125 493.222656 332.121094 C 493.023438 332.785156 492.785156 333.441406 492.519531 334.085938 C 492.253906 334.726562 491.957031 335.355469 491.628906 335.96875 C 491.300781 336.585938 490.941406 337.179688 490.554688 337.761719 C 490.167969 338.339844 489.753906 338.898438 489.3125 339.4375 C 488.871094 339.976562 488.402344 340.492188 487.910156 340.984375 C 487.417969 341.476562 486.902344 341.941406 486.363281 342.382812 C 485.824219 342.828125 485.265625 343.242188 484.6875 343.628906 C 484.109375 344.015625 483.511719 344.371094 482.898438 344.699219 C 482.285156 345.027344 481.65625 345.324219 481.011719 345.59375 C 480.367188 345.859375 479.714844 346.09375 479.046875 346.296875 C 478.378906 346.496094 477.703125 346.667969 477.023438 346.800781 C 476.339844 346.9375 475.652344 347.039062 474.957031 347.109375 C 474.265625 347.175781 473.570312 347.210938 472.875 347.210938 C 472.175781 347.210938 471.480469 347.175781 470.789062 347.109375 C 470.09375 347.039062 469.40625 346.9375 468.722656 346.800781 C 468.042969 346.667969 467.367188 346.496094 466.699219 346.296875 C 466.035156 346.09375 465.378906 345.859375 464.734375 345.59375 C 464.089844 345.324219 463.460938 345.027344 462.847656 344.699219 C 462.234375 344.371094 461.636719 344.015625 461.058594 343.628906 C 460.480469 343.242188 459.921875 342.828125 459.382812 342.382812 C 458.84375 341.941406 458.328125 341.476562 457.835938 340.984375 C 457.34375 340.492188 456.875 339.976562 456.433594 339.4375 C 455.992188 338.898438 455.578125 338.339844 455.191406 337.761719 C 454.804688 337.179688 454.445312 336.585938 454.117188 335.96875 C 453.789062 335.355469 453.492188 334.726562 453.226562 334.085938 C 452.957031 333.441406 452.722656 332.785156 452.523438 332.121094 C 452.320312 331.453125 452.152344 330.777344 452.015625 330.09375 C 451.878906 329.410156 451.777344 328.722656 451.710938 328.03125 C 451.640625 327.335938 451.605469 326.644531 451.605469 325.945312 C 451.605469 325.25 451.640625 324.554688 451.710938 323.863281 C 451.777344 323.167969 451.878906 322.480469 452.015625 321.796875 C 452.152344 321.113281 452.320312 320.441406 452.523438 319.773438 C 452.722656 319.105469 452.957031 318.453125 453.226562 317.808594 C 453.492188 317.164062 453.789062 316.535156 454.117188 315.921875 C 454.445312 315.308594 454.804688 314.710938 455.191406 314.132812 C 455.578125 313.554688 455.992188 312.996094 456.433594 312.457031 C 456.875 311.917969 457.34375 311.402344 457.835938 310.910156 C 458.328125 310.417969 458.84375 309.949219 459.382812 309.507812 C 459.921875 309.066406 460.480469 308.652344 461.058594 308.265625 C 461.636719 307.878906 462.234375 307.519531 462.847656 307.191406 C 463.460938 306.863281 464.089844 306.566406 464.734375 306.300781 C 465.378906 306.035156 466.035156 305.800781 466.699219 305.597656 C 467.367188 305.394531 468.042969 305.226562 468.722656 305.089844 C 469.40625 304.953125 470.09375 304.851562 470.789062 304.785156 C 471.480469 304.714844 472.175781 304.683594 472.875 304.683594 C 473.570312 304.683594 474.265625 304.714844 474.957031 304.785156 C 475.652344 304.851562 476.339844 304.953125 477.023438 305.089844 C 477.703125 305.226562 478.378906 305.394531 479.046875 305.597656 C 479.714844 305.800781 480.367188 306.035156 481.011719 306.300781 C 481.65625 306.566406 482.285156 306.863281 482.898438 307.191406 C 483.511719 307.519531 484.109375 307.878906 484.6875 308.265625 C 485.265625 308.652344 485.824219 309.066406 486.363281 309.507812 C 486.902344 309.949219 487.417969 310.417969 487.910156 310.910156 C 488.402344 311.402344 488.871094 311.917969 489.3125 312.457031 C 489.753906 312.996094 490.167969 313.554688 490.554688 314.132812 C 490.941406 314.710938 491.300781 315.308594 491.628906 315.921875 C 491.957031 316.535156 492.253906 317.164062 492.519531 317.808594 C 492.785156 318.453125 493.023438 319.105469 493.222656 319.773438 C 493.425781 320.441406 493.59375 321.113281 493.730469 321.796875 C 493.867188 322.480469 493.96875 323.167969 494.039062 323.863281 C 494.105469 324.554688 494.140625 325.25 494.140625 325.945312 Z M 494.140625 325.945312 " fill-opacity="1" fill-rule="nonzero"/><path fill="#3f3c57" d="M 333.136719 401.230469 L 320.242188 401.230469 C 318.832031 401.230469 317.695312 400.089844 317.695312 398.683594 C 317.695312 397.277344 318.832031 396.140625 320.242188 396.140625 L 333.136719 396.140625 C 336.691406 396.140625 340.03125 394.753906 342.542969 392.238281 C 345.050781 389.726562 346.429688 386.382812 346.421875 382.832031 L 346.265625 303.394531 C 346.265625 286.140625 332.230469 272.105469 314.976562 272.105469 C 297.726562 272.105469 283.6875 286.140625 283.6875 303.390625 L 283.84375 377.742188 C 283.859375 384.996094 289.773438 390.941406 297.027344 390.996094 L 305.878906 391.066406 C 307.285156 391.074219 308.414062 392.222656 308.40625 393.628906 C 308.394531 395.027344 307.257812 396.15625 305.859375 396.15625 L 305.839844 396.15625 L 296.988281 396.089844 C 286.953125 396.011719 278.773438 387.785156 278.75 377.753906 L 278.59375 303.394531 C 278.59375 283.332031 294.914062 267.015625 314.976562 267.015625 C 335.039062 267.015625 351.359375 283.332031 351.359375 303.390625 L 351.515625 382.820312 C 351.523438 387.734375 349.617188 392.355469 346.144531 395.835938 C 342.675781 399.3125 338.054688 401.230469 333.136719 401.230469 Z M 333.136719 401.230469 " fill-opacity="1" fill-rule="nonzero"/><path fill="#3f3c57" d="M 314.882812 393.609375 C 314.882812 394.203125 314.824219 394.789062 314.707031 395.371094 C 314.59375 395.949219 314.421875 396.515625 314.195312 397.0625 C 313.96875 397.609375 313.691406 398.128906 313.359375 398.621094 C 313.03125 399.113281 312.65625 399.570312 312.238281 399.988281 C 311.820312 400.40625 311.363281 400.78125 310.871094 401.109375 C 310.378906 401.4375 309.859375 401.71875 309.3125 401.945312 C 308.765625 402.171875 308.199219 402.339844 307.621094 402.457031 C 307.039062 402.574219 306.453125 402.628906 305.859375 402.628906 C 305.265625 402.628906 304.679688 402.574219 304.101562 402.457031 C 303.519531 402.339844 302.953125 402.171875 302.40625 401.945312 C 301.859375 401.71875 301.339844 401.4375 300.847656 401.109375 C 300.355469 400.78125 299.898438 400.40625 299.480469 399.988281 C 299.0625 399.570312 298.6875 399.113281 298.359375 398.621094 C 298.027344 398.128906 297.75 397.609375 297.523438 397.0625 C 297.296875 396.515625 297.125 395.949219 297.011719 395.371094 C 296.894531 394.789062 296.835938 394.203125 296.839844 393.609375 C 296.835938 393.015625 296.894531 392.429688 297.011719 391.847656 C 297.125 391.269531 297.296875 390.703125 297.523438 390.15625 C 297.75 389.609375 298.027344 389.089844 298.359375 388.597656 C 298.6875 388.105469 299.0625 387.648438 299.480469 387.230469 C 299.898438 386.8125 300.355469 386.4375 300.847656 386.109375 C 301.339844 385.78125 301.859375 385.5 302.40625 385.273438 C 302.953125 385.046875 303.519531 384.878906 304.101562 384.761719 C 304.679688 384.644531 305.265625 384.589844 305.859375 384.589844 C 306.453125 384.589844 307.039062 384.644531 307.621094 384.761719 C 308.199219 384.878906 308.765625 385.046875 309.3125 385.273438 C 309.859375 385.5 310.378906 385.78125 310.871094 386.109375 C 311.363281 386.4375 311.820312 386.8125 312.238281 387.230469 C 312.65625 387.648438 313.03125 388.105469 313.359375 388.597656 C 313.691406 389.089844 313.96875 389.609375 314.195312 390.15625 C 314.421875 390.703125 314.59375 391.269531 314.707031 391.847656 C 314.824219 392.429688 314.882812 393.015625 314.882812 393.609375 Z M 314.882812 393.609375 " fill-opacity="1" fill-rule="nonzero"/><path fill="#3f3c57" d="M 329.261719 398.683594 C 329.261719 399.277344 329.203125 399.863281 329.089844 400.445312 C 328.972656 401.027344 328.800781 401.589844 328.574219 402.136719 C 328.347656 402.683594 328.070312 403.203125 327.742188 403.695312 C 327.414062 404.1875 327.039062 404.644531 326.621094 405.0625 C 326.199219 405.484375 325.746094 405.855469 325.253906 406.1875 C 324.761719 406.515625 324.238281 406.792969 323.691406 407.019531 C 323.144531 407.246094 322.582031 407.417969 322 407.53125 C 321.417969 407.648438 320.832031 407.707031 320.242188 407.707031 C 319.648438 407.707031 319.0625 407.648438 318.480469 407.53125 C 317.898438 407.417969 317.335938 407.246094 316.789062 407.019531 C 316.242188 406.792969 315.71875 406.515625 315.226562 406.1875 C 314.734375 405.855469 314.28125 405.484375 313.859375 405.0625 C 313.441406 404.644531 313.066406 404.1875 312.738281 403.695312 C 312.410156 403.203125 312.132812 402.683594 311.90625 402.136719 C 311.679688 401.589844 311.507812 401.027344 311.390625 400.445312 C 311.277344 399.863281 311.21875 399.277344 311.21875 398.683594 C 311.21875 398.09375 311.277344 397.507812 311.390625 396.925781 C 311.507812 396.34375 311.679688 395.78125 311.90625 395.234375 C 312.132812 394.6875 312.410156 394.164062 312.738281 393.671875 C 313.066406 393.179688 313.441406 392.726562 313.859375 392.304688 C 314.28125 391.886719 314.734375 391.511719 315.226562 391.183594 C 315.71875 390.855469 316.242188 390.578125 316.789062 390.351562 C 317.335938 390.125 317.898438 389.953125 318.480469 389.835938 C 319.0625 389.722656 319.648438 389.664062 320.242188 389.664062 C 320.832031 389.664062 321.417969 389.722656 322 389.835938 C 322.582031 389.953125 323.144531 390.125 323.691406 390.351562 C 324.238281 390.578125 324.761719 390.855469 325.253906 391.183594 C 325.746094 391.511719 326.199219 391.886719 326.621094 392.304688 C 327.039062 392.726562 327.414062 393.179688 327.742188 393.671875 C 328.070312 394.164062 328.347656 394.6875 328.574219 395.234375 C 328.800781 395.78125 328.972656 396.34375 329.089844 396.925781 C 329.203125 397.507812 329.261719 398.09375 329.261719 398.683594 Z M 329.261719 398.683594 " fill-opacity="1" fill-rule="nonzero"/></svg>