<svg xmlns="http://www.w3.org/2000/svg" xmlns:xlink="http://www.w3.org/1999/xlink" width="1080" zoomAndPan="magnify" viewBox="0 0 810 809.999993" height="1080" preserveAspectRatio="xMidYMid meet" version="1.0"><defs><clipPath id="c524d118b7"><path d="M 0 0 L 794.8125 0 L 794.8125 794.8125 L 0 794.8125 Z M 0 0 " clip-rule="nonzero"/></clipPath><clipPath id="0d2fe8554a"><path d="M 397.40625 0 C 177.925781 0 0 177.925781 0 397.40625 C 0 616.886719 177.925781 794.8125 397.40625 794.8125 C 616.886719 794.8125 794.8125 616.886719 794.8125 397.40625 C 794.8125 177.925781 616.886719 0 397.40625 0 Z M 397.40625 0 " clip-rule="nonzero"/></clipPath><clipPath id="b961f5e580"><path d="M 627.75 397.40625 L 698.625 397.40625 L 698.625 483.46875 L 627.75 483.46875 Z M 627.75 397.40625 " clip-rule="nonzero"/></clipPath><clipPath id="1ecde7e3bf"><path d="M 510.484375 118.867188 L 581.359375 118.867188 L 581.359375 204.929688 L 510.484375 204.929688 Z M 510.484375 118.867188 " clip-rule="nonzero"/></clipPath><clipPath id="1c095ecbe6"><path d="M 81 354.375 L 151.875 354.375 L 151.875 440.4375 L 81 440.4375 Z M 81 354.375 " clip-rule="nonzero"/></clipPath><clipPath id="022809c045"><path d="M 9 405 L 117 405 L 117 517 L 9 517 Z M 9 405 " clip-rule="nonzero"/></clipPath><clipPath id="01a171e3b9"><path d="M 9.964844 441.476562 L 73.675781 405 L 116.4375 479.683594 L 52.726562 516.164062 Z M 9.964844 441.476562 " clip-rule="nonzero"/></clipPath><clipPath id="3a8a01cc49"><path d="M 0 607.5 L 45.5625 607.5 L 45.5625 810 L 0 810 Z M 0 607.5 " clip-rule="nonzero"/></clipPath></defs><g clip-path="url(#c524d118b7)"><g clip-path="url(#0d2fe8554a)"><path fill="#87aece" d="M 0 0 L 794.8125 0 L 794.8125 794.8125 L 0 794.8125 Z M 0 0 " fill-opacity="1" fill-rule="nonzero"/></g></g><g clip-path="url(#b961f5e580)"><path fill="#87aece" d="M 627.75 397.40625 L 698.625 397.40625 L 698.625 483.507812 L 627.75 483.507812 Z M 627.75 397.40625 " fill-opacity="1" fill-rule="nonzero"/></g><g clip-path="url(#1ecde7e3bf)"><path fill="#87aece" d="M 510.484375 118.867188 L 581.359375 118.867188 L 581.359375 204.96875 L 510.484375 204.96875 Z M 510.484375 118.867188 " fill-opacity="1" fill-rule="nonzero"/></g><g clip-path="url(#1c095ecbe6)"><path fill="#87aece" d="M 81 354.375 L 151.875 354.375 L 151.875 440.476562 L 81 440.476562 Z M 81 354.375 " fill-opacity="1" fill-rule="nonzero"/></g><g clip-path="url(#022809c045)"><g clip-path="url(#01a171e3b9)"><path fill="#87aece" d="M 9.964844 441.476562 L 73.675781 405 L 116.421875 479.65625 L 52.710938 516.132812 Z M 9.964844 441.476562 " fill-opacity="1" fill-rule="nonzero"/></g></g><path fill="#2e2e41" d="M 311.542969 194.402344 L 393.675781 149.417969 L 393.675781 277.953125 L 298.6875 277.953125 Z M 311.542969 194.402344 " fill-opacity="1" fill-rule="nonzero"/><path fill="#fdb4b4" d="M 411.285156 223.0625 L 418.867188 286.164062 L 364.234375 394.9375 L 330.328125 293.699219 L 346.269531 220.964844 Z M 411.285156 223.0625 " fill-opacity="1" fill-rule="nonzero"/><path fill="#9dde89" d="M 327.367188 289.929688 L 421.691406 289.929688 L 421.691406 403.882812 L 327.367188 403.882812 Z M 327.367188 289.929688 " fill-opacity="1" fill-rule="nonzero"/><path fill="#e8e9ea" d="M 563.46875 971.296875 L 562.027344 971.292969 L 176.332031 970.035156 L 176.675781 968.667969 L 275.835938 575.84375 L 250.996094 377.597656 C 246.292969 340.03125 266.402344 304.523438 301.046875 289.242188 L 313.550781 283.726562 L 337.308594 266.453125 L 367.703125 373.835938 L 416.375 266.367188 L 437.816406 287.804688 L 486.167969 300.632812 C 516.308594 308.625 535.832031 337.945312 531.585938 368.832031 L 531.535156 369.046875 L 457.691406 579.71875 Z M 563.46875 971.296875 " fill-opacity="1" fill-rule="nonzero"/><path fill="#fdb4b4" d="M 523.054688 761.078125 C 521.550781 786.90625 507.003906 807.070312 490.5625 806.113281 C 474.121094 805.152344 462.015625 783.4375 463.523438 757.59375 C 463.984375 747.265625 466.910156 737.195312 472.0625 728.226562 L 479.816406 618.859375 L 531.066406 623.589844 L 517.984375 730.90625 C 522.058594 740.414062 523.800781 750.757812 523.054688 761.078125 Z M 523.054688 761.078125 " fill-opacity="1" fill-rule="nonzero"/><path fill="#fdb4b4" d="M 259.671875 751.253906 C 257.621094 777.046875 242.644531 796.894531 226.226562 795.585938 C 209.808594 794.277344 198.171875 772.308594 200.226562 746.507812 C 200.90625 736.1875 204.050781 726.183594 209.390625 717.328125 L 219.46875 608.148438 L 270.609375 613.96875 L 255.242188 720.984375 C 259.117188 730.574219 260.636719 740.953125 259.671875 751.253906 Z M 259.671875 751.253906 " fill-opacity="1" fill-rule="nonzero"/><path fill="#e8e9ea" d="M 531.308594 718.078125 L 456.875 713.328125 L 456.964844 712.210938 L 471.832031 526.105469 L 448.082031 351.101562 C 446.597656 340.199219 449.585938 329.476562 456.484375 320.910156 C 463.386719 312.34375 473.226562 307.140625 484.195312 306.261719 C 505.195312 304.609375 523.816406 319.605469 526.636719 340.460938 L 558.199219 573.8125 L 558.167969 573.988281 Z M 531.308594 718.078125 " fill-opacity="1" fill-rule="nonzero"/><path fill="#e8e9ea" d="M 272.066406 710.949219 L 197.511719 706.441406 L 197.675781 705.265625 L 249.085938 332.449219 C 254.492188 311.976562 274.855469 299.378906 295.460938 303.640625 C 306.234375 305.867188 315.355469 312.246094 321.140625 321.605469 C 326.929688 330.960938 328.566406 341.96875 325.746094 352.601562 Z M 272.066406 710.949219 " fill-opacity="1" fill-rule="nonzero"/><path fill="#d6d7d8" d="M 372.710938 400.117188 C 372.710938 400.546875 372.671875 400.976562 372.585938 401.402344 C 372.5 401.828125 372.375 402.238281 372.210938 402.640625 C 372.042969 403.039062 371.839844 403.417969 371.601562 403.777344 C 371.359375 404.136719 371.085938 404.472656 370.78125 404.777344 C 370.476562 405.082031 370.140625 405.355469 369.78125 405.597656 C 369.421875 405.835938 369.042969 406.039062 368.640625 406.207031 C 368.242188 406.371094 367.828125 406.496094 367.40625 406.582031 C 366.980469 406.667969 366.550781 406.707031 366.117188 406.707031 C 365.6875 406.707031 365.257812 406.667969 364.832031 406.582031 C 364.40625 406.496094 363.996094 406.371094 363.59375 406.207031 C 363.195312 406.039062 362.816406 405.835938 362.457031 405.597656 C 362.09375 405.355469 361.761719 405.082031 361.457031 404.777344 C 361.148438 404.472656 360.875 404.136719 360.636719 403.777344 C 360.394531 403.417969 360.191406 403.039062 360.027344 402.640625 C 359.863281 402.238281 359.738281 401.828125 359.652344 401.402344 C 359.566406 400.976562 359.523438 400.546875 359.523438 400.117188 C 359.523438 399.683594 359.566406 399.253906 359.652344 398.828125 C 359.738281 398.40625 359.863281 397.992188 360.027344 397.59375 C 360.191406 397.191406 360.394531 396.8125 360.636719 396.453125 C 360.878906 396.09375 361.148438 395.761719 361.457031 395.453125 C 361.761719 395.148438 362.09375 394.875 362.457031 394.632812 C 362.816406 394.394531 363.195312 394.191406 363.59375 394.023438 C 363.996094 393.859375 364.40625 393.734375 364.832031 393.648438 C 365.257812 393.566406 365.6875 393.523438 366.117188 393.523438 C 366.550781 393.523438 366.980469 393.566406 367.40625 393.648438 C 367.828125 393.734375 368.242188 393.859375 368.640625 394.023438 C 369.042969 394.191406 369.421875 394.394531 369.78125 394.632812 C 370.140625 394.875 370.476562 395.148438 370.78125 395.453125 C 371.085938 395.761719 371.359375 396.09375 371.601562 396.453125 C 371.839844 396.8125 372.042969 397.191406 372.210938 397.59375 C 372.375 397.992188 372.5 398.40625 372.585938 398.828125 C 372.671875 399.253906 372.710938 399.683594 372.710938 400.117188 Z M 372.710938 400.117188 " fill-opacity="1" fill-rule="nonzero"/><path fill="#d6d7d8" d="M 372.710938 450.03125 C 372.710938 450.460938 372.671875 450.890625 372.585938 451.316406 C 372.5 451.742188 372.375 452.152344 372.210938 452.554688 C 372.042969 452.953125 371.839844 453.332031 371.601562 453.691406 C 371.359375 454.050781 371.085938 454.386719 370.78125 454.691406 C 370.476562 454.996094 370.140625 455.269531 369.78125 455.511719 C 369.421875 455.75 369.042969 455.953125 368.640625 456.121094 C 368.242188 456.285156 367.828125 456.410156 367.40625 456.496094 C 366.980469 456.582031 366.550781 456.621094 366.117188 456.621094 C 365.6875 456.621094 365.257812 456.582031 364.832031 456.496094 C 364.40625 456.410156 363.996094 456.285156 363.59375 456.121094 C 363.195312 455.953125 362.816406 455.75 362.457031 455.511719 C 362.09375 455.269531 361.761719 454.996094 361.457031 454.691406 C 361.148438 454.386719 360.875 454.050781 360.636719 453.691406 C 360.394531 453.332031 360.191406 452.953125 360.027344 452.554688 C 359.863281 452.152344 359.738281 451.742188 359.652344 451.316406 C 359.566406 450.890625 359.523438 450.460938 359.523438 450.03125 C 359.523438 449.597656 359.566406 449.167969 359.652344 448.742188 C 359.738281 448.320312 359.863281 447.90625 360.027344 447.507812 C 360.191406 447.105469 360.394531 446.726562 360.636719 446.367188 C 360.878906 446.007812 361.148438 445.675781 361.457031 445.367188 C 361.761719 445.0625 362.09375 444.789062 362.457031 444.546875 C 362.816406 444.308594 363.195312 444.105469 363.59375 443.9375 C 363.996094 443.773438 364.40625 443.648438 364.832031 443.5625 C 365.257812 443.480469 365.6875 443.4375 366.117188 443.4375 C 366.550781 443.4375 366.980469 443.480469 367.40625 443.5625 C 367.828125 443.648438 368.242188 443.773438 368.640625 443.9375 C 369.042969 444.105469 369.421875 444.308594 369.78125 444.546875 C 370.140625 444.789062 370.476562 445.0625 370.78125 445.367188 C 371.085938 445.675781 371.359375 446.007812 371.601562 446.367188 C 371.839844 446.726562 372.042969 447.105469 372.210938 447.507812 C 372.375 447.90625 372.5 448.320312 372.585938 448.742188 C 372.671875 449.167969 372.710938 449.597656 372.710938 450.03125 Z M 372.710938 450.03125 " fill-opacity="1" fill-rule="nonzero"/><path fill="#d6d7d8" d="M 372.710938 499.941406 C 372.710938 500.375 372.671875 500.804688 372.585938 501.226562 C 372.5 501.652344 372.375 502.066406 372.210938 502.464844 C 372.042969 502.863281 371.839844 503.246094 371.601562 503.605469 C 371.359375 503.964844 371.085938 504.296875 370.78125 504.601562 C 370.476562 504.910156 370.140625 505.183594 369.78125 505.421875 C 369.421875 505.664062 369.042969 505.867188 368.640625 506.03125 C 368.242188 506.199219 367.828125 506.324219 367.40625 506.40625 C 366.980469 506.492188 366.550781 506.535156 366.117188 506.535156 C 365.6875 506.535156 365.257812 506.492188 364.832031 506.40625 C 364.40625 506.324219 363.996094 506.199219 363.59375 506.03125 C 363.195312 505.867188 362.816406 505.664062 362.457031 505.421875 C 362.09375 505.183594 361.761719 504.910156 361.457031 504.601562 C 361.148438 504.296875 360.875 503.964844 360.636719 503.605469 C 360.394531 503.246094 360.191406 502.863281 360.027344 502.464844 C 359.863281 502.066406 359.738281 501.652344 359.652344 501.226562 C 359.566406 500.804688 359.523438 500.375 359.523438 499.941406 C 359.523438 499.507812 359.566406 499.082031 359.652344 498.65625 C 359.738281 498.230469 359.863281 497.820312 360.027344 497.417969 C 360.191406 497.019531 360.394531 496.640625 360.636719 496.277344 C 360.878906 495.917969 361.148438 495.585938 361.457031 495.28125 C 361.761719 494.972656 362.09375 494.699219 362.457031 494.460938 C 362.816406 494.21875 363.195312 494.015625 363.59375 493.851562 C 363.996094 493.683594 364.40625 493.558594 364.832031 493.476562 C 365.257812 493.390625 365.6875 493.347656 366.117188 493.347656 C 366.550781 493.347656 366.980469 493.390625 367.40625 493.476562 C 367.828125 493.558594 368.242188 493.683594 368.640625 493.851562 C 369.042969 494.015625 369.421875 494.21875 369.78125 494.460938 C 370.140625 494.699219 370.476562 494.972656 370.78125 495.28125 C 371.085938 495.585938 371.359375 495.917969 371.601562 496.277344 C 371.839844 496.640625 372.042969 497.019531 372.210938 497.417969 C 372.375 497.820312 372.5 498.230469 372.585938 498.65625 C 372.671875 499.082031 372.710938 499.507812 372.710938 499.941406 Z M 372.710938 499.941406 " fill-opacity="1" fill-rule="nonzero"/><path fill="#d6d7d8" d="M 372.710938 549.855469 C 372.710938 550.289062 372.671875 550.71875 372.585938 551.140625 C 372.5 551.566406 372.375 551.980469 372.210938 552.378906 C 372.042969 552.777344 371.839844 553.160156 371.601562 553.519531 C 371.359375 553.878906 371.085938 554.210938 370.78125 554.519531 C 370.476562 554.824219 370.140625 555.097656 369.78125 555.335938 C 369.421875 555.578125 369.042969 555.78125 368.640625 555.945312 C 368.242188 556.113281 367.828125 556.238281 367.40625 556.320312 C 366.980469 556.40625 366.550781 556.449219 366.117188 556.449219 C 365.6875 556.449219 365.257812 556.40625 364.832031 556.320312 C 364.40625 556.238281 363.996094 556.113281 363.59375 555.945312 C 363.195312 555.78125 362.816406 555.578125 362.457031 555.335938 C 362.09375 555.097656 361.761719 554.824219 361.457031 554.519531 C 361.148438 554.210938 360.875 553.878906 360.636719 553.519531 C 360.394531 553.160156 360.191406 552.777344 360.027344 552.378906 C 359.863281 551.980469 359.738281 551.566406 359.652344 551.140625 C 359.566406 550.71875 359.523438 550.289062 359.523438 549.855469 C 359.523438 549.421875 359.566406 548.996094 359.652344 548.570312 C 359.738281 548.144531 359.863281 547.734375 360.027344 547.332031 C 360.191406 546.933594 360.394531 546.554688 360.636719 546.191406 C 360.878906 545.832031 361.148438 545.5 361.457031 545.195312 C 361.761719 544.886719 362.09375 544.613281 362.457031 544.375 C 362.816406 544.132812 363.195312 543.929688 363.59375 543.765625 C 363.996094 543.597656 364.40625 543.472656 364.832031 543.390625 C 365.257812 543.304688 365.6875 543.261719 366.117188 543.261719 C 366.550781 543.261719 366.980469 543.304688 367.40625 543.390625 C 367.828125 543.472656 368.242188 543.597656 368.640625 543.765625 C 369.042969 543.929688 369.421875 544.132812 369.78125 544.375 C 370.140625 544.613281 370.476562 544.886719 370.78125 545.195312 C 371.085938 545.5 371.359375 545.832031 371.601562 546.191406 C 371.839844 546.554688 372.042969 546.933594 372.210938 547.332031 C 372.375 547.734375 372.5 548.144531 372.585938 548.570312 C 372.671875 548.996094 372.710938 549.421875 372.710938 549.855469 Z M 372.710938 549.855469 " fill-opacity="1" fill-rule="nonzero"/><path fill="#d6d7d8" d="M 372.710938 599.769531 C 372.710938 600.199219 372.671875 600.628906 372.585938 601.054688 C 372.5 601.476562 372.375 601.890625 372.210938 602.289062 C 372.042969 602.691406 371.839844 603.070312 371.601562 603.429688 C 371.359375 603.789062 371.085938 604.125 370.78125 604.429688 C 370.476562 604.734375 370.140625 605.007812 369.78125 605.25 C 369.421875 605.488281 369.042969 605.691406 368.640625 605.859375 C 368.242188 606.023438 367.828125 606.148438 367.40625 606.234375 C 366.980469 606.316406 366.550781 606.359375 366.117188 606.359375 C 365.6875 606.359375 365.257812 606.316406 364.832031 606.234375 C 364.40625 606.148438 363.996094 606.023438 363.59375 605.859375 C 363.195312 605.691406 362.816406 605.488281 362.457031 605.25 C 362.09375 605.007812 361.761719 604.734375 361.457031 604.429688 C 361.148438 604.125 360.875 603.789062 360.636719 603.429688 C 360.394531 603.070312 360.191406 602.691406 360.027344 602.289062 C 359.863281 601.890625 359.738281 601.476562 359.652344 601.054688 C 359.566406 600.628906 359.523438 600.199219 359.523438 599.769531 C 359.523438 599.335938 359.566406 598.90625 359.652344 598.480469 C 359.738281 598.058594 359.863281 597.644531 360.027344 597.246094 C 360.191406 596.84375 360.394531 596.464844 360.636719 596.105469 C 360.878906 595.746094 361.148438 595.414062 361.457031 595.105469 C 361.761719 594.800781 362.09375 594.527344 362.457031 594.285156 C 362.816406 594.046875 363.195312 593.84375 363.59375 593.675781 C 363.996094 593.511719 364.40625 593.386719 364.832031 593.300781 C 365.257812 593.21875 365.6875 593.175781 366.117188 593.175781 C 366.550781 593.175781 366.980469 593.21875 367.40625 593.300781 C 367.828125 593.386719 368.242188 593.511719 368.640625 593.675781 C 369.042969 593.84375 369.421875 594.046875 369.78125 594.285156 C 370.140625 594.527344 370.476562 594.800781 370.78125 595.105469 C 371.085938 595.414062 371.359375 595.746094 371.601562 596.105469 C 371.839844 596.464844 372.042969 596.84375 372.210938 597.246094 C 372.375 597.644531 372.5 598.058594 372.585938 598.480469 C 372.671875 598.90625 372.710938 599.335938 372.710938 599.769531 Z M 372.710938 599.769531 " fill-opacity="1" fill-rule="nonzero"/><path fill="#d6d7d8" d="M 372.710938 649.683594 C 372.710938 650.113281 372.671875 650.542969 372.585938 650.96875 C 372.5 651.390625 372.375 651.804688 372.210938 652.203125 C 372.042969 652.605469 371.839844 652.984375 371.601562 653.34375 C 371.359375 653.703125 371.085938 654.039062 370.78125 654.34375 C 370.476562 654.648438 370.140625 654.921875 369.78125 655.164062 C 369.421875 655.402344 369.042969 655.605469 368.640625 655.773438 C 368.242188 655.9375 367.828125 656.0625 367.40625 656.148438 C 366.980469 656.230469 366.550781 656.273438 366.117188 656.273438 C 365.6875 656.273438 365.257812 656.230469 364.832031 656.148438 C 364.40625 656.0625 363.996094 655.9375 363.59375 655.773438 C 363.195312 655.605469 362.816406 655.402344 362.457031 655.164062 C 362.09375 654.921875 361.761719 654.648438 361.457031 654.34375 C 361.148438 654.039062 360.875 653.703125 360.636719 653.34375 C 360.394531 652.984375 360.191406 652.605469 360.027344 652.203125 C 359.863281 651.804688 359.738281 651.390625 359.652344 650.96875 C 359.566406 650.542969 359.523438 650.113281 359.523438 649.683594 C 359.523438 649.25 359.566406 648.820312 359.652344 648.394531 C 359.738281 647.972656 359.863281 647.558594 360.027344 647.160156 C 360.191406 646.757812 360.394531 646.378906 360.636719 646.019531 C 360.878906 645.660156 361.148438 645.328125 361.457031 645.019531 C 361.761719 644.714844 362.09375 644.441406 362.457031 644.199219 C 362.816406 643.960938 363.195312 643.757812 363.59375 643.589844 C 363.996094 643.425781 364.40625 643.300781 364.832031 643.214844 C 365.257812 643.132812 365.6875 643.089844 366.117188 643.089844 C 366.550781 643.089844 366.980469 643.132812 367.40625 643.214844 C 367.828125 643.300781 368.242188 643.425781 368.640625 643.589844 C 369.042969 643.757812 369.421875 643.960938 369.78125 644.199219 C 370.140625 644.441406 370.476562 644.714844 370.78125 645.019531 C 371.085938 645.328125 371.359375 645.660156 371.601562 646.019531 C 371.839844 646.378906 372.042969 646.757812 372.210938 647.160156 C 372.375 647.558594 372.5 647.972656 372.585938 648.394531 C 372.671875 648.820312 372.710938 649.25 372.710938 649.683594 Z M 372.710938 649.683594 " fill-opacity="1" fill-rule="nonzero"/><path fill="#d6d7d8" d="M 372.710938 699.59375 C 372.710938 700.027344 372.671875 700.457031 372.585938 700.878906 C 372.5 701.304688 372.375 701.714844 372.210938 702.117188 C 372.042969 702.515625 371.839844 702.894531 371.601562 703.257812 C 371.359375 703.617188 371.085938 703.949219 370.78125 704.253906 C 370.476562 704.5625 370.140625 704.835938 369.78125 705.074219 C 369.421875 705.316406 369.042969 705.519531 368.640625 705.683594 C 368.242188 705.851562 367.828125 705.976562 367.40625 706.058594 C 366.980469 706.144531 366.550781 706.1875 366.117188 706.1875 C 365.6875 706.1875 365.257812 706.144531 364.832031 706.058594 C 364.40625 705.976562 363.996094 705.851562 363.59375 705.683594 C 363.195312 705.519531 362.816406 705.316406 362.457031 705.074219 C 362.09375 704.835938 361.761719 704.5625 361.457031 704.253906 C 361.148438 703.949219 360.875 703.617188 360.636719 703.257812 C 360.394531 702.894531 360.191406 702.515625 360.027344 702.117188 C 359.863281 701.714844 359.738281 701.304688 359.652344 700.878906 C 359.566406 700.457031 359.523438 700.027344 359.523438 699.59375 C 359.523438 699.160156 359.566406 698.730469 359.652344 698.308594 C 359.738281 697.882812 359.863281 697.472656 360.027344 697.070312 C 360.191406 696.671875 360.394531 696.289062 360.636719 695.929688 C 360.878906 695.570312 361.148438 695.238281 361.457031 694.933594 C 361.761719 694.625 362.09375 694.351562 362.457031 694.113281 C 362.816406 693.871094 363.195312 693.667969 363.59375 693.503906 C 363.996094 693.335938 364.40625 693.210938 364.832031 693.128906 C 365.257812 693.042969 365.6875 693 366.117188 693 C 366.550781 693 366.980469 693.042969 367.40625 693.128906 C 367.828125 693.210938 368.242188 693.335938 368.640625 693.503906 C 369.042969 693.667969 369.421875 693.871094 369.78125 694.113281 C 370.140625 694.351562 370.476562 694.625 370.78125 694.933594 C 371.085938 695.238281 371.359375 695.570312 371.601562 695.929688 C 371.839844 696.289062 372.042969 696.671875 372.210938 697.070312 C 372.375 697.472656 372.5 697.882812 372.585938 698.308594 C 372.671875 698.730469 372.710938 699.160156 372.710938 699.59375 Z M 372.710938 699.59375 " fill-opacity="1" fill-rule="nonzero"/><path fill="#d6d7d8" d="M 372.710938 749.507812 C 372.710938 749.941406 372.671875 750.371094 372.585938 750.792969 C 372.5 751.21875 372.375 751.628906 372.210938 752.03125 C 372.042969 752.429688 371.839844 752.808594 371.601562 753.171875 C 371.359375 753.53125 371.085938 753.863281 370.78125 754.167969 C 370.476562 754.476562 370.140625 754.75 369.78125 754.988281 C 369.421875 755.230469 369.042969 755.433594 368.640625 755.597656 C 368.242188 755.765625 367.828125 755.890625 367.40625 755.972656 C 366.980469 756.058594 366.550781 756.101562 366.117188 756.101562 C 365.6875 756.101562 365.257812 756.058594 364.832031 755.972656 C 364.40625 755.890625 363.996094 755.765625 363.59375 755.597656 C 363.195312 755.433594 362.816406 755.230469 362.457031 754.988281 C 362.09375 754.75 361.761719 754.476562 361.457031 754.167969 C 361.148438 753.863281 360.875 753.53125 360.636719 753.171875 C 360.394531 752.808594 360.191406 752.429688 360.027344 752.03125 C 359.863281 751.628906 359.738281 751.21875 359.652344 750.792969 C 359.566406 750.371094 359.523438 749.941406 359.523438 749.507812 C 359.523438 749.074219 359.566406 748.644531 359.652344 748.222656 C 359.738281 747.796875 359.863281 747.386719 360.027344 746.984375 C 360.191406 746.585938 360.394531 746.207031 360.636719 745.84375 C 360.878906 745.484375 361.148438 745.152344 361.457031 744.847656 C 361.761719 744.539062 362.09375 744.265625 362.457031 744.027344 C 362.816406 743.785156 363.195312 743.582031 363.59375 743.417969 C 363.996094 743.25 364.40625 743.125 364.832031 743.042969 C 365.257812 742.957031 365.6875 742.914062 366.117188 742.914062 C 366.550781 742.914062 366.980469 742.957031 367.40625 743.042969 C 367.828125 743.125 368.242188 743.25 368.640625 743.417969 C 369.042969 743.582031 369.421875 743.785156 369.78125 744.027344 C 370.140625 744.265625 370.476562 744.539062 370.78125 744.847656 C 371.085938 745.152344 371.359375 745.484375 371.601562 745.84375 C 371.839844 746.207031 372.042969 746.585938 372.210938 746.984375 C 372.375 747.386719 372.5 747.796875 372.585938 748.222656 C 372.671875 748.644531 372.710938 749.074219 372.710938 749.507812 Z M 372.710938 749.507812 " fill-opacity="1" fill-rule="nonzero"/><path fill="#fdb4b4" d="M 437.800781 193.605469 C 437.800781 195.625 437.699219 197.640625 437.503906 199.648438 C 437.304688 201.660156 437.007812 203.652344 436.613281 205.632812 C 436.21875 207.617188 435.730469 209.570312 435.144531 211.503906 C 434.558594 213.4375 433.878906 215.335938 433.105469 217.203125 C 432.332031 219.066406 431.46875 220.890625 430.515625 222.671875 C 429.566406 224.453125 428.527344 226.183594 427.40625 227.863281 C 426.285156 229.542969 425.082031 231.160156 423.800781 232.722656 C 422.519531 234.285156 421.164062 235.777344 419.734375 237.207031 C 418.308594 238.632812 416.8125 239.988281 415.253906 241.269531 C 413.691406 242.550781 412.070312 243.753906 410.390625 244.875 C 408.710938 245.996094 406.980469 247.035156 405.199219 247.984375 C 403.417969 248.9375 401.59375 249.800781 399.730469 250.574219 C 397.863281 251.347656 395.964844 252.027344 394.03125 252.613281 C 392.097656 253.199219 390.140625 253.6875 388.160156 254.082031 C 386.179688 254.476562 384.183594 254.773438 382.171875 254.96875 C 380.164062 255.167969 378.148438 255.265625 376.128906 255.265625 C 374.109375 255.265625 372.09375 255.167969 370.085938 254.96875 C 368.074219 254.773438 366.078125 254.476562 364.097656 254.082031 C 362.117188 253.6875 360.160156 253.199219 358.226562 252.613281 C 356.292969 252.027344 354.394531 251.347656 352.527344 250.574219 C 350.664062 249.800781 348.839844 248.9375 347.058594 247.984375 C 345.277344 247.035156 343.546875 245.996094 341.867188 244.875 C 340.1875 243.753906 338.566406 242.550781 337.003906 241.269531 C 335.445312 239.988281 333.949219 238.632812 332.519531 237.207031 C 331.09375 235.777344 329.738281 234.285156 328.457031 232.722656 C 327.175781 231.160156 325.972656 229.542969 324.851562 227.863281 C 323.730469 226.183594 322.691406 224.453125 321.742188 222.671875 C 320.789062 220.890625 319.925781 219.066406 319.152344 217.203125 C 318.378906 215.335938 317.699219 213.4375 317.113281 211.503906 C 316.527344 209.570312 316.039062 207.617188 315.644531 205.632812 C 315.25 203.652344 314.953125 201.660156 314.753906 199.648438 C 314.558594 197.640625 314.457031 195.625 314.457031 193.605469 C 314.457031 191.585938 314.558594 189.570312 314.753906 187.5625 C 314.953125 185.550781 315.25 183.554688 315.644531 181.574219 C 316.039062 179.59375 316.527344 177.636719 317.113281 175.707031 C 317.699219 173.773438 318.378906 171.875 319.152344 170.007812 C 319.925781 168.140625 320.789062 166.320312 321.742188 164.539062 C 322.691406 162.757812 323.730469 161.027344 324.851562 159.347656 C 325.972656 157.667969 327.175781 156.046875 328.457031 154.488281 C 329.738281 152.925781 331.09375 151.429688 332.523438 150.003906 C 333.949219 148.574219 335.445312 147.222656 337.003906 145.941406 C 338.566406 144.660156 340.1875 143.457031 341.867188 142.335938 C 343.546875 141.214844 345.277344 140.175781 347.058594 139.222656 C 348.839844 138.273438 350.664062 137.410156 352.527344 136.636719 C 354.394531 135.863281 356.292969 135.183594 358.226562 134.597656 C 360.160156 134.011719 362.117188 133.523438 364.097656 133.128906 C 366.078125 132.734375 368.074219 132.4375 370.085938 132.238281 C 372.09375 132.042969 374.109375 131.941406 376.128906 131.941406 C 378.148438 131.941406 380.164062 132.042969 382.171875 132.238281 C 384.183594 132.4375 386.179688 132.734375 388.160156 133.128906 C 390.140625 133.523438 392.097656 134.011719 394.03125 134.597656 C 395.964844 135.183594 397.863281 135.863281 399.730469 136.636719 C 401.59375 137.410156 403.417969 138.273438 405.199219 139.222656 C 406.980469 140.175781 408.710938 141.214844 410.390625 142.335938 C 412.070312 143.457031 413.691406 144.660156 415.253906 145.941406 C 416.8125 147.222656 418.308594 148.574219 419.734375 150.003906 C 421.164062 151.429688 422.519531 152.925781 423.800781 154.488281 C 425.082031 156.046875 426.285156 157.667969 427.40625 159.347656 C 428.527344 161.027344 429.566406 162.757812 430.515625 164.539062 C 431.46875 166.320312 432.332031 168.140625 433.105469 170.007812 C 433.878906 171.875 434.558594 173.773438 435.144531 175.707031 C 435.730469 177.636719 436.21875 179.59375 436.613281 181.574219 C 437.007812 183.554688 437.304688 185.550781 437.503906 187.5625 C 437.699219 189.570312 437.800781 191.585938 437.800781 193.605469 Z M 437.800781 193.605469 " fill-opacity="1" fill-rule="nonzero"/><path fill="#2e2e41" d="M 408.445312 121.625 C 411.402344 127.632812 406.714844 135.140625 400.511719 137.667969 C 394.3125 140.191406 387.304688 139.167969 380.691406 138.117188 C 374.074219 137.066406 367.058594 136.070312 360.875 138.640625 C 352.875 141.964844 348.363281 150.3125 344.476562 158.054688 C 337.222656 172.511719 329.964844 186.972656 322.710938 201.429688 C 319.164062 208.492188 315.539062 215.871094 315.472656 223.777344 C 315.347656 238.28125 326.855469 249.875 333.046875 262.992188 C 340.585938 278.964844 339.964844 298.539062 331.425781 314.003906 C 322.890625 329.464844 306.652344 340.421875 289.117188 342.550781 C 284.503906 343.113281 279.621094 343.050781 275.472656 340.957031 C 271.324219 338.859375 268.160156 334.285156 268.925781 329.699219 C 270.429688 320.734375 284.128906 318.640625 286.644531 309.90625 C 287.957031 305.347656 285.632812 300.480469 282.496094 296.917969 C 279.359375 293.355469 275.394531 290.578125 272.402344 286.894531 C 265.507812 278.402344 265.046875 265.289062 271.332031 256.332031 C 275.027344 251.070312 280.738281 247.160156 283.128906 241.1875 C 285.164062 236.101562 284.421875 230.378906 283.652344 224.953125 C 282.664062 217.980469 281.671875 211.007812 280.679688 204.035156 C 279.527344 195.902344 278.386719 187.476562 280.671875 179.582031 C 285.90625 161.496094 306.332031 153 318.308594 138.472656 C 323.875 131.71875 327.621094 123.601562 333.332031 116.972656 C 342.914062 105.84375 358 99.707031 372.628906 100.984375 C 387.257812 102.257812 401.054688 110.914062 408.566406 123.53125 " fill-opacity="1" fill-rule="nonzero"/><path fill="#2e2e41" d="M 398.710938 122.765625 C 395.699219 123.84375 394.582031 127.765625 395.449219 130.84375 C 396.316406 133.925781 398.585938 136.371094 400.664062 138.804688 C 424.175781 166.3125 429.636719 207.925781 414.027344 240.570312 C 409.875 249.253906 404.34375 257.425781 402.105469 266.785156 C 400.476562 273.597656 400.5625 281.066406 396.785156 286.964844 C 392.9375 292.96875 385.3125 296.988281 384.558594 304.078125 C 384.074219 308.628906 386.847656 313.046875 390.566406 315.714844 C 394.285156 318.382812 398.828125 319.605469 403.292969 320.597656 C 414.902344 323.1875 426.773438 324.597656 438.664062 324.808594 C 442.542969 324.875 446.542969 324.792969 450.101562 323.246094 C 453.65625 321.703125 456.691406 318.351562 456.734375 314.476562 C 456.765625 311.429688 455.007812 308.617188 454.78125 305.578125 C 454.109375 296.472656 466.367188 291.628906 468.753906 282.816406 C 470.324219 277.019531 467.230469 271.058594 463.9375 266.039062 C 460.640625 261.023438 456.882812 255.753906 456.964844 249.75 C 457.039062 244.003906 460.648438 238.945312 462.050781 233.371094 C 463.988281 225.660156 461.605469 217.597656 459.242188 210.007812 C 457.234375 203.554688 455.226562 197.101562 453.21875 190.648438 C 451.082031 183.789062 448.949219 176.929688 446.8125 170.070312 C 443.085938 158.097656 439.171875 145.773438 431.105469 136.167969 C 423.039062 126.566406 409.675781 120.269531 397.761719 124.191406 " fill-opacity="1" fill-rule="nonzero"/><path fill="#3f3c57" d="M 440.734375 361.703125 L 436.507812 360.46875 C 445.3125 330.28125 426.324219 273.941406 426.132812 273.375 L 430.300781 271.953125 C 431.105469 274.316406 449.925781 330.191406 440.734375 361.703125 Z M 440.734375 361.703125 " fill-opacity="1" fill-rule="nonzero"/><path fill="#3f3c57" d="M 457.011719 377.988281 C 457.011719 378.59375 456.980469 379.191406 456.921875 379.792969 C 456.863281 380.390625 456.777344 380.984375 456.65625 381.578125 C 456.539062 382.167969 456.394531 382.75 456.21875 383.328125 C 456.042969 383.902344 455.84375 384.46875 455.613281 385.027344 C 455.382812 385.582031 455.125 386.125 454.839844 386.65625 C 454.554688 387.1875 454.246094 387.703125 453.910156 388.207031 C 453.578125 388.707031 453.21875 389.191406 452.835938 389.65625 C 452.453125 390.121094 452.050781 390.566406 451.625 390.992188 C 451.199219 391.417969 450.753906 391.820312 450.289062 392.203125 C 449.820312 392.585938 449.339844 392.945312 448.835938 393.277344 C 448.335938 393.613281 447.820312 393.921875 447.289062 394.207031 C 446.757812 394.492188 446.214844 394.746094 445.65625 394.976562 C 445.101562 395.207031 444.535156 395.410156 443.957031 395.585938 C 443.382812 395.761719 442.800781 395.90625 442.207031 396.023438 C 441.617188 396.140625 441.023438 396.230469 440.421875 396.289062 C 439.824219 396.347656 439.222656 396.378906 438.621094 396.378906 C 438.019531 396.378906 437.417969 396.347656 436.816406 396.289062 C 436.21875 396.230469 435.625 396.140625 435.03125 396.023438 C 434.441406 395.90625 433.859375 395.761719 433.28125 395.585938 C 432.707031 395.410156 432.140625 395.207031 431.582031 394.976562 C 431.027344 394.746094 430.480469 394.492188 429.949219 394.207031 C 429.417969 393.921875 428.902344 393.613281 428.402344 393.277344 C 427.902344 392.945312 427.417969 392.585938 426.953125 392.203125 C 426.488281 391.820312 426.042969 391.417969 425.617188 390.992188 C 425.191406 390.566406 424.785156 390.121094 424.402344 389.65625 C 424.023438 389.191406 423.664062 388.707031 423.328125 388.207031 C 422.992188 387.703125 422.683594 387.1875 422.402344 386.65625 C 422.117188 386.125 421.859375 385.582031 421.628906 385.027344 C 421.398438 384.46875 421.195312 383.902344 421.019531 383.328125 C 420.847656 382.75 420.699219 382.167969 420.582031 381.578125 C 420.464844 380.984375 420.375 380.390625 420.316406 379.792969 C 420.257812 379.191406 420.230469 378.59375 420.230469 377.988281 C 420.230469 377.386719 420.257812 376.785156 420.316406 376.1875 C 420.375 375.585938 420.464844 374.992188 420.582031 374.402344 C 420.699219 373.8125 420.847656 373.226562 421.019531 372.652344 C 421.195312 372.074219 421.398438 371.507812 421.628906 370.953125 C 421.859375 370.394531 422.117188 369.851562 422.402344 369.320312 C 422.683594 368.789062 422.992188 368.273438 423.328125 367.773438 C 423.664062 367.273438 424.023438 366.789062 424.402344 366.324219 C 424.785156 365.859375 425.191406 365.414062 425.617188 364.988281 C 426.042969 364.5625 426.488281 364.15625 426.953125 363.773438 C 427.417969 363.394531 427.902344 363.035156 428.402344 362.699219 C 428.902344 362.367188 429.417969 362.054688 429.949219 361.773438 C 430.480469 361.488281 431.027344 361.230469 431.582031 361 C 432.140625 360.769531 432.707031 360.566406 433.28125 360.394531 C 433.859375 360.21875 434.441406 360.070312 435.03125 359.953125 C 435.625 359.835938 436.21875 359.75 436.816406 359.6875 C 437.417969 359.628906 438.019531 359.601562 438.621094 359.601562 C 439.222656 359.601562 439.824219 359.628906 440.421875 359.6875 C 441.023438 359.75 441.617188 359.835938 442.207031 359.953125 C 442.800781 360.070312 443.382812 360.21875 443.957031 360.394531 C 444.535156 360.566406 445.101562 360.769531 445.65625 361 C 446.214844 361.230469 446.757812 361.488281 447.289062 361.773438 C 447.820312 362.054688 448.335938 362.367188 448.835938 362.699219 C 449.339844 363.035156 449.820312 363.394531 450.289062 363.773438 C 450.753906 364.15625 451.199219 364.5625 451.625 364.988281 C 452.050781 365.414062 452.453125 365.859375 452.835938 366.324219 C 453.21875 366.789062 453.578125 367.273438 453.910156 367.773438 C 454.246094 368.273438 454.554688 368.789062 454.839844 369.320312 C 455.125 369.851562 455.382812 370.394531 455.613281 370.953125 C 455.84375 371.507812 456.042969 372.074219 456.21875 372.652344 C 456.394531 373.226562 456.539062 373.8125 456.65625 374.402344 C 456.777344 374.992188 456.863281 375.585938 456.921875 376.1875 C 456.980469 376.785156 457.011719 377.386719 457.011719 377.988281 Z M 457.011719 377.988281 " fill-opacity="1" fill-rule="nonzero"/><path fill="#3f3c57" d="M 317.777344 443.089844 L 306.625 443.089844 C 305.40625 443.089844 304.421875 442.105469 304.421875 440.890625 C 304.421875 439.675781 305.40625 438.6875 306.625 438.6875 L 317.777344 438.6875 C 320.851562 438.6875 323.738281 437.492188 325.910156 435.316406 C 328.078125 433.140625 329.273438 430.253906 329.265625 427.179688 L 329.132812 358.488281 C 329.132812 343.566406 316.992188 331.429688 302.074219 331.429688 C 287.152344 331.429688 275.011719 343.566406 275.011719 358.484375 L 275.148438 422.78125 C 275.160156 429.050781 280.273438 434.195312 286.546875 434.242188 L 294.203125 434.300781 C 295.417969 434.308594 296.398438 435.300781 296.386719 436.519531 C 296.378906 437.726562 295.394531 438.703125 294.1875 438.703125 L 294.167969 438.703125 L 286.515625 438.644531 C 277.835938 438.578125 270.761719 431.464844 270.746094 422.789062 L 270.609375 358.488281 C 270.609375 341.140625 284.722656 327.027344 302.074219 327.027344 C 319.421875 327.027344 333.535156 341.140625 333.535156 358.484375 L 333.667969 427.171875 C 333.679688 431.421875 332.03125 435.417969 329.027344 438.425781 C 326.023438 441.433594 322.027344 443.089844 317.777344 443.089844 Z M 317.777344 443.089844 " fill-opacity="1" fill-rule="nonzero"/><path fill="#3f3c57" d="M 301.988281 436.5 C 301.988281 437.015625 301.941406 437.519531 301.839844 438.023438 C 301.738281 438.527344 301.589844 439.011719 301.394531 439.488281 C 301.199219 439.960938 300.960938 440.410156 300.675781 440.835938 C 300.390625 441.261719 300.066406 441.65625 299.703125 442.015625 C 299.34375 442.378906 298.949219 442.703125 298.523438 442.988281 C 298.097656 443.273438 297.644531 443.511719 297.171875 443.707031 C 296.699219 443.90625 296.210938 444.050781 295.710938 444.152344 C 295.207031 444.253906 294.699219 444.300781 294.1875 444.300781 C 293.675781 444.300781 293.167969 444.253906 292.664062 444.152344 C 292.164062 444.050781 291.675781 443.90625 291.203125 443.707031 C 290.726562 443.511719 290.277344 443.273438 289.851562 442.988281 C 289.425781 442.703125 289.03125 442.378906 288.671875 442.015625 C 288.308594 441.65625 287.984375 441.261719 287.699219 440.835938 C 287.414062 440.410156 287.175781 439.960938 286.980469 439.488281 C 286.78125 439.011719 286.636719 438.527344 286.535156 438.023438 C 286.433594 437.519531 286.386719 437.015625 286.386719 436.5 C 286.386719 435.988281 286.433594 435.480469 286.535156 434.980469 C 286.636719 434.476562 286.78125 433.988281 286.980469 433.515625 C 287.175781 433.042969 287.414062 432.59375 287.699219 432.167969 C 287.984375 431.742188 288.308594 431.347656 288.671875 430.984375 C 289.03125 430.625 289.425781 430.300781 289.851562 430.015625 C 290.277344 429.730469 290.726562 429.492188 291.203125 429.292969 C 291.675781 429.097656 292.164062 428.949219 292.664062 428.851562 C 293.167969 428.75 293.675781 428.699219 294.1875 428.699219 C 294.699219 428.699219 295.207031 428.75 295.710938 428.851562 C 296.210938 428.949219 296.699219 429.097656 297.171875 429.292969 C 297.644531 429.492188 298.097656 429.730469 298.523438 430.015625 C 298.949219 430.300781 299.34375 430.625 299.703125 430.984375 C 300.066406 431.347656 300.390625 431.742188 300.675781 432.167969 C 300.960938 432.59375 301.199219 433.042969 301.394531 433.515625 C 301.589844 433.988281 301.738281 434.476562 301.839844 434.980469 C 301.941406 435.480469 301.988281 435.988281 301.988281 436.5 Z M 301.988281 436.5 " fill-opacity="1" fill-rule="nonzero"/><path fill="#3f3c57" d="M 314.425781 440.890625 C 314.425781 441.402344 314.375 441.910156 314.277344 442.414062 C 314.175781 442.914062 314.027344 443.402344 313.832031 443.875 C 313.636719 444.347656 313.394531 444.796875 313.109375 445.222656 C 312.824219 445.652344 312.503906 446.042969 312.140625 446.40625 C 311.777344 446.769531 311.382812 447.09375 310.957031 447.375 C 310.53125 447.660156 310.082031 447.902344 309.609375 448.097656 C 309.136719 448.292969 308.648438 448.441406 308.144531 448.542969 C 307.644531 448.640625 307.136719 448.691406 306.625 448.691406 C 306.113281 448.691406 305.605469 448.640625 305.101562 448.542969 C 304.597656 448.441406 304.109375 448.292969 303.636719 448.097656 C 303.164062 447.902344 302.714844 447.660156 302.289062 447.375 C 301.863281 447.09375 301.46875 446.769531 301.105469 446.40625 C 300.746094 446.042969 300.421875 445.652344 300.136719 445.222656 C 299.851562 444.796875 299.613281 444.347656 299.414062 443.875 C 299.21875 443.402344 299.070312 442.914062 298.972656 442.414062 C 298.871094 441.910156 298.820312 441.402344 298.820312 440.890625 C 298.820312 440.378906 298.871094 439.871094 298.972656 439.367188 C 299.070312 438.867188 299.21875 438.378906 299.414062 437.90625 C 299.613281 437.433594 299.851562 436.984375 300.136719 436.554688 C 300.421875 436.128906 300.746094 435.738281 301.105469 435.375 C 301.46875 435.011719 301.863281 434.6875 302.289062 434.402344 C 302.714844 434.121094 303.164062 433.878906 303.636719 433.683594 C 304.109375 433.488281 304.597656 433.339844 305.101562 433.238281 C 305.605469 433.140625 306.113281 433.089844 306.625 433.089844 C 307.136719 433.089844 307.644531 433.140625 308.144531 433.238281 C 308.648438 433.339844 309.136719 433.488281 309.609375 433.683594 C 310.082031 433.878906 310.53125 434.121094 310.957031 434.402344 C 311.382812 434.6875 311.777344 435.011719 312.140625 435.375 C 312.503906 435.738281 312.828125 436.128906 313.109375 436.554688 C 313.394531 436.984375 313.636719 437.433594 313.832031 437.90625 C 314.027344 438.378906 314.175781 438.867188 314.277344 439.367188 C 314.375 439.871094 314.425781 440.378906 314.425781 440.890625 Z M 314.425781 440.890625 " fill-opacity="1" fill-rule="nonzero"/><g clip-path="url(#3a8a01cc49)"><path fill="#ffffff" d="M -197.4375 607.5 L 45.5625 607.5 L 45.5625 850.5 L -197.4375 850.5 Z M -197.4375 607.5 " fill-opacity="1" fill-rule="nonzero"/></g></svg>