<svg xmlns="http://www.w3.org/2000/svg" xmlns:xlink="http://www.w3.org/1999/xlink" width="1080" zoomAndPan="magnify" viewBox="0 0 810 809.999993" height="1080" preserveAspectRatio="xMidYMid meet" version="1.0"><defs><clipPath id="6281e9319c"><path d="M 0 0 L 794.8125 0 L 794.8125 794.8125 L 0 794.8125 Z M 0 0 " clip-rule="nonzero"/></clipPath><clipPath id="64ae34f650"><path d="M 397.40625 0 C 177.925781 0 0 177.925781 0 397.40625 C 0 616.886719 177.925781 794.8125 397.40625 794.8125 C 616.886719 794.8125 794.8125 616.886719 794.8125 397.40625 C 794.8125 177.925781 616.886719 0 397.40625 0 Z M 397.40625 0 " clip-rule="nonzero"/></clipPath><clipPath id="a77d9ab6a8"><path d="M 627.75 397.40625 L 698.625 397.40625 L 698.625 483.46875 L 627.75 483.46875 Z M 627.75 397.40625 " clip-rule="nonzero"/></clipPath><clipPath id="71a6667044"><path d="M 510.484375 118.867188 L 581.359375 118.867188 L 581.359375 204.929688 L 510.484375 204.929688 Z M 510.484375 118.867188 " clip-rule="nonzero"/></clipPath><clipPath id="238b6669cb"><path d="M 81 354.375 L 151.875 354.375 L 151.875 440.4375 L 81 440.4375 Z M 81 354.375 " clip-rule="nonzero"/></clipPath><clipPath id="05456aa9c1"><path d="M 9 405 L 117 405 L 117 517 L 9 517 Z M 9 405 " clip-rule="nonzero"/></clipPath><clipPath id="bd097f8f99"><path d="M 9.964844 441.476562 L 73.675781 405 L 116.4375 479.683594 L 52.726562 516.164062 Z M 9.964844 441.476562 " clip-rule="nonzero"/></clipPath><clipPath id="1146c99a3e"><path d="M 360 127.039062 L 502 127.039062 L 502 280 L 360 280 Z M 360 127.039062 " clip-rule="nonzero"/></clipPath></defs><g clip-path="url(#6281e9319c)"><g clip-path="url(#64ae34f650)"><path fill="#87aece" d="M 0 0 L 794.8125 0 L 794.8125 794.8125 L 0 794.8125 Z M 0 0 " fill-opacity="1" fill-rule="nonzero"/></g></g><g clip-path="url(#a77d9ab6a8)"><path fill="#87aece" d="M 627.75 397.40625 L 698.625 397.40625 L 698.625 483.507812 L 627.75 483.507812 Z M 627.75 397.40625 " fill-opacity="1" fill-rule="nonzero"/></g><g clip-path="url(#71a6667044)"><path fill="#87aece" d="M 510.484375 118.867188 L 581.359375 118.867188 L 581.359375 204.96875 L 510.484375 204.96875 Z M 510.484375 118.867188 " fill-opacity="1" fill-rule="nonzero"/></g><g clip-path="url(#238b6669cb)"><path fill="#87aece" d="M 81 354.375 L 151.875 354.375 L 151.875 440.476562 L 81 440.476562 Z M 81 354.375 " fill-opacity="1" fill-rule="nonzero"/></g><g clip-path="url(#05456aa9c1)"><g clip-path="url(#bd097f8f99)"><path fill="#87aece" d="M 9.964844 441.476562 L 73.675781 405 L 116.421875 479.65625 L 52.710938 516.132812 Z M 9.964844 441.476562 " fill-opacity="1" fill-rule="nonzero"/></g></g><path fill="#fdb4b4" d="M 453.773438 254.964844 L 468.894531 323.964844 L 436.734375 420.003906 L 384.917969 316.816406 L 392.109375 256.953125 Z M 453.773438 254.964844 " fill-opacity="1" fill-rule="nonzero"/><path fill="#9dde89" d="M 382.242188 320.390625 L 471.703125 320.390625 L 471.703125 428.492188 L 382.242188 428.492188 Z M 382.242188 320.390625 " fill-opacity="1" fill-rule="nonzero"/><path fill="#fdb4b4" d="M 496.011719 228.621094 C 496.011719 230.621094 495.914062 232.617188 495.714844 234.609375 C 495.519531 236.601562 495.226562 238.578125 494.835938 240.539062 C 494.445312 242.503906 493.960938 244.441406 493.378906 246.355469 C 492.800781 248.273438 492.125 250.152344 491.359375 252.003906 C 490.59375 253.851562 489.738281 255.660156 488.796875 257.421875 C 487.851562 259.1875 486.824219 260.902344 485.714844 262.566406 C 484.601562 264.230469 483.410156 265.835938 482.144531 267.382812 C 480.875 268.929688 479.53125 270.410156 478.117188 271.824219 C 476.703125 273.238281 475.21875 274.582031 473.671875 275.851562 C 472.125 277.121094 470.523438 278.3125 468.859375 279.421875 C 467.195312 280.535156 465.480469 281.5625 463.714844 282.507812 C 461.949219 283.449219 460.144531 284.304688 458.296875 285.070312 C 456.445312 285.835938 454.566406 286.507812 452.648438 287.089844 C 450.734375 287.671875 448.796875 288.15625 446.832031 288.546875 C 444.871094 288.9375 442.894531 289.230469 440.902344 289.425781 C 438.910156 289.621094 436.914062 289.722656 434.914062 289.722656 C 432.914062 289.722656 430.917969 289.621094 428.925781 289.425781 C 426.933594 289.230469 424.957031 288.9375 422.996094 288.546875 C 421.03125 288.15625 419.09375 287.671875 417.179688 287.089844 C 415.265625 286.507812 413.382812 285.835938 411.535156 285.070312 C 409.683594 284.304688 407.878906 283.449219 406.113281 282.507812 C 404.347656 281.5625 402.636719 280.535156 400.972656 279.421875 C 399.308594 278.3125 397.703125 277.121094 396.15625 275.851562 C 394.609375 274.582031 393.128906 273.238281 391.710938 271.824219 C 390.296875 270.410156 388.957031 268.929688 387.6875 267.382812 C 386.417969 265.835938 385.226562 264.230469 384.113281 262.566406 C 383.003906 260.902344 381.976562 259.1875 381.03125 257.421875 C 380.089844 255.660156 379.234375 253.851562 378.46875 252.003906 C 377.703125 250.152344 377.03125 248.273438 376.449219 246.355469 C 375.867188 244.441406 375.382812 242.503906 374.992188 240.539062 C 374.601562 238.578125 374.308594 236.601562 374.113281 234.609375 C 373.917969 232.617188 373.816406 230.621094 373.816406 228.621094 C 373.816406 226.621094 373.917969 224.625 374.113281 222.632812 C 374.308594 220.640625 374.601562 218.664062 374.992188 216.699219 C 375.382812 214.738281 375.867188 212.800781 376.449219 210.882812 C 377.03125 208.96875 377.703125 207.085938 378.46875 205.238281 C 379.234375 203.390625 380.089844 201.582031 381.03125 199.820312 C 381.976562 198.054688 383.003906 196.339844 384.113281 194.675781 C 385.226562 193.011719 386.417969 191.40625 387.6875 189.859375 C 388.957031 188.3125 390.296875 186.832031 391.710938 185.417969 C 393.128906 184 394.609375 182.660156 396.15625 181.390625 C 397.703125 180.121094 399.308594 178.929688 400.972656 177.816406 C 402.636719 176.707031 404.347656 175.679688 406.113281 174.734375 C 407.878906 173.792969 409.683594 172.9375 411.535156 172.171875 C 413.382812 171.40625 415.265625 170.734375 417.179688 170.152344 C 419.09375 169.570312 421.03125 169.085938 422.996094 168.695312 C 424.957031 168.304688 426.933594 168.011719 428.925781 167.816406 C 430.917969 167.621094 432.914062 167.519531 434.914062 167.519531 C 436.914062 167.519531 438.910156 167.621094 440.902344 167.816406 C 442.894531 168.011719 444.871094 168.304688 446.832031 168.695312 C 448.796875 169.085938 450.734375 169.570312 452.648438 170.152344 C 454.566406 170.734375 456.445312 171.40625 458.296875 172.171875 C 460.144531 172.9375 461.949219 173.792969 463.714844 174.734375 C 465.480469 175.679688 467.195312 176.707031 468.859375 177.816406 C 470.523438 178.929688 472.125 180.121094 473.671875 181.390625 C 475.21875 182.660156 476.703125 184 478.117188 185.417969 C 479.53125 186.832031 480.875 188.3125 482.144531 189.859375 C 483.410156 191.40625 484.601562 193.011719 485.714844 194.675781 C 486.824219 196.339844 487.851562 198.054688 488.796875 199.820312 C 489.738281 201.582031 490.59375 203.390625 491.359375 205.238281 C 492.125 207.085938 492.800781 208.96875 493.378906 210.882812 C 493.960938 212.800781 494.445312 214.738281 494.835938 216.699219 C 495.226562 218.664062 495.519531 220.640625 495.714844 222.632812 C 495.914062 224.625 496.011719 226.621094 496.011719 228.621094 Z M 496.011719 228.621094 " fill-opacity="1" fill-rule="nonzero"/><g clip-path="url(#1146c99a3e)"><path fill="#2e2e41" d="M 381.730469 274.054688 C 381.730469 274.054688 336.191406 189.941406 377.25 149.464844 C 418.3125 108.988281 451.273438 135.660156 451.273438 135.660156 L 470.097656 134.898438 C 470.097656 134.898438 474.023438 149.714844 480.351562 141.695312 C 486.683594 133.675781 498.121094 162.878906 498.121094 162.878906 C 519.351562 201.117188 445.753906 209.683594 445.753906 209.683594 C 445.753906 209.683594 451.070312 226.613281 445.667969 230.160156 C 440.265625 233.703125 425.832031 247.042969 425.832031 247.042969 L 412.914062 256.800781 L 405.238281 245.101562 C 405.238281 245.101562 397.21875 238.769531 393.167969 241.429688 C 389.117188 244.089844 394.6875 279.078125 394.6875 279.078125 Z M 381.730469 274.054688 " fill-opacity="1" fill-rule="nonzero"/></g><path fill="#e8e9ea" d="M 294.371094 972.472656 L 324.941406 592.953125 L 278.0625 395.328125 C 274.019531 365.953125 292.527344 338.15625 321.09375 330.578125 L 366.96875 318.40625 L 387.269531 298.101562 L 433.453125 400.089844 L 462.296875 298.175781 L 484.789062 314.539062 L 551.503906 343.972656 L 551.472656 344.664062 L 540.773438 583.390625 L 564.660156 969.09375 L 563.601562 969.109375 Z M 294.371094 972.472656 " fill-opacity="1" fill-rule="nonzero"/><path fill="#fdb4b4" d="M 261.085938 770.914062 C 260.378906 761.128906 262.03125 751.3125 265.894531 742.292969 L 253.488281 640.488281 L 302.097656 636 L 309.449219 739.753906 C 314.335938 748.261719 317.113281 757.8125 317.550781 767.613281 C 318.980469 792.125 307.5 812.726562 291.90625 813.636719 C 276.308594 814.546875 262.511719 795.421875 261.085938 770.914062 Z M 261.085938 770.914062 " fill-opacity="1" fill-rule="nonzero"/><path fill="#fdb4b4" d="M 568.980469 785.859375 C 568.378906 776.0625 570.136719 766.269531 574.101562 757.292969 L 562.800781 655.359375 L 611.460938 651.398438 L 617.679688 755.226562 C 622.472656 763.785156 625.144531 773.367188 625.476562 783.171875 C 626.636719 807.699219 614.933594 828.175781 599.328125 828.914062 C 583.726562 829.65625 570.136719 810.378906 568.980469 785.859375 Z M 568.980469 785.859375 " fill-opacity="1" fill-rule="nonzero"/><path fill="#e8e9ea" d="M 253.285156 730.085938 L 253.121094 729.210938 L 227.789062 593.269531 L 257.722656 371.902344 C 260.394531 352.140625 278.039062 337.902344 297.941406 339.492188 C 308.332031 340.324219 317.65625 345.253906 324.195312 353.375 C 330.734375 361.496094 333.566406 371.65625 332.164062 381.988281 L 309.632812 548.007812 L 323.816406 725.585938 C 323.816406 725.585938 253.285156 730.085938 253.285156 730.085938 Z M 253.285156 730.085938 " fill-opacity="1" fill-rule="nonzero"/><path fill="#e8e9ea" d="M 553.964844 726.898438 L 503.027344 386.875 C 500.382812 376.902344 501.929688 366.46875 507.414062 357.601562 C 512.898438 348.738281 521.542969 342.691406 531.75 340.578125 C 551.285156 336.539062 570.570312 348.480469 575.667969 367.757812 L 624.601562 722.628906 Z M 553.964844 726.898438 " fill-opacity="1" fill-rule="nonzero"/><path fill="#d6d7d8" d="M 441.199219 424.917969 C 441.199219 425.328125 441.160156 425.734375 441.078125 426.140625 C 441 426.542969 440.878906 426.933594 440.722656 427.3125 C 440.566406 427.691406 440.375 428.050781 440.144531 428.394531 C 439.917969 428.734375 439.660156 429.050781 439.367188 429.339844 C 439.078125 429.632812 438.761719 429.890625 438.421875 430.117188 C 438.078125 430.347656 437.71875 430.539062 437.339844 430.695312 C 436.960938 430.851562 436.570312 430.972656 436.167969 431.050781 C 435.765625 431.132812 435.355469 431.171875 434.945312 431.171875 C 434.535156 431.171875 434.128906 431.132812 433.726562 431.050781 C 433.324219 430.972656 432.933594 430.851562 432.554688 430.695312 C 432.175781 430.539062 431.8125 430.347656 431.472656 430.117188 C 431.132812 429.890625 430.816406 429.632812 430.523438 429.339844 C 430.234375 429.050781 429.976562 428.734375 429.746094 428.394531 C 429.519531 428.050781 429.328125 427.691406 429.167969 427.3125 C 429.011719 426.933594 428.894531 426.542969 428.8125 426.140625 C 428.734375 425.734375 428.695312 425.328125 428.695312 424.917969 C 428.695312 424.507812 428.734375 424.101562 428.8125 423.699219 C 428.894531 423.296875 429.011719 422.90625 429.167969 422.527344 C 429.328125 422.148438 429.519531 421.785156 429.746094 421.445312 C 429.976562 421.101562 430.234375 420.789062 430.523438 420.496094 C 430.816406 420.207031 431.132812 419.949219 431.472656 419.71875 C 431.8125 419.492188 432.175781 419.300781 432.554688 419.140625 C 432.933594 418.984375 433.324219 418.867188 433.726562 418.785156 C 434.128906 418.707031 434.535156 418.664062 434.945312 418.664062 C 435.355469 418.664062 435.765625 418.707031 436.167969 418.785156 C 436.570312 418.867188 436.960938 418.984375 437.339844 419.140625 C 437.71875 419.300781 438.078125 419.492188 438.421875 419.71875 C 438.761719 419.949219 439.078125 420.207031 439.367188 420.496094 C 439.660156 420.789062 439.917969 421.101562 440.144531 421.445312 C 440.375 421.785156 440.566406 422.148438 440.722656 422.527344 C 440.878906 422.90625 441 423.296875 441.078125 423.699219 C 441.160156 424.101562 441.199219 424.507812 441.199219 424.917969 Z M 441.199219 424.917969 " fill-opacity="1" fill-rule="nonzero"/><path fill="#d6d7d8" d="M 441.199219 472.269531 C 441.199219 472.679688 441.160156 473.085938 441.078125 473.488281 C 441 473.890625 440.878906 474.28125 440.722656 474.660156 C 440.566406 475.039062 440.375 475.402344 440.144531 475.742188 C 439.917969 476.082031 439.660156 476.398438 439.367188 476.691406 C 439.078125 476.980469 438.761719 477.238281 438.421875 477.46875 C 438.078125 477.695312 437.71875 477.886719 437.339844 478.046875 C 436.960938 478.203125 436.570312 478.320312 436.167969 478.402344 C 435.765625 478.480469 435.355469 478.519531 434.945312 478.519531 C 434.535156 478.519531 434.128906 478.480469 433.726562 478.402344 C 433.324219 478.320312 432.933594 478.203125 432.554688 478.046875 C 432.175781 477.886719 431.8125 477.695312 431.472656 477.46875 C 431.132812 477.238281 430.816406 476.980469 430.523438 476.691406 C 430.234375 476.398438 429.976562 476.082031 429.746094 475.742188 C 429.519531 475.402344 429.328125 475.039062 429.167969 474.660156 C 429.011719 474.28125 428.894531 473.890625 428.8125 473.488281 C 428.734375 473.085938 428.695312 472.679688 428.695312 472.269531 C 428.695312 471.859375 428.734375 471.449219 428.8125 471.046875 C 428.894531 470.644531 429.011719 470.253906 429.167969 469.875 C 429.328125 469.496094 429.519531 469.136719 429.746094 468.792969 C 429.976562 468.453125 430.234375 468.136719 430.523438 467.847656 C 430.816406 467.554688 431.132812 467.296875 431.472656 467.070312 C 431.8125 466.839844 432.175781 466.648438 432.554688 466.492188 C 432.933594 466.335938 433.324219 466.214844 433.726562 466.136719 C 434.128906 466.054688 434.535156 466.015625 434.945312 466.015625 C 435.355469 466.015625 435.765625 466.054688 436.167969 466.136719 C 436.570312 466.214844 436.960938 466.335938 437.339844 466.492188 C 437.71875 466.648438 438.078125 466.839844 438.421875 467.070312 C 438.761719 467.296875 439.078125 467.554688 439.367188 467.847656 C 439.660156 468.136719 439.917969 468.453125 440.144531 468.792969 C 440.375 469.136719 440.566406 469.496094 440.722656 469.875 C 440.878906 470.253906 441 470.644531 441.078125 471.046875 C 441.160156 471.449219 441.199219 471.859375 441.199219 472.269531 Z M 441.199219 472.269531 " fill-opacity="1" fill-rule="nonzero"/><path fill="#d6d7d8" d="M 441.199219 519.617188 C 441.199219 520.027344 441.160156 520.433594 441.078125 520.835938 C 441 521.242188 440.878906 521.632812 440.722656 522.011719 C 440.566406 522.390625 440.375 522.75 440.144531 523.089844 C 439.917969 523.433594 439.660156 523.75 439.367188 524.039062 C 439.078125 524.328125 438.761719 524.589844 438.421875 524.816406 C 438.078125 525.046875 437.71875 525.238281 437.339844 525.394531 C 436.960938 525.550781 436.570312 525.671875 436.167969 525.75 C 435.765625 525.832031 435.355469 525.871094 434.945312 525.871094 C 434.535156 525.871094 434.128906 525.832031 433.726562 525.75 C 433.324219 525.671875 432.933594 525.550781 432.554688 525.394531 C 432.175781 525.238281 431.8125 525.046875 431.472656 524.816406 C 431.132812 524.589844 430.816406 524.328125 430.523438 524.039062 C 430.234375 523.75 429.976562 523.433594 429.746094 523.089844 C 429.519531 522.75 429.328125 522.390625 429.167969 522.011719 C 429.011719 521.632812 428.894531 521.242188 428.8125 520.835938 C 428.734375 520.433594 428.695312 520.027344 428.695312 519.617188 C 428.695312 519.207031 428.734375 518.800781 428.8125 518.398438 C 428.894531 517.996094 429.011719 517.605469 429.167969 517.226562 C 429.328125 516.84375 429.519531 516.484375 429.746094 516.144531 C 429.976562 515.800781 430.234375 515.488281 430.523438 515.195312 C 430.816406 514.90625 431.132812 514.648438 431.472656 514.417969 C 431.8125 514.191406 432.175781 513.996094 432.554688 513.839844 C 432.933594 513.683594 433.324219 513.566406 433.726562 513.484375 C 434.128906 513.40625 434.535156 513.363281 434.945312 513.363281 C 435.355469 513.363281 435.765625 513.40625 436.167969 513.484375 C 436.570312 513.566406 436.960938 513.683594 437.339844 513.839844 C 437.71875 513.996094 438.078125 514.191406 438.421875 514.417969 C 438.761719 514.648438 439.078125 514.90625 439.367188 515.195312 C 439.660156 515.488281 439.917969 515.800781 440.144531 516.144531 C 440.375 516.484375 440.566406 516.84375 440.722656 517.226562 C 440.878906 517.605469 441 517.996094 441.078125 518.398438 C 441.160156 518.800781 441.199219 519.207031 441.199219 519.617188 Z M 441.199219 519.617188 " fill-opacity="1" fill-rule="nonzero"/><path fill="#d6d7d8" d="M 441.199219 566.96875 C 441.199219 567.378906 441.160156 567.785156 441.078125 568.1875 C 441 568.589844 440.878906 568.980469 440.722656 569.359375 C 440.566406 569.738281 440.375 570.101562 440.144531 570.441406 C 439.917969 570.78125 439.660156 571.097656 439.367188 571.386719 C 439.078125 571.679688 438.761719 571.9375 438.421875 572.167969 C 438.078125 572.394531 437.71875 572.585938 437.339844 572.746094 C 436.960938 572.902344 436.570312 573.019531 436.167969 573.101562 C 435.765625 573.179688 435.355469 573.21875 434.945312 573.21875 C 434.535156 573.21875 434.128906 573.179688 433.726562 573.101562 C 433.324219 573.019531 432.933594 572.902344 432.554688 572.746094 C 432.175781 572.585938 431.8125 572.394531 431.472656 572.167969 C 431.132812 571.9375 430.816406 571.679688 430.523438 571.386719 C 430.234375 571.097656 429.976562 570.78125 429.746094 570.441406 C 429.519531 570.101562 429.328125 569.738281 429.167969 569.359375 C 429.011719 568.980469 428.894531 568.589844 428.8125 568.1875 C 428.734375 567.785156 428.695312 567.378906 428.695312 566.96875 C 428.695312 566.554688 428.734375 566.148438 428.8125 565.746094 C 428.894531 565.34375 429.011719 564.953125 429.167969 564.574219 C 429.328125 564.195312 429.519531 563.835938 429.746094 563.492188 C 429.976562 563.152344 430.234375 562.835938 430.523438 562.546875 C 430.816406 562.253906 431.132812 561.996094 431.472656 561.769531 C 431.8125 561.539062 432.175781 561.347656 432.554688 561.191406 C 432.933594 561.03125 433.324219 560.914062 433.726562 560.835938 C 434.128906 560.753906 434.535156 560.714844 434.945312 560.714844 C 435.355469 560.714844 435.765625 560.753906 436.167969 560.835938 C 436.570312 560.914062 436.960938 561.03125 437.339844 561.191406 C 437.71875 561.347656 438.078125 561.539062 438.421875 561.769531 C 438.761719 561.996094 439.078125 562.253906 439.367188 562.546875 C 439.660156 562.835938 439.917969 563.152344 440.144531 563.492188 C 440.375 563.835938 440.566406 564.195312 440.722656 564.574219 C 440.878906 564.953125 441 565.34375 441.078125 565.746094 C 441.160156 566.148438 441.199219 566.554688 441.199219 566.96875 Z M 441.199219 566.96875 " fill-opacity="1" fill-rule="nonzero"/><path fill="#d6d7d8" d="M 441.199219 614.320312 C 441.199219 614.730469 441.160156 615.136719 441.078125 615.539062 C 441 615.941406 440.878906 616.332031 440.722656 616.710938 C 440.566406 617.089844 440.375 617.449219 440.144531 617.792969 C 439.917969 618.132812 439.660156 618.449219 439.367188 618.738281 C 439.078125 619.03125 438.761719 619.289062 438.421875 619.519531 C 438.078125 619.746094 437.71875 619.9375 437.339844 620.09375 C 436.960938 620.253906 436.570312 620.371094 436.167969 620.453125 C 435.765625 620.53125 435.355469 620.570312 434.945312 620.570312 C 434.535156 620.570312 434.128906 620.53125 433.726562 620.453125 C 433.324219 620.371094 432.933594 620.253906 432.554688 620.09375 C 432.175781 619.9375 431.8125 619.746094 431.472656 619.519531 C 431.132812 619.289062 430.816406 619.03125 430.523438 618.738281 C 430.234375 618.449219 429.976562 618.132812 429.746094 617.792969 C 429.519531 617.449219 429.328125 617.089844 429.167969 616.710938 C 429.011719 616.332031 428.894531 615.941406 428.8125 615.539062 C 428.734375 615.136719 428.695312 614.730469 428.695312 614.320312 C 428.695312 613.90625 428.734375 613.5 428.8125 613.097656 C 428.894531 612.695312 429.011719 612.304688 429.167969 611.925781 C 429.328125 611.546875 429.519531 611.1875 429.746094 610.84375 C 429.976562 610.503906 430.234375 610.1875 430.523438 609.898438 C 430.816406 609.605469 431.132812 609.347656 431.472656 609.117188 C 431.8125 608.890625 432.175781 608.699219 432.554688 608.542969 C 432.933594 608.382812 433.324219 608.265625 433.726562 608.183594 C 434.128906 608.105469 434.535156 608.066406 434.945312 608.066406 C 435.355469 608.066406 435.765625 608.105469 436.167969 608.183594 C 436.570312 608.265625 436.960938 608.382812 437.339844 608.542969 C 437.71875 608.699219 438.078125 608.890625 438.421875 609.117188 C 438.761719 609.347656 439.078125 609.605469 439.367188 609.898438 C 439.660156 610.1875 439.917969 610.503906 440.144531 610.84375 C 440.375 611.1875 440.566406 611.546875 440.722656 611.925781 C 440.878906 612.304688 441 612.695312 441.078125 613.097656 C 441.160156 613.5 441.199219 613.90625 441.199219 614.320312 Z M 441.199219 614.320312 " fill-opacity="1" fill-rule="nonzero"/><path fill="#d6d7d8" d="M 441.199219 661.667969 C 441.199219 662.078125 441.160156 662.484375 441.078125 662.886719 C 441 663.289062 440.878906 663.679688 440.722656 664.0625 C 440.566406 664.441406 440.375 664.800781 440.144531 665.140625 C 439.917969 665.484375 439.660156 665.800781 439.367188 666.089844 C 439.078125 666.378906 438.761719 666.640625 438.421875 666.867188 C 438.078125 667.09375 437.71875 667.289062 437.339844 667.445312 C 436.960938 667.601562 436.570312 667.71875 436.167969 667.800781 C 435.765625 667.878906 435.355469 667.921875 434.945312 667.921875 C 434.535156 667.921875 434.128906 667.878906 433.726562 667.800781 C 433.324219 667.71875 432.933594 667.601562 432.554688 667.445312 C 432.175781 667.289062 431.8125 667.09375 431.472656 666.867188 C 431.132812 666.640625 430.816406 666.378906 430.523438 666.089844 C 430.234375 665.800781 429.976562 665.484375 429.746094 665.140625 C 429.519531 664.800781 429.328125 664.441406 429.167969 664.0625 C 429.011719 663.679688 428.894531 663.289062 428.8125 662.886719 C 428.734375 662.484375 428.695312 662.078125 428.695312 661.667969 C 428.695312 661.257812 428.734375 660.851562 428.8125 660.449219 C 428.894531 660.046875 429.011719 659.652344 429.167969 659.273438 C 429.328125 658.894531 429.519531 658.535156 429.746094 658.195312 C 429.976562 657.851562 430.234375 657.535156 430.523438 657.246094 C 430.816406 656.957031 431.132812 656.695312 431.472656 656.46875 C 431.8125 656.242188 432.175781 656.046875 432.554688 655.890625 C 432.933594 655.734375 433.324219 655.613281 433.726562 655.535156 C 434.128906 655.453125 434.535156 655.414062 434.945312 655.414062 C 435.355469 655.414062 435.765625 655.453125 436.167969 655.535156 C 436.570312 655.613281 436.960938 655.734375 437.339844 655.890625 C 437.71875 656.046875 438.078125 656.242188 438.421875 656.46875 C 438.761719 656.695312 439.078125 656.957031 439.367188 657.246094 C 439.660156 657.535156 439.917969 657.851562 440.144531 658.195312 C 440.375 658.535156 440.566406 658.894531 440.722656 659.273438 C 440.878906 659.652344 441 660.046875 441.078125 660.449219 C 441.160156 660.851562 441.199219 661.257812 441.199219 661.667969 Z M 441.199219 661.667969 " fill-opacity="1" fill-rule="nonzero"/><path fill="#d6d7d8" d="M 441.199219 709.015625 C 441.199219 709.429688 441.160156 709.835938 441.078125 710.238281 C 441 710.640625 440.878906 711.03125 440.722656 711.410156 C 440.566406 711.789062 440.375 712.148438 440.144531 712.492188 C 439.917969 712.832031 439.660156 713.148438 439.367188 713.4375 C 439.078125 713.730469 438.761719 713.988281 438.421875 714.214844 C 438.078125 714.445312 437.71875 714.636719 437.339844 714.792969 C 436.960938 714.953125 436.570312 715.070312 436.167969 715.148438 C 435.765625 715.230469 435.355469 715.269531 434.945312 715.269531 C 434.535156 715.269531 434.128906 715.230469 433.726562 715.148438 C 433.324219 715.070312 432.933594 714.953125 432.554688 714.792969 C 432.175781 714.636719 431.8125 714.445312 431.472656 714.214844 C 431.132812 713.988281 430.816406 713.730469 430.523438 713.4375 C 430.234375 713.148438 429.976562 712.832031 429.746094 712.492188 C 429.519531 712.148438 429.328125 711.789062 429.167969 711.410156 C 429.011719 711.03125 428.894531 710.640625 428.8125 710.238281 C 428.734375 709.835938 428.695312 709.429688 428.695312 709.015625 C 428.695312 708.605469 428.734375 708.199219 428.8125 707.796875 C 428.894531 707.394531 429.011719 707.003906 429.167969 706.625 C 429.328125 706.246094 429.519531 705.882812 429.746094 705.542969 C 429.976562 705.203125 430.234375 704.886719 430.523438 704.59375 C 430.816406 704.304688 431.132812 704.046875 431.472656 703.816406 C 431.8125 703.589844 432.175781 703.398438 432.554688 703.238281 C 432.933594 703.082031 433.324219 702.964844 433.726562 702.882812 C 434.128906 702.804688 434.535156 702.765625 434.945312 702.765625 C 435.355469 702.765625 435.765625 702.804688 436.167969 702.882812 C 436.570312 702.964844 436.960938 703.082031 437.339844 703.238281 C 437.71875 703.398438 438.078125 703.589844 438.421875 703.816406 C 438.761719 704.046875 439.078125 704.304688 439.367188 704.59375 C 439.660156 704.886719 439.917969 705.203125 440.144531 705.542969 C 440.375 705.882812 440.566406 706.246094 440.722656 706.625 C 440.878906 707.003906 441 707.394531 441.078125 707.796875 C 441.160156 708.199219 441.199219 708.605469 441.199219 709.015625 Z M 441.199219 709.015625 " fill-opacity="1" fill-rule="nonzero"/><path fill="#d6d7d8" d="M 441.199219 756.367188 C 441.199219 756.777344 441.160156 757.183594 441.078125 757.585938 C 441 757.988281 440.878906 758.378906 440.722656 758.757812 C 440.566406 759.140625 440.375 759.5 440.144531 759.839844 C 439.917969 760.183594 439.660156 760.496094 439.367188 760.789062 C 439.078125 761.078125 438.761719 761.335938 438.421875 761.566406 C 438.078125 761.792969 437.71875 761.988281 437.339844 762.144531 C 436.960938 762.300781 436.570312 762.417969 436.167969 762.5 C 435.765625 762.578125 435.355469 762.621094 434.945312 762.621094 C 434.535156 762.621094 434.128906 762.578125 433.726562 762.5 C 433.324219 762.417969 432.933594 762.300781 432.554688 762.144531 C 432.175781 761.988281 431.8125 761.792969 431.472656 761.566406 C 431.132812 761.335938 430.816406 761.078125 430.523438 760.789062 C 430.234375 760.496094 429.976562 760.183594 429.746094 759.839844 C 429.519531 759.5 429.328125 759.140625 429.167969 758.757812 C 429.011719 758.378906 428.894531 757.988281 428.8125 757.585938 C 428.734375 757.183594 428.695312 756.777344 428.695312 756.367188 C 428.695312 755.957031 428.734375 755.550781 428.8125 755.148438 C 428.894531 754.742188 429.011719 754.351562 429.167969 753.972656 C 429.328125 753.59375 429.519531 753.234375 429.746094 752.890625 C 429.976562 752.550781 430.234375 752.234375 430.523438 751.945312 C 430.816406 751.65625 431.132812 751.394531 431.472656 751.167969 C 431.8125 750.9375 432.175781 750.746094 432.554688 750.589844 C 432.933594 750.433594 433.324219 750.3125 433.726562 750.234375 C 434.128906 750.152344 434.535156 750.113281 434.945312 750.113281 C 435.355469 750.113281 435.765625 750.152344 436.167969 750.234375 C 436.570312 750.3125 436.960938 750.433594 437.339844 750.589844 C 437.71875 750.746094 438.078125 750.9375 438.421875 751.167969 C 438.761719 751.394531 439.078125 751.65625 439.367188 751.945312 C 439.660156 752.234375 439.917969 752.550781 440.144531 752.890625 C 440.375 753.234375 440.566406 753.59375 440.722656 753.972656 C 440.878906 754.351562 441 754.742188 441.078125 755.148438 C 441.160156 755.550781 441.199219 755.957031 441.199219 756.367188 Z M 441.199219 756.367188 " fill-opacity="1" fill-rule="nonzero"/><path fill="#9dde89" d="M 434.953125 799.25 L 316.632812 783.480469 L 314.355469 783.175781 L 253.882812 643.738281 L 217.871094 560.71875 L 311.671875 560.71875 Z M 434.953125 799.25 " fill-opacity="1" fill-rule="nonzero"/><path fill="#e8e9ea" d="M 1140.101562 981.847656 L 1138.78125 981.84375 L 785.515625 980.6875 L 785.832031 979.4375 L 876.65625 619.570312 L 853.902344 437.957031 C 849.59375 403.546875 868.015625 371.015625 899.742188 357.019531 L 911.199219 351.964844 L 932.957031 336.140625 L 960.796875 434.511719 L 1005.375 336.0625 L 1025.011719 355.699219 L 1069.300781 367.449219 C 1096.90625 374.773438 1114.789062 401.632812 1110.898438 429.929688 L 1110.851562 430.125 L 1043.21875 623.121094 Z M 1140.101562 981.847656 " fill-opacity="1" fill-rule="nonzero"/><path fill="#fdb4b4" d="M 861.847656 780.265625 C 859.96875 803.894531 846.253906 822.078125 831.214844 820.878906 C 816.179688 819.679688 805.519531 799.554688 807.402344 775.914062 C 808.027344 766.464844 810.902344 757.296875 815.792969 749.183594 L 825.027344 649.167969 L 871.867188 654.5 L 857.792969 752.535156 C 861.339844 761.320312 862.730469 770.828125 861.847656 780.265625 Z M 861.847656 780.265625 " fill-opacity="1" fill-rule="nonzero"/><path fill="#e8e9ea" d="M 873.199219 743.339844 L 804.914062 739.214844 L 805.0625 738.136719 L 852.152344 396.601562 C 857.105469 377.84375 875.753906 366.304688 894.628906 370.207031 C 904.496094 372.25 912.851562 378.09375 918.152344 386.664062 C 923.453125 395.234375 924.949219 405.320312 922.367188 415.0625 Z M 873.199219 743.339844 " fill-opacity="1" fill-rule="nonzero"/><path fill="#3f3c57" d="M 492.277344 393.171875 L 488.40625 392.042969 C 496.472656 364.386719 479.277344 311.972656 479.101562 311.457031 L 483.9375 315.105469 C 484.679688 317.269531 500.695312 364.300781 492.277344 393.171875 Z M 492.277344 393.171875 " fill-opacity="1" fill-rule="nonzero"/><path fill="#3f3c57" d="M 356.191406 398.085938 L 360.0625 396.957031 C 351.996094 369.300781 369.386719 317.6875 369.5625 317.167969 L 365.421875 319.945312 C 364.683594 322.109375 347.773438 369.214844 356.191406 398.085938 Z M 356.191406 398.085938 " fill-opacity="1" fill-rule="nonzero"/><path fill="#3f3c57" d="M 507.1875 408.089844 C 507.1875 408.644531 507.160156 409.195312 507.105469 409.742188 C 507.050781 410.292969 506.96875 410.835938 506.863281 411.378906 C 506.753906 411.917969 506.621094 412.453125 506.460938 412.980469 C 506.300781 413.507812 506.113281 414.027344 505.902344 414.539062 C 505.691406 415.046875 505.457031 415.546875 505.195312 416.03125 C 504.9375 416.519531 504.652344 416.992188 504.347656 417.449219 C 504.039062 417.910156 503.710938 418.351562 503.363281 418.777344 C 503.011719 419.203125 502.640625 419.613281 502.25 420.003906 C 501.863281 420.394531 501.453125 420.761719 501.027344 421.113281 C 500.601562 421.464844 500.15625 421.792969 499.699219 422.097656 C 499.242188 422.40625 498.769531 422.6875 498.28125 422.949219 C 497.792969 423.207031 497.296875 423.445312 496.785156 423.65625 C 496.277344 423.867188 495.757812 424.050781 495.230469 424.210938 C 494.703125 424.371094 494.167969 424.503906 493.628906 424.613281 C 493.085938 424.722656 492.539062 424.800781 491.992188 424.855469 C 491.441406 424.910156 490.890625 424.9375 490.339844 424.9375 C 489.789062 424.9375 489.238281 424.910156 488.691406 424.855469 C 488.140625 424.800781 487.59375 424.722656 487.054688 424.613281 C 486.511719 424.503906 485.980469 424.371094 485.449219 424.210938 C 484.921875 424.050781 484.402344 423.867188 483.894531 423.65625 C 483.386719 423.445312 482.886719 423.207031 482.398438 422.949219 C 481.914062 422.6875 481.441406 422.40625 480.980469 422.097656 C 480.523438 421.792969 480.082031 421.464844 479.65625 421.113281 C 479.226562 420.761719 478.820312 420.394531 478.429688 420.003906 C 478.039062 419.613281 477.667969 419.203125 477.320312 418.777344 C 476.96875 418.351562 476.640625 417.910156 476.335938 417.449219 C 476.027344 416.992188 475.746094 416.519531 475.484375 416.03125 C 475.226562 415.546875 474.988281 415.046875 474.777344 414.539062 C 474.566406 414.027344 474.382812 413.507812 474.222656 412.980469 C 474.0625 412.453125 473.925781 411.917969 473.820312 411.378906 C 473.710938 410.835938 473.632812 410.292969 473.578125 409.742188 C 473.523438 409.195312 473.496094 408.644531 473.496094 408.089844 C 473.496094 407.539062 473.523438 406.988281 473.578125 406.441406 C 473.632812 405.890625 473.710938 405.347656 473.820312 404.804688 C 473.925781 404.265625 474.0625 403.730469 474.222656 403.199219 C 474.382812 402.671875 474.566406 402.15625 474.777344 401.644531 C 474.988281 401.136719 475.226562 400.636719 475.484375 400.148438 C 475.746094 399.664062 476.027344 399.191406 476.335938 398.730469 C 476.640625 398.273438 476.96875 397.832031 477.320312 397.40625 C 477.667969 396.976562 478.039062 396.570312 478.429688 396.179688 C 478.820312 395.789062 479.226562 395.417969 479.65625 395.070312 C 480.082031 394.71875 480.523438 394.390625 480.980469 394.085938 C 481.441406 393.777344 481.914062 393.496094 482.398438 393.234375 C 482.886719 392.972656 483.386719 392.738281 483.894531 392.527344 C 484.402344 392.316406 484.921875 392.132812 485.449219 391.972656 C 485.980469 391.8125 486.511719 391.675781 487.054688 391.570312 C 487.59375 391.460938 488.140625 391.378906 488.691406 391.328125 C 489.238281 391.273438 489.789062 391.246094 490.339844 391.246094 C 490.890625 391.246094 491.441406 391.273438 491.992188 391.328125 C 492.539062 391.378906 493.085938 391.460938 493.628906 391.570312 C 494.167969 391.675781 494.703125 391.8125 495.230469 391.972656 C 495.757812 392.132812 496.277344 392.316406 496.785156 392.527344 C 497.296875 392.738281 497.792969 392.972656 498.28125 393.234375 C 498.769531 393.496094 499.242188 393.777344 499.699219 394.085938 C 500.15625 394.390625 500.601562 394.71875 501.027344 395.070312 C 501.453125 395.417969 501.863281 395.789062 502.25 396.179688 C 502.640625 396.570312 503.011719 396.976562 503.363281 397.40625 C 503.710938 397.832031 504.039062 398.273438 504.347656 398.730469 C 504.652344 399.191406 504.9375 399.664062 505.195312 400.148438 C 505.457031 400.636719 505.691406 401.136719 505.902344 401.644531 C 506.113281 402.15625 506.300781 402.671875 506.460938 403.203125 C 506.621094 403.730469 506.753906 404.265625 506.863281 404.804688 C 506.96875 405.347656 507.050781 405.890625 507.105469 406.441406 C 507.160156 406.988281 507.1875 407.539062 507.1875 408.089844 Z M 507.1875 408.089844 " fill-opacity="1" fill-rule="nonzero"/><path fill="#3f3c57" d="M 374.148438 501.679688 L 363.933594 501.679688 C 362.820312 501.679688 361.917969 500.777344 361.917969 499.664062 C 361.917969 498.550781 362.820312 497.648438 363.933594 497.648438 L 374.148438 497.648438 C 376.964844 497.648438 379.609375 496.550781 381.597656 494.558594 C 383.585938 492.566406 384.679688 489.917969 384.671875 487.105469 L 384.550781 424.175781 C 384.550781 410.507812 373.429688 399.386719 359.765625 399.386719 C 346.101562 399.386719 334.980469 410.507812 334.980469 424.171875 L 335.105469 483.074219 C 335.117188 488.820312 339.800781 493.53125 345.546875 493.574219 L 352.558594 493.628906 C 353.671875 493.636719 354.566406 494.546875 354.558594 495.660156 C 354.550781 496.765625 353.648438 497.660156 352.542969 497.660156 L 352.527344 497.660156 L 345.515625 497.605469 C 337.566406 497.546875 331.085938 491.027344 331.070312 483.082031 L 330.949219 424.175781 C 330.949219 408.28125 343.875 395.355469 359.765625 395.355469 C 375.65625 395.355469 388.582031 408.28125 388.582031 424.171875 L 388.707031 487.097656 C 388.714844 490.988281 387.203125 494.652344 384.453125 497.40625 C 381.703125 500.164062 378.042969 501.679688 374.148438 501.679688 Z M 374.148438 501.679688 " fill-opacity="1" fill-rule="nonzero"/><path fill="#3f3c57" d="M 359.6875 495.644531 C 359.6875 496.113281 359.644531 496.578125 359.550781 497.039062 C 359.460938 497.496094 359.324219 497.945312 359.144531 498.378906 C 358.964844 498.8125 358.746094 499.222656 358.484375 499.613281 C 358.222656 500.003906 357.929688 500.363281 357.597656 500.695312 C 357.265625 501.027344 356.902344 501.324219 356.511719 501.585938 C 356.125 501.847656 355.710938 502.066406 355.277344 502.246094 C 354.84375 502.425781 354.398438 502.5625 353.9375 502.652344 C 353.476562 502.746094 353.011719 502.789062 352.542969 502.789062 C 352.074219 502.789062 351.609375 502.746094 351.148438 502.652344 C 350.6875 502.5625 350.242188 502.425781 349.808594 502.246094 C 349.375 502.066406 348.964844 501.847656 348.574219 501.585938 C 348.183594 501.324219 347.820312 501.027344 347.488281 500.695312 C 347.160156 500.363281 346.863281 500.003906 346.601562 499.613281 C 346.339844 499.222656 346.121094 498.8125 345.941406 498.378906 C 345.761719 497.945312 345.625 497.496094 345.535156 497.039062 C 345.441406 496.578125 345.398438 496.113281 345.398438 495.644531 C 345.398438 495.175781 345.441406 494.710938 345.535156 494.25 C 345.625 493.789062 345.761719 493.34375 345.941406 492.910156 C 346.121094 492.476562 346.339844 492.0625 346.601562 491.671875 C 346.863281 491.28125 347.160156 490.921875 347.488281 490.589844 C 347.820312 490.257812 348.183594 489.960938 348.574219 489.703125 C 348.964844 489.441406 349.375 489.21875 349.808594 489.042969 C 350.242188 488.863281 350.6875 488.726562 351.148438 488.632812 C 351.609375 488.542969 352.074219 488.496094 352.542969 488.496094 C 353.011719 488.496094 353.476562 488.542969 353.9375 488.632812 C 354.398438 488.726562 354.84375 488.863281 355.277344 489.042969 C 355.710938 489.21875 356.125 489.441406 356.511719 489.703125 C 356.902344 489.960938 357.265625 490.257812 357.597656 490.589844 C 357.929688 490.921875 358.222656 491.28125 358.484375 491.671875 C 358.746094 492.0625 358.964844 492.476562 359.144531 492.910156 C 359.324219 493.34375 359.460938 493.789062 359.550781 494.25 C 359.644531 494.710938 359.6875 495.175781 359.6875 495.644531 Z M 359.6875 495.644531 " fill-opacity="1" fill-rule="nonzero"/><path fill="#3f3c57" d="M 371.078125 499.664062 C 371.078125 500.132812 371.035156 500.597656 370.941406 501.058594 C 370.851562 501.519531 370.714844 501.964844 370.535156 502.398438 C 370.355469 502.832031 370.136719 503.246094 369.875 503.636719 C 369.613281 504.023438 369.320312 504.386719 368.988281 504.71875 C 368.65625 505.050781 368.292969 505.347656 367.902344 505.605469 C 367.515625 505.867188 367.101562 506.085938 366.667969 506.265625 C 366.234375 506.445312 365.789062 506.582031 365.328125 506.671875 C 364.867188 506.765625 364.402344 506.8125 363.933594 506.8125 C 363.464844 506.8125 363 506.765625 362.539062 506.671875 C 362.078125 506.582031 361.632812 506.445312 361.199219 506.265625 C 360.765625 506.085938 360.355469 505.867188 359.964844 505.605469 C 359.574219 505.347656 359.210938 505.050781 358.878906 504.71875 C 358.550781 504.386719 358.253906 504.023438 357.992188 503.636719 C 357.730469 503.246094 357.511719 502.832031 357.332031 502.398438 C 357.152344 501.964844 357.015625 501.519531 356.925781 501.058594 C 356.832031 500.597656 356.789062 500.132812 356.789062 499.664062 C 356.789062 499.195312 356.832031 498.730469 356.925781 498.269531 C 357.015625 497.808594 357.152344 497.363281 357.332031 496.929688 C 357.511719 496.496094 357.730469 496.085938 357.992188 495.695312 C 358.253906 495.304688 358.550781 494.941406 358.878906 494.609375 C 359.210938 494.28125 359.574219 493.984375 359.964844 493.722656 C 360.355469 493.460938 360.765625 493.242188 361.199219 493.0625 C 361.632812 492.882812 362.078125 492.746094 362.539062 492.65625 C 363 492.5625 363.464844 492.519531 363.933594 492.519531 C 364.402344 492.519531 364.867188 492.5625 365.328125 492.65625 C 365.789062 492.746094 366.234375 492.882812 366.667969 493.0625 C 367.101562 493.242188 367.515625 493.460938 367.902344 493.722656 C 368.292969 493.984375 368.65625 494.28125 368.988281 494.609375 C 369.320312 494.941406 369.613281 495.304688 369.875 495.695312 C 370.136719 496.085938 370.355469 496.496094 370.535156 496.929688 C 370.714844 497.363281 370.851562 497.808594 370.941406 498.269531 C 371.035156 498.730469 371.078125 499.195312 371.078125 499.664062 Z M 371.078125 499.664062 " fill-opacity="1" fill-rule="nonzero"/></svg>