<svg xmlns="http://www.w3.org/2000/svg" xmlns:xlink="http://www.w3.org/1999/xlink" width="1080" zoomAndPan="magnify" viewBox="0 0 810 809.999993" height="1080" preserveAspectRatio="xMidYMid meet" version="1.0"><defs><clipPath id="70d3cdf796"><path d="M 544.21875 0 L 787.21875 0 L 787.21875 243 L 544.21875 243 Z M 544.21875 0 " clip-rule="nonzero"/></clipPath><clipPath id="c0a63416dd"><path d="M 705.5625 333.46875 L 810 333.46875 L 810 576.46875 L 705.5625 576.46875 Z M 705.5625 333.46875 " clip-rule="nonzero"/></clipPath></defs><path fill="#2f2e41" d="M 433.003906 591.082031 L 487.320312 663.089844 C 487.320312 663.089844 457.324219 661.007812 487.320312 674.050781 C 517.316406 687.089844 518.167969 682.484375 517.742188 698.289062 C 517.316406 714.09375 486.738281 711.734375 502.027344 727.914062 C 517.316406 744.097656 619.730469 959.25 619.730469 959.25 C 619.730469 959.25 535.8125 1270.746094 525.0625 1283.457031 C 514.316406 1296.164062 502.320312 1284.164062 514.316406 1296.164062 C 526.316406 1308.164062 541.316406 1293.164062 526.316406 1308.164062 C 511.316406 1323.167969 490.746094 1349.640625 490.746094 1349.640625 L 430.328125 1341.167969 C 430.328125 1341.167969 364.335938 1278.160156 469.324219 1173.148438 C 469.324219 1173.148438 495.753906 1068.089844 484.039062 1068.113281 C 472.324219 1068.136719 472.324219 1085.074219 472.324219 1051.101562 L 472.324219 1017.132812 L 333.289062 756.605469 C 333.289062 756.605469 244.5625 687.375 245.953125 655.730469 C 247.347656 624.085938 433.003906 591.082031 433.003906 591.082031 Z M 433.003906 591.082031 " fill-opacity="1" fill-rule="nonzero"/><path fill="#2f2e41" d="M 334.339844 663.089844 C 334.339844 663.089844 397.332031 981.125 388.332031 990.128906 C 379.332031 999.128906 379.332031 1021.714844 379.332031 1021.714844 L 235.347656 1341.167969 L 178.355469 1344.167969 C 177.011719 1252.773438 176.640625 1183.445312 226.351562 1119.144531 L 250.347656 648.085938 Z M 334.339844 663.089844 " fill-opacity="1" fill-rule="nonzero"/><path fill="#e6e6e6" d="M 416.117188 285.566406 L 347.464844 231.351562 L 311.429688 229.257812 L 257.953125 263.523438 L 244.859375 330.335938 L 213.894531 405.578125 L 259.3125 608.625 C 259.3125 608.625 263.574219 623.195312 252.410156 624.945312 C 241.246094 626.695312 242.585938 648.175781 242.585938 648.175781 C 242.585938 648.175781 244.859375 666.789062 234.019531 668.425781 C 223.179688 670.066406 194.273438 670.066406 219.566406 702.59375 C 244.859375 735.121094 444.914062 612.097656 444.914062 612.097656 L 473.96875 459.601562 C 473.96875 459.601562 530.320312 383.898438 469.636719 340.542969 Z M 416.117188 285.566406 " fill-opacity="1" fill-rule="nonzero"/><path fill="#a0616a" d="M 116.417969 746.578125 C 115.664062 745.636719 114.964844 744.65625 114.316406 743.640625 C 113.667969 742.621094 113.082031 741.574219 112.546875 740.492188 C 112.015625 739.410156 111.542969 738.300781 111.132812 737.167969 C 110.722656 736.03125 110.375 734.878906 110.089844 733.707031 C 109.804688 732.535156 109.582031 731.351562 109.425781 730.15625 C 109.273438 728.960938 109.179688 727.761719 109.15625 726.554688 C 109.132812 725.347656 109.171875 724.144531 109.28125 722.945312 C 109.386719 721.742188 109.558594 720.550781 109.796875 719.367188 C 110.035156 718.1875 110.335938 717.019531 110.699219 715.871094 C 111.066406 714.722656 111.492188 713.59375 111.980469 712.492188 C 112.46875 711.390625 113.011719 710.316406 113.617188 709.273438 C 114.222656 708.230469 114.882812 707.222656 115.597656 706.25 C 116.3125 705.28125 117.078125 704.351562 117.894531 703.464844 C 118.714844 702.578125 119.574219 701.738281 120.484375 700.945312 C 121.390625 700.152344 122.339844 699.410156 123.332031 698.722656 C 124.320312 698.03125 125.34375 697.398438 126.402344 696.820312 L 212.757812 406.949219 L 266.753906 434.140625 L 172.710938 711.980469 C 173.136719 712.894531 173.515625 713.828125 173.851562 714.777344 C 174.191406 715.726562 174.484375 716.6875 174.734375 717.664062 C 174.988281 718.640625 175.191406 719.625 175.351562 720.621094 C 175.515625 721.617188 175.628906 722.617188 175.699219 723.621094 C 175.769531 724.625 175.792969 725.632812 175.773438 726.640625 C 175.75 727.648438 175.683594 728.652344 175.574219 729.652344 C 175.460938 730.65625 175.300781 731.648438 175.097656 732.636719 C 174.898438 733.625 174.648438 734.601562 174.359375 735.5625 C 174.066406 736.527344 173.730469 737.480469 173.355469 738.414062 C 172.976562 739.347656 172.558594 740.261719 172.097656 741.160156 C 171.636719 742.054688 171.136719 742.929688 170.59375 743.777344 C 170.054688 744.628906 169.476562 745.453125 168.863281 746.25 C 168.246094 747.050781 167.597656 747.820312 166.914062 748.558594 C 166.226562 749.296875 165.511719 750.003906 164.761719 750.675781 C 164.011719 751.351562 163.234375 751.988281 162.425781 752.59375 C 161.621094 753.195312 160.789062 753.761719 159.929688 754.289062 C 159.070312 754.816406 158.191406 755.304688 157.289062 755.753906 C 156.386719 756.199219 155.464844 756.605469 154.523438 756.96875 C 153.585938 757.332031 152.628906 757.652344 151.660156 757.929688 C 150.691406 758.207031 149.714844 758.441406 148.722656 758.628906 C 147.734375 758.816406 146.738281 758.960938 145.734375 759.058594 C 144.734375 759.15625 143.726562 759.207031 142.71875 759.210938 C 141.710938 759.21875 140.707031 759.179688 139.703125 759.09375 C 138.699219 759.007812 137.699219 758.878906 136.710938 758.703125 C 135.71875 758.527344 134.734375 758.308594 133.761719 758.042969 C 132.789062 757.777344 131.832031 757.46875 130.890625 757.117188 C 129.945312 756.765625 129.019531 756.371094 128.109375 755.933594 C 127.203125 755.496094 126.316406 755.019531 125.449219 754.503906 C 124.585938 753.988281 123.746094 753.433594 122.933594 752.839844 C 122.117188 752.246094 121.332031 751.617188 120.574219 750.953125 C 119.816406 750.289062 119.089844 749.589844 118.398438 748.859375 C 117.703125 748.128906 117.042969 747.371094 116.417969 746.578125 Z M 116.417969 746.578125 " fill-opacity="1" fill-rule="nonzero"/><path fill="#e6e6e6" d="M 270.355469 260.839844 C 270.355469 260.839844 254.917969 252.632812 244.363281 288.140625 C 235.910156 316.566406 167.324219 485.878906 166.449219 527.046875 C 165.046875 527.34375 163.679688 527.753906 162.347656 528.277344 C 161.011719 528.800781 159.730469 529.429688 158.5 530.164062 C 157.273438 530.898438 156.113281 531.730469 155.019531 532.65625 C 153.925781 533.585938 152.917969 534.59375 151.992188 535.6875 C 151.066406 536.78125 150.238281 537.945312 149.503906 539.175781 C 148.773438 540.40625 148.144531 541.691406 147.625 543.023438 C 147.101562 544.359375 146.695312 545.726562 146.402344 547.128906 C 146.105469 548.53125 145.929688 549.949219 145.867188 551.382812 L 230.667969 562.746094 C 245.484375 550.246094 249.371094 533.363281 243.640625 528.351562 L 262.050781 478.054688 L 338.863281 318.019531 L 281.617188 266.574219 Z M 270.355469 260.839844 " fill-opacity="1" fill-rule="nonzero"/><path fill="#a0616a" d="M 723.46875 651.296875 C 723.738281 650.125 723.949219 648.9375 724.089844 647.738281 C 724.234375 646.542969 724.3125 645.339844 724.324219 644.136719 C 724.335938 642.929688 724.28125 641.726562 724.164062 640.527344 C 724.042969 639.324219 723.859375 638.136719 723.609375 636.957031 C 723.359375 635.777344 723.046875 634.613281 722.671875 633.46875 C 722.292969 632.320312 721.855469 631.199219 721.355469 630.101562 C 720.859375 629.003906 720.300781 627.9375 719.683594 626.902344 C 719.070312 625.863281 718.398438 624.863281 717.671875 623.898438 C 716.949219 622.9375 716.171875 622.015625 715.347656 621.136719 C 714.519531 620.257812 713.648438 619.425781 712.734375 618.644531 C 711.816406 617.859375 710.859375 617.128906 709.863281 616.449219 C 708.867188 615.769531 707.835938 615.148438 706.769531 614.582031 C 705.707031 614.015625 704.613281 613.511719 703.496094 613.0625 C 702.375 612.617188 701.234375 612.230469 700.070312 611.910156 C 698.910156 611.589844 697.734375 611.332031 696.542969 611.136719 C 695.351562 610.945312 694.15625 610.816406 692.953125 610.753906 L 494.855469 384.460938 L 452.835938 434.613281 L 657.75 644.453125 C 657.765625 645.460938 657.824219 646.464844 657.929688 647.46875 C 658.035156 648.46875 658.1875 649.464844 658.382812 650.453125 C 658.578125 651.441406 658.820312 652.417969 659.105469 653.386719 C 659.390625 654.351562 659.71875 655.304688 660.089844 656.242188 C 660.460938 657.175781 660.875 658.09375 661.328125 658.996094 C 661.785156 659.894531 662.277344 660.769531 662.8125 661.625 C 663.347656 662.480469 663.917969 663.308594 664.527344 664.109375 C 665.136719 664.910156 665.78125 665.683594 666.460938 666.429688 C 667.144531 667.171875 667.855469 667.882812 668.597656 668.5625 C 669.34375 669.242188 670.117188 669.886719 670.921875 670.496094 C 671.722656 671.101562 672.550781 671.675781 673.40625 672.207031 C 674.261719 672.742188 675.140625 673.234375 676.039062 673.6875 C 676.9375 674.140625 677.855469 674.554688 678.792969 674.921875 C 679.730469 675.292969 680.683594 675.621094 681.648438 675.90625 C 682.617188 676.1875 683.59375 676.425781 684.582031 676.621094 C 685.570312 676.816406 686.566406 676.96875 687.570312 677.070312 C 688.570312 677.175781 689.574219 677.234375 690.582031 677.246094 C 691.589844 677.261719 692.597656 677.226562 693.601562 677.148438 C 694.605469 677.070312 695.605469 676.949219 696.597656 676.777344 C 697.589844 676.609375 698.574219 676.394531 699.546875 676.136719 C 700.523438 675.878906 701.480469 675.578125 702.429688 675.230469 C 703.375 674.886719 704.304688 674.496094 705.214844 674.066406 C 706.125 673.636719 707.015625 673.167969 707.882812 672.65625 C 708.75 672.144531 709.59375 671.59375 710.414062 671.007812 C 711.230469 670.417969 712.023438 669.796875 712.785156 669.136719 C 713.546875 668.476562 714.277344 667.785156 714.976562 667.058594 C 715.675781 666.332031 716.339844 665.578125 716.96875 664.789062 C 717.597656 664.003906 718.191406 663.191406 718.75 662.351562 C 719.304688 661.511719 719.824219 660.648438 720.300781 659.761719 C 720.777344 658.875 721.214844 657.964844 721.609375 657.039062 C 722.007812 656.113281 722.359375 655.167969 722.667969 654.210938 C 722.980469 653.253906 723.246094 652.28125 723.46875 651.296875 Z M 723.46875 651.296875 " fill-opacity="1" fill-rule="nonzero"/><path fill="#e6e6e6" d="M 374.664062 279.910156 C 374.664062 279.910156 385.03125 265.835938 409.902344 293.285156 C 429.8125 315.257812 564.855469 438.253906 583.441406 474.996094 C 584.835938 474.65625 586.246094 474.433594 587.671875 474.328125 C 589.101562 474.222656 590.53125 474.238281 591.957031 474.367188 C 593.382812 474.5 594.789062 474.746094 596.175781 475.109375 C 597.558594 475.472656 598.90625 475.949219 600.214844 476.535156 C 601.519531 477.121094 602.769531 477.808594 603.964844 478.601562 C 605.15625 479.394531 606.277344 480.28125 607.324219 481.257812 C 608.371094 482.238281 609.332031 483.296875 610.203125 484.433594 C 611.074219 485.570312 611.847656 486.769531 612.519531 488.035156 L 540.976562 534.960938 C 522.210938 530.101562 511.40625 516.558594 514.40625 509.558594 L 476.058594 472.171875 L 337.613281 361.101562 L 366.984375 289.949219 Z M 374.664062 279.910156 " fill-opacity="1" fill-rule="nonzero"/><path fill="#a0616a" d="M 358.03125 52.023438 C 359.222656 52.488281 360.398438 52.976562 361.5625 53.496094 C 362.722656 54.019531 363.875 54.566406 365.011719 55.140625 C 366.148438 55.71875 367.269531 56.324219 368.378906 56.953125 C 369.484375 57.585938 370.578125 58.242188 371.652344 58.929688 C 372.726562 59.613281 373.785156 60.324219 374.824219 61.0625 C 375.863281 61.796875 376.886719 62.5625 377.886719 63.347656 C 378.890625 64.136719 379.875 64.945312 380.835938 65.78125 C 381.800781 66.617188 382.742188 67.476562 383.664062 68.355469 C 384.582031 69.238281 385.480469 70.144531 386.359375 71.070312 C 387.234375 71.996094 388.085938 72.941406 388.917969 73.910156 C 389.746094 74.875 390.554688 75.863281 391.335938 76.871094 C 392.117188 77.878906 392.871094 78.902344 393.605469 79.949219 C 394.335938 80.992188 395.039062 82.054688 395.71875 83.132812 C 396.398438 84.210938 397.050781 85.308594 397.675781 86.417969 C 398.300781 87.527344 398.898438 88.65625 399.46875 89.796875 C 400.039062 90.9375 400.578125 92.089844 401.09375 93.257812 C 401.605469 94.421875 402.089844 95.601562 402.546875 96.792969 C 403 97.984375 403.425781 99.183594 403.824219 100.398438 C 404.21875 101.609375 404.585938 102.828125 404.921875 104.058594 C 405.261719 105.289062 405.566406 106.527344 405.84375 107.769531 C 406.117188 109.015625 406.363281 110.265625 406.578125 111.523438 C 406.792969 112.78125 406.976562 114.039062 407.128906 115.304688 C 407.28125 116.570312 407.402344 117.839844 407.492188 119.113281 C 407.582031 120.382812 407.640625 121.65625 407.671875 122.933594 C 407.699219 124.207031 407.695312 125.480469 407.660156 126.753906 C 407.625 128.03125 407.558594 129.304688 407.460938 130.574219 C 407.363281 131.84375 407.234375 133.113281 407.078125 134.378906 C 406.917969 135.644531 406.726562 136.902344 406.503906 138.160156 C 406.285156 139.414062 406.03125 140.664062 405.75 141.90625 C 405.464844 143.152344 405.152344 144.386719 404.808594 145.613281 C 404.46875 146.839844 404.09375 148.058594 403.691406 149.269531 C 403.289062 150.480469 402.855469 151.679688 402.394531 152.867188 C 401.929688 154.054688 401.441406 155.230469 400.921875 156.394531 C 400.402344 157.558594 399.851562 158.710938 399.277344 159.847656 C 398.699219 160.984375 398.097656 162.105469 397.464844 163.214844 C 396.832031 164.320312 396.175781 165.414062 395.492188 166.488281 C 394.804688 167.5625 394.09375 168.621094 393.359375 169.660156 C 392.621094 170.703125 391.859375 171.722656 391.074219 172.726562 C 390.285156 173.730469 389.472656 174.710938 388.640625 175.675781 C 387.804688 176.640625 386.945312 177.582031 386.066406 178.503906 C 385.183594 179.421875 384.28125 180.320312 383.355469 181.199219 C 382.429688 182.074219 381.480469 182.929688 380.515625 183.757812 C 379.546875 184.589844 378.558594 185.394531 377.554688 186.175781 C 376.546875 186.957031 375.519531 187.714844 374.476562 188.445312 C 373.433594 189.175781 372.371094 189.882812 371.292969 190.5625 C 370.214844 191.242188 369.117188 191.890625 368.007812 192.519531 C 366.898438 193.144531 365.769531 193.742188 364.632812 194.3125 C 363.492188 194.882812 362.335938 195.421875 361.171875 195.9375 C 360.003906 196.449219 358.824219 196.933594 357.636719 197.390625 C 356.445312 197.84375 355.242188 198.273438 354.03125 198.667969 C 352.820312 199.066406 351.601562 199.429688 350.371094 199.769531 C 349.140625 200.105469 347.90625 200.410156 346.660156 200.6875 C 345.417969 200.964844 344.164062 201.207031 342.910156 201.421875 C 341.652344 201.636719 340.390625 201.820312 339.125 201.972656 C 337.859375 202.125 336.59375 202.246094 335.320312 202.339844 C 334.050781 202.429688 332.777344 202.488281 331.503906 202.515625 C 330.226562 202.542969 328.953125 202.539062 327.679688 202.503906 C 326.40625 202.46875 325.132812 202.402344 323.863281 202.304688 C 322.589844 202.210938 321.324219 202.082031 320.058594 201.921875 C 318.792969 201.761719 317.535156 201.570312 316.277344 201.351562 C 315.023438 201.128906 313.773438 200.875 312.53125 200.59375 C 311.289062 200.3125 310.054688 199.996094 308.824219 199.65625 C 307.597656 199.3125 306.378906 198.9375 305.171875 198.535156 C 303.960938 198.132812 302.761719 197.699219 301.574219 197.238281 C 300.386719 196.773438 299.210938 196.285156 298.046875 195.761719 C 296.882812 195.242188 295.734375 194.695312 294.597656 194.121094 C 293.457031 193.542969 292.335938 192.9375 291.230469 192.308594 C 290.121094 191.675781 289.03125 191.019531 287.957031 190.332031 C 286.882812 189.648438 285.824219 188.9375 284.785156 188.199219 C 283.742188 187.464844 282.722656 186.699219 281.71875 185.914062 C 280.714844 185.125 279.734375 184.316406 278.769531 183.480469 C 277.808594 182.644531 276.867188 181.785156 275.945312 180.90625 C 275.023438 180.023438 274.125 179.121094 273.25 178.195312 C 272.375 177.269531 271.519531 176.320312 270.691406 175.351562 C 269.859375 174.386719 269.054688 173.398438 268.273438 172.390625 C 267.492188 171.382812 266.734375 170.359375 266.003906 169.3125 C 265.273438 168.269531 264.566406 167.207031 263.890625 166.128906 C 263.210938 165.050781 262.558594 163.953125 261.933594 162.84375 C 261.308594 161.734375 260.710938 160.605469 260.140625 159.464844 C 259.570312 158.324219 259.027344 157.171875 258.515625 156.003906 C 258 154.839844 257.515625 153.660156 257.0625 152.46875 C 256.605469 151.277344 256.179688 150.078125 255.785156 148.863281 C 255.386719 147.652344 255.019531 146.433594 254.683594 145.203125 C 254.347656 143.972656 254.042969 142.734375 253.765625 141.492188 C 253.488281 140.246094 253.246094 138.996094 253.03125 137.738281 C 252.816406 136.484375 252.632812 135.222656 252.480469 133.957031 C 252.328125 132.691406 252.207031 131.421875 252.113281 130.148438 C 252.023438 128.878906 251.964844 127.605469 251.9375 126.328125 C 251.910156 125.054688 251.914062 123.78125 251.949219 122.507812 C 251.984375 121.230469 252.050781 119.957031 252.144531 118.6875 C 252.242188 117.417969 252.371094 116.148438 252.53125 114.882812 C 252.691406 113.617188 252.882812 112.359375 253.101562 111.101562 C 253.324219 109.847656 253.574219 108.597656 253.859375 107.355469 C 254.140625 106.109375 254.453125 104.875 254.796875 103.648438 C 255.140625 102.421875 255.515625 101.203125 255.917969 99.992188 C 256.320312 98.78125 256.753906 97.582031 257.214844 96.394531 C 257.675781 95.207031 258.167969 94.03125 258.6875 92.867188 C 259.207031 91.703125 259.753906 90.550781 260.332031 89.414062 C 260.90625 88.277344 261.511719 87.15625 262.144531 86.046875 C 262.773438 84.941406 263.433594 83.847656 264.117188 82.773438 C 264.800781 81.699219 265.511719 80.640625 266.25 79.601562 C 266.984375 78.558594 267.75 77.539062 268.535156 76.535156 C 269.320312 75.53125 270.132812 74.550781 270.96875 73.585938 C 271.804688 72.621094 272.660156 71.679688 273.542969 70.761719 C 274.425781 69.839844 275.328125 68.941406 276.253906 68.0625 C 277.179688 67.1875 278.125 66.332031 279.09375 65.503906 C 280.0625 64.671875 281.046875 63.867188 282.054688 63.085938 C 283.0625 62.304688 284.085938 61.546875 285.132812 60.816406 C 286.175781 60.085938 287.238281 59.378906 288.316406 58.699219 C 289.394531 58.023438 290.488281 57.371094 291.601562 56.742188 C 292.710938 56.117188 293.835938 55.519531 294.976562 54.949219 C 296.117188 54.378906 297.269531 53.839844 298.4375 53.324219 C 299.601562 52.8125 300.78125 52.328125 301.972656 51.871094 C 303.164062 51.417969 304.363281 50.988281 305.574219 50.59375 C 306.785156 50.195312 308.007812 49.832031 309.238281 49.492188 C 310.464844 49.15625 311.703125 48.851562 312.945312 48.574219 C 314.191406 48.296875 315.441406 48.054688 316.699219 47.839844 C 317.953125 47.625 319.214844 47.441406 320.480469 47.289062 C 321.746094 47.136719 323.015625 47.015625 324.285156 46.925781 C 325.558594 46.832031 326.832031 46.773438 328.105469 46.746094 C 329.378906 46.71875 330.652344 46.722656 331.929688 46.757812 C 333.203125 46.792969 334.476562 46.859375 335.746094 46.957031 C 337.015625 47.050781 338.285156 47.179688 339.550781 47.339844 C 340.8125 47.5 342.074219 47.691406 343.328125 47.910156 C 344.585938 48.132812 345.832031 48.386719 347.078125 48.667969 C 348.320312 48.949219 349.554688 49.265625 350.78125 49.605469 C 352.007812 49.949219 353.226562 50.324219 354.4375 50.726562 C 355.644531 51.128906 356.84375 51.5625 358.03125 52.023438 Z M 358.03125 52.023438 " fill-opacity="1" fill-rule="nonzero"/><path fill="#2f2e41" d="M 422.855469 53.222656 C 421.691406 51.964844 420.433594 50.8125 419.082031 49.761719 C 417.730469 48.710938 416.304688 47.773438 414.800781 46.953125 C 413.300781 46.132812 411.738281 45.441406 410.125 44.875 C 408.507812 44.304688 406.859375 43.875 405.171875 43.574219 C 403.484375 43.277344 401.789062 43.113281 400.074219 43.089844 C 398.363281 43.070312 396.660156 43.183594 394.96875 43.4375 C 393.273438 43.691406 391.613281 44.078125 389.984375 44.601562 C 388.351562 45.125 386.773438 45.773438 385.25 46.550781 C 386.816406 37.796875 388.382812 29.042969 389.953125 20.289062 C 376.925781 18.292969 363.902344 16.300781 350.878906 14.304688 C 331.230469 11.296875 310.980469 8.308594 291.660156 12.972656 C 288.214844 13.851562 284.847656 14.960938 281.558594 16.300781 C 278.265625 17.640625 275.078125 19.195312 272 20.96875 C 268.917969 22.738281 265.972656 24.710938 263.160156 26.882812 C 260.347656 29.054688 257.695312 31.40625 255.203125 33.941406 C 252.707031 36.472656 250.398438 39.160156 248.269531 42.007812 C 246.144531 44.855469 244.21875 47.832031 242.496094 50.941406 C 240.773438 54.050781 239.265625 57.261719 237.980469 60.574219 C 236.691406 63.886719 235.636719 67.269531 234.808594 70.726562 C 232.714844 69.308594 230.535156 68.039062 228.261719 66.925781 C 225.992188 65.808594 223.65625 64.855469 221.253906 64.066406 C 218.847656 63.277344 216.402344 62.660156 213.914062 62.214844 C 211.421875 61.765625 208.914062 61.492188 206.386719 61.394531 C 203.859375 61.296875 201.335938 61.375 198.820312 61.632812 C 196.304688 61.886719 193.816406 62.3125 191.359375 62.917969 C 188.902344 63.519531 186.5 64.289062 184.148438 65.226562 C 181.800781 66.160156 179.527344 67.257812 177.332031 68.511719 C 175.132812 69.765625 173.035156 71.167969 171.035156 72.714844 C 169.03125 74.261719 167.148438 75.941406 165.382812 77.753906 C 163.613281 79.5625 161.980469 81.488281 160.484375 83.527344 C 158.984375 85.5625 157.636719 87.695312 156.433594 89.921875 C 155.234375 92.148438 154.191406 94.449219 153.3125 96.820312 C 152.433594 99.195312 151.722656 101.613281 151.179688 104.085938 C 150.636719 106.558594 150.269531 109.054688 150.074219 111.578125 C 149.878906 114.101562 149.863281 116.625 150.019531 119.148438 C 150.957031 134.089844 157.941406 147.875 162.261719 162.203125 C 178.6875 216.664062 151.488281 280.945312 100.96875 307.066406 C 117.238281 319.414062 134.042969 332.027344 153.746094 337.398438 C 173.449219 342.773438 197.003906 339.242188 209.980469 323.464844 C 216.617188 315.394531 219.824219 305.121094 222.878906 295.125 C 235.234375 254.71875 247.585938 214.3125 259.941406 173.902344 L 279.914062 209.972656 C 286.292969 218.894531 284.011719 231.378906 279.417969 241.335938 C 274.820312 251.292969 268.144531 260.511719 266.089844 271.285156 C 264.03125 282.058594 268.8125 295.40625 279.515625 297.785156 C 293.976562 263.761719 308.746094 227.5 303.136719 190.957031 C 300.953125 176.734375 295.722656 162.148438 299.832031 148.355469 C 303.007812 137.699219 311.414062 129.316406 320.75 123.28125 C 325.636719 120.128906 330.796875 117.511719 336.230469 115.429688 C 341.660156 113.351562 347.25 111.851562 352.992188 110.933594 C 378.378906 106.894531 409.976562 112.320312 424.875 91.371094 C 425.835938 89.953125 426.671875 88.464844 427.390625 86.910156 C 428.109375 85.355469 428.699219 83.753906 429.15625 82.105469 C 429.613281 80.453125 429.9375 78.777344 430.121094 77.074219 C 430.308594 75.371094 430.355469 73.667969 430.265625 71.957031 C 430.175781 70.246094 429.949219 68.554688 429.582031 66.882812 C 429.21875 65.207031 428.71875 63.578125 428.089844 61.984375 C 427.460938 60.390625 426.707031 58.859375 425.828125 57.390625 C 424.949219 55.921875 423.960938 54.53125 422.855469 53.222656 Z M 422.855469 53.222656 " fill-opacity="1" fill-rule="nonzero"/><path fill="#9dde89" d="M 439.300781 469.753906 C 439.300781 470.832031 439.273438 471.910156 439.21875 472.988281 C 439.167969 474.066406 439.089844 475.144531 438.980469 476.21875 C 438.875 477.292969 438.746094 478.363281 438.585938 479.433594 C 438.425781 480.5 438.242188 481.5625 438.03125 482.625 C 437.820312 483.683594 437.585938 484.734375 437.324219 485.78125 C 437.0625 486.832031 436.773438 487.871094 436.460938 488.902344 C 436.144531 489.9375 435.808594 490.960938 435.445312 491.976562 C 435.082031 492.996094 434.691406 494.003906 434.277344 495 C 433.867188 495.996094 433.429688 496.984375 432.96875 497.960938 C 432.503906 498.9375 432.019531 499.898438 431.511719 500.851562 C 431.003906 501.804688 430.472656 502.742188 429.914062 503.671875 C 429.359375 504.597656 428.785156 505.507812 428.183594 506.40625 C 427.585938 507.304688 426.960938 508.1875 426.320312 509.054688 C 425.675781 509.921875 425.011719 510.769531 424.328125 511.605469 C 423.644531 512.441406 422.9375 513.257812 422.214844 514.058594 C 421.488281 514.859375 420.746094 515.640625 419.980469 516.402344 C 419.21875 517.167969 418.4375 517.910156 417.636719 518.636719 C 416.835938 519.359375 416.019531 520.066406 415.183594 520.75 C 414.351562 521.4375 413.5 522.101562 412.632812 522.742188 C 411.765625 523.386719 410.882812 524.007812 409.984375 524.609375 C 409.089844 525.207031 408.175781 525.785156 407.25 526.339844 C 406.324219 526.894531 405.386719 527.425781 404.433594 527.9375 C 403.480469 528.445312 402.519531 528.929688 401.542969 529.390625 C 400.566406 529.855469 399.578125 530.292969 398.582031 530.703125 C 397.585938 531.117188 396.578125 531.507812 395.5625 531.871094 C 394.546875 532.234375 393.519531 532.574219 392.488281 532.886719 C 391.453125 533.199219 390.414062 533.488281 389.367188 533.75 C 388.320312 534.011719 387.265625 534.25 386.207031 534.460938 C 385.148438 534.667969 384.085938 534.855469 383.019531 535.011719 C 381.953125 535.171875 380.878906 535.304688 379.804688 535.410156 C 378.730469 535.515625 377.65625 535.59375 376.578125 535.648438 C 375.5 535.699219 374.421875 535.726562 373.339844 535.726562 C 372.261719 535.726562 371.183594 535.699219 370.105469 535.648438 C 369.027344 535.59375 367.949219 535.515625 366.875 535.410156 C 365.800781 535.304688 364.730469 535.171875 363.664062 535.011719 C 362.59375 534.855469 361.53125 534.667969 360.472656 534.460938 C 359.414062 534.25 358.359375 534.011719 357.3125 533.75 C 356.265625 533.488281 355.226562 533.199219 354.195312 532.886719 C 353.160156 532.574219 352.136719 532.234375 351.121094 531.871094 C 350.105469 531.507812 349.097656 531.117188 348.097656 530.703125 C 347.101562 530.292969 346.117188 529.855469 345.140625 529.390625 C 344.164062 528.929688 343.199219 528.445312 342.246094 527.9375 C 341.296875 527.425781 340.355469 526.894531 339.429688 526.339844 C 338.503906 525.785156 337.59375 525.207031 336.695312 524.609375 C 335.796875 524.007812 334.917969 523.386719 334.050781 522.742188 C 333.183594 522.101562 332.332031 521.4375 331.496094 520.75 C 330.664062 520.066406 329.84375 519.359375 329.046875 518.636719 C 328.246094 517.910156 327.464844 517.167969 326.699219 516.402344 C 325.9375 515.640625 325.195312 514.859375 324.46875 514.058594 C 323.742188 513.257812 323.039062 512.441406 322.355469 511.605469 C 321.667969 510.769531 321.003906 509.921875 320.363281 509.054688 C 319.71875 508.1875 319.097656 507.304688 318.496094 506.40625 C 317.898438 505.507812 317.320312 504.597656 316.765625 503.667969 C 316.210938 502.742188 315.679688 501.804688 315.171875 500.851562 C 314.660156 499.898438 314.175781 498.9375 313.714844 497.960938 C 313.253906 496.984375 312.816406 495.996094 312.402344 495 C 311.988281 494.003906 311.601562 492.996094 311.238281 491.976562 C 310.875 490.960938 310.535156 489.9375 310.222656 488.902344 C 309.910156 487.871094 309.621094 486.832031 309.359375 485.78125 C 309.097656 484.734375 308.859375 483.683594 308.648438 482.625 C 308.4375 481.5625 308.253906 480.5 308.097656 479.433594 C 307.9375 478.363281 307.804688 477.292969 307.699219 476.21875 C 307.59375 475.144531 307.515625 474.066406 307.460938 472.988281 C 307.410156 471.910156 307.382812 470.832031 307.382812 469.753906 C 307.382812 468.671875 307.410156 467.59375 307.460938 466.515625 C 307.515625 465.4375 307.59375 464.359375 307.699219 463.285156 C 307.804688 462.210938 307.9375 461.140625 308.097656 460.070312 C 308.253906 459.003906 308.4375 457.941406 308.648438 456.882812 C 308.859375 455.824219 309.097656 454.769531 309.359375 453.722656 C 309.621094 452.675781 309.910156 451.632812 310.222656 450.601562 C 310.535156 449.566406 310.875 448.542969 311.238281 447.527344 C 311.601562 446.507812 311.988281 445.503906 312.402344 444.503906 C 312.816406 443.507812 313.253906 442.519531 313.714844 441.542969 C 314.175781 440.570312 314.660156 439.605469 315.171875 438.652344 C 315.679688 437.699219 316.210938 436.761719 316.765625 435.835938 C 317.320312 434.910156 317.898438 433.996094 318.496094 433.097656 C 319.097656 432.203125 319.71875 431.320312 320.363281 430.453125 C 321.003906 429.585938 321.667969 428.734375 322.355469 427.898438 C 323.039062 427.0625 323.742188 426.246094 324.46875 425.445312 C 325.195312 424.648438 325.9375 423.863281 326.699219 423.101562 C 327.464844 422.339844 328.246094 421.59375 329.046875 420.867188 C 329.84375 420.144531 330.664062 419.4375 331.496094 418.753906 C 332.332031 418.070312 333.183594 417.40625 334.050781 416.761719 C 334.917969 416.117188 335.796875 415.496094 336.695312 414.898438 C 337.59375 414.296875 338.503906 413.71875 339.429688 413.164062 C 340.355469 412.609375 341.296875 412.078125 342.246094 411.566406 C 343.199219 411.058594 344.164062 410.574219 345.140625 410.113281 C 346.117188 409.652344 347.101562 409.214844 348.097656 408.800781 C 349.097656 408.386719 350.105469 408 351.121094 407.632812 C 352.136719 407.269531 353.160156 406.933594 354.195312 406.617188 C 355.226562 406.304688 356.265625 406.019531 357.3125 405.753906 C 358.359375 405.492188 359.414062 405.257812 360.472656 405.046875 C 361.53125 404.835938 362.59375 404.652344 363.664062 404.492188 C 364.730469 404.332031 365.800781 404.203125 366.875 404.097656 C 367.949219 403.988281 369.027344 403.910156 370.105469 403.859375 C 371.183594 403.804688 372.261719 403.777344 373.339844 403.777344 C 374.421875 403.777344 375.5 403.804688 376.578125 403.859375 C 377.65625 403.910156 378.730469 403.988281 379.804688 404.097656 C 380.878906 404.203125 381.953125 404.332031 383.019531 404.492188 C 384.085938 404.652344 385.148438 404.835938 386.207031 405.046875 C 387.265625 405.257812 388.320312 405.492188 389.367188 405.753906 C 390.414062 406.019531 391.453125 406.304688 392.488281 406.617188 C 393.519531 406.933594 394.546875 407.269531 395.5625 407.632812 C 396.578125 408 397.585938 408.386719 398.582031 408.800781 C 399.578125 409.214844 400.566406 409.652344 401.542969 410.113281 C 402.519531 410.574219 403.480469 411.058594 404.433594 411.566406 C 405.386719 412.078125 406.324219 412.609375 407.25 413.164062 C 408.175781 413.71875 409.089844 414.296875 409.984375 414.898438 C 410.882812 415.496094 411.765625 416.117188 412.632812 416.761719 C 413.5 417.40625 414.351562 418.070312 415.183594 418.753906 C 416.019531 419.4375 416.835938 420.144531 417.636719 420.867188 C 418.4375 421.59375 419.21875 422.339844 419.980469 423.101562 C 420.746094 423.863281 421.488281 424.648438 422.214844 425.445312 C 422.9375 426.246094 423.644531 427.0625 424.328125 427.898438 C 425.011719 428.734375 425.675781 429.585938 426.320312 430.453125 C 426.960938 431.320312 427.585938 432.203125 428.183594 433.097656 C 428.785156 433.996094 429.359375 434.910156 429.914062 435.835938 C 430.472656 436.761719 431.003906 437.699219 431.511719 438.652344 C 432.019531 439.605469 432.503906 440.570312 432.96875 441.542969 C 433.429688 442.519531 433.867188 443.507812 434.277344 444.503906 C 434.691406 445.503906 435.082031 446.507812 435.445312 447.527344 C 435.808594 448.542969 436.144531 449.566406 436.460938 450.601562 C 436.773438 451.632812 437.0625 452.675781 437.324219 453.722656 C 437.585938 454.769531 437.820312 455.824219 438.03125 456.882812 C 438.242188 457.941406 438.425781 459.003906 438.585938 460.070312 C 438.746094 461.140625 438.875 462.210938 438.980469 463.285156 C 439.089844 464.359375 439.167969 465.4375 439.21875 466.515625 C 439.273438 467.59375 439.300781 468.671875 439.300781 469.753906 Z M 439.300781 469.753906 " fill-opacity="1" fill-rule="nonzero"/><path fill="#ffffff" d="M 388.738281 436.550781 C 389.089844 437.992188 389.613281 439.367188 390.300781 440.675781 C 390.589844 441.414062 390.976562 442.097656 391.453125 442.730469 C 391.933594 443.359375 392.488281 443.914062 393.121094 444.390625 C 393.753906 444.867188 394.4375 445.25 395.175781 445.539062 C 395.914062 445.824219 396.675781 446.007812 397.464844 446.082031 C 397.730469 446.070312 397.992188 446.03125 398.25 445.96875 C 401.070312 445.273438 402.789062 441.855469 402.816406 437.589844 C 402.816406 436.109375 402.640625 434.648438 402.28125 433.210938 C 401.9375 431.785156 401.421875 430.425781 400.738281 429.125 C 398.734375 425.34375 395.609375 423.09375 392.78125 423.792969 C 389.035156 424.714844 387.230469 430.429688 388.738281 436.550781 Z M 388.738281 436.550781 " fill-opacity="1" fill-rule="nonzero"/><path fill="#3f3d56" d="M 393.824219 440.65625 C 394.089844 441.75 394.535156 442.761719 395.164062 443.691406 C 395.789062 444.625 396.554688 445.421875 397.464844 446.082031 C 397.730469 446.070312 397.992188 446.03125 398.25 445.96875 C 401.070312 445.273438 402.789062 441.855469 402.816406 437.589844 C 402.816406 436.109375 402.640625 434.648438 402.28125 433.210938 C 401.9375 431.785156 401.421875 430.425781 400.738281 429.125 C 400.132812 429.277344 399.550781 429.488281 398.988281 429.757812 C 398.421875 430.023438 397.890625 430.34375 397.390625 430.714844 C 396.890625 431.089844 396.429688 431.503906 396.011719 431.96875 C 395.59375 432.429688 395.222656 432.929688 394.902344 433.464844 C 394.582031 434 394.316406 434.558594 394.105469 435.148438 C 393.894531 435.734375 393.742188 436.335938 393.648438 436.953125 C 393.558594 437.570312 393.523438 438.191406 393.554688 438.8125 C 393.582031 439.4375 393.671875 440.050781 393.824219 440.65625 Z M 393.824219 440.65625 " fill-opacity="1" fill-rule="nonzero"/><path fill="#ffffff" d="M 360.683594 443.472656 C 362.132812 449.351562 366.113281 453.46875 369.742188 452.976562 C 369.894531 452.957031 370.042969 452.925781 370.195312 452.890625 C 373.929688 451.96875 375.738281 446.253906 374.226562 440.132812 C 373.882812 438.710938 373.367188 437.351562 372.6875 436.054688 C 370.679688 432.261719 367.554688 430.015625 364.726562 430.714844 C 360.980469 431.636719 359.175781 437.351562 360.683594 443.472656 Z M 360.683594 443.472656 " fill-opacity="1" fill-rule="nonzero"/><path fill="#3f3d56" d="M 366.046875 447.507812 C 366.316406 448.613281 366.769531 449.632812 367.402344 450.574219 C 368.039062 451.515625 368.820312 452.3125 369.742188 452.976562 C 369.894531 452.957031 370.042969 452.925781 370.195312 452.890625 C 373.929688 451.96875 375.738281 446.253906 374.226562 440.132812 C 373.882812 438.710938 373.367188 437.351562 372.6875 436.054688 C 372.097656 436.222656 371.53125 436.445312 370.984375 436.722656 C 370.441406 437 369.925781 437.324219 369.445312 437.699219 C 368.960938 438.078125 368.519531 438.496094 368.117188 438.957031 C 367.714844 439.417969 367.359375 439.910156 367.054688 440.441406 C 366.746094 440.96875 366.492188 441.523438 366.292969 442.101562 C 366.09375 442.679688 365.949219 443.273438 365.863281 443.878906 C 365.777344 444.484375 365.75 445.089844 365.777344 445.703125 C 365.808594 446.3125 365.898438 446.914062 366.046875 447.507812 Z M 366.046875 447.507812 " fill-opacity="1" fill-rule="nonzero"/><path fill="#ffffff" d="M 416.25 462.8125 C 420.265625 479.085938 413.90625 494.648438 402.054688 497.574219 C 390.199219 500.5 377.335938 489.675781 373.324219 473.402344 C 387.953125 477.074219 402.269531 473.769531 416.25 462.8125 Z M 416.25 462.8125 " fill-opacity="1" fill-rule="nonzero"/><path fill="#000000" d="M 309.304688 485.675781 C 308.902344 484.042969 308.5625 482.398438 308.289062 480.742188 C 308.011719 479.082031 307.796875 477.417969 307.648438 475.742188 C 307.5 474.070312 307.414062 472.390625 307.390625 470.710938 C 307.371094 469.027344 307.414062 467.351562 307.519531 465.671875 C 307.628906 463.996094 307.796875 462.324219 308.03125 460.660156 C 308.269531 458.996094 308.566406 457.339844 308.925781 455.699219 C 309.289062 454.058594 309.710938 452.433594 310.195312 450.824219 C 310.679688 449.214844 311.226562 447.625 311.832031 446.058594 C 312.4375 444.488281 313.105469 442.949219 313.828125 441.429688 C 314.554688 439.914062 315.332031 438.425781 316.171875 436.96875 C 317.007812 435.511719 317.902344 434.089844 318.847656 432.699219 C 319.796875 431.3125 320.792969 429.960938 321.84375 428.648438 C 322.894531 427.335938 323.992188 426.066406 325.136719 424.835938 C 326.285156 423.605469 327.476562 422.425781 328.714844 421.285156 C 329.949219 420.148438 331.230469 419.058594 332.550781 418.019531 C 333.871094 416.980469 335.230469 415.992188 336.625 415.054688 C 335.324219 416.546875 334.097656 418.097656 332.9375 419.699219 C 331.777344 421.300781 330.691406 422.953125 329.679688 424.652344 C 328.667969 426.355469 327.738281 428.097656 326.882812 429.882812 C 326.027344 431.667969 325.253906 433.484375 324.566406 435.339844 C 323.875 437.195312 323.269531 439.074219 322.746094 440.984375 C 322.226562 442.890625 321.789062 444.820312 321.441406 446.769531 C 321.09375 448.714844 320.835938 450.675781 320.664062 452.644531 C 320.492188 454.617188 320.40625 456.589844 320.414062 458.570312 C 320.417969 460.550781 320.511719 462.523438 320.695312 464.492188 C 320.878906 466.464844 321.152344 468.421875 321.511719 470.367188 C 321.871094 472.3125 322.316406 474.238281 322.847656 476.144531 C 323.382812 478.050781 324 479.925781 324.699219 481.777344 C 325.402344 483.625 326.183594 485.441406 327.046875 487.222656 C 327.914062 489 328.855469 490.738281 329.878906 492.433594 C 330.898438 494.125 331.992188 495.773438 333.160156 497.367188 C 334.332031 498.964844 335.570312 500.503906 336.875 501.988281 C 338.183594 503.472656 339.554688 504.898438 340.992188 506.257812 C 342.425781 507.621094 343.917969 508.914062 345.472656 510.140625 C 347.023438 511.367188 348.628906 512.523438 350.28125 513.605469 C 351.9375 514.6875 353.640625 515.695312 355.386719 516.625 C 357.132812 517.554688 358.917969 518.402344 360.738281 519.171875 C 362.5625 519.941406 364.414062 520.625 366.300781 521.230469 C 368.183594 521.832031 370.089844 522.347656 372.019531 522.777344 C 373.953125 523.207031 375.898438 523.550781 377.859375 523.808594 C 379.820312 524.0625 381.789062 524.230469 383.765625 524.308594 C 385.742188 524.386719 387.71875 524.375 389.695312 524.277344 C 391.671875 524.175781 393.636719 523.988281 395.597656 523.710938 C 397.554688 523.4375 399.496094 523.070312 401.421875 522.621094 C 403.347656 522.167969 405.25 521.632812 407.128906 521.011719 C 409.007812 520.386719 410.851562 519.683594 412.667969 518.894531 C 414.480469 518.105469 416.257812 517.238281 417.992188 516.289062 C 419.726562 515.339844 421.417969 514.316406 423.0625 513.214844 C 421.089844 515.484375 418.972656 517.605469 416.707031 519.582031 C 414.445312 521.558594 412.058594 523.371094 409.546875 525.019531 C 407.035156 526.671875 404.425781 528.144531 401.714844 529.4375 C 399 530.730469 396.214844 531.832031 393.351562 532.746094 C 390.488281 533.65625 387.578125 534.371094 384.617188 534.882812 C 381.65625 535.398438 378.675781 535.707031 375.671875 535.816406 C 372.671875 535.921875 369.675781 535.824219 366.683594 535.519531 C 363.695312 535.21875 360.742188 534.710938 357.820312 534.003906 C 354.902344 533.296875 352.042969 532.394531 349.246094 531.296875 C 346.449219 530.199219 343.742188 528.917969 341.117188 527.449219 C 338.496094 525.980469 335.988281 524.339844 333.589844 522.53125 C 331.191406 520.71875 328.929688 518.753906 326.800781 516.632812 C 324.671875 514.511719 322.699219 512.257812 320.878906 509.867188 C 319.054688 507.476562 317.40625 504.972656 315.929688 502.355469 C 314.449219 499.738281 313.15625 497.035156 312.046875 494.242188 C 310.9375 491.449219 310.023438 488.59375 309.304688 485.675781 Z M 309.304688 485.675781 " fill-opacity="0.2" fill-rule="nonzero"/><path fill="#f2f2f2" d="M 671.667969 80.34375 C 671.667969 81.617188 671.605469 82.886719 671.480469 84.152344 C 671.355469 85.417969 671.167969 86.675781 670.921875 87.921875 C 670.671875 89.167969 670.363281 90.402344 669.996094 91.617188 C 669.625 92.835938 669.199219 94.03125 668.710938 95.207031 C 668.226562 96.382812 667.683594 97.53125 667.082031 98.652344 C 666.484375 99.773438 665.832031 100.863281 665.125 101.921875 C 664.417969 102.980469 663.660156 104 662.855469 104.984375 C 662.046875 105.964844 661.195312 106.90625 660.296875 107.808594 C 659.394531 108.707031 658.453125 109.558594 657.472656 110.367188 C 656.488281 111.171875 655.46875 111.929688 654.410156 112.636719 C 653.355469 113.34375 652.265625 113.996094 651.144531 114.597656 C 650.023438 115.195312 648.875 115.738281 647.699219 116.226562 C 646.523438 116.710938 645.328125 117.140625 644.109375 117.507812 C 642.894531 117.878906 641.664062 118.1875 640.414062 118.433594 C 639.167969 118.683594 637.910156 118.871094 636.644531 118.996094 C 635.378906 119.121094 634.113281 119.179688 632.839844 119.179688 C 631.570312 119.179688 630.300781 119.121094 629.035156 118.996094 C 627.769531 118.871094 626.511719 118.683594 625.265625 118.433594 C 624.019531 118.1875 622.785156 117.878906 621.570312 117.507812 C 620.351562 117.140625 619.15625 116.710938 617.980469 116.226562 C 616.808594 115.738281 615.660156 115.195312 614.539062 114.597656 C 613.414062 113.996094 612.328125 113.34375 611.269531 112.636719 C 610.210938 111.929688 609.191406 111.171875 608.207031 110.367188 C 607.226562 109.558594 606.285156 108.707031 605.386719 107.808594 C 604.484375 106.90625 603.632812 105.964844 602.828125 104.984375 C 602.019531 104 601.261719 102.980469 600.558594 101.921875 C 599.851562 100.863281 599.195312 99.773438 598.597656 98.652344 C 598 97.53125 597.457031 96.382812 596.96875 95.207031 C 596.480469 94.03125 596.054688 92.835938 595.683594 91.617188 C 595.316406 90.402344 595.007812 89.167969 594.757812 87.921875 C 594.511719 86.675781 594.324219 85.417969 594.199219 84.152344 C 594.074219 82.886719 594.011719 81.617188 594.011719 80.34375 C 594.011719 79.074219 594.074219 77.804688 594.199219 76.539062 C 594.324219 75.273438 594.511719 74.015625 594.757812 72.769531 C 595.007812 71.519531 595.316406 70.289062 595.683594 69.070312 C 596.054688 67.855469 596.480469 66.660156 596.96875 65.484375 C 597.457031 64.308594 598 63.160156 598.597656 62.039062 C 599.195312 60.917969 599.851562 59.828125 600.558594 58.769531 C 601.261719 57.710938 602.019531 56.691406 602.828125 55.707031 C 603.632812 54.726562 604.484375 53.785156 605.386719 52.882812 C 606.285156 51.984375 607.226562 51.132812 608.207031 50.324219 C 609.191406 49.519531 610.210938 48.761719 611.269531 48.054688 C 612.328125 47.347656 613.414062 46.695312 614.539062 46.09375 C 615.660156 45.496094 616.808594 44.953125 617.980469 44.464844 C 619.15625 43.980469 620.351562 43.550781 621.570312 43.179688 C 622.785156 42.8125 624.019531 42.503906 625.265625 42.253906 C 626.511719 42.007812 627.769531 41.820312 629.035156 41.695312 C 630.300781 41.570312 631.570312 41.507812 632.839844 41.507812 C 634.113281 41.507812 635.378906 41.570312 636.644531 41.695312 C 637.910156 41.820312 639.167969 42.007812 640.414062 42.253906 C 641.664062 42.503906 642.894531 42.8125 644.109375 43.179688 C 645.328125 43.550781 646.523438 43.980469 647.699219 44.464844 C 648.875 44.953125 650.023438 45.496094 651.144531 46.09375 C 652.265625 46.695312 653.355469 47.347656 654.410156 48.054688 C 655.46875 48.761719 656.488281 49.519531 657.472656 50.324219 C 658.453125 51.132812 659.394531 51.984375 660.296875 52.882812 C 661.195312 53.785156 662.046875 54.726562 662.855469 55.707031 C 663.660156 56.691406 664.417969 57.710938 665.125 58.769531 C 665.832031 59.828125 666.484375 60.917969 667.082031 62.039062 C 667.683594 63.160156 668.226562 64.308594 668.710938 65.484375 C 669.199219 66.660156 669.625 67.855469 669.996094 69.070312 C 670.363281 70.289062 670.671875 71.519531 670.921875 72.769531 C 671.167969 74.015625 671.355469 75.273438 671.480469 76.539062 C 671.605469 77.804688 671.667969 79.074219 671.667969 80.34375 Z M 671.667969 80.34375 " fill-opacity="1" fill-rule="nonzero"/><path fill="#ffffff" d="M 637.757812 64.15625 C 637.71875 65.027344 637.785156 65.890625 637.957031 66.746094 C 637.996094 67.207031 638.101562 67.660156 638.265625 68.09375 C 638.433594 68.53125 638.652344 68.933594 638.933594 69.308594 C 639.210938 69.683594 639.53125 70.015625 639.902344 70.296875 C 640.269531 70.582031 640.671875 70.8125 641.105469 70.988281 C 641.257812 71.023438 641.410156 71.046875 641.566406 71.054688 C 643.273438 71.128906 644.8125 69.484375 645.539062 67.082031 C 645.785156 66.242188 645.925781 65.390625 645.964844 64.519531 C 646.003906 63.65625 645.941406 62.800781 645.769531 61.957031 C 645.265625 59.484375 643.875 57.695312 642.160156 57.621094 C 639.890625 57.519531 637.921875 60.449219 637.757812 64.15625 Z M 637.757812 64.15625 " fill-opacity="1" fill-rule="nonzero"/><path fill="#f2f2f2" d="M 639.949219 67.316406 C 639.886719 68.683594 640.269531 69.90625 641.105469 70.988281 C 641.257812 71.023438 641.410156 71.046875 641.566406 71.054688 C 643.273438 71.128906 644.8125 69.484375 645.539062 67.082031 C 645.785156 66.242188 645.925781 65.390625 645.964844 64.519531 C 646.003906 63.65625 645.941406 62.800781 645.769531 61.957031 C 645.402344 61.941406 645.039062 61.960938 644.675781 62.019531 C 644.3125 62.078125 643.960938 62.167969 643.613281 62.296875 C 643.269531 62.421875 642.941406 62.582031 642.628906 62.773438 C 642.316406 62.964844 642.023438 63.1875 641.753906 63.433594 C 641.484375 63.683594 641.238281 63.957031 641.023438 64.253906 C 640.804688 64.550781 640.621094 64.863281 640.464844 65.199219 C 640.3125 65.53125 640.191406 65.875 640.101562 66.230469 C 640.015625 66.589844 639.964844 66.949219 639.949219 67.316406 Z M 639.949219 67.316406 " fill-opacity="1" fill-rule="nonzero"/><path fill="#ffffff" d="M 620.765625 63.402344 C 620.609375 66.960938 622.171875 69.949219 624.304688 70.273438 C 624.394531 70.289062 624.484375 70.296875 624.574219 70.300781 C 626.835938 70.402344 628.804688 67.472656 628.96875 63.765625 C 629.011719 62.90625 628.945312 62.050781 628.777344 61.207031 C 628.273438 58.734375 626.882812 56.945312 625.167969 56.867188 C 622.898438 56.765625 620.929688 59.695312 620.765625 63.402344 Z M 620.765625 63.402344 " fill-opacity="1" fill-rule="nonzero"/><path fill="#f2f2f2" d="M 623.125 66.574219 C 623.058594 67.953125 623.453125 69.183594 624.304688 70.273438 C 624.394531 70.289062 624.484375 70.296875 624.574219 70.300781 C 626.835938 70.402344 628.804688 67.472656 628.96875 63.765625 C 629.011719 62.90625 628.945312 62.050781 628.777344 61.207031 C 628.417969 61.203125 628.058594 61.234375 627.707031 61.300781 C 627.351562 61.367188 627.007812 61.464844 626.671875 61.597656 C 626.335938 61.730469 626.019531 61.894531 625.714844 62.085938 C 625.410156 62.28125 625.128906 62.5 624.867188 62.75 C 624.605469 62.996094 624.371094 63.265625 624.160156 63.558594 C 623.953125 63.851562 623.773438 64.164062 623.625 64.492188 C 623.472656 64.820312 623.359375 65.15625 623.273438 65.507812 C 623.191406 65.859375 623.140625 66.210938 623.125 66.574219 Z M 623.125 66.574219 " fill-opacity="1" fill-rule="nonzero"/><path fill="#ffffff" d="M 648.9375 83.554688 C 648.5 93.414062 642.324219 101.148438 635.144531 100.828125 C 627.964844 100.511719 622.496094 92.261719 622.933594 82.402344 C 624.894531 83.535156 626.964844 84.417969 629.136719 85.050781 C 631.3125 85.6875 633.53125 86.054688 635.792969 86.152344 C 638.058594 86.253906 640.300781 86.085938 642.519531 85.644531 C 644.742188 85.207031 646.882812 84.507812 648.9375 83.554688 Z M 648.9375 83.554688 " fill-opacity="1" fill-rule="nonzero"/><path fill="#f2f2f2" d="M 876.699219 482.078125 C 876.699219 483.351562 876.640625 484.621094 876.515625 485.886719 C 876.390625 487.152344 876.203125 488.410156 875.953125 489.65625 C 875.707031 490.902344 875.398438 492.136719 875.027344 493.351562 C 874.660156 494.570312 874.230469 495.765625 873.746094 496.941406 C 873.257812 498.117188 872.714844 499.265625 872.117188 500.386719 C 871.515625 501.507812 870.863281 502.597656 870.15625 503.65625 C 869.449219 504.714844 868.695312 505.734375 867.886719 506.71875 C 867.082031 507.699219 866.226562 508.640625 865.328125 509.539062 C 864.429688 510.441406 863.488281 511.292969 862.503906 512.101562 C 861.523438 512.90625 860.503906 513.664062 859.445312 514.371094 C 858.386719 515.078125 857.296875 515.730469 856.175781 516.332031 C 855.054688 516.929688 853.90625 517.472656 852.730469 517.960938 C 851.558594 518.445312 850.363281 518.875 849.144531 519.242188 C 847.929688 519.613281 846.695312 519.921875 845.449219 520.167969 C 844.203125 520.417969 842.945312 520.605469 841.679688 520.730469 C 840.414062 520.855469 839.144531 520.914062 837.875 520.914062 C 836.601562 520.914062 835.332031 520.855469 834.066406 520.730469 C 832.800781 520.605469 831.546875 520.417969 830.300781 520.167969 C 829.050781 519.921875 827.820312 519.613281 826.601562 519.242188 C 825.386719 518.875 824.191406 518.445312 823.015625 517.960938 C 821.839844 517.472656 820.691406 516.929688 819.570312 516.332031 C 818.449219 515.730469 817.359375 515.078125 816.300781 514.371094 C 815.246094 513.664062 814.226562 512.90625 813.242188 512.101562 C 812.257812 511.292969 811.316406 510.441406 810.417969 509.542969 C 809.519531 508.640625 808.667969 507.699219 807.859375 506.71875 C 807.054688 505.734375 806.296875 504.714844 805.589844 503.65625 C 804.882812 502.597656 804.230469 501.507812 803.632812 500.386719 C 803.03125 499.265625 802.488281 498.117188 802.003906 496.941406 C 801.515625 495.765625 801.085938 494.570312 800.71875 493.351562 C 800.347656 492.136719 800.039062 490.902344 799.792969 489.65625 C 799.542969 488.410156 799.359375 487.152344 799.234375 485.886719 C 799.109375 484.621094 799.046875 483.351562 799.046875 482.078125 C 799.046875 480.808594 799.109375 479.539062 799.234375 478.273438 C 799.359375 477.007812 799.542969 475.75 799.792969 474.503906 C 800.039062 473.253906 800.347656 472.023438 800.71875 470.804688 C 801.085938 469.589844 801.515625 468.394531 802.003906 467.21875 C 802.488281 466.042969 803.03125 464.894531 803.632812 463.773438 C 804.230469 462.652344 804.882812 461.5625 805.589844 460.503906 C 806.296875 459.445312 807.054688 458.425781 807.859375 457.441406 C 808.667969 456.460938 809.519531 455.519531 810.417969 454.617188 C 811.316406 453.71875 812.257812 452.867188 813.242188 452.058594 C 814.226562 451.253906 815.246094 450.496094 816.300781 449.789062 C 817.359375 449.082031 818.449219 448.429688 819.570312 447.828125 C 820.691406 447.230469 821.839844 446.6875 823.015625 446.199219 C 824.191406 445.714844 825.386719 445.285156 826.601562 444.914062 C 827.820312 444.546875 829.050781 444.238281 830.300781 443.988281 C 831.546875 443.742188 832.800781 443.554688 834.066406 443.429688 C 835.332031 443.304688 836.601562 443.242188 837.875 443.242188 C 839.144531 443.242188 840.414062 443.304688 841.679688 443.429688 C 842.945312 443.554688 844.203125 443.742188 845.449219 443.988281 C 846.695312 444.238281 847.929688 444.546875 849.144531 444.914062 C 850.363281 445.285156 851.558594 445.714844 852.730469 446.199219 C 853.90625 446.6875 855.054688 447.230469 856.175781 447.828125 C 857.296875 448.429688 858.386719 449.082031 859.445312 449.789062 C 860.503906 450.496094 861.523438 451.253906 862.503906 452.058594 C 863.488281 452.867188 864.429688 453.71875 865.328125 454.617188 C 866.226562 455.519531 867.082031 456.460938 867.886719 457.441406 C 868.695312 458.425781 869.449219 459.445312 870.15625 460.503906 C 870.863281 461.5625 871.515625 462.652344 872.117188 463.773438 C 872.714844 464.894531 873.257812 466.042969 873.746094 467.21875 C 874.230469 468.394531 874.660156 469.589844 875.027344 470.804688 C 875.398438 472.023438 875.707031 473.253906 875.953125 474.503906 C 876.203125 475.75 876.390625 477.007812 876.515625 478.273438 C 876.640625 479.539062 876.699219 480.808594 876.699219 482.078125 Z M 876.699219 482.078125 " fill-opacity="1" fill-rule="nonzero"/><g clip-path="url(#70d3cdf796)"><path fill="#ffffff" d="M 544.21875 0 L 787.21875 0 L 787.21875 243 L 544.21875 243 Z M 544.21875 0 " fill-opacity="1" fill-rule="nonzero"/></g><g clip-path="url(#c0a63416dd)"><path fill="#ffffff" d="M 705.5625 333.46875 L 948.5625 333.46875 L 948.5625 576.46875 L 705.5625 576.46875 Z M 705.5625 333.46875 " fill-opacity="1" fill-rule="nonzero"/></g></svg>