<svg width="552" height="336" viewBox="0 0 552 336" fill="none" xmlns="http://www.w3.org/2000/svg">
<g clip-path="url(#clip0_198_1885)">
<path d="M436.626 228.774H422.192L422.14 228.721C419.574 225.993 418.419 222.153 419.057 218.463C419.259 217.268 419.642 216.11 420.197 215.02L424.586 206.415L422.845 175.593C422.815 175.022 423.01 174.481 423.4 174.06C423.79 173.647 424.323 173.414 424.893 173.414H427.594C428.704 173.414 429.604 174.285 429.649 175.39L430.827 205.851L436.904 215.366C437.422 216.178 437.842 217.042 438.142 217.936C439.335 221.401 438.899 225.167 436.941 228.263L436.619 228.767H436.626V228.774Z" fill="#3F3D56"/>
<path d="M435.381 226.639C435.246 226.857 435.006 226.985 434.75 226.985H423.767C423.557 226.985 423.347 226.895 423.212 226.737C421.359 224.625 420.542 221.852 420.864 219.154C420.902 218.861 421.119 218.613 421.404 218.537C423.7 217.929 426.468 217.583 429.446 217.583C431.78 217.583 433.978 217.801 435.928 218.184C436.198 218.237 436.416 218.432 436.491 218.695C437.271 221.341 436.903 224.242 435.388 226.639H435.381Z" fill="#AFD06E"/>
<path d="M551.25 235.29H0.750204C0.337592 235.29 0 234.952 0 234.538C0 234.125 0.337592 233.787 0.750204 233.787H551.25C551.662 233.787 552 234.125 552 234.538C552 234.952 551.662 235.29 551.25 235.29Z" fill="#3F3D56"/>
<path d="M161.631 95.6937C153.567 93.2737 148.27 87.1409 149.808 82.0002C151.346 76.8594 159.133 74.6498 167.198 77.0699C170.431 77.9943 173.402 79.6778 175.855 81.9851L209.907 92.6649L204.566 108.568L171.564 96.3476C168.248 96.9263 164.842 96.7008 161.631 95.6862L161.631 95.6937Z" fill="#A0616A"/>
<path d="M312.685 99.8725L313.098 127.959C313.098 127.959 277.853 127.493 265.52 128.462C253.187 129.439 176.328 101.255 176.328 101.255L189.097 83.1201L273.885 103.623L312.685 99.865V99.8725Z" fill="#E6E6E6"/>
<path d="M164.144 61.6777H158.893V133.077H164.144V61.6777Z" fill="#AFD06E"/>
<path d="M183.102 234.538H152.726L152.614 234.418C147.212 228.668 144.782 220.597 146.117 212.825C146.545 210.315 147.347 207.88 148.518 205.588L157.76 187.483L154.092 122.622C154.024 121.42 154.444 120.277 155.27 119.406C156.095 118.534 157.213 118.053 158.413 118.053H164.092C166.425 118.053 168.331 119.879 168.421 122.216L170.889 186.325L183.687 206.347C184.783 208.06 185.66 209.879 186.298 211.758C188.804 219.048 187.888 226.97 183.777 233.486L183.102 234.546L183.102 234.538Z" fill="#3F3D56"/>
<path d="M180.491 230.052C180.206 230.503 179.704 230.781 179.164 230.781H156.042C155.6 230.781 155.165 230.593 154.872 230.262C150.971 225.813 149.253 219.988 149.928 214.306C150.003 213.683 150.461 213.172 151.068 213.014C155.892 211.736 161.721 211 167.993 211C172.899 211 177.536 211.458 181.632 212.262C182.194 212.375 182.66 212.781 182.817 213.329C184.453 218.891 183.68 225.001 180.491 230.052Z" fill="#AFD06E"/>
<path d="M290.179 60.1745L294.68 90.9888L258.67 94.7467L260.921 54.9136L290.179 60.1745Z" fill="#A0616A"/>
<path d="M255.947 69.3513C269.359 69.3513 280.231 58.4592 280.231 45.0231C280.231 31.5869 269.359 20.6948 255.947 20.6948C242.535 20.6948 231.663 31.5869 231.663 45.0231C231.663 58.4592 242.535 69.3513 255.947 69.3513Z" fill="#A0616A"/>
<path d="M180.281 155.406C173.409 149.228 164.572 147.838 160.536 152.302C156.5 156.766 158.795 165.394 165.667 171.572C168.376 174.082 171.661 175.886 175.255 176.841L204.7 202.642L216.846 188.28L186.531 164.372C185.21 160.908 183.065 157.834 180.281 155.406Z" fill="#A0616A"/>
<path d="M260.921 87.2312L297.681 81.9702L319.437 98.5047L321.687 189.444L342.693 334.497L203.155 336C203.155 336 213.658 242.054 218.91 236.793C224.161 231.532 227.912 207.482 227.912 207.482L238.415 103.766L260.921 87.2312Z" fill="#E6E6E6"/>
<path d="M247.042 103.39C247.042 103.39 227.537 101.887 223.036 115.415C218.535 128.943 213.283 173.286 213.283 173.286L201.28 174.789L190.777 163.515L179.524 190.572C179.524 190.572 219.285 234.163 234.289 214.622C249.293 195.081 247.042 103.39 247.042 103.39Z" fill="#E6E6E6"/>
<path d="M297.306 57.5818C297.306 57.5818 297.306 33.4941 299.556 25.9784C301.807 18.4627 289.053 10.1955 285.302 2.67982C281.551 -4.83585 258.295 5.68609 248.542 7.18923C238.79 8.69236 239.54 14.7049 233.538 24.4753C227.537 34.2457 239.54 49.277 248.542 50.7801C257.545 52.2833 254.544 59.0474 260.718 66.5631C266.892 74.0787 286.623 66.5631 286.623 66.5631L289.053 70.3209C289.053 70.3209 283.802 91.3648 293.555 109.402L319.062 116.167C311.559 93.6195 319.812 93.6195 324.515 81.9702C329.219 70.3209 297.306 57.5818 297.306 57.5818Z" fill="#2F2E41"/>
<path d="M475.712 228.015H462.343V205.558H475.712C477.235 205.558 478.458 204.318 478.458 202.792C478.458 201.267 477.227 200.049 475.712 200.042H382.506C380.984 200.042 379.761 201.282 379.761 202.807C379.761 204.333 380.991 205.55 382.506 205.558H393.91V228.015H382.506C380.984 228.015 379.761 229.255 379.761 230.781C379.761 232.306 380.991 233.524 382.506 233.531H475.712C477.235 233.531 478.458 232.291 478.458 230.766C478.458 229.24 477.227 228.022 475.712 228.015ZM399.416 228.015L405.703 211.24L456.829 205.558V228.015H399.416Z" fill="#F2F2F2"/>
</g>
<defs>
<clipPath id="clip0_198_1885">
<rect width="552" height="336" fill="white"/>
</clipPath>
</defs>
</svg>
