<svg width="765" height="429" viewBox="0 0 765 429" fill="none" xmlns="http://www.w3.org/2000/svg">
<g clip-path="url(#clip0_204_18)">
<path d="M627.879 381.76H463.33V349.658C463.321 337.519 467.888 325.873 476.028 317.273C484.168 308.674 495.216 303.824 506.749 303.788H627.879V381.76Z" fill="#F2F2F2"/>
<path d="M511.298 258.411H495.511V319.766H511.298V258.411Z" fill="#F2F2F2"/>
<path d="M627.879 258.411H612.092V319.766H627.879V258.411Z" fill="#F2F2F2"/>
<path d="M616.95 263.524H508.869V264.802H616.95V263.524Z" fill="#F2F2F2"/>
<path d="M616.95 283.976H508.869V285.254H616.95V283.976Z" fill="#F2F2F2"/>
<path d="M616.95 294.201H508.869V295.479H616.95V294.201Z" fill="#F2F2F2"/>
<path d="M612.367 378.499C612.265 379.34 612.241 380.189 612.295 381.034H654.868C655.255 380.213 655.591 379.366 655.872 378.499C661.077 362.757 652.516 336.555 663.371 297.706C671.43 268.878 686.472 246.329 693.484 235.825C702.101 222.905 711.866 210.982 723.18 191.934C725.632 187.814 728.156 183.346 730.766 178.471C731.64 176.841 741.721 157.93 740.803 157.341C740.373 157.069 737.706 160.888 736.802 162.171C728.83 173.521 724.198 178.486 717.559 186.652C713.53 191.602 708.769 197.715 702.087 207.148C684.952 231.312 676.391 243.386 673.409 252.427C669.833 263.304 665.521 273.896 660.503 284.122C656.46 292.393 654.438 296.529 653.334 296.197C650.208 295.246 654.424 261 667.673 226.769C669.939 220.943 671.631 217.215 674.843 210.167C680.062 198.666 709.128 134.747 730.493 96.4861C733.175 91.6714 735.741 87.2793 738.107 83.4306C738.566 82.7062 739.011 81.9968 739.441 81.3177C741.76 77.5101 744.374 73.9108 747.256 70.5564C748.417 69.2885 751.371 65.6964 757.293 58.482C759.645 55.6143 761.366 53.4862 762.527 51.9316C762.699 51.7052 762.857 51.4788 762.986 51.2826C764.391 49.3508 764.793 48.4149 764.463 47.9169C763.99 47.2075 762.169 47.615 760.175 48.3546C759.96 48.43 759.731 48.5206 759.516 48.6111C757.35 49.4563 755.157 50.5582 754.425 50.9355C747.715 54.3314 741.162 60.4139 735.096 67.6435C732.845 70.3149 730.68 73.1373 728.586 76.0352C722.304 84.925 716.603 94.2539 711.522 103.957C706.073 114.281 702.804 121.873 702.804 121.873C687.59 157.235 670.713 197.685 669.824 197.338C668.849 196.96 687.561 146.61 693.01 119.261C694.831 110.1 695.161 103.519 692.767 102.252C692.68 102.202 692.588 102.162 692.494 102.131C692.203 102.031 691.896 101.995 691.591 102.025C690.069 101.859 688.531 101.935 687.031 102.252C684.12 102.916 680.808 111.443 677.581 123.412C669.193 154.262 661.22 207.903 661.22 207.903C653.248 261.558 641.145 304.981 638.278 304.498C636.686 304.226 638.966 290.748 636.844 268.275C635.352 252.518 633.66 253.001 628.24 224.505C619.637 179.301 615.335 156.662 615.335 156.586C615.446 154.966 615.407 153.339 615.22 151.726C614.933 149.568 614.202 147.304 612.467 146.021C609.828 144.059 605.584 144.904 603.863 146.021C602.487 146.927 601.784 148.587 601.626 150.972C600.68 165.974 621.156 209.472 628.24 268.275C631.768 297.57 633.703 313.554 628.24 334.684C622.834 355.633 613.413 368.975 612.367 378.499Z" fill="#F2F2F2"/>
<path d="M517.919 0.374012C534.421 -1.87879 554.918 6.40927 556.138 15.467C557.144 22.9231 544.93 29.7306 546.081 30.56C547.157 31.3352 554.725 23.1545 564.185 23.0135C578.479 22.8005 595.636 40.9655 590.335 51.6902C586.08 60.2993 567.847 63.1153 568.208 63.7646C568.548 64.377 582.44 57.6956 596.369 59.2367C616.313 61.4432 635.411 80.4038 630.566 92.4413C625.152 105.892 590.102 110.057 590.335 110.553C590.581 111.077 625.611 97.621 638.612 106.025C647.332 111.662 646.081 124.802 640.623 133.192C629.232 150.706 593.694 156.912 576.254 148.285C562.693 141.578 568.403 116.041 554.715 94.8727C537.906 68.8773 512.106 75.5392 511.884 56.2182C511.864 54.4611 511.799 48.804 515.908 47.1623C522.468 44.5405 535.131 53.9756 536.023 53.1995C536.988 52.3601 520.039 43.1723 509.873 27.5414C506.675 22.625 499.401 11.4395 505.85 4.90195C509.133 1.57344 514.617 0.824784 517.919 0.374012Z" fill="#F2F2F2"/>
<path d="M136.692 303.788H257.823C269.355 303.824 280.403 308.674 288.543 317.273C296.683 325.873 301.25 337.519 301.242 349.658V381.76H136.692V303.788Z" fill="#F2F2F2"/>
<path d="M253.274 319.766H269.061V258.411H253.274V319.766Z" fill="#F2F2F2"/>
<path d="M136.692 319.766H152.479V258.411H136.692V319.766Z" fill="#F2F2F2"/>
<path d="M147.622 264.802H255.702V263.524H147.622V264.802Z" fill="#F2F2F2"/>
<path d="M147.622 285.254H255.702V283.976H147.622V285.254Z" fill="#F2F2F2"/>
<path d="M147.622 295.479H255.702V294.201H147.622V295.479Z" fill="#F2F2F2"/>
<path d="M152.205 378.499C152.306 379.34 152.33 380.189 152.277 381.034H109.703C109.316 380.213 108.981 379.366 108.7 378.499C103.494 362.757 112.055 336.555 101.2 297.706C93.1415 268.878 78.0997 246.329 71.0878 235.825C62.4699 222.905 52.7049 210.982 41.3912 191.934C38.9393 187.814 36.4155 183.346 33.8058 178.471C32.9311 176.841 22.8506 157.93 23.7683 157.341C24.1985 157.069 26.8656 160.888 27.7689 162.171C35.7416 173.521 40.3732 178.486 47.0122 186.652C51.0416 191.602 55.8022 197.715 62.4843 207.148C79.6197 231.312 88.1801 243.386 91.1627 252.427C94.7379 263.304 99.0508 273.896 104.068 284.122C108.112 292.393 110.133 296.529 111.238 296.197C114.364 295.246 110.148 261 96.8984 226.769C94.6328 220.943 92.9408 217.215 89.7288 210.167C84.5093 198.666 55.4437 134.747 34.0782 96.4862C31.3968 91.6715 28.8301 87.2794 26.4641 83.4307C26.0052 82.7062 25.5607 81.9968 25.1306 81.3177C22.8116 77.5102 20.1978 73.9108 17.3157 70.5564C16.1542 69.2886 13.2003 65.6965 7.27821 58.482C4.92655 55.6143 3.20582 53.4862 2.04435 51.9316C1.87232 51.7053 1.71457 51.4788 1.58557 51.2826C0.180274 49.3508 -0.221177 48.4149 0.108602 47.9169C0.581814 47.2075 2.40284 47.615 4.39602 48.3546C4.61114 48.43 4.84055 48.5206 5.05565 48.6111C7.22089 49.4563 9.41475 50.5582 10.1461 50.9355C16.8568 54.3314 23.4099 60.4139 29.4753 67.6435C31.7266 70.3149 33.8918 73.1373 35.9854 76.0352C42.2675 84.925 47.9685 94.2539 53.0491 103.957C58.4979 114.281 61.7673 121.873 61.7673 121.873C76.9812 157.236 93.8585 197.685 94.7476 197.338C95.7226 196.96 77.0099 146.61 71.561 119.261C69.7399 110.1 69.4102 103.519 71.8048 102.252C71.8918 102.202 71.983 102.162 72.0772 102.131C72.3682 102.031 72.6758 101.995 72.9806 102.025C74.5027 101.859 76.04 101.935 77.5405 102.252C80.4514 102.916 83.7637 111.443 86.9901 123.412C95.3785 154.262 103.351 207.903 103.351 207.903C111.324 261.558 123.426 304.981 126.294 304.498C127.886 304.226 125.606 290.748 127.728 268.275C129.219 252.518 130.911 253.001 136.331 224.505C144.935 179.301 149.237 156.662 149.237 156.587C149.126 154.966 149.164 153.339 149.351 151.727C149.638 149.568 150.369 147.304 152.104 146.021C154.743 144.059 158.987 144.905 160.708 146.021C162.085 146.927 162.787 148.587 162.945 150.972C163.891 165.974 143.415 209.472 136.331 268.275C132.804 297.57 130.868 313.554 136.331 334.684C141.737 355.633 151.158 368.975 152.205 378.499Z" fill="#F2F2F2"/>
<path d="M692.937 381.162C692.938 381.255 692.921 381.348 692.887 381.435C692.853 381.522 692.804 381.6 692.741 381.666C692.678 381.733 692.603 381.785 692.521 381.82C692.439 381.856 692.35 381.874 692.262 381.873H70.7119V380.451H692.262C692.35 380.451 692.438 380.469 692.52 380.505C692.602 380.541 692.677 380.593 692.739 380.659C692.802 380.725 692.852 380.803 692.886 380.89C692.92 380.976 692.937 381.069 692.937 381.162Z" fill="#E6E6E6"/>
<path d="M393.383 70.6007C395.697 71.9692 399.431 66.5563 400.277 69.204C401.124 71.8517 399.074 82.535 398.017 85.0973C397.491 86.3708 396.748 87.5356 396.232 88.8136C395.641 90.0715 395.521 91.5174 395.896 92.8642C396.689 95.1318 399.307 96.0542 400.606 98.0472C402.117 100.368 401.507 103.495 400.8 106.209C400.279 108.576 399.462 110.858 398.369 112.998C397.257 115.152 395.42 116.792 393.219 117.595C390.406 118.475 387.4 117.43 384.688 116.249C382.047 115.193 379.556 113.761 377.285 111.992C375.004 110.206 373.311 107.714 372.442 104.864C371.47 101.283 372.282 97.3634 373.966 94.0871C375.773 90.8766 378.043 87.9811 380.695 85.5043C385 81.1627 389.576 77.1291 394.393 73.4305" fill="#2F2E41"/>
<path d="M358.974 254.367L363.797 301.75C363.797 301.75 352.543 326.287 364.601 355.901L365.405 372.824L379.07 371.132L375.855 356.748L383.09 298.365L388.717 256.059L358.974 254.367Z" fill="#FFB6B6"/>
<path d="M397.559 253.521C397.559 253.521 394.344 290.75 400.775 310.211C400.775 310.211 397.559 339.826 406.402 371.132V394.441L420.871 391.439L420.067 304.288L424.087 256.905L397.559 253.521Z" fill="#FFB6B6"/>
<path d="M399.615 108.614C397.631 111.231 394.842 113.038 391.728 113.723C388.614 114.408 385.371 113.929 382.557 112.367C374.28 107.776 362.98 102.514 360.983 106.719C359.036 110.879 357.941 115.423 357.768 120.057L354.552 198.946C354.552 198.946 352.944 230.799 373.041 227.987C393.138 225.176 424.488 237.022 424.488 237.022L416.852 153.678L415.244 120.68L408.009 117.295C408.009 117.295 407.205 111.372 404.794 111.372C402.382 111.372 401.8 105.683 399.679 108.527L399.615 108.614Z" fill="#AFD06E"/>
<path d="M357.366 197.677L343.7 257.752C343.7 257.752 376.659 278.058 391.932 258.598L394.344 249.29L395.952 259.444C395.952 259.444 419.264 273.828 425.695 264.52L424.489 237.021L409.617 205.292L357.366 197.677Z" fill="#2F2E41"/>
<path d="M364.931 362.854C364.931 362.854 359.777 366.901 361.385 371.978C362.993 377.055 375.051 396.515 385.501 393.977C395.951 391.439 391.128 385.516 391.128 385.516L379.07 366.901C379.07 366.901 374.247 367.747 371.835 369.44C369.424 371.132 364.931 362.854 364.931 362.854Z" fill="#2F2E41"/>
<path d="M406.402 387.209C406.402 387.209 397.559 396.516 402.382 400.746C407.206 404.977 440.164 408.362 439.36 403.285C438.556 398.208 421.675 383.824 421.675 383.824C421.675 383.824 416.852 382.132 415.244 386.362C413.637 390.593 406.402 387.209 406.402 387.209Z" fill="#2F2E41"/>
<path d="M410.421 294.981C404.761 298.573 404.203 300.268 400.774 301.75C399.039 302.5 395.79 303.531 389.52 302.596C380.882 301.308 375.555 297.635 360.581 289.058C349.901 282.94 344.68 280.265 337.269 278.904C331.716 277.885 328.489 278.256 326.015 278.904C317.384 281.166 312.673 288.172 311.545 289.904C307.645 295.89 307.152 301.736 306.722 306.827C306.181 313.239 305.398 322.505 309.937 329.672C315.625 338.653 323.547 334.673 337.269 343.21C352.435 352.646 349.899 361.951 362.189 366.901C377.915 373.236 395.036 363.223 395.951 362.671C412.233 352.842 415.564 335.006 424.087 336.441C429.178 337.298 429.685 343.951 437.752 345.748C439.262 346.085 445.474 347.469 449.81 343.21C452.475 340.593 452.392 346.451 451.016 342.787C449.249 338.082 445.685 328.9 443.379 323.749C442.148 320.998 443.536 320.148 442.575 312.749C442.106 309.136 441.869 307.311 440.968 305.134C438.734 299.74 434.395 296.954 431.321 294.981C427.582 292.58 423.905 290.219 419.263 290.75C416.607 291.054 414.545 292.363 410.421 294.981Z" fill="#3F3D56"/>
<path d="M312.349 315.288C310.923 316.517 310.584 319.01 309.938 323.749C309.34 328.133 309.704 330.823 309.938 335.595C310.289 342.757 309.735 342.09 309.938 351.671C310.105 359.554 310.188 363.495 310.742 366.901C311.737 373.025 312.268 370.672 317.173 386.362C318.168 389.545 318.96 392.247 321.192 393.131C323.988 394.238 327.21 391.765 327.623 391.439C328.301 390.904 330.689 389.02 330.838 386.362C331.028 382.987 327.399 382.132 324.407 377.055C322.539 373.884 322.09 370.71 321.192 364.363C320.338 358.326 319.911 355.308 321.192 352.517C323.53 347.424 328.879 345.846 329.231 345.748C332.432 344.858 333.466 346.119 337.269 345.748C340.827 345.401 346.687 343.639 347.72 340.671C350.549 332.536 319.162 309.414 312.349 315.288Z" fill="#3F3D56"/>
<path d="M325.211 303.442C323.785 304.672 323.446 307.164 322.8 311.903C322.202 316.288 322.566 318.977 322.8 323.749C323.151 330.911 322.597 330.245 322.8 339.825C322.966 347.708 323.05 351.65 323.604 355.055C324.599 361.18 325.13 358.827 330.034 374.516C331.03 377.699 331.822 380.402 334.054 381.285C336.85 382.392 340.072 379.919 340.485 379.593C341.162 379.058 343.551 377.175 343.7 374.516C343.89 371.142 340.261 370.287 337.269 365.209C335.401 362.038 334.952 358.865 334.054 352.517C333.2 346.481 332.773 343.462 334.054 340.671C336.392 335.579 341.74 334 342.092 333.902C345.293 333.012 346.328 334.273 350.131 333.902C353.689 333.556 359.549 331.793 360.581 328.826C363.411 320.69 332.023 297.568 325.211 303.442Z" fill="#3F3D56"/>
<path d="M349.327 344.902C348.422 346.355 347.384 350.101 345.308 357.594C344.382 360.935 338.387 382.92 336.465 389.747C335.895 392.23 334.796 394.545 333.25 396.516C331.611 398.499 330.735 398.437 330.034 399.9C328.211 403.707 331.769 409.078 332.446 410.054C333.233 411.189 336.89 416.463 342.092 415.976C342.636 415.926 346.151 415.597 346.916 413.438C348.087 410.129 341.199 407.024 341.288 401.592C341.341 398.384 343.783 397.055 346.916 393.131C353.636 384.712 350.769 380.339 355.758 373.67C363.22 363.696 377.088 363.514 379.07 363.517C384.205 363.525 391.351 363.536 395.951 368.593C402.365 375.645 399.714 387.981 402.382 406.669C402.793 409.235 403.33 411.777 403.99 414.284C405.929 421.851 407.477 423.805 408.009 424.438C409.441 426.261 411.33 427.625 413.462 428.373C415.594 429.121 417.883 429.223 420.067 428.668C421.956 428.218 423.678 427.808 424.891 426.13C425.495 425.298 425.887 424.316 426.028 423.279C426.168 422.242 426.054 421.184 425.694 420.207C424.727 417.923 422.733 418.294 420.067 415.976C418.186 414.341 417.206 412.066 415.244 407.515C413.907 404.522 412.831 401.406 412.029 398.208C410.817 393.302 410.669 389.512 410.421 382.131C410.212 375.914 410.313 370.745 410.421 365.209C410.547 358.764 410.718 356.658 410.421 352.517C410.109 348.172 409.806 343.942 408.813 341.518C403.474 328.477 361.111 325.984 349.327 344.902Z" fill="#3F3D56"/>
<path d="M315.565 287.366C312.129 285.366 311.638 280.685 310.741 272.136C310.088 265.907 309.7 262.198 311.545 257.751C313.21 253.824 316.027 250.561 319.584 248.444C320.535 247.894 326.78 244.408 333.25 246.752C334.153 247.079 336.543 248.949 341.288 252.675C346.951 257.121 347.781 257.969 348.523 259.444C350.508 263.389 350.297 268.721 348.523 269.597C347.176 270.263 344.847 268.396 343.7 267.059C342.328 265.461 342.535 264.493 341.288 262.828C340.301 261.509 339.371 261.049 336.465 259.444C329.267 255.468 328.902 254.941 327.623 255.213C324.433 255.892 322.913 259.973 322.799 260.29C321.826 263.01 322.494 265.484 323.603 269.597C324.27 271.905 325.076 274.166 326.015 276.366C328.11 281.641 328.662 282.037 328.427 283.135C327.653 286.738 320.103 290.008 315.565 287.366Z" fill="#3F3D56"/>
<path d="M420.598 237.431C420.472 242.265 422.74 246.252 425.663 246.335C428.586 246.419 431.056 242.568 431.181 237.732C431.256 235.801 430.891 233.879 430.116 232.127L430.402 211.638L421.264 211.701L421.952 231.894C421.087 233.599 420.623 235.498 420.598 237.431Z" fill="#FFB6B6"/>
<path d="M414.038 120.256C414.038 120.256 426.096 124.487 426.9 138.871C427.704 153.255 428.508 161.716 428.508 161.716L429.714 167.594C429.714 167.594 433.331 176.947 431.723 183.716C430.116 190.485 431.919 217.894 431.919 217.894L420.469 217.561L412.431 186.254L414.038 120.256Z" fill="#AFD06E"/>
<path d="M397.961 302.173C396.632 302.404 395.987 310.403 397.961 317.403C399.102 321.068 400.631 324.587 402.52 327.892C402.903 328.565 403.271 329.179 404.392 330.941C409.875 339.558 412.645 343.862 414.038 343.633C415.896 343.327 410.811 338.702 410.421 334.28C409.696 326.058 406.189 325.042 399.971 313.127C396.606 306.679 398.999 301.993 397.961 302.173Z" fill="#AFD06E"/>
<path d="M426.097 299.634C426.769 296.034 422.948 291.034 418.862 290.327C412.904 289.296 407.732 297.627 406 303.019C403.618 310.435 406.293 316.809 407.608 319.941C409.257 323.87 410.49 324.128 410.823 324.172C413.255 324.492 416.138 319.803 417.254 315.711C418.236 312.11 417.128 311.617 418.058 308.942C419.972 303.434 425.379 303.476 426.097 299.634Z" fill="#2F2E41"/>
<path d="M404.392 88.4337C404.392 91.9287 403.407 95.3451 401.563 98.251C399.718 101.157 397.096 103.422 394.029 104.759C390.961 106.097 387.585 106.447 384.329 105.765C381.072 105.083 378.081 103.4 375.733 100.929C373.385 98.4575 371.786 95.3089 371.139 91.8811C370.491 88.4534 370.823 84.9004 372.094 81.6715C373.364 78.4426 375.516 75.6829 378.277 73.7412C381.038 71.7995 384.284 70.7632 387.604 70.7632C392.056 70.7632 396.327 72.6249 399.475 75.9388C402.623 79.2526 404.392 83.7472 404.392 88.4337Z" fill="#FFB6B6"/>
<path d="M368.679 116.108C372.615 122.055 374.584 129.198 374.283 136.438C378.726 134.173 381.724 129.387 382.745 124.303C383.765 119.219 382.987 113.882 381.347 108.981C381.33 108.932 381.314 108.883 381.297 108.834C380.066 105.263 379.969 101.367 381.022 97.7333C382.075 94.0993 384.22 90.9234 387.135 88.6833C391.207 85.5969 394.692 81.7334 397.41 77.2935C398.935 74.7894 400.23 71.6481 399.092 68.9262C398.042 66.4181 395.331 65.2459 392.836 64.4615C387.14 62.6705 381.087 61.6514 375.24 62.7847C369.393 63.918 363.765 67.4572 361.001 72.998C358.238 78.5388 358.962 86.1006 363.447 90.2081C362.733 90.4511 362.118 90.9407 361.701 91.5977C361.285 92.2546 361.091 93.0404 361.152 93.8276C361.212 94.6149 361.524 95.3575 362.035 95.9352C362.547 96.5129 363.229 96.8919 363.971 97.0106C363.012 96.9748 362.446 98.3042 362.788 99.248C363.231 100.153 363.962 100.867 364.853 101.264C366.052 101.956 367.38 102.679 367.385 104.491C367.376 105.22 367.15 105.927 366.739 106.513C365.764 107.944 364.191 108.588 362.676 109.193C364.277 109.715 365.713 110.686 366.828 112.002C367.944 113.318 368.697 114.93 369.008 116.663" fill="#2F2E41"/>
<path d="M377.833 207.549L375.481 208.111L399.145 317.684L401.497 317.122L377.833 207.549Z" fill="#AFD06E"/>
<path d="M373.599 215.511C377.288 218.395 381.691 218.728 383.434 216.257C385.177 213.786 383.599 209.446 379.909 206.563C378.45 205.389 376.745 204.601 374.937 204.264L359.161 192.255L353.965 200.168L370.069 211.166C370.899 212.89 372.11 214.38 373.599 215.511Z" fill="#FFB6B6"/>
<path d="M363.661 117.718C363.661 117.718 350.935 118.141 348.523 127.448C343.639 145.888 341.47 165.007 342.092 184.138C342.092 184.138 338.073 201.907 348.523 201.061L362.993 207.83L372.639 194.292L364.601 184.138L363.661 117.718Z" fill="#AFD06E"/>
</g>
<defs>
<clipPath id="clip0_204_18">
<rect width="764.571" height="429" fill="white"/>
</clipPath>
</defs>
</svg>
